M48
INCH,TZ
T1C0.025
T2C0.032
T3C0.040
T4C0.050
T5C0.071
T6C0.100
%
G90
G05
T1
X018189Y-029528
X020394Y-029331
X025000Y-018740
X025551Y-018386
X026181Y-022559
X027200Y-030400
X027480Y-018976
X028248Y-028642
X028543Y-019488
X028740Y-018898
X029213Y-022244
X030157Y-021299
X030630Y-021299
X030669Y-019252
X031102Y-021299
X031181Y-019606
X032362Y-017756
X032402Y-023583
X032677Y-021654
X033307Y-021260
X033346Y-019843
X033858Y-029528
X034724Y-028307
X035039Y-022756
X035236Y-019488
X036200Y-029100
T2
X017323Y-029028
X017323Y-030028
X021260Y-029028
X021260Y-030028
X025197Y-029028
X025197Y-030028
X029134Y-029028
X029134Y-030028
X033071Y-029028
X033071Y-030028
X037008Y-029028
X037008Y-030028
T3
X015748Y-016929
X015748Y-022441
X022728Y-018685
X022728Y-019685
X022728Y-020685
X022728Y-028528
X022728Y-029528
X022728Y-030528
X023728Y-018685
X023728Y-019685
X023728Y-020685
X023728Y-028528
X023728Y-029528
X023728Y-030528
X025969Y-015445
X025969Y-016445
X026634Y-023622
X026969Y-015445
X026969Y-016445
X027634Y-023622
X027969Y-015445
X027969Y-016445
X028634Y-023622
X029634Y-023622
X030634Y-023622
X031634Y-023622
X035720Y-015748
X035720Y-018110
X035720Y-021260
X035720Y-027953
X035720Y-031102
X036720Y-015748
X036720Y-018110
X036720Y-021260
X036720Y-027953
X036720Y-031102
X042520Y-016929
X042520Y-022441
T4
X044319Y-018386
X044319Y-020984
T5
X016685Y-019685
X019685Y-018685
X019685Y-020685
X038583Y-018685
X038583Y-020685
X041583Y-019685
T6
X014370Y-015945
X014370Y-023425
X043898Y-015945
X043898Y-023425
T0
M30
