G04 #@! TF.FileFunction,Copper,L2,Bot,Signal*
%FSLAX46Y46*%
G04 Gerber Fmt 4.6, Leading zero omitted, Abs format (unit mm)*
G04 Created by KiCad (PCBNEW (2014-12-11 BZR 5320)-product) date Tue Feb  3 18:17:38 2015*
%MOMM*%
G01*
G04 APERTURE LIST*
%ADD10C,0.100000*%
%ADD11C,2.800000*%
%ADD12R,1.524000X1.524000*%
%ADD13C,1.524000*%
%ADD14R,1.300480X1.498600*%
%ADD15R,1.066800X1.422400*%
%ADD16C,1.676400*%
%ADD17R,1.498600X1.300480*%
%ADD18C,3.048000*%
%ADD19R,0.449580X1.998980*%
%ADD20R,1.998980X0.449580*%
%ADD21R,1.145000X0.550000*%
%ADD22R,0.550000X1.145000*%
%ADD23R,2.000000X1.200000*%
%ADD24C,1.000000*%
%ADD25C,1.905000*%
%ADD26R,1.000000X0.700000*%
%ADD27C,0.889000*%
%ADD28C,0.300000*%
%ADD29C,0.254000*%
G04 APERTURE END LIST*
D10*
D11*
X98000000Y-47460000D03*
X98000000Y-52540000D03*
X105620000Y-50000000D03*
X50000000Y-52540000D03*
X50000000Y-47460000D03*
X42380000Y-50000000D03*
D12*
X93270000Y-79000000D03*
D13*
X90730000Y-79000000D03*
D12*
X93270000Y-54000000D03*
D13*
X90730000Y-54000000D03*
D12*
X57730000Y-75000000D03*
D13*
X60270000Y-75000000D03*
D12*
X93270000Y-71000000D03*
D13*
X90730000Y-71000000D03*
D12*
X57730000Y-50000000D03*
D13*
X60270000Y-50000000D03*
D12*
X57730000Y-52540000D03*
D13*
X60270000Y-52540000D03*
X108000000Y-57000000D03*
X108000000Y-43000000D03*
X40000000Y-43000000D03*
X40000000Y-57000000D03*
D14*
X53952500Y-78500000D03*
X52047500Y-78500000D03*
D15*
X64316000Y-59900000D03*
X62284000Y-59900000D03*
X59816000Y-59900000D03*
X57784000Y-59900000D03*
X70684000Y-57500000D03*
X72716000Y-57500000D03*
X78984000Y-57500000D03*
X81016000Y-57500000D03*
X85984000Y-51500000D03*
X88016000Y-51500000D03*
X85984000Y-54000000D03*
X88016000Y-54000000D03*
X85984000Y-48000000D03*
X88016000Y-48000000D03*
D16*
X94000000Y-76270000D03*
X94000000Y-73730000D03*
X84000000Y-76270000D03*
X84000000Y-73730000D03*
X74000000Y-76270000D03*
X74000000Y-73730000D03*
X64000000Y-76270000D03*
X64000000Y-73730000D03*
X54000000Y-76270000D03*
X54000000Y-73730000D03*
X44000000Y-76270000D03*
X44000000Y-73730000D03*
D12*
X80350000Y-60000000D03*
D13*
X77810000Y-60000000D03*
X75270000Y-60000000D03*
X72730000Y-60000000D03*
X70190000Y-60000000D03*
X67650000Y-60000000D03*
D17*
X79500000Y-40047500D03*
X79500000Y-41952500D03*
X82000000Y-40047500D03*
X82000000Y-41952500D03*
D18*
X36500000Y-59500000D03*
X111500000Y-40500000D03*
X111500000Y-59500000D03*
X36500000Y-40500000D03*
D19*
X68200920Y-54150360D03*
X69001020Y-54150360D03*
X69801120Y-54150360D03*
X70601220Y-54150360D03*
X71398780Y-54150360D03*
X72198880Y-54150360D03*
X72998980Y-54150360D03*
X73799080Y-54150360D03*
X73799080Y-45849640D03*
X68200920Y-45849640D03*
X69001020Y-45849640D03*
X69801120Y-45849640D03*
X70601220Y-45849640D03*
X71398780Y-45849640D03*
X72198880Y-45849640D03*
X72998980Y-45849640D03*
D20*
X75150360Y-52799080D03*
X75150360Y-51998980D03*
X75150360Y-51198880D03*
X75150360Y-50398780D03*
X75150360Y-49601220D03*
X75150360Y-48801120D03*
X75150360Y-48001020D03*
X75150360Y-47200920D03*
X66849640Y-52799080D03*
X66849640Y-51998980D03*
X66849640Y-51198880D03*
X66849640Y-50398780D03*
X66849640Y-49601220D03*
X66849640Y-48801120D03*
X66849640Y-48001020D03*
X66849640Y-47200920D03*
D21*
X83300000Y-52000000D03*
X83300000Y-51200000D03*
X83300000Y-48000000D03*
X83300000Y-48800000D03*
X83300000Y-49600000D03*
X83300000Y-50400000D03*
X81100000Y-50400000D03*
X81100000Y-49600000D03*
X81100000Y-48800000D03*
X81100000Y-48000000D03*
X81100000Y-51200000D03*
X81100000Y-52000000D03*
D22*
X82200000Y-52100000D03*
X82200000Y-47900000D03*
D23*
X62900000Y-57800000D03*
X59200000Y-55600000D03*
X62900000Y-55600000D03*
X59200000Y-57800000D03*
D24*
X75100000Y-43100000D03*
X76600000Y-43100000D03*
X77900000Y-45300000D03*
X77900000Y-46800000D03*
X69800000Y-43500000D03*
X73600000Y-43100000D03*
D12*
X71040000Y-39230000D03*
D13*
X71040000Y-41770000D03*
X68500000Y-39230000D03*
X68500000Y-41770000D03*
X65960000Y-39230000D03*
X65960000Y-41770000D03*
D25*
X112570000Y-53300000D03*
X112570000Y-46700000D03*
D24*
X64500000Y-50400000D03*
D12*
X57730000Y-47460000D03*
D13*
X60270000Y-47460000D03*
D12*
X93270000Y-46000000D03*
D13*
X90730000Y-46000000D03*
D12*
X93270000Y-40000000D03*
D13*
X90730000Y-40000000D03*
D12*
X57730000Y-72460000D03*
D13*
X60270000Y-72460000D03*
D12*
X57730000Y-77540000D03*
D13*
X60270000Y-77540000D03*
D26*
X50300000Y-74050000D03*
X50300000Y-75950000D03*
X50300000Y-75000000D03*
X47700000Y-75950000D03*
X47700000Y-75000000D03*
X47700000Y-74050000D03*
X70300000Y-74050000D03*
X70300000Y-75950000D03*
X70300000Y-75000000D03*
X67700000Y-75950000D03*
X67700000Y-75000000D03*
X67700000Y-74050000D03*
X90300000Y-74050000D03*
X90300000Y-75950000D03*
X90300000Y-75000000D03*
X87700000Y-75950000D03*
X87700000Y-75000000D03*
X87700000Y-74050000D03*
D14*
X44047500Y-78500000D03*
X45952500Y-78500000D03*
X64047500Y-78500000D03*
X65952500Y-78500000D03*
X73952500Y-78500000D03*
X72047500Y-78500000D03*
X83952500Y-78500000D03*
X82047500Y-78500000D03*
X98547500Y-78500000D03*
X100452500Y-78500000D03*
D27*
X83000000Y-55000000D03*
X72500000Y-49500000D03*
X89000000Y-57800000D03*
X84700000Y-50400000D03*
X79200000Y-49800000D03*
X66500000Y-57300000D03*
X69800000Y-48200000D03*
X84600000Y-54000000D03*
X79000000Y-54100000D03*
X82300000Y-59900000D03*
X73000000Y-48000000D03*
X64900000Y-46700000D03*
X63500000Y-47600000D03*
X77800000Y-54100000D03*
X76600000Y-54100000D03*
X82200000Y-45100000D03*
X77900000Y-48900000D03*
X74200000Y-56500000D03*
X69088000Y-77216000D03*
X89500000Y-49500000D03*
X51800000Y-74500000D03*
X46200000Y-75000000D03*
X71750000Y-72750000D03*
X88200000Y-71900000D03*
X91948000Y-73914000D03*
X86000000Y-75000000D03*
D28*
X72998980Y-44701020D02*
X73400000Y-44300000D01*
X73400000Y-44300000D02*
X74700000Y-44300000D01*
X74700000Y-44300000D02*
X75100000Y-43900000D01*
X75100000Y-43900000D02*
X75100000Y-43100000D01*
X72998980Y-45849640D02*
X72998980Y-44701020D01*
X74650360Y-45849640D02*
X76600000Y-43900000D01*
X76600000Y-43900000D02*
X76600000Y-43100000D01*
X73799080Y-45849640D02*
X74650360Y-45849640D01*
X75150360Y-46549640D02*
X76400000Y-45300000D01*
X76400000Y-45300000D02*
X77900000Y-45300000D01*
X75150360Y-47200920D02*
X75150360Y-46549640D01*
X76698980Y-48001020D02*
X77900000Y-46800000D01*
X75150360Y-48001020D02*
X76698980Y-48001020D01*
X69801120Y-43501120D02*
X69800000Y-43500000D01*
X69801120Y-45849640D02*
X69801120Y-43501120D01*
X72198880Y-44501120D02*
X73600000Y-43100000D01*
X72198880Y-45849640D02*
X72198880Y-44501120D01*
X83000000Y-56100000D02*
X86200000Y-59300000D01*
X83000000Y-55000000D02*
X83000000Y-56100000D01*
X98000000Y-52540000D02*
X98000000Y-58200000D01*
X96900000Y-59300000D02*
X86200000Y-59300000D01*
X98000000Y-58200000D02*
X96900000Y-59300000D01*
X97300000Y-40000000D02*
X98000000Y-40700000D01*
X98000000Y-40700000D02*
X98000000Y-47460000D01*
X93270000Y-40000000D02*
X97300000Y-40000000D01*
X98000000Y-50000000D02*
X98000000Y-52540000D01*
X98000000Y-47460000D02*
X98000000Y-50000000D01*
X105620000Y-50000000D02*
X98000000Y-50000000D01*
X72198880Y-54150360D02*
X72198880Y-56098880D01*
X72198880Y-56098880D02*
X72716000Y-56616000D01*
X72716000Y-57500000D02*
X76800000Y-57500000D01*
X76800000Y-57500000D02*
X77810000Y-58510000D01*
X88016000Y-48000000D02*
X88016000Y-46684000D01*
X88700000Y-46000000D02*
X90730000Y-46000000D01*
X88016000Y-46684000D02*
X88700000Y-46000000D01*
X72500000Y-49500000D02*
X71400000Y-49500000D01*
X83300000Y-51200000D02*
X83300000Y-50400000D01*
X88016000Y-54000000D02*
X88016000Y-51500000D01*
X88016000Y-51500000D02*
X88016000Y-48000000D01*
X70601220Y-52798780D02*
X70800000Y-52600000D01*
X71400000Y-52600000D02*
X72000000Y-52600000D01*
X70800000Y-52600000D02*
X71400000Y-52600000D01*
X72000000Y-52600000D02*
X72198880Y-52798880D01*
X72198880Y-52798880D02*
X72198880Y-54150360D01*
X70601220Y-54150360D02*
X70601220Y-52798780D01*
X71400000Y-49100000D02*
X71398780Y-49098780D01*
X71400000Y-49500000D02*
X71400000Y-49100000D01*
X71398780Y-49098780D02*
X71398780Y-45849640D01*
X71400000Y-52600000D02*
X71400000Y-49500000D01*
X50000000Y-50000000D02*
X50000000Y-52540000D01*
X50000000Y-47460000D02*
X50000000Y-50000000D01*
X42380000Y-50000000D02*
X50000000Y-50000000D01*
X59200000Y-57800000D02*
X59200000Y-58250000D01*
X59816000Y-59900000D02*
X62284000Y-59900000D01*
X72716000Y-56616000D02*
X72716000Y-57500000D01*
X77810000Y-60000000D02*
X77810000Y-58510000D01*
X88016000Y-55716000D02*
X89000000Y-56700000D01*
X89000000Y-56700000D02*
X89000000Y-57800000D01*
X88016000Y-54000000D02*
X88016000Y-55716000D01*
X62900000Y-55600000D02*
X62350000Y-55600000D01*
X59300000Y-61400000D02*
X51000000Y-61400000D01*
X51000000Y-61400000D02*
X50000000Y-60400000D01*
X50000000Y-60400000D02*
X50000000Y-52540000D01*
X84700000Y-49200000D02*
X84700000Y-50400000D01*
X83300000Y-48800000D02*
X84300000Y-48800000D01*
X84300000Y-48800000D02*
X84700000Y-49200000D01*
X84500000Y-51200000D02*
X84700000Y-51000000D01*
X83300000Y-51200000D02*
X84500000Y-51200000D01*
X84700000Y-51000000D02*
X84700000Y-50400000D01*
X80200000Y-48800000D02*
X79200000Y-49800000D01*
X81100000Y-48800000D02*
X80200000Y-48800000D01*
X52030000Y-41770000D02*
X50000000Y-43800000D01*
X50000000Y-43800000D02*
X50000000Y-47460000D01*
X65960000Y-41770000D02*
X52030000Y-41770000D01*
X59816000Y-59900000D02*
X59816000Y-59416000D01*
X59816000Y-60884000D02*
X59300000Y-61400000D01*
X59816000Y-59900000D02*
X59816000Y-60884000D01*
X59200000Y-58650000D02*
X59200000Y-57800000D01*
X59816000Y-59266000D02*
X59200000Y-58650000D01*
X59816000Y-59900000D02*
X59816000Y-59266000D01*
X60650000Y-57800000D02*
X61050000Y-57400000D01*
X61050000Y-57400000D02*
X61050000Y-55850000D01*
X61050000Y-55850000D02*
X61300000Y-55600000D01*
X61300000Y-55600000D02*
X62900000Y-55600000D01*
X59200000Y-57800000D02*
X60650000Y-57800000D01*
X62900000Y-57800000D02*
X62900000Y-58050000D01*
X69001020Y-55398980D02*
X68500000Y-55900000D01*
X69001020Y-54150360D02*
X69001020Y-55398980D01*
X64316000Y-57800000D02*
X62900000Y-57800000D01*
X64316000Y-59900000D02*
X64316000Y-57800000D01*
X64316000Y-56784000D02*
X65200000Y-55900000D01*
X65200000Y-55900000D02*
X68500000Y-55900000D01*
X64316000Y-57800000D02*
X64316000Y-56784000D01*
X65199640Y-54150360D02*
X68200920Y-54150360D01*
X64950000Y-54400000D02*
X65199640Y-54150360D01*
X59200000Y-55600000D02*
X58350000Y-55600000D01*
X58100000Y-55600000D02*
X59200000Y-55600000D01*
X59200000Y-55000000D02*
X59200000Y-55600000D01*
X59800000Y-54400000D02*
X59200000Y-55000000D01*
X64950000Y-54400000D02*
X59800000Y-54400000D01*
X57784000Y-59084000D02*
X57450000Y-58750000D01*
X57450000Y-58750000D02*
X57450000Y-56250000D01*
X57450000Y-56250000D02*
X58100000Y-55600000D01*
X57784000Y-59900000D02*
X57784000Y-59084000D01*
X66500000Y-57300000D02*
X68200000Y-57300000D01*
X68200000Y-57300000D02*
X68400000Y-57500000D01*
X68400000Y-57500000D02*
X70684000Y-57500000D01*
X93270000Y-46000000D02*
X93270000Y-44470000D01*
X93270000Y-44470000D02*
X92600000Y-43800000D01*
X69801120Y-54150360D02*
X69801120Y-48201120D01*
X69801120Y-48201120D02*
X69800000Y-48200000D01*
X69800000Y-48200000D02*
X69800000Y-47400000D01*
X70601220Y-45849640D02*
X70601220Y-44398780D01*
X71040000Y-43960000D02*
X71040000Y-41770000D01*
X70601220Y-44398780D02*
X71040000Y-43960000D01*
X84600000Y-54000000D02*
X85984000Y-54000000D01*
X85000000Y-51500000D02*
X85984000Y-51500000D01*
X84500000Y-52000000D02*
X85000000Y-51500000D01*
X83300000Y-52000000D02*
X84500000Y-52000000D01*
X83300000Y-48000000D02*
X85984000Y-48000000D01*
X85984000Y-48000000D02*
X85984000Y-51500000D01*
X85984000Y-51500000D02*
X85984000Y-54000000D01*
X79500000Y-40047500D02*
X82000000Y-40047500D01*
X85984000Y-46600000D02*
X85984000Y-48000000D01*
X85984000Y-44416000D02*
X85984000Y-46600000D01*
X69001020Y-47101020D02*
X69300000Y-47400000D01*
X69001020Y-45849640D02*
X69001020Y-47101020D01*
X69300000Y-47400000D02*
X69800000Y-47400000D01*
X69800000Y-47400000D02*
X70400000Y-47400000D01*
X70601220Y-47198780D02*
X70601220Y-45849640D01*
X70400000Y-47400000D02*
X70601220Y-47198780D01*
X71398780Y-55401220D02*
X71200000Y-55600000D01*
X70684000Y-55600000D02*
X70000000Y-55600000D01*
X71200000Y-55600000D02*
X70684000Y-55600000D01*
X70000000Y-55600000D02*
X69801120Y-55401120D01*
X69801120Y-55401120D02*
X69801120Y-54150360D01*
X71398780Y-54150360D02*
X71398780Y-55401220D01*
X78602500Y-40047500D02*
X76880000Y-41770000D01*
X79500000Y-40047500D02*
X78602500Y-40047500D01*
X76880000Y-41770000D02*
X71040000Y-41770000D01*
X70684000Y-57500000D02*
X70684000Y-55600000D01*
X70684000Y-58284000D02*
X71100000Y-58700000D01*
X70684000Y-57500000D02*
X70684000Y-58284000D01*
X86600000Y-43800000D02*
X85984000Y-44416000D01*
X92600000Y-43800000D02*
X86600000Y-43800000D01*
X83500000Y-46350000D02*
X83750000Y-46600000D01*
X83500000Y-40450000D02*
X83097500Y-40047500D01*
X83500000Y-46350000D02*
X83500000Y-40450000D01*
X83097500Y-40047500D02*
X82000000Y-40047500D01*
X85984000Y-46600000D02*
X83750000Y-46600000D01*
X82450000Y-52850000D02*
X84300000Y-52850000D01*
X84300000Y-52850000D02*
X84600000Y-53150000D01*
X84600000Y-53150000D02*
X84600000Y-54000000D01*
X82200000Y-52600000D02*
X82450000Y-52850000D01*
X82200000Y-52100000D02*
X82200000Y-52600000D01*
X73970000Y-58700000D02*
X75270000Y-60000000D01*
X71100000Y-58700000D02*
X73970000Y-58700000D01*
X78984000Y-58484000D02*
X79100000Y-58600000D01*
X79100000Y-58600000D02*
X79100000Y-60800000D01*
X79100000Y-60800000D02*
X78500000Y-61400000D01*
X78500000Y-61400000D02*
X69050000Y-61400000D01*
X69050000Y-61400000D02*
X67650000Y-60000000D01*
X78984000Y-57500000D02*
X78984000Y-58484000D01*
X75150360Y-50398780D02*
X78398780Y-50398780D01*
X79000000Y-51000000D02*
X79000000Y-54100000D01*
X78398780Y-50398780D02*
X79000000Y-51000000D01*
X82300000Y-57900000D02*
X82300000Y-59900000D01*
X75150360Y-50398780D02*
X73898780Y-50398780D01*
X73400000Y-48400000D02*
X73000000Y-48000000D01*
X73400000Y-49900000D02*
X73400000Y-48400000D01*
X73898780Y-50398780D02*
X73400000Y-49900000D01*
X81900000Y-57500000D02*
X82300000Y-57900000D01*
X81016000Y-57500000D02*
X81900000Y-57500000D01*
X44000000Y-76270000D02*
X44000000Y-78452500D01*
X44000000Y-78452500D02*
X44047500Y-78500000D01*
X54000000Y-76270000D02*
X54000000Y-78452500D01*
X54000000Y-78452500D02*
X53952500Y-78500000D01*
X64000000Y-76270000D02*
X64000000Y-78452500D01*
X64000000Y-78452500D02*
X64047500Y-78500000D01*
X74000000Y-76270000D02*
X74000000Y-78452500D01*
X74000000Y-78452500D02*
X73952500Y-78500000D01*
X66849640Y-47200920D02*
X65800920Y-47200920D01*
X65300000Y-46700000D02*
X64900000Y-46700000D01*
X65800920Y-47200920D02*
X65300000Y-46700000D01*
X65701020Y-48001020D02*
X66849640Y-48001020D01*
X65300000Y-47600000D02*
X65701020Y-48001020D01*
X63500000Y-47600000D02*
X65300000Y-47600000D01*
X75150360Y-51198880D02*
X77498880Y-51198880D01*
X77800000Y-51500000D02*
X77800000Y-54100000D01*
X77498880Y-51198880D02*
X77800000Y-51500000D01*
X75150360Y-51998980D02*
X76598980Y-51998980D01*
X76900000Y-53800000D02*
X76600000Y-54100000D01*
X76900000Y-52300000D02*
X76900000Y-53800000D01*
X76598980Y-51998980D02*
X76900000Y-52300000D01*
X74350360Y-54150360D02*
X73799080Y-54150360D01*
X81100000Y-54450000D02*
X81100000Y-52000000D01*
X79850000Y-55700000D02*
X81100000Y-54450000D01*
X75900000Y-55700000D02*
X74350360Y-54150360D01*
X79850000Y-55700000D02*
X75900000Y-55700000D01*
X75150360Y-52799080D02*
X75150360Y-53950360D01*
X80000000Y-54600000D02*
X80000000Y-51600000D01*
X79500000Y-55100000D02*
X80000000Y-54600000D01*
X76300000Y-55100000D02*
X79500000Y-55100000D01*
X75150360Y-53950360D02*
X76300000Y-55100000D01*
X80000000Y-51600000D02*
X80400000Y-51200000D01*
X80400000Y-51200000D02*
X81100000Y-51200000D01*
X81100000Y-45700000D02*
X79500000Y-44100000D01*
X79500000Y-44100000D02*
X79500000Y-41952500D01*
X81100000Y-48000000D02*
X81100000Y-45700000D01*
X76798880Y-48801120D02*
X77600000Y-48000000D01*
X77600000Y-48000000D02*
X81100000Y-48000000D01*
X75150360Y-48801120D02*
X76798880Y-48801120D01*
X82200000Y-45100000D02*
X82200000Y-43800000D01*
X82200000Y-43800000D02*
X82000000Y-43600000D01*
X75150360Y-49601220D02*
X77198780Y-49601220D01*
X77198780Y-49601220D02*
X77900000Y-48900000D01*
X82000000Y-43600000D02*
X82000000Y-41952500D01*
X82200000Y-47900000D02*
X82200000Y-45100000D01*
X72998980Y-54150360D02*
X72998980Y-55298980D01*
X72998980Y-55298980D02*
X74200000Y-56500000D01*
X64501220Y-50398780D02*
X64500000Y-50400000D01*
X66849640Y-50398780D02*
X64501220Y-50398780D01*
X47700000Y-74050000D02*
X46150000Y-74050000D01*
X45830000Y-73730000D02*
X44000000Y-73730000D01*
X46150000Y-74050000D02*
X45830000Y-73730000D01*
X50300000Y-75950000D02*
X51780000Y-75950000D01*
X51780000Y-75950000D02*
X54000000Y-73730000D01*
X64000000Y-73730000D02*
X65630000Y-73730000D01*
X65950000Y-74050000D02*
X67700000Y-74050000D01*
X65630000Y-73730000D02*
X65950000Y-74050000D01*
X70300000Y-75950000D02*
X71780000Y-75950000D01*
X71780000Y-75950000D02*
X74000000Y-73730000D01*
X83952500Y-78500000D02*
X83952500Y-76317500D01*
X83952500Y-76317500D02*
X84000000Y-76270000D01*
X87700000Y-74050000D02*
X86550000Y-74050000D01*
X86230000Y-73730000D02*
X84000000Y-73730000D01*
X86550000Y-74050000D02*
X86230000Y-73730000D01*
X94000000Y-76270000D02*
X97770000Y-76270000D01*
X98547500Y-77047500D02*
X98547500Y-78500000D01*
X97770000Y-76270000D02*
X98547500Y-77047500D01*
X90300000Y-75950000D02*
X91780000Y-75950000D01*
X91780000Y-75950000D02*
X94000000Y-73730000D01*
X52047500Y-78500000D02*
X52047500Y-80000000D01*
X65952500Y-78500000D02*
X65952500Y-80000000D01*
X72047500Y-78500000D02*
X72047500Y-80000000D01*
X82047500Y-78500000D02*
X82047500Y-80000000D01*
X45952500Y-78500000D02*
X45952500Y-79452500D01*
X100000000Y-80000000D02*
X100452500Y-79547500D01*
X97000000Y-80000000D02*
X100000000Y-80000000D01*
X94750000Y-77750000D02*
X97000000Y-80000000D01*
X88250000Y-77750000D02*
X94750000Y-77750000D01*
X86000000Y-80000000D02*
X88250000Y-77750000D01*
X46500000Y-80000000D02*
X52047500Y-80000000D01*
X52047500Y-80000000D02*
X65952500Y-80000000D01*
X65952500Y-80000000D02*
X72047500Y-80000000D01*
X72047500Y-80000000D02*
X82047500Y-80000000D01*
X82047500Y-80000000D02*
X86000000Y-80000000D01*
X45952500Y-79452500D02*
X46500000Y-80000000D01*
X100452500Y-79547500D02*
X100452500Y-78500000D01*
X100452500Y-77252500D02*
X100452500Y-78500000D01*
X95000000Y-71000000D02*
X95600000Y-71600000D01*
X95600000Y-71600000D02*
X95600000Y-75100000D01*
X95600000Y-75100000D02*
X96100000Y-75600000D01*
X96100000Y-75600000D02*
X98800000Y-75600000D01*
X98800000Y-75600000D02*
X100452500Y-77252500D01*
X93270000Y-71000000D02*
X95000000Y-71000000D01*
X87150000Y-70542000D02*
X88742000Y-70542000D01*
X89200000Y-71000000D02*
X90730000Y-71000000D01*
X88742000Y-70542000D02*
X89200000Y-71000000D01*
X90300000Y-74050000D02*
X89350000Y-74050000D01*
X88650000Y-75950000D02*
X87700000Y-75950000D01*
X89000000Y-75600000D02*
X88650000Y-75950000D01*
X89000000Y-74400000D02*
X89000000Y-75600000D01*
X89350000Y-74050000D02*
X89000000Y-74400000D01*
X69000000Y-74500000D02*
X69000000Y-75500000D01*
X69000000Y-75500000D02*
X68550000Y-75950000D01*
X68550000Y-75950000D02*
X67700000Y-75950000D01*
X70300000Y-74050000D02*
X69450000Y-74050000D01*
X69450000Y-74050000D02*
X69000000Y-74500000D01*
X50300000Y-74050000D02*
X49450000Y-74050000D01*
X48450000Y-75950000D02*
X47700000Y-75950000D01*
X49000000Y-75400000D02*
X48450000Y-75950000D01*
X49000000Y-74500000D02*
X49000000Y-75400000D01*
X49450000Y-74050000D02*
X49000000Y-74500000D01*
X67700000Y-76844000D02*
X67700000Y-75950000D01*
X68072000Y-77216000D02*
X67700000Y-76844000D01*
X69088000Y-77216000D02*
X68072000Y-77216000D01*
X50300000Y-74050000D02*
X50300000Y-71300000D01*
X51058000Y-70542000D02*
X87150000Y-70542000D01*
X50300000Y-71300000D02*
X51058000Y-70542000D01*
X90300000Y-72700000D02*
X90730000Y-72270000D01*
X90300000Y-74050000D02*
X90300000Y-72700000D01*
X90730000Y-72270000D02*
X90730000Y-71000000D01*
X68200920Y-44500920D02*
X67200000Y-43500000D01*
X67200000Y-43500000D02*
X67200000Y-40530000D01*
X67200000Y-40530000D02*
X68500000Y-39230000D01*
X68200920Y-45849640D02*
X68200920Y-44500920D01*
X62390000Y-47460000D02*
X64000360Y-45849640D01*
X64000360Y-45849640D02*
X68200920Y-45849640D01*
X60270000Y-47460000D02*
X62390000Y-47460000D01*
X58990000Y-53800000D02*
X57730000Y-52540000D01*
X66849640Y-52799080D02*
X65700920Y-52799080D01*
X65700920Y-52799080D02*
X64700000Y-53800000D01*
X64700000Y-53800000D02*
X58990000Y-53800000D01*
X64960000Y-52540000D02*
X65501020Y-51998980D01*
X65501020Y-51998980D02*
X66849640Y-51998980D01*
X60270000Y-52540000D02*
X64960000Y-52540000D01*
X59030000Y-51300000D02*
X57730000Y-50000000D01*
X66849640Y-51198880D02*
X65450098Y-51198880D01*
X61450000Y-51750000D02*
X61000000Y-51300000D01*
X64898978Y-51750000D02*
X61450000Y-51750000D01*
X65450098Y-51198880D02*
X64898978Y-51750000D01*
X61000000Y-51300000D02*
X59030000Y-51300000D01*
X61200000Y-50000000D02*
X62000000Y-49200000D01*
X65401220Y-49601220D02*
X66849640Y-49601220D01*
X65000000Y-49200000D02*
X62000000Y-49200000D01*
X65401220Y-49601220D02*
X65000000Y-49200000D01*
X60270000Y-50000000D02*
X61200000Y-50000000D01*
X59070000Y-48800000D02*
X57730000Y-47460000D01*
X66849640Y-48801120D02*
X65601120Y-48801120D01*
X61450000Y-48500000D02*
X61150000Y-48800000D01*
X65300000Y-48500000D02*
X61450000Y-48500000D01*
X65601120Y-48801120D02*
X65300000Y-48500000D01*
X61150000Y-48800000D02*
X59070000Y-48800000D01*
X90730000Y-49930000D02*
X90730000Y-54000000D01*
X90300000Y-49500000D02*
X90730000Y-49930000D01*
X89500000Y-49500000D02*
X90300000Y-49500000D01*
X50300000Y-75000000D02*
X51300000Y-75000000D01*
X51300000Y-75000000D02*
X51800000Y-74500000D01*
X47700000Y-75000000D02*
X46200000Y-75000000D01*
X71250000Y-75000000D02*
X70300000Y-75000000D01*
X71750000Y-74500000D02*
X71250000Y-75000000D01*
X71750000Y-72750000D02*
X71750000Y-74500000D01*
X67700000Y-75000000D02*
X60270000Y-75000000D01*
X87450000Y-71150000D02*
X88200000Y-71900000D01*
X87450000Y-71150000D02*
X59040000Y-71150000D01*
X59040000Y-71150000D02*
X57730000Y-72460000D01*
X90300000Y-75000000D02*
X91624000Y-75000000D01*
X91624000Y-75000000D02*
X91948000Y-74676000D01*
X91948000Y-74676000D02*
X91948000Y-73914000D01*
X87700000Y-75000000D02*
X86000000Y-75000000D01*
D29*
G36*
X69716523Y-58684080D02*
X69399697Y-58814990D01*
X69006371Y-59207630D01*
X68920050Y-59415512D01*
X68835010Y-59209697D01*
X68442370Y-58816371D01*
X67929100Y-58603243D01*
X67373339Y-58602758D01*
X66859697Y-58814990D01*
X66466371Y-59207630D01*
X66253243Y-59720900D01*
X66252758Y-60276661D01*
X66464990Y-60790303D01*
X66857630Y-61183629D01*
X67113800Y-61290000D01*
X62157000Y-61290000D01*
X62157000Y-61087450D01*
X62157000Y-60027000D01*
X61274350Y-60027000D01*
X61115600Y-60185750D01*
X61115600Y-60484891D01*
X61115600Y-60737510D01*
X61212273Y-60970899D01*
X61390902Y-61149527D01*
X61624291Y-61246200D01*
X61998250Y-61246200D01*
X62157000Y-61087450D01*
X62157000Y-61290000D01*
X60984400Y-61290000D01*
X60984400Y-60737510D01*
X60984400Y-60484891D01*
X60984400Y-60185750D01*
X60825650Y-60027000D01*
X59943000Y-60027000D01*
X59943000Y-61087450D01*
X60101750Y-61246200D01*
X60475709Y-61246200D01*
X60709098Y-61149527D01*
X60887727Y-60970899D01*
X60984400Y-60737510D01*
X60984400Y-61290000D01*
X52043405Y-61290000D01*
X52043405Y-52899969D01*
X52043405Y-47819969D01*
X52025614Y-47010591D01*
X51750106Y-46345455D01*
X51441724Y-46197882D01*
X51262118Y-46377487D01*
X51262118Y-46018276D01*
X51114545Y-45709894D01*
X50359969Y-45416595D01*
X49550591Y-45434386D01*
X48885455Y-45709894D01*
X48737882Y-46018276D01*
X50000000Y-47280395D01*
X51262118Y-46018276D01*
X51262118Y-46377487D01*
X50179605Y-47460000D01*
X51441724Y-48722118D01*
X51750106Y-48574545D01*
X52043405Y-47819969D01*
X52043405Y-52899969D01*
X52025614Y-52090591D01*
X51750106Y-51425455D01*
X51441724Y-51277882D01*
X51262118Y-51457487D01*
X51262118Y-51098276D01*
X51262118Y-48901724D01*
X50000000Y-47639605D01*
X49820395Y-47819210D01*
X49820395Y-47460000D01*
X48558276Y-46197882D01*
X48249894Y-46345455D01*
X47956595Y-47100031D01*
X47974386Y-47909409D01*
X48249894Y-48574545D01*
X48558276Y-48722118D01*
X49820395Y-47460000D01*
X49820395Y-47819210D01*
X48737882Y-48901724D01*
X48885455Y-49210106D01*
X49640031Y-49503405D01*
X50449409Y-49485614D01*
X51114545Y-49210106D01*
X51262118Y-48901724D01*
X51262118Y-51098276D01*
X51114545Y-50789894D01*
X50359969Y-50496595D01*
X49550591Y-50514386D01*
X48885455Y-50789894D01*
X48737882Y-51098276D01*
X50000000Y-52360395D01*
X51262118Y-51098276D01*
X51262118Y-51457487D01*
X50179605Y-52540000D01*
X51441724Y-53802118D01*
X51750106Y-53654545D01*
X52043405Y-52899969D01*
X52043405Y-61290000D01*
X51262118Y-61290000D01*
X51262118Y-53981724D01*
X50000000Y-52719605D01*
X49820395Y-52899210D01*
X49820395Y-52540000D01*
X48558276Y-51277882D01*
X48249894Y-51425455D01*
X47956595Y-52180031D01*
X47974386Y-52989409D01*
X48249894Y-53654545D01*
X48558276Y-53802118D01*
X49820395Y-52540000D01*
X49820395Y-52899210D01*
X48737882Y-53981724D01*
X48885455Y-54290106D01*
X49640031Y-54583405D01*
X50449409Y-54565614D01*
X51114545Y-54290106D01*
X51262118Y-53981724D01*
X51262118Y-61290000D01*
X44423405Y-61290000D01*
X44423405Y-50359969D01*
X44405614Y-49550591D01*
X44130106Y-48885455D01*
X43821724Y-48737882D01*
X43642118Y-48917487D01*
X43642118Y-48558276D01*
X43494545Y-48249894D01*
X42739969Y-47956595D01*
X41930591Y-47974386D01*
X41397242Y-48195306D01*
X41397242Y-42723339D01*
X41185010Y-42209697D01*
X40792370Y-41816371D01*
X40279100Y-41603243D01*
X39723339Y-41602758D01*
X39209697Y-41814990D01*
X38816371Y-42207630D01*
X38603243Y-42720900D01*
X38602758Y-43276661D01*
X38814990Y-43790303D01*
X39207630Y-44183629D01*
X39720900Y-44396757D01*
X40276661Y-44397242D01*
X40790303Y-44185010D01*
X41183629Y-43792370D01*
X41396757Y-43279100D01*
X41397242Y-42723339D01*
X41397242Y-48195306D01*
X41265455Y-48249894D01*
X41117882Y-48558276D01*
X42380000Y-49820395D01*
X43642118Y-48558276D01*
X43642118Y-48917487D01*
X42559605Y-50000000D01*
X43821724Y-51262118D01*
X44130106Y-51114545D01*
X44423405Y-50359969D01*
X44423405Y-61290000D01*
X43642118Y-61290000D01*
X43642118Y-51441724D01*
X42380000Y-50179605D01*
X42200395Y-50359210D01*
X42200395Y-50000000D01*
X40938276Y-48737882D01*
X40629894Y-48885455D01*
X40336595Y-49640031D01*
X40354386Y-50449409D01*
X40629894Y-51114545D01*
X40938276Y-51262118D01*
X42200395Y-50000000D01*
X42200395Y-50359210D01*
X41117882Y-51441724D01*
X41265455Y-51750106D01*
X42020031Y-52043405D01*
X42829409Y-52025614D01*
X43494545Y-51750106D01*
X43642118Y-51441724D01*
X43642118Y-61290000D01*
X41397242Y-61290000D01*
X41397242Y-56723339D01*
X41185010Y-56209697D01*
X40792370Y-55816371D01*
X40279100Y-55603243D01*
X39723339Y-55602758D01*
X39209697Y-55814990D01*
X38816371Y-56207630D01*
X38603243Y-56720900D01*
X38602758Y-57276661D01*
X38814990Y-57790303D01*
X39207630Y-58183629D01*
X39720900Y-58396757D01*
X40276661Y-58397242D01*
X40790303Y-58185010D01*
X41183629Y-57792370D01*
X41396757Y-57279100D01*
X41397242Y-56723339D01*
X41397242Y-61290000D01*
X37762827Y-61290000D01*
X38329244Y-60724572D01*
X38658624Y-59931336D01*
X38659374Y-59072433D01*
X38331378Y-58278623D01*
X37724572Y-57670756D01*
X36931336Y-57341376D01*
X36072433Y-57340626D01*
X35278623Y-57668622D01*
X34710000Y-58236252D01*
X34710000Y-41762827D01*
X35275428Y-42329244D01*
X36068664Y-42658624D01*
X36927567Y-42659374D01*
X37721377Y-42331378D01*
X38329244Y-41724572D01*
X38658624Y-40931336D01*
X38659374Y-40072433D01*
X38331378Y-39278623D01*
X37763747Y-38710000D01*
X64663273Y-38710000D01*
X64563243Y-38950900D01*
X64562758Y-39506661D01*
X64774990Y-40020303D01*
X65167630Y-40413629D01*
X65359727Y-40493394D01*
X65228857Y-40547603D01*
X65159392Y-40789787D01*
X65960000Y-41590395D01*
X65974142Y-41576252D01*
X66153747Y-41755857D01*
X66139605Y-41770000D01*
X66153747Y-41784142D01*
X65974142Y-41963747D01*
X65960000Y-41949605D01*
X65780395Y-42129210D01*
X65780395Y-41770000D01*
X64979787Y-40969392D01*
X64737603Y-41038857D01*
X64550856Y-41562302D01*
X64578638Y-42117368D01*
X64737603Y-42501143D01*
X64979787Y-42570608D01*
X65780395Y-41770000D01*
X65780395Y-42129210D01*
X65159392Y-42750213D01*
X65228857Y-42992397D01*
X65752302Y-43179144D01*
X66307368Y-43151362D01*
X66415000Y-43106779D01*
X66415000Y-43500000D01*
X66474755Y-43800407D01*
X66644921Y-44055079D01*
X67347282Y-44757440D01*
X67328690Y-44850150D01*
X67328690Y-45064640D01*
X64000360Y-45064640D01*
X63699953Y-45124395D01*
X63445281Y-45294561D01*
X62064842Y-46675000D01*
X61457201Y-46675000D01*
X61455010Y-46669697D01*
X61062370Y-46276371D01*
X60549100Y-46063243D01*
X59993339Y-46062758D01*
X59479697Y-46274990D01*
X59125892Y-46628177D01*
X59092463Y-46455877D01*
X58952673Y-46243073D01*
X58741640Y-46100623D01*
X58492000Y-46050560D01*
X56968000Y-46050560D01*
X56725877Y-46097537D01*
X56513073Y-46237327D01*
X56370623Y-46448360D01*
X56320560Y-46698000D01*
X56320560Y-48222000D01*
X56367537Y-48464123D01*
X56507327Y-48676927D01*
X56585541Y-48729722D01*
X56513073Y-48777327D01*
X56370623Y-48988360D01*
X56320560Y-49238000D01*
X56320560Y-50762000D01*
X56367537Y-51004123D01*
X56507327Y-51216927D01*
X56585541Y-51269722D01*
X56513073Y-51317327D01*
X56370623Y-51528360D01*
X56320560Y-51778000D01*
X56320560Y-53302000D01*
X56367537Y-53544123D01*
X56507327Y-53756927D01*
X56718360Y-53899377D01*
X56968000Y-53949440D01*
X58029282Y-53949440D01*
X58432402Y-54352560D01*
X58200000Y-54352560D01*
X57957877Y-54399537D01*
X57745073Y-54539327D01*
X57602623Y-54750360D01*
X57552560Y-55000000D01*
X57552560Y-55039816D01*
X57544921Y-55044921D01*
X56894921Y-55694921D01*
X56724755Y-55949593D01*
X56665000Y-56250000D01*
X56665000Y-58750000D01*
X56691381Y-58882629D01*
X56653223Y-58939160D01*
X56603160Y-59188800D01*
X56603160Y-60611200D01*
X56650137Y-60853323D01*
X56789927Y-61066127D01*
X57000960Y-61208577D01*
X57250600Y-61258640D01*
X58317400Y-61258640D01*
X58559523Y-61211663D01*
X58772327Y-61071873D01*
X58801713Y-61028338D01*
X58922902Y-61149527D01*
X59156291Y-61246200D01*
X59530250Y-61246200D01*
X59689000Y-61087450D01*
X59689000Y-60027000D01*
X59669000Y-60027000D01*
X59669000Y-59773000D01*
X59689000Y-59773000D01*
X59689000Y-59753000D01*
X59943000Y-59753000D01*
X59943000Y-59773000D01*
X60825650Y-59773000D01*
X60984400Y-59614250D01*
X60984400Y-59315109D01*
X60984400Y-59062490D01*
X60887727Y-58829101D01*
X60761757Y-58703132D01*
X60835000Y-58526310D01*
X60835000Y-58273691D01*
X60835000Y-58085750D01*
X60676250Y-57927000D01*
X59327000Y-57927000D01*
X59327000Y-57947000D01*
X59073000Y-57947000D01*
X59073000Y-57927000D01*
X59053000Y-57927000D01*
X59053000Y-57673000D01*
X59073000Y-57673000D01*
X59073000Y-57653000D01*
X59327000Y-57653000D01*
X59327000Y-57673000D01*
X60676250Y-57673000D01*
X60835000Y-57514250D01*
X60835000Y-57326309D01*
X60835000Y-57073690D01*
X60738327Y-56840301D01*
X60596849Y-56698824D01*
X60654927Y-56660673D01*
X60797377Y-56449640D01*
X60847440Y-56200000D01*
X60847440Y-55185000D01*
X61265000Y-55185000D01*
X61265000Y-55314250D01*
X61423750Y-55473000D01*
X62773000Y-55473000D01*
X62773000Y-55453000D01*
X63027000Y-55453000D01*
X63027000Y-55473000D01*
X63047000Y-55473000D01*
X63047000Y-55727000D01*
X63027000Y-55727000D01*
X63027000Y-55747000D01*
X62773000Y-55747000D01*
X62773000Y-55727000D01*
X61423750Y-55727000D01*
X61265000Y-55885750D01*
X61265000Y-56073691D01*
X61265000Y-56326310D01*
X61361673Y-56559699D01*
X61503150Y-56701175D01*
X61445073Y-56739327D01*
X61302623Y-56950360D01*
X61252560Y-57200000D01*
X61252560Y-58400000D01*
X61299537Y-58642123D01*
X61339070Y-58702304D01*
X61212273Y-58829101D01*
X61115600Y-59062490D01*
X61115600Y-59315109D01*
X61115600Y-59614250D01*
X61274350Y-59773000D01*
X62157000Y-59773000D01*
X62157000Y-59753000D01*
X62411000Y-59753000D01*
X62411000Y-59773000D01*
X62431000Y-59773000D01*
X62431000Y-60027000D01*
X62411000Y-60027000D01*
X62411000Y-61087450D01*
X62569750Y-61246200D01*
X62943709Y-61246200D01*
X63177098Y-61149527D01*
X63297573Y-61029052D01*
X63321927Y-61066127D01*
X63532960Y-61208577D01*
X63782600Y-61258640D01*
X64849400Y-61258640D01*
X65091523Y-61211663D01*
X65304327Y-61071873D01*
X65446777Y-60860840D01*
X65496840Y-60611200D01*
X65496840Y-59188800D01*
X65449863Y-58946677D01*
X65310073Y-58733873D01*
X65101000Y-58592746D01*
X65101000Y-57800000D01*
X65101000Y-57109158D01*
X65525158Y-56685000D01*
X65588096Y-56685000D01*
X65585378Y-56687714D01*
X65420687Y-57084332D01*
X65420313Y-57513784D01*
X65584311Y-57910689D01*
X65887714Y-58214622D01*
X66284332Y-58379313D01*
X66713784Y-58379687D01*
X67110689Y-58215689D01*
X67241606Y-58085000D01*
X67889701Y-58085000D01*
X68099594Y-58225245D01*
X68400000Y-58285000D01*
X69517478Y-58285000D01*
X69550137Y-58453323D01*
X69689927Y-58666127D01*
X69716523Y-58684080D01*
X69716523Y-58684080D01*
G37*
X69716523Y-58684080D02*
X69399697Y-58814990D01*
X69006371Y-59207630D01*
X68920050Y-59415512D01*
X68835010Y-59209697D01*
X68442370Y-58816371D01*
X67929100Y-58603243D01*
X67373339Y-58602758D01*
X66859697Y-58814990D01*
X66466371Y-59207630D01*
X66253243Y-59720900D01*
X66252758Y-60276661D01*
X66464990Y-60790303D01*
X66857630Y-61183629D01*
X67113800Y-61290000D01*
X62157000Y-61290000D01*
X62157000Y-61087450D01*
X62157000Y-60027000D01*
X61274350Y-60027000D01*
X61115600Y-60185750D01*
X61115600Y-60484891D01*
X61115600Y-60737510D01*
X61212273Y-60970899D01*
X61390902Y-61149527D01*
X61624291Y-61246200D01*
X61998250Y-61246200D01*
X62157000Y-61087450D01*
X62157000Y-61290000D01*
X60984400Y-61290000D01*
X60984400Y-60737510D01*
X60984400Y-60484891D01*
X60984400Y-60185750D01*
X60825650Y-60027000D01*
X59943000Y-60027000D01*
X59943000Y-61087450D01*
X60101750Y-61246200D01*
X60475709Y-61246200D01*
X60709098Y-61149527D01*
X60887727Y-60970899D01*
X60984400Y-60737510D01*
X60984400Y-61290000D01*
X52043405Y-61290000D01*
X52043405Y-52899969D01*
X52043405Y-47819969D01*
X52025614Y-47010591D01*
X51750106Y-46345455D01*
X51441724Y-46197882D01*
X51262118Y-46377487D01*
X51262118Y-46018276D01*
X51114545Y-45709894D01*
X50359969Y-45416595D01*
X49550591Y-45434386D01*
X48885455Y-45709894D01*
X48737882Y-46018276D01*
X50000000Y-47280395D01*
X51262118Y-46018276D01*
X51262118Y-46377487D01*
X50179605Y-47460000D01*
X51441724Y-48722118D01*
X51750106Y-48574545D01*
X52043405Y-47819969D01*
X52043405Y-52899969D01*
X52025614Y-52090591D01*
X51750106Y-51425455D01*
X51441724Y-51277882D01*
X51262118Y-51457487D01*
X51262118Y-51098276D01*
X51262118Y-48901724D01*
X50000000Y-47639605D01*
X49820395Y-47819210D01*
X49820395Y-47460000D01*
X48558276Y-46197882D01*
X48249894Y-46345455D01*
X47956595Y-47100031D01*
X47974386Y-47909409D01*
X48249894Y-48574545D01*
X48558276Y-48722118D01*
X49820395Y-47460000D01*
X49820395Y-47819210D01*
X48737882Y-48901724D01*
X48885455Y-49210106D01*
X49640031Y-49503405D01*
X50449409Y-49485614D01*
X51114545Y-49210106D01*
X51262118Y-48901724D01*
X51262118Y-51098276D01*
X51114545Y-50789894D01*
X50359969Y-50496595D01*
X49550591Y-50514386D01*
X48885455Y-50789894D01*
X48737882Y-51098276D01*
X50000000Y-52360395D01*
X51262118Y-51098276D01*
X51262118Y-51457487D01*
X50179605Y-52540000D01*
X51441724Y-53802118D01*
X51750106Y-53654545D01*
X52043405Y-52899969D01*
X52043405Y-61290000D01*
X51262118Y-61290000D01*
X51262118Y-53981724D01*
X50000000Y-52719605D01*
X49820395Y-52899210D01*
X49820395Y-52540000D01*
X48558276Y-51277882D01*
X48249894Y-51425455D01*
X47956595Y-52180031D01*
X47974386Y-52989409D01*
X48249894Y-53654545D01*
X48558276Y-53802118D01*
X49820395Y-52540000D01*
X49820395Y-52899210D01*
X48737882Y-53981724D01*
X48885455Y-54290106D01*
X49640031Y-54583405D01*
X50449409Y-54565614D01*
X51114545Y-54290106D01*
X51262118Y-53981724D01*
X51262118Y-61290000D01*
X44423405Y-61290000D01*
X44423405Y-50359969D01*
X44405614Y-49550591D01*
X44130106Y-48885455D01*
X43821724Y-48737882D01*
X43642118Y-48917487D01*
X43642118Y-48558276D01*
X43494545Y-48249894D01*
X42739969Y-47956595D01*
X41930591Y-47974386D01*
X41397242Y-48195306D01*
X41397242Y-42723339D01*
X41185010Y-42209697D01*
X40792370Y-41816371D01*
X40279100Y-41603243D01*
X39723339Y-41602758D01*
X39209697Y-41814990D01*
X38816371Y-42207630D01*
X38603243Y-42720900D01*
X38602758Y-43276661D01*
X38814990Y-43790303D01*
X39207630Y-44183629D01*
X39720900Y-44396757D01*
X40276661Y-44397242D01*
X40790303Y-44185010D01*
X41183629Y-43792370D01*
X41396757Y-43279100D01*
X41397242Y-42723339D01*
X41397242Y-48195306D01*
X41265455Y-48249894D01*
X41117882Y-48558276D01*
X42380000Y-49820395D01*
X43642118Y-48558276D01*
X43642118Y-48917487D01*
X42559605Y-50000000D01*
X43821724Y-51262118D01*
X44130106Y-51114545D01*
X44423405Y-50359969D01*
X44423405Y-61290000D01*
X43642118Y-61290000D01*
X43642118Y-51441724D01*
X42380000Y-50179605D01*
X42200395Y-50359210D01*
X42200395Y-50000000D01*
X40938276Y-48737882D01*
X40629894Y-48885455D01*
X40336595Y-49640031D01*
X40354386Y-50449409D01*
X40629894Y-51114545D01*
X40938276Y-51262118D01*
X42200395Y-50000000D01*
X42200395Y-50359210D01*
X41117882Y-51441724D01*
X41265455Y-51750106D01*
X42020031Y-52043405D01*
X42829409Y-52025614D01*
X43494545Y-51750106D01*
X43642118Y-51441724D01*
X43642118Y-61290000D01*
X41397242Y-61290000D01*
X41397242Y-56723339D01*
X41185010Y-56209697D01*
X40792370Y-55816371D01*
X40279100Y-55603243D01*
X39723339Y-55602758D01*
X39209697Y-55814990D01*
X38816371Y-56207630D01*
X38603243Y-56720900D01*
X38602758Y-57276661D01*
X38814990Y-57790303D01*
X39207630Y-58183629D01*
X39720900Y-58396757D01*
X40276661Y-58397242D01*
X40790303Y-58185010D01*
X41183629Y-57792370D01*
X41396757Y-57279100D01*
X41397242Y-56723339D01*
X41397242Y-61290000D01*
X37762827Y-61290000D01*
X38329244Y-60724572D01*
X38658624Y-59931336D01*
X38659374Y-59072433D01*
X38331378Y-58278623D01*
X37724572Y-57670756D01*
X36931336Y-57341376D01*
X36072433Y-57340626D01*
X35278623Y-57668622D01*
X34710000Y-58236252D01*
X34710000Y-41762827D01*
X35275428Y-42329244D01*
X36068664Y-42658624D01*
X36927567Y-42659374D01*
X37721377Y-42331378D01*
X38329244Y-41724572D01*
X38658624Y-40931336D01*
X38659374Y-40072433D01*
X38331378Y-39278623D01*
X37763747Y-38710000D01*
X64663273Y-38710000D01*
X64563243Y-38950900D01*
X64562758Y-39506661D01*
X64774990Y-40020303D01*
X65167630Y-40413629D01*
X65359727Y-40493394D01*
X65228857Y-40547603D01*
X65159392Y-40789787D01*
X65960000Y-41590395D01*
X65974142Y-41576252D01*
X66153747Y-41755857D01*
X66139605Y-41770000D01*
X66153747Y-41784142D01*
X65974142Y-41963747D01*
X65960000Y-41949605D01*
X65780395Y-42129210D01*
X65780395Y-41770000D01*
X64979787Y-40969392D01*
X64737603Y-41038857D01*
X64550856Y-41562302D01*
X64578638Y-42117368D01*
X64737603Y-42501143D01*
X64979787Y-42570608D01*
X65780395Y-41770000D01*
X65780395Y-42129210D01*
X65159392Y-42750213D01*
X65228857Y-42992397D01*
X65752302Y-43179144D01*
X66307368Y-43151362D01*
X66415000Y-43106779D01*
X66415000Y-43500000D01*
X66474755Y-43800407D01*
X66644921Y-44055079D01*
X67347282Y-44757440D01*
X67328690Y-44850150D01*
X67328690Y-45064640D01*
X64000360Y-45064640D01*
X63699953Y-45124395D01*
X63445281Y-45294561D01*
X62064842Y-46675000D01*
X61457201Y-46675000D01*
X61455010Y-46669697D01*
X61062370Y-46276371D01*
X60549100Y-46063243D01*
X59993339Y-46062758D01*
X59479697Y-46274990D01*
X59125892Y-46628177D01*
X59092463Y-46455877D01*
X58952673Y-46243073D01*
X58741640Y-46100623D01*
X58492000Y-46050560D01*
X56968000Y-46050560D01*
X56725877Y-46097537D01*
X56513073Y-46237327D01*
X56370623Y-46448360D01*
X56320560Y-46698000D01*
X56320560Y-48222000D01*
X56367537Y-48464123D01*
X56507327Y-48676927D01*
X56585541Y-48729722D01*
X56513073Y-48777327D01*
X56370623Y-48988360D01*
X56320560Y-49238000D01*
X56320560Y-50762000D01*
X56367537Y-51004123D01*
X56507327Y-51216927D01*
X56585541Y-51269722D01*
X56513073Y-51317327D01*
X56370623Y-51528360D01*
X56320560Y-51778000D01*
X56320560Y-53302000D01*
X56367537Y-53544123D01*
X56507327Y-53756927D01*
X56718360Y-53899377D01*
X56968000Y-53949440D01*
X58029282Y-53949440D01*
X58432402Y-54352560D01*
X58200000Y-54352560D01*
X57957877Y-54399537D01*
X57745073Y-54539327D01*
X57602623Y-54750360D01*
X57552560Y-55000000D01*
X57552560Y-55039816D01*
X57544921Y-55044921D01*
X56894921Y-55694921D01*
X56724755Y-55949593D01*
X56665000Y-56250000D01*
X56665000Y-58750000D01*
X56691381Y-58882629D01*
X56653223Y-58939160D01*
X56603160Y-59188800D01*
X56603160Y-60611200D01*
X56650137Y-60853323D01*
X56789927Y-61066127D01*
X57000960Y-61208577D01*
X57250600Y-61258640D01*
X58317400Y-61258640D01*
X58559523Y-61211663D01*
X58772327Y-61071873D01*
X58801713Y-61028338D01*
X58922902Y-61149527D01*
X59156291Y-61246200D01*
X59530250Y-61246200D01*
X59689000Y-61087450D01*
X59689000Y-60027000D01*
X59669000Y-60027000D01*
X59669000Y-59773000D01*
X59689000Y-59773000D01*
X59689000Y-59753000D01*
X59943000Y-59753000D01*
X59943000Y-59773000D01*
X60825650Y-59773000D01*
X60984400Y-59614250D01*
X60984400Y-59315109D01*
X60984400Y-59062490D01*
X60887727Y-58829101D01*
X60761757Y-58703132D01*
X60835000Y-58526310D01*
X60835000Y-58273691D01*
X60835000Y-58085750D01*
X60676250Y-57927000D01*
X59327000Y-57927000D01*
X59327000Y-57947000D01*
X59073000Y-57947000D01*
X59073000Y-57927000D01*
X59053000Y-57927000D01*
X59053000Y-57673000D01*
X59073000Y-57673000D01*
X59073000Y-57653000D01*
X59327000Y-57653000D01*
X59327000Y-57673000D01*
X60676250Y-57673000D01*
X60835000Y-57514250D01*
X60835000Y-57326309D01*
X60835000Y-57073690D01*
X60738327Y-56840301D01*
X60596849Y-56698824D01*
X60654927Y-56660673D01*
X60797377Y-56449640D01*
X60847440Y-56200000D01*
X60847440Y-55185000D01*
X61265000Y-55185000D01*
X61265000Y-55314250D01*
X61423750Y-55473000D01*
X62773000Y-55473000D01*
X62773000Y-55453000D01*
X63027000Y-55453000D01*
X63027000Y-55473000D01*
X63047000Y-55473000D01*
X63047000Y-55727000D01*
X63027000Y-55727000D01*
X63027000Y-55747000D01*
X62773000Y-55747000D01*
X62773000Y-55727000D01*
X61423750Y-55727000D01*
X61265000Y-55885750D01*
X61265000Y-56073691D01*
X61265000Y-56326310D01*
X61361673Y-56559699D01*
X61503150Y-56701175D01*
X61445073Y-56739327D01*
X61302623Y-56950360D01*
X61252560Y-57200000D01*
X61252560Y-58400000D01*
X61299537Y-58642123D01*
X61339070Y-58702304D01*
X61212273Y-58829101D01*
X61115600Y-59062490D01*
X61115600Y-59315109D01*
X61115600Y-59614250D01*
X61274350Y-59773000D01*
X62157000Y-59773000D01*
X62157000Y-59753000D01*
X62411000Y-59753000D01*
X62411000Y-59773000D01*
X62431000Y-59773000D01*
X62431000Y-60027000D01*
X62411000Y-60027000D01*
X62411000Y-61087450D01*
X62569750Y-61246200D01*
X62943709Y-61246200D01*
X63177098Y-61149527D01*
X63297573Y-61029052D01*
X63321927Y-61066127D01*
X63532960Y-61208577D01*
X63782600Y-61258640D01*
X64849400Y-61258640D01*
X65091523Y-61211663D01*
X65304327Y-61071873D01*
X65446777Y-60860840D01*
X65496840Y-60611200D01*
X65496840Y-59188800D01*
X65449863Y-58946677D01*
X65310073Y-58733873D01*
X65101000Y-58592746D01*
X65101000Y-57800000D01*
X65101000Y-57109158D01*
X65525158Y-56685000D01*
X65588096Y-56685000D01*
X65585378Y-56687714D01*
X65420687Y-57084332D01*
X65420313Y-57513784D01*
X65584311Y-57910689D01*
X65887714Y-58214622D01*
X66284332Y-58379313D01*
X66713784Y-58379687D01*
X67110689Y-58215689D01*
X67241606Y-58085000D01*
X67889701Y-58085000D01*
X68099594Y-58225245D01*
X68400000Y-58285000D01*
X69517478Y-58285000D01*
X69550137Y-58453323D01*
X69689927Y-58666127D01*
X69716523Y-58684080D01*
G36*
X72872696Y-56282854D02*
X72843000Y-56312550D01*
X72843000Y-57373000D01*
X72863000Y-57373000D01*
X72863000Y-57627000D01*
X72843000Y-57627000D01*
X72843000Y-57647000D01*
X72589000Y-57647000D01*
X72589000Y-57627000D01*
X72569000Y-57627000D01*
X72569000Y-57373000D01*
X72589000Y-57373000D01*
X72589000Y-56312550D01*
X72430250Y-56153800D01*
X72056291Y-56153800D01*
X71822902Y-56250473D01*
X71702426Y-56370947D01*
X71678073Y-56333873D01*
X71583268Y-56269878D01*
X71755079Y-56155079D01*
X71953859Y-55956299D01*
X72068416Y-55784850D01*
X72068417Y-55784850D01*
X72124025Y-55701627D01*
X72124025Y-55701626D01*
X72168739Y-55476832D01*
X72199518Y-55431235D01*
X72257994Y-55520254D01*
X72273735Y-55599387D01*
X72397657Y-55784850D01*
X72443901Y-55854059D01*
X72872696Y-56282854D01*
X72872696Y-56282854D01*
G37*
X72872696Y-56282854D02*
X72843000Y-56312550D01*
X72843000Y-57373000D01*
X72863000Y-57373000D01*
X72863000Y-57627000D01*
X72843000Y-57627000D01*
X72843000Y-57647000D01*
X72589000Y-57647000D01*
X72589000Y-57627000D01*
X72569000Y-57627000D01*
X72569000Y-57373000D01*
X72589000Y-57373000D01*
X72589000Y-56312550D01*
X72430250Y-56153800D01*
X72056291Y-56153800D01*
X71822902Y-56250473D01*
X71702426Y-56370947D01*
X71678073Y-56333873D01*
X71583268Y-56269878D01*
X71755079Y-56155079D01*
X71953859Y-55956299D01*
X72068416Y-55784850D01*
X72068417Y-55784850D01*
X72124025Y-55701627D01*
X72124025Y-55701626D01*
X72168739Y-55476832D01*
X72199518Y-55431235D01*
X72257994Y-55520254D01*
X72273735Y-55599387D01*
X72397657Y-55784850D01*
X72443901Y-55854059D01*
X72872696Y-56282854D01*
G36*
X73537996Y-52401925D02*
X73515346Y-52514866D01*
X73396134Y-52537996D01*
X73223770Y-52503430D01*
X72774190Y-52503430D01*
X72601048Y-52537023D01*
X72549980Y-52515870D01*
X72470025Y-52515870D01*
X72311275Y-52674620D01*
X72311275Y-52702030D01*
X72198241Y-52869484D01*
X72086485Y-52699356D01*
X72086485Y-52674620D01*
X71927735Y-52515870D01*
X71847780Y-52515870D01*
X71794875Y-52537783D01*
X71623570Y-52503430D01*
X71173990Y-52503430D01*
X71002577Y-52536687D01*
X70952320Y-52515870D01*
X70872365Y-52515870D01*
X70713615Y-52674620D01*
X70713615Y-52698267D01*
X70599328Y-52867577D01*
X70586120Y-52847469D01*
X70586120Y-48940563D01*
X70714622Y-48812286D01*
X70879313Y-48415668D01*
X70879670Y-48005465D01*
X70955079Y-47955079D01*
X71156299Y-47753859D01*
X71326465Y-47499187D01*
X71326465Y-47499186D01*
X71386220Y-47198780D01*
X71386220Y-47153831D01*
X71400671Y-47132422D01*
X71511175Y-47300643D01*
X71511175Y-47325380D01*
X71669925Y-47484130D01*
X71749880Y-47484130D01*
X71802784Y-47462216D01*
X71974090Y-47496570D01*
X72040176Y-47496570D01*
X71920687Y-47784332D01*
X71920313Y-48213784D01*
X72084311Y-48610689D01*
X72387714Y-48914622D01*
X72615000Y-49008999D01*
X72615000Y-49900000D01*
X72674755Y-50200407D01*
X72844921Y-50455079D01*
X73343701Y-50953859D01*
X73503430Y-51060585D01*
X73503430Y-51423670D01*
X73537996Y-51601825D01*
X73503430Y-51774190D01*
X73503430Y-52223770D01*
X73537996Y-52401925D01*
X73537996Y-52401925D01*
G37*
X73537996Y-52401925D02*
X73515346Y-52514866D01*
X73396134Y-52537996D01*
X73223770Y-52503430D01*
X72774190Y-52503430D01*
X72601048Y-52537023D01*
X72549980Y-52515870D01*
X72470025Y-52515870D01*
X72311275Y-52674620D01*
X72311275Y-52702030D01*
X72198241Y-52869484D01*
X72086485Y-52699356D01*
X72086485Y-52674620D01*
X71927735Y-52515870D01*
X71847780Y-52515870D01*
X71794875Y-52537783D01*
X71623570Y-52503430D01*
X71173990Y-52503430D01*
X71002577Y-52536687D01*
X70952320Y-52515870D01*
X70872365Y-52515870D01*
X70713615Y-52674620D01*
X70713615Y-52698267D01*
X70599328Y-52867577D01*
X70586120Y-52847469D01*
X70586120Y-48940563D01*
X70714622Y-48812286D01*
X70879313Y-48415668D01*
X70879670Y-48005465D01*
X70955079Y-47955079D01*
X71156299Y-47753859D01*
X71326465Y-47499187D01*
X71326465Y-47499186D01*
X71386220Y-47198780D01*
X71386220Y-47153831D01*
X71400671Y-47132422D01*
X71511175Y-47300643D01*
X71511175Y-47325380D01*
X71669925Y-47484130D01*
X71749880Y-47484130D01*
X71802784Y-47462216D01*
X71974090Y-47496570D01*
X72040176Y-47496570D01*
X71920687Y-47784332D01*
X71920313Y-48213784D01*
X72084311Y-48610689D01*
X72387714Y-48914622D01*
X72615000Y-49008999D01*
X72615000Y-49900000D01*
X72674755Y-50200407D01*
X72844921Y-50455079D01*
X73343701Y-50953859D01*
X73503430Y-51060585D01*
X73503430Y-51423670D01*
X73537996Y-51601825D01*
X73503430Y-51774190D01*
X73503430Y-52223770D01*
X73537996Y-52401925D01*
G36*
X78003747Y-60014142D02*
X77824142Y-60193747D01*
X77810000Y-60179605D01*
X77795857Y-60193747D01*
X77616252Y-60014142D01*
X77630395Y-60000000D01*
X76829787Y-59199392D01*
X76587603Y-59268857D01*
X76537491Y-59409317D01*
X76455010Y-59209697D01*
X76062370Y-58816371D01*
X75549100Y-58603243D01*
X74993339Y-58602758D01*
X74985963Y-58605805D01*
X74525079Y-58144921D01*
X74270407Y-57974755D01*
X73970000Y-57915000D01*
X73884400Y-57915000D01*
X73884400Y-57785750D01*
X73725652Y-57627002D01*
X73884400Y-57627002D01*
X73884400Y-57537817D01*
X73984332Y-57579313D01*
X74413784Y-57579687D01*
X74810689Y-57415689D01*
X75114622Y-57112286D01*
X75279313Y-56715668D01*
X75279687Y-56286216D01*
X75211828Y-56121986D01*
X75344921Y-56255079D01*
X75599594Y-56425245D01*
X75900000Y-56485000D01*
X77889781Y-56485000D01*
X77853223Y-56539160D01*
X77803160Y-56788800D01*
X77803160Y-58211200D01*
X77850137Y-58453323D01*
X77942939Y-58594597D01*
X77462632Y-58618638D01*
X77078857Y-58777603D01*
X77009392Y-59019787D01*
X77810000Y-59820395D01*
X77824142Y-59806252D01*
X78003747Y-59985857D01*
X77989605Y-60000000D01*
X78003747Y-60014142D01*
X78003747Y-60014142D01*
G37*
X78003747Y-60014142D02*
X77824142Y-60193747D01*
X77810000Y-60179605D01*
X77795857Y-60193747D01*
X77616252Y-60014142D01*
X77630395Y-60000000D01*
X76829787Y-59199392D01*
X76587603Y-59268857D01*
X76537491Y-59409317D01*
X76455010Y-59209697D01*
X76062370Y-58816371D01*
X75549100Y-58603243D01*
X74993339Y-58602758D01*
X74985963Y-58605805D01*
X74525079Y-58144921D01*
X74270407Y-57974755D01*
X73970000Y-57915000D01*
X73884400Y-57915000D01*
X73884400Y-57785750D01*
X73725652Y-57627002D01*
X73884400Y-57627002D01*
X73884400Y-57537817D01*
X73984332Y-57579313D01*
X74413784Y-57579687D01*
X74810689Y-57415689D01*
X75114622Y-57112286D01*
X75279313Y-56715668D01*
X75279687Y-56286216D01*
X75211828Y-56121986D01*
X75344921Y-56255079D01*
X75599594Y-56425245D01*
X75900000Y-56485000D01*
X77889781Y-56485000D01*
X77853223Y-56539160D01*
X77803160Y-56788800D01*
X77803160Y-58211200D01*
X77850137Y-58453323D01*
X77942939Y-58594597D01*
X77462632Y-58618638D01*
X77078857Y-58777603D01*
X77009392Y-59019787D01*
X77810000Y-59820395D01*
X77824142Y-59806252D01*
X78003747Y-59985857D01*
X77989605Y-60000000D01*
X78003747Y-60014142D01*
G36*
X80170568Y-48799954D02*
X80072573Y-48864327D01*
X79986687Y-48991562D01*
X79892500Y-49085750D01*
X79892500Y-49201310D01*
X79900831Y-49221423D01*
X79880060Y-49325000D01*
X79880060Y-49875000D01*
X79904713Y-50002065D01*
X79880060Y-50125000D01*
X79880060Y-50621442D01*
X79844921Y-50644921D01*
X79736029Y-50753812D01*
X79725245Y-50699594D01*
X79725244Y-50699593D01*
X79555079Y-50444921D01*
X79555075Y-50444918D01*
X78953859Y-49843701D01*
X78699187Y-49673535D01*
X78660750Y-49665889D01*
X78814622Y-49512286D01*
X78979313Y-49115668D01*
X78979600Y-48785000D01*
X80148415Y-48785000D01*
X80170568Y-48799954D01*
X80170568Y-48799954D01*
G37*
X80170568Y-48799954D02*
X80072573Y-48864327D01*
X79986687Y-48991562D01*
X79892500Y-49085750D01*
X79892500Y-49201310D01*
X79900831Y-49221423D01*
X79880060Y-49325000D01*
X79880060Y-49875000D01*
X79904713Y-50002065D01*
X79880060Y-50125000D01*
X79880060Y-50621442D01*
X79844921Y-50644921D01*
X79736029Y-50753812D01*
X79725245Y-50699594D01*
X79725244Y-50699593D01*
X79555079Y-50444921D01*
X79555075Y-50444918D01*
X78953859Y-49843701D01*
X78699187Y-49673535D01*
X78660750Y-49665889D01*
X78814622Y-49512286D01*
X78979313Y-49115668D01*
X78979600Y-48785000D01*
X80148415Y-48785000D01*
X80170568Y-48799954D01*
G36*
X80497000Y-60127000D02*
X80477000Y-60127000D01*
X80477000Y-60147000D01*
X80223000Y-60147000D01*
X80223000Y-60127000D01*
X80203000Y-60127000D01*
X80203000Y-59873000D01*
X80223000Y-59873000D01*
X80223000Y-59853000D01*
X80477000Y-59853000D01*
X80477000Y-59873000D01*
X80497000Y-59873000D01*
X80497000Y-60127000D01*
X80497000Y-60127000D01*
G37*
X80497000Y-60127000D02*
X80477000Y-60127000D01*
X80477000Y-60147000D01*
X80223000Y-60147000D01*
X80223000Y-60127000D01*
X80203000Y-60127000D01*
X80203000Y-59873000D01*
X80223000Y-59873000D01*
X80223000Y-59853000D01*
X80477000Y-59853000D01*
X80477000Y-59873000D01*
X80497000Y-59873000D01*
X80497000Y-60127000D01*
G36*
X85199000Y-50194562D02*
X84995673Y-50328127D01*
X84853223Y-50539160D01*
X84810396Y-50752714D01*
X84699594Y-50774755D01*
X84507500Y-50903107D01*
X84507500Y-50801310D01*
X84507500Y-50798690D01*
X84507500Y-50685750D01*
X84427639Y-50605889D01*
X84410827Y-50565301D01*
X84239172Y-50393647D01*
X84327427Y-50335673D01*
X84413312Y-50208437D01*
X84507500Y-50114250D01*
X84507500Y-49998690D01*
X84499168Y-49978576D01*
X84519940Y-49875000D01*
X84519940Y-49325000D01*
X84499628Y-49220313D01*
X84507500Y-49201310D01*
X84507500Y-49085750D01*
X84412340Y-48990590D01*
X84333173Y-48870073D01*
X84229431Y-48800045D01*
X84252335Y-48785000D01*
X84817478Y-48785000D01*
X84850137Y-48953323D01*
X84989927Y-49166127D01*
X85199000Y-49307253D01*
X85199000Y-50194562D01*
X85199000Y-50194562D01*
G37*
X85199000Y-50194562D02*
X84995673Y-50328127D01*
X84853223Y-50539160D01*
X84810396Y-50752714D01*
X84699594Y-50774755D01*
X84507500Y-50903107D01*
X84507500Y-50801310D01*
X84507500Y-50798690D01*
X84507500Y-50685750D01*
X84427639Y-50605889D01*
X84410827Y-50565301D01*
X84239172Y-50393647D01*
X84327427Y-50335673D01*
X84413312Y-50208437D01*
X84507500Y-50114250D01*
X84507500Y-49998690D01*
X84499168Y-49978576D01*
X84519940Y-49875000D01*
X84519940Y-49325000D01*
X84499628Y-49220313D01*
X84507500Y-49201310D01*
X84507500Y-49085750D01*
X84412340Y-48990590D01*
X84333173Y-48870073D01*
X84229431Y-48800045D01*
X84252335Y-48785000D01*
X84817478Y-48785000D01*
X84850137Y-48953323D01*
X84989927Y-49166127D01*
X85199000Y-49307253D01*
X85199000Y-50194562D01*
G36*
X94242000Y-44632673D02*
X94055000Y-44595172D01*
X94055000Y-44470000D01*
X93995245Y-44169594D01*
X93995245Y-44169593D01*
X93825079Y-43914921D01*
X93155079Y-43244921D01*
X92900407Y-43074755D01*
X92600000Y-43015000D01*
X91530608Y-43015000D01*
X91530608Y-40980213D01*
X90730000Y-40179605D01*
X90550395Y-40359210D01*
X90550395Y-40000000D01*
X89749787Y-39199392D01*
X89507603Y-39268857D01*
X89320856Y-39792302D01*
X89348638Y-40347368D01*
X89507603Y-40731143D01*
X89749787Y-40800608D01*
X90550395Y-40000000D01*
X90550395Y-40359210D01*
X89929392Y-40980213D01*
X89998857Y-41222397D01*
X90522302Y-41409144D01*
X91077368Y-41381362D01*
X91461143Y-41222397D01*
X91530608Y-40980213D01*
X91530608Y-43015000D01*
X86600005Y-43015000D01*
X86600000Y-43014999D01*
X86299594Y-43074755D01*
X86044921Y-43244921D01*
X85428921Y-43860921D01*
X85258755Y-44115593D01*
X85199000Y-44416000D01*
X85199000Y-45815000D01*
X84285000Y-45815000D01*
X84285000Y-40450000D01*
X84225245Y-40149594D01*
X84225245Y-40149593D01*
X84055079Y-39894921D01*
X83652579Y-39492421D01*
X83397907Y-39322255D01*
X83381556Y-39319002D01*
X83349763Y-39155137D01*
X83209973Y-38942333D01*
X82998940Y-38799883D01*
X82749300Y-38749820D01*
X81250700Y-38749820D01*
X81008577Y-38796797D01*
X80795773Y-38936587D01*
X80750376Y-39003839D01*
X80709973Y-38942333D01*
X80498940Y-38799883D01*
X80249300Y-38749820D01*
X78750700Y-38749820D01*
X78508577Y-38796797D01*
X78295773Y-38936587D01*
X78153323Y-39147620D01*
X78103260Y-39397260D01*
X78103260Y-39455110D01*
X78047421Y-39492421D01*
X76554842Y-40985000D01*
X72227201Y-40985000D01*
X72225010Y-40979697D01*
X71871822Y-40625892D01*
X72044123Y-40592463D01*
X72256927Y-40452673D01*
X72399377Y-40241640D01*
X72449440Y-39992000D01*
X72449440Y-38710000D01*
X90162064Y-38710000D01*
X89998857Y-38777603D01*
X89929392Y-39019787D01*
X90730000Y-39820395D01*
X91530608Y-39019787D01*
X91461143Y-38777603D01*
X91271654Y-38710000D01*
X92155565Y-38710000D01*
X92053073Y-38777327D01*
X91910623Y-38988360D01*
X91860560Y-39238000D01*
X91860560Y-39242515D01*
X91710213Y-39199392D01*
X90909605Y-40000000D01*
X91710213Y-40800608D01*
X91860560Y-40757484D01*
X91860560Y-40762000D01*
X91907537Y-41004123D01*
X92047327Y-41216927D01*
X92258360Y-41359377D01*
X92508000Y-41409440D01*
X94032000Y-41409440D01*
X94242000Y-41368695D01*
X94242000Y-44632673D01*
X94242000Y-44632673D01*
G37*
X94242000Y-44632673D02*
X94055000Y-44595172D01*
X94055000Y-44470000D01*
X93995245Y-44169594D01*
X93995245Y-44169593D01*
X93825079Y-43914921D01*
X93155079Y-43244921D01*
X92900407Y-43074755D01*
X92600000Y-43015000D01*
X91530608Y-43015000D01*
X91530608Y-40980213D01*
X90730000Y-40179605D01*
X90550395Y-40359210D01*
X90550395Y-40000000D01*
X89749787Y-39199392D01*
X89507603Y-39268857D01*
X89320856Y-39792302D01*
X89348638Y-40347368D01*
X89507603Y-40731143D01*
X89749787Y-40800608D01*
X90550395Y-40000000D01*
X90550395Y-40359210D01*
X89929392Y-40980213D01*
X89998857Y-41222397D01*
X90522302Y-41409144D01*
X91077368Y-41381362D01*
X91461143Y-41222397D01*
X91530608Y-40980213D01*
X91530608Y-43015000D01*
X86600005Y-43015000D01*
X86600000Y-43014999D01*
X86299594Y-43074755D01*
X86044921Y-43244921D01*
X85428921Y-43860921D01*
X85258755Y-44115593D01*
X85199000Y-44416000D01*
X85199000Y-45815000D01*
X84285000Y-45815000D01*
X84285000Y-40450000D01*
X84225245Y-40149594D01*
X84225245Y-40149593D01*
X84055079Y-39894921D01*
X83652579Y-39492421D01*
X83397907Y-39322255D01*
X83381556Y-39319002D01*
X83349763Y-39155137D01*
X83209973Y-38942333D01*
X82998940Y-38799883D01*
X82749300Y-38749820D01*
X81250700Y-38749820D01*
X81008577Y-38796797D01*
X80795773Y-38936587D01*
X80750376Y-39003839D01*
X80709973Y-38942333D01*
X80498940Y-38799883D01*
X80249300Y-38749820D01*
X78750700Y-38749820D01*
X78508577Y-38796797D01*
X78295773Y-38936587D01*
X78153323Y-39147620D01*
X78103260Y-39397260D01*
X78103260Y-39455110D01*
X78047421Y-39492421D01*
X76554842Y-40985000D01*
X72227201Y-40985000D01*
X72225010Y-40979697D01*
X71871822Y-40625892D01*
X72044123Y-40592463D01*
X72256927Y-40452673D01*
X72399377Y-40241640D01*
X72449440Y-39992000D01*
X72449440Y-38710000D01*
X90162064Y-38710000D01*
X89998857Y-38777603D01*
X89929392Y-39019787D01*
X90730000Y-39820395D01*
X91530608Y-39019787D01*
X91461143Y-38777603D01*
X91271654Y-38710000D01*
X92155565Y-38710000D01*
X92053073Y-38777327D01*
X91910623Y-38988360D01*
X91860560Y-39238000D01*
X91860560Y-39242515D01*
X91710213Y-39199392D01*
X90909605Y-40000000D01*
X91710213Y-40800608D01*
X91860560Y-40757484D01*
X91860560Y-40762000D01*
X91907537Y-41004123D01*
X92047327Y-41216927D01*
X92258360Y-41359377D01*
X92508000Y-41409440D01*
X94032000Y-41409440D01*
X94242000Y-41368695D01*
X94242000Y-44632673D01*
G36*
X94242000Y-58515000D02*
X89184400Y-58515000D01*
X89184400Y-54837510D01*
X89184400Y-54584891D01*
X89184400Y-54285750D01*
X89184400Y-53714250D01*
X89184400Y-53415109D01*
X89184400Y-53162490D01*
X89087727Y-52929101D01*
X88909098Y-52750473D01*
X88907956Y-52750000D01*
X88909098Y-52749527D01*
X89087727Y-52570899D01*
X89184400Y-52337510D01*
X89184400Y-52084891D01*
X89184400Y-51785750D01*
X89025650Y-51627000D01*
X88143000Y-51627000D01*
X88143000Y-52687450D01*
X88205550Y-52750000D01*
X88143000Y-52812550D01*
X88143000Y-53873000D01*
X89025650Y-53873000D01*
X89184400Y-53714250D01*
X89184400Y-54285750D01*
X89025650Y-54127000D01*
X88143000Y-54127000D01*
X88143000Y-55187450D01*
X88301750Y-55346200D01*
X88675709Y-55346200D01*
X88909098Y-55249527D01*
X89087727Y-55070899D01*
X89184400Y-54837510D01*
X89184400Y-58515000D01*
X86525158Y-58515000D01*
X83785000Y-55774842D01*
X83785000Y-55741681D01*
X83914622Y-55612286D01*
X84079313Y-55215668D01*
X84079541Y-54952752D01*
X84384332Y-55079313D01*
X84813784Y-55079687D01*
X84907663Y-55040896D01*
X84989927Y-55166127D01*
X85200960Y-55308577D01*
X85450600Y-55358640D01*
X86517400Y-55358640D01*
X86759523Y-55311663D01*
X86972327Y-55171873D01*
X87001713Y-55128338D01*
X87122902Y-55249527D01*
X87356291Y-55346200D01*
X87730250Y-55346200D01*
X87889000Y-55187450D01*
X87889000Y-54127000D01*
X87869000Y-54127000D01*
X87869000Y-53873000D01*
X87889000Y-53873000D01*
X87889000Y-52812550D01*
X87826450Y-52750000D01*
X87889000Y-52687450D01*
X87889000Y-51627000D01*
X87869000Y-51627000D01*
X87869000Y-51373000D01*
X87889000Y-51373000D01*
X87889000Y-50312550D01*
X87730250Y-50153800D01*
X87356291Y-50153800D01*
X87122902Y-50250473D01*
X87002426Y-50370947D01*
X86978073Y-50333873D01*
X86769000Y-50192746D01*
X86769000Y-49305437D01*
X86972327Y-49171873D01*
X87001713Y-49128338D01*
X87122902Y-49249527D01*
X87356291Y-49346200D01*
X87730250Y-49346200D01*
X87889000Y-49187450D01*
X87889000Y-48127000D01*
X87869000Y-48127000D01*
X87869000Y-47873000D01*
X87889000Y-47873000D01*
X87889000Y-46812550D01*
X87730250Y-46653800D01*
X87356291Y-46653800D01*
X87122902Y-46750473D01*
X87002426Y-46870947D01*
X86978073Y-46833873D01*
X86769000Y-46692746D01*
X86769000Y-46600000D01*
X86769000Y-44741158D01*
X86925158Y-44585000D01*
X92274842Y-44585000D01*
X92317385Y-44627543D01*
X92265877Y-44637537D01*
X92053073Y-44777327D01*
X91910623Y-44988360D01*
X91860560Y-45238000D01*
X91860560Y-45242515D01*
X91710213Y-45199392D01*
X91530608Y-45378997D01*
X91530608Y-45019787D01*
X91461143Y-44777603D01*
X90937698Y-44590856D01*
X90382632Y-44618638D01*
X89998857Y-44777603D01*
X89929392Y-45019787D01*
X90730000Y-45820395D01*
X91530608Y-45019787D01*
X91530608Y-45378997D01*
X90909605Y-46000000D01*
X91710213Y-46800608D01*
X91860560Y-46757484D01*
X91860560Y-46762000D01*
X91907537Y-47004123D01*
X92047327Y-47216927D01*
X92258360Y-47359377D01*
X92508000Y-47409440D01*
X94032000Y-47409440D01*
X94242000Y-47368695D01*
X94242000Y-52632673D01*
X94032000Y-52590560D01*
X92508000Y-52590560D01*
X92265877Y-52637537D01*
X92053073Y-52777327D01*
X91910623Y-52988360D01*
X91874395Y-53169011D01*
X91530608Y-52824623D01*
X91530608Y-46980213D01*
X90730000Y-46179605D01*
X90550395Y-46359210D01*
X90550395Y-46000000D01*
X89749787Y-45199392D01*
X89507603Y-45268857D01*
X89320856Y-45792302D01*
X89348638Y-46347368D01*
X89507603Y-46731143D01*
X89749787Y-46800608D01*
X90550395Y-46000000D01*
X90550395Y-46359210D01*
X89929392Y-46980213D01*
X89998857Y-47222397D01*
X90522302Y-47409144D01*
X91077368Y-47381362D01*
X91461143Y-47222397D01*
X91530608Y-46980213D01*
X91530608Y-52824623D01*
X91522370Y-52816371D01*
X91515000Y-52813310D01*
X91515000Y-49930000D01*
X91455245Y-49629594D01*
X91285079Y-49374921D01*
X90855079Y-48944921D01*
X90600407Y-48774755D01*
X90300000Y-48715000D01*
X90241681Y-48715000D01*
X90112286Y-48585378D01*
X89715668Y-48420687D01*
X89286216Y-48420313D01*
X89184400Y-48462382D01*
X89184400Y-48285750D01*
X89184400Y-47714250D01*
X89184400Y-47415109D01*
X89184400Y-47162490D01*
X89087727Y-46929101D01*
X88909098Y-46750473D01*
X88675709Y-46653800D01*
X88301750Y-46653800D01*
X88143000Y-46812550D01*
X88143000Y-47873000D01*
X89025650Y-47873000D01*
X89184400Y-47714250D01*
X89184400Y-48285750D01*
X89025650Y-48127000D01*
X88143000Y-48127000D01*
X88143000Y-49187450D01*
X88301750Y-49346200D01*
X88420633Y-49346200D01*
X88420313Y-49713784D01*
X88584311Y-50110689D01*
X88627346Y-50153800D01*
X88301750Y-50153800D01*
X88143000Y-50312550D01*
X88143000Y-51373000D01*
X89025650Y-51373000D01*
X89184400Y-51214250D01*
X89184400Y-50915109D01*
X89184400Y-50662490D01*
X89122031Y-50511919D01*
X89284332Y-50579313D01*
X89713784Y-50579687D01*
X89945000Y-50484150D01*
X89945000Y-52812798D01*
X89939697Y-52814990D01*
X89546371Y-53207630D01*
X89333243Y-53720900D01*
X89332758Y-54276661D01*
X89544990Y-54790303D01*
X89937630Y-55183629D01*
X90450900Y-55396757D01*
X91006661Y-55397242D01*
X91520303Y-55185010D01*
X91874107Y-54831822D01*
X91907537Y-55004123D01*
X92047327Y-55216927D01*
X92258360Y-55359377D01*
X92508000Y-55409440D01*
X94032000Y-55409440D01*
X94242000Y-55368695D01*
X94242000Y-58515000D01*
X94242000Y-58515000D01*
G37*
X94242000Y-58515000D02*
X89184400Y-58515000D01*
X89184400Y-54837510D01*
X89184400Y-54584891D01*
X89184400Y-54285750D01*
X89184400Y-53714250D01*
X89184400Y-53415109D01*
X89184400Y-53162490D01*
X89087727Y-52929101D01*
X88909098Y-52750473D01*
X88907956Y-52750000D01*
X88909098Y-52749527D01*
X89087727Y-52570899D01*
X89184400Y-52337510D01*
X89184400Y-52084891D01*
X89184400Y-51785750D01*
X89025650Y-51627000D01*
X88143000Y-51627000D01*
X88143000Y-52687450D01*
X88205550Y-52750000D01*
X88143000Y-52812550D01*
X88143000Y-53873000D01*
X89025650Y-53873000D01*
X89184400Y-53714250D01*
X89184400Y-54285750D01*
X89025650Y-54127000D01*
X88143000Y-54127000D01*
X88143000Y-55187450D01*
X88301750Y-55346200D01*
X88675709Y-55346200D01*
X88909098Y-55249527D01*
X89087727Y-55070899D01*
X89184400Y-54837510D01*
X89184400Y-58515000D01*
X86525158Y-58515000D01*
X83785000Y-55774842D01*
X83785000Y-55741681D01*
X83914622Y-55612286D01*
X84079313Y-55215668D01*
X84079541Y-54952752D01*
X84384332Y-55079313D01*
X84813784Y-55079687D01*
X84907663Y-55040896D01*
X84989927Y-55166127D01*
X85200960Y-55308577D01*
X85450600Y-55358640D01*
X86517400Y-55358640D01*
X86759523Y-55311663D01*
X86972327Y-55171873D01*
X87001713Y-55128338D01*
X87122902Y-55249527D01*
X87356291Y-55346200D01*
X87730250Y-55346200D01*
X87889000Y-55187450D01*
X87889000Y-54127000D01*
X87869000Y-54127000D01*
X87869000Y-53873000D01*
X87889000Y-53873000D01*
X87889000Y-52812550D01*
X87826450Y-52750000D01*
X87889000Y-52687450D01*
X87889000Y-51627000D01*
X87869000Y-51627000D01*
X87869000Y-51373000D01*
X87889000Y-51373000D01*
X87889000Y-50312550D01*
X87730250Y-50153800D01*
X87356291Y-50153800D01*
X87122902Y-50250473D01*
X87002426Y-50370947D01*
X86978073Y-50333873D01*
X86769000Y-50192746D01*
X86769000Y-49305437D01*
X86972327Y-49171873D01*
X87001713Y-49128338D01*
X87122902Y-49249527D01*
X87356291Y-49346200D01*
X87730250Y-49346200D01*
X87889000Y-49187450D01*
X87889000Y-48127000D01*
X87869000Y-48127000D01*
X87869000Y-47873000D01*
X87889000Y-47873000D01*
X87889000Y-46812550D01*
X87730250Y-46653800D01*
X87356291Y-46653800D01*
X87122902Y-46750473D01*
X87002426Y-46870947D01*
X86978073Y-46833873D01*
X86769000Y-46692746D01*
X86769000Y-46600000D01*
X86769000Y-44741158D01*
X86925158Y-44585000D01*
X92274842Y-44585000D01*
X92317385Y-44627543D01*
X92265877Y-44637537D01*
X92053073Y-44777327D01*
X91910623Y-44988360D01*
X91860560Y-45238000D01*
X91860560Y-45242515D01*
X91710213Y-45199392D01*
X91530608Y-45378997D01*
X91530608Y-45019787D01*
X91461143Y-44777603D01*
X90937698Y-44590856D01*
X90382632Y-44618638D01*
X89998857Y-44777603D01*
X89929392Y-45019787D01*
X90730000Y-45820395D01*
X91530608Y-45019787D01*
X91530608Y-45378997D01*
X90909605Y-46000000D01*
X91710213Y-46800608D01*
X91860560Y-46757484D01*
X91860560Y-46762000D01*
X91907537Y-47004123D01*
X92047327Y-47216927D01*
X92258360Y-47359377D01*
X92508000Y-47409440D01*
X94032000Y-47409440D01*
X94242000Y-47368695D01*
X94242000Y-52632673D01*
X94032000Y-52590560D01*
X92508000Y-52590560D01*
X92265877Y-52637537D01*
X92053073Y-52777327D01*
X91910623Y-52988360D01*
X91874395Y-53169011D01*
X91530608Y-52824623D01*
X91530608Y-46980213D01*
X90730000Y-46179605D01*
X90550395Y-46359210D01*
X90550395Y-46000000D01*
X89749787Y-45199392D01*
X89507603Y-45268857D01*
X89320856Y-45792302D01*
X89348638Y-46347368D01*
X89507603Y-46731143D01*
X89749787Y-46800608D01*
X90550395Y-46000000D01*
X90550395Y-46359210D01*
X89929392Y-46980213D01*
X89998857Y-47222397D01*
X90522302Y-47409144D01*
X91077368Y-47381362D01*
X91461143Y-47222397D01*
X91530608Y-46980213D01*
X91530608Y-52824623D01*
X91522370Y-52816371D01*
X91515000Y-52813310D01*
X91515000Y-49930000D01*
X91455245Y-49629594D01*
X91285079Y-49374921D01*
X90855079Y-48944921D01*
X90600407Y-48774755D01*
X90300000Y-48715000D01*
X90241681Y-48715000D01*
X90112286Y-48585378D01*
X89715668Y-48420687D01*
X89286216Y-48420313D01*
X89184400Y-48462382D01*
X89184400Y-48285750D01*
X89184400Y-47714250D01*
X89184400Y-47415109D01*
X89184400Y-47162490D01*
X89087727Y-46929101D01*
X88909098Y-46750473D01*
X88675709Y-46653800D01*
X88301750Y-46653800D01*
X88143000Y-46812550D01*
X88143000Y-47873000D01*
X89025650Y-47873000D01*
X89184400Y-47714250D01*
X89184400Y-48285750D01*
X89025650Y-48127000D01*
X88143000Y-48127000D01*
X88143000Y-49187450D01*
X88301750Y-49346200D01*
X88420633Y-49346200D01*
X88420313Y-49713784D01*
X88584311Y-50110689D01*
X88627346Y-50153800D01*
X88301750Y-50153800D01*
X88143000Y-50312550D01*
X88143000Y-51373000D01*
X89025650Y-51373000D01*
X89184400Y-51214250D01*
X89184400Y-50915109D01*
X89184400Y-50662490D01*
X89122031Y-50511919D01*
X89284332Y-50579313D01*
X89713784Y-50579687D01*
X89945000Y-50484150D01*
X89945000Y-52812798D01*
X89939697Y-52814990D01*
X89546371Y-53207630D01*
X89333243Y-53720900D01*
X89332758Y-54276661D01*
X89544990Y-54790303D01*
X89937630Y-55183629D01*
X90450900Y-55396757D01*
X91006661Y-55397242D01*
X91520303Y-55185010D01*
X91874107Y-54831822D01*
X91907537Y-55004123D01*
X92047327Y-55216927D01*
X92258360Y-55359377D01*
X92508000Y-55409440D01*
X94032000Y-55409440D01*
X94242000Y-55368695D01*
X94242000Y-58515000D01*
G36*
X113290000Y-58237172D02*
X112724572Y-57670756D01*
X111931336Y-57341376D01*
X111072433Y-57340626D01*
X110278623Y-57668622D01*
X109670756Y-58275428D01*
X109341376Y-59068664D01*
X109340626Y-59927567D01*
X109668622Y-60721377D01*
X110236252Y-61290000D01*
X81482025Y-61290000D01*
X81650327Y-61121699D01*
X81747000Y-60888310D01*
X81747000Y-60839239D01*
X82084332Y-60979313D01*
X82513784Y-60979687D01*
X82910689Y-60815689D01*
X83214622Y-60512286D01*
X83379313Y-60115668D01*
X83379687Y-59686216D01*
X83215689Y-59289311D01*
X83085000Y-59158393D01*
X83085000Y-57900000D01*
X83025245Y-57599594D01*
X83025244Y-57599593D01*
X82855079Y-57344921D01*
X82455079Y-56944921D01*
X82200407Y-56774755D01*
X82193862Y-56773453D01*
X82149863Y-56546677D01*
X82010073Y-56333873D01*
X81799040Y-56191423D01*
X81549400Y-56141360D01*
X80518798Y-56141360D01*
X81655079Y-55005079D01*
X81825245Y-54750407D01*
X81825245Y-54750406D01*
X81885000Y-54450000D01*
X81885000Y-53395158D01*
X81894921Y-53405079D01*
X82149593Y-53575245D01*
X82149594Y-53575245D01*
X82450000Y-53635000D01*
X83582695Y-53635000D01*
X83520687Y-53784332D01*
X83520458Y-54047247D01*
X83215668Y-53920687D01*
X82786216Y-53920313D01*
X82389311Y-54084311D01*
X82085378Y-54387714D01*
X81920687Y-54784332D01*
X81920313Y-55213784D01*
X82084311Y-55610689D01*
X82215000Y-55741606D01*
X82215000Y-56100000D01*
X82274755Y-56400407D01*
X82444921Y-56655079D01*
X85644921Y-59855079D01*
X85899593Y-60025244D01*
X85899594Y-60025245D01*
X86200000Y-60085000D01*
X94242000Y-60085000D01*
X94242000Y-60758000D01*
X107258000Y-60758000D01*
X107258000Y-58204544D01*
X107720900Y-58396757D01*
X108276661Y-58397242D01*
X108790303Y-58185010D01*
X109183629Y-57792370D01*
X109396757Y-57279100D01*
X109397242Y-56723339D01*
X109204968Y-56258000D01*
X109758000Y-56258000D01*
X109758000Y-43742000D01*
X109204544Y-43742000D01*
X109396757Y-43279100D01*
X109397242Y-42723339D01*
X109185010Y-42209697D01*
X108792370Y-41816371D01*
X108279100Y-41603243D01*
X107723339Y-41602758D01*
X107258000Y-41795031D01*
X107258000Y-39242000D01*
X97435737Y-39242000D01*
X97300000Y-39215000D01*
X94674977Y-39215000D01*
X94632463Y-38995877D01*
X94492673Y-38783073D01*
X94384418Y-38710000D01*
X110237172Y-38710000D01*
X109670756Y-39275428D01*
X109341376Y-40068664D01*
X109340626Y-40927567D01*
X109668622Y-41721377D01*
X110275428Y-42329244D01*
X111068664Y-42658624D01*
X111927567Y-42659374D01*
X112721377Y-42331378D01*
X113290000Y-41763747D01*
X113290000Y-45273534D01*
X112823199Y-45101325D01*
X112192139Y-45126122D01*
X111724288Y-45319912D01*
X111631446Y-45581841D01*
X112570000Y-46520395D01*
X112584142Y-46506252D01*
X112763747Y-46685857D01*
X112749605Y-46700000D01*
X112763747Y-46714142D01*
X112584142Y-46893747D01*
X112570000Y-46879605D01*
X112390395Y-47059210D01*
X112390395Y-46700000D01*
X111451841Y-45761446D01*
X111189912Y-45854288D01*
X110971325Y-46446801D01*
X110996122Y-47077861D01*
X111189912Y-47545712D01*
X111451841Y-47638554D01*
X112390395Y-46700000D01*
X112390395Y-47059210D01*
X111631446Y-47818159D01*
X111724288Y-48080088D01*
X112316801Y-48298675D01*
X112947861Y-48273878D01*
X113290000Y-48132159D01*
X113290000Y-51873534D01*
X112823199Y-51701325D01*
X112192139Y-51726122D01*
X111724288Y-51919912D01*
X111631446Y-52181841D01*
X112570000Y-53120395D01*
X112584142Y-53106252D01*
X112763747Y-53285857D01*
X112749605Y-53300000D01*
X112763747Y-53314142D01*
X112584142Y-53493747D01*
X112570000Y-53479605D01*
X112390395Y-53659210D01*
X112390395Y-53300000D01*
X111451841Y-52361446D01*
X111189912Y-52454288D01*
X110971325Y-53046801D01*
X110996122Y-53677861D01*
X111189912Y-54145712D01*
X111451841Y-54238554D01*
X112390395Y-53300000D01*
X112390395Y-53659210D01*
X111631446Y-54418159D01*
X111724288Y-54680088D01*
X112316801Y-54898675D01*
X112947861Y-54873878D01*
X113290000Y-54732159D01*
X113290000Y-58237172D01*
X113290000Y-58237172D01*
G37*
X113290000Y-58237172D02*
X112724572Y-57670756D01*
X111931336Y-57341376D01*
X111072433Y-57340626D01*
X110278623Y-57668622D01*
X109670756Y-58275428D01*
X109341376Y-59068664D01*
X109340626Y-59927567D01*
X109668622Y-60721377D01*
X110236252Y-61290000D01*
X81482025Y-61290000D01*
X81650327Y-61121699D01*
X81747000Y-60888310D01*
X81747000Y-60839239D01*
X82084332Y-60979313D01*
X82513784Y-60979687D01*
X82910689Y-60815689D01*
X83214622Y-60512286D01*
X83379313Y-60115668D01*
X83379687Y-59686216D01*
X83215689Y-59289311D01*
X83085000Y-59158393D01*
X83085000Y-57900000D01*
X83025245Y-57599594D01*
X83025244Y-57599593D01*
X82855079Y-57344921D01*
X82455079Y-56944921D01*
X82200407Y-56774755D01*
X82193862Y-56773453D01*
X82149863Y-56546677D01*
X82010073Y-56333873D01*
X81799040Y-56191423D01*
X81549400Y-56141360D01*
X80518798Y-56141360D01*
X81655079Y-55005079D01*
X81825245Y-54750407D01*
X81825245Y-54750406D01*
X81885000Y-54450000D01*
X81885000Y-53395158D01*
X81894921Y-53405079D01*
X82149593Y-53575245D01*
X82149594Y-53575245D01*
X82450000Y-53635000D01*
X83582695Y-53635000D01*
X83520687Y-53784332D01*
X83520458Y-54047247D01*
X83215668Y-53920687D01*
X82786216Y-53920313D01*
X82389311Y-54084311D01*
X82085378Y-54387714D01*
X81920687Y-54784332D01*
X81920313Y-55213784D01*
X82084311Y-55610689D01*
X82215000Y-55741606D01*
X82215000Y-56100000D01*
X82274755Y-56400407D01*
X82444921Y-56655079D01*
X85644921Y-59855079D01*
X85899593Y-60025244D01*
X85899594Y-60025245D01*
X86200000Y-60085000D01*
X94242000Y-60085000D01*
X94242000Y-60758000D01*
X107258000Y-60758000D01*
X107258000Y-58204544D01*
X107720900Y-58396757D01*
X108276661Y-58397242D01*
X108790303Y-58185010D01*
X109183629Y-57792370D01*
X109396757Y-57279100D01*
X109397242Y-56723339D01*
X109204968Y-56258000D01*
X109758000Y-56258000D01*
X109758000Y-43742000D01*
X109204544Y-43742000D01*
X109396757Y-43279100D01*
X109397242Y-42723339D01*
X109185010Y-42209697D01*
X108792370Y-41816371D01*
X108279100Y-41603243D01*
X107723339Y-41602758D01*
X107258000Y-41795031D01*
X107258000Y-39242000D01*
X97435737Y-39242000D01*
X97300000Y-39215000D01*
X94674977Y-39215000D01*
X94632463Y-38995877D01*
X94492673Y-38783073D01*
X94384418Y-38710000D01*
X110237172Y-38710000D01*
X109670756Y-39275428D01*
X109341376Y-40068664D01*
X109340626Y-40927567D01*
X109668622Y-41721377D01*
X110275428Y-42329244D01*
X111068664Y-42658624D01*
X111927567Y-42659374D01*
X112721377Y-42331378D01*
X113290000Y-41763747D01*
X113290000Y-45273534D01*
X112823199Y-45101325D01*
X112192139Y-45126122D01*
X111724288Y-45319912D01*
X111631446Y-45581841D01*
X112570000Y-46520395D01*
X112584142Y-46506252D01*
X112763747Y-46685857D01*
X112749605Y-46700000D01*
X112763747Y-46714142D01*
X112584142Y-46893747D01*
X112570000Y-46879605D01*
X112390395Y-47059210D01*
X112390395Y-46700000D01*
X111451841Y-45761446D01*
X111189912Y-45854288D01*
X110971325Y-46446801D01*
X110996122Y-47077861D01*
X111189912Y-47545712D01*
X111451841Y-47638554D01*
X112390395Y-46700000D01*
X112390395Y-47059210D01*
X111631446Y-47818159D01*
X111724288Y-48080088D01*
X112316801Y-48298675D01*
X112947861Y-48273878D01*
X113290000Y-48132159D01*
X113290000Y-51873534D01*
X112823199Y-51701325D01*
X112192139Y-51726122D01*
X111724288Y-51919912D01*
X111631446Y-52181841D01*
X112570000Y-53120395D01*
X112584142Y-53106252D01*
X112763747Y-53285857D01*
X112749605Y-53300000D01*
X112763747Y-53314142D01*
X112584142Y-53493747D01*
X112570000Y-53479605D01*
X112390395Y-53659210D01*
X112390395Y-53300000D01*
X111451841Y-52361446D01*
X111189912Y-52454288D01*
X110971325Y-53046801D01*
X110996122Y-53677861D01*
X111189912Y-54145712D01*
X111451841Y-54238554D01*
X112390395Y-53300000D01*
X112390395Y-53659210D01*
X111631446Y-54418159D01*
X111724288Y-54680088D01*
X112316801Y-54898675D01*
X112947861Y-54873878D01*
X113290000Y-54732159D01*
X113290000Y-58237172D01*
G36*
X72763333Y-77116414D02*
X72697740Y-77103260D01*
X71397260Y-77103260D01*
X71155137Y-77150237D01*
X70942333Y-77290027D01*
X70799883Y-77501060D01*
X70749820Y-77750700D01*
X70749820Y-79215000D01*
X68835000Y-79215000D01*
X68835000Y-76426309D01*
X68835000Y-76235750D01*
X68676250Y-76077000D01*
X67827000Y-76077000D01*
X67827000Y-76776250D01*
X67985750Y-76935000D01*
X68073691Y-76935000D01*
X68326310Y-76935000D01*
X68559699Y-76838327D01*
X68738327Y-76659698D01*
X68835000Y-76426309D01*
X68835000Y-79215000D01*
X67573000Y-79215000D01*
X67573000Y-76776250D01*
X67573000Y-76077000D01*
X66723750Y-76077000D01*
X66565000Y-76235750D01*
X66565000Y-76426309D01*
X66661673Y-76659698D01*
X66840301Y-76838327D01*
X67073690Y-76935000D01*
X67326309Y-76935000D01*
X67414250Y-76935000D01*
X67573000Y-76776250D01*
X67573000Y-79215000D01*
X67250180Y-79215000D01*
X67250180Y-77750700D01*
X67203203Y-77508577D01*
X67063413Y-77295773D01*
X66852380Y-77153323D01*
X66602740Y-77103260D01*
X65302260Y-77103260D01*
X65238044Y-77115719D01*
X65248190Y-77105591D01*
X65472944Y-76564323D01*
X65473455Y-75978248D01*
X65393606Y-75785000D01*
X66685750Y-75785000D01*
X66723750Y-75823000D01*
X66766101Y-75823000D01*
X66950360Y-75947377D01*
X67200000Y-75997440D01*
X68200000Y-75997440D01*
X68442123Y-75950463D01*
X68636161Y-75823000D01*
X68676250Y-75823000D01*
X68835000Y-75664250D01*
X68835000Y-75473691D01*
X68826668Y-75453577D01*
X68847440Y-75350000D01*
X68847440Y-74650000D01*
X68822786Y-74522934D01*
X68847440Y-74400000D01*
X68847440Y-73700000D01*
X68800463Y-73457877D01*
X68660673Y-73245073D01*
X68449640Y-73102623D01*
X68200000Y-73052560D01*
X67200000Y-73052560D01*
X66957877Y-73099537D01*
X66745073Y-73239327D01*
X66727743Y-73265000D01*
X66275158Y-73265000D01*
X66185079Y-73174921D01*
X65930407Y-73004755D01*
X65630000Y-72945000D01*
X65269649Y-72945000D01*
X65249647Y-72896589D01*
X64835591Y-72481810D01*
X64294323Y-72257056D01*
X63708248Y-72256545D01*
X63166589Y-72480353D01*
X62751810Y-72894409D01*
X62527056Y-73435677D01*
X62526545Y-74021752D01*
X62606393Y-74215000D01*
X61457201Y-74215000D01*
X61455010Y-74209697D01*
X61062370Y-73816371D01*
X60854487Y-73730050D01*
X61060303Y-73645010D01*
X61453629Y-73252370D01*
X61666757Y-72739100D01*
X61667242Y-72183339D01*
X61564630Y-71935000D01*
X71038446Y-71935000D01*
X70835378Y-72137714D01*
X70670687Y-72534332D01*
X70670313Y-72963784D01*
X70712134Y-73065000D01*
X70673691Y-73065000D01*
X70585750Y-73065000D01*
X70427000Y-73223750D01*
X70427000Y-73923000D01*
X70447000Y-73923000D01*
X70447000Y-74002560D01*
X70173000Y-74002560D01*
X70173000Y-73923000D01*
X70173000Y-73223750D01*
X70014250Y-73065000D01*
X69926309Y-73065000D01*
X69673690Y-73065000D01*
X69440301Y-73161673D01*
X69261673Y-73340302D01*
X69165000Y-73573691D01*
X69165000Y-73764250D01*
X69323750Y-73923000D01*
X70173000Y-73923000D01*
X70173000Y-74002560D01*
X69800000Y-74002560D01*
X69557877Y-74049537D01*
X69363838Y-74177000D01*
X69323750Y-74177000D01*
X69165000Y-74335750D01*
X69165000Y-74526309D01*
X69173331Y-74546422D01*
X69152560Y-74650000D01*
X69152560Y-75350000D01*
X69177213Y-75477065D01*
X69152560Y-75600000D01*
X69152560Y-76300000D01*
X69199537Y-76542123D01*
X69339327Y-76754927D01*
X69550360Y-76897377D01*
X69800000Y-76947440D01*
X70800000Y-76947440D01*
X71042123Y-76900463D01*
X71254927Y-76760673D01*
X71272256Y-76735000D01*
X71780000Y-76735000D01*
X72080406Y-76675245D01*
X72080407Y-76675245D01*
X72335079Y-76505079D01*
X72526761Y-76313396D01*
X72526545Y-76561752D01*
X72750353Y-77103411D01*
X72763333Y-77116414D01*
X72763333Y-77116414D01*
G37*
X72763333Y-77116414D02*
X72697740Y-77103260D01*
X71397260Y-77103260D01*
X71155137Y-77150237D01*
X70942333Y-77290027D01*
X70799883Y-77501060D01*
X70749820Y-77750700D01*
X70749820Y-79215000D01*
X68835000Y-79215000D01*
X68835000Y-76426309D01*
X68835000Y-76235750D01*
X68676250Y-76077000D01*
X67827000Y-76077000D01*
X67827000Y-76776250D01*
X67985750Y-76935000D01*
X68073691Y-76935000D01*
X68326310Y-76935000D01*
X68559699Y-76838327D01*
X68738327Y-76659698D01*
X68835000Y-76426309D01*
X68835000Y-79215000D01*
X67573000Y-79215000D01*
X67573000Y-76776250D01*
X67573000Y-76077000D01*
X66723750Y-76077000D01*
X66565000Y-76235750D01*
X66565000Y-76426309D01*
X66661673Y-76659698D01*
X66840301Y-76838327D01*
X67073690Y-76935000D01*
X67326309Y-76935000D01*
X67414250Y-76935000D01*
X67573000Y-76776250D01*
X67573000Y-79215000D01*
X67250180Y-79215000D01*
X67250180Y-77750700D01*
X67203203Y-77508577D01*
X67063413Y-77295773D01*
X66852380Y-77153323D01*
X66602740Y-77103260D01*
X65302260Y-77103260D01*
X65238044Y-77115719D01*
X65248190Y-77105591D01*
X65472944Y-76564323D01*
X65473455Y-75978248D01*
X65393606Y-75785000D01*
X66685750Y-75785000D01*
X66723750Y-75823000D01*
X66766101Y-75823000D01*
X66950360Y-75947377D01*
X67200000Y-75997440D01*
X68200000Y-75997440D01*
X68442123Y-75950463D01*
X68636161Y-75823000D01*
X68676250Y-75823000D01*
X68835000Y-75664250D01*
X68835000Y-75473691D01*
X68826668Y-75453577D01*
X68847440Y-75350000D01*
X68847440Y-74650000D01*
X68822786Y-74522934D01*
X68847440Y-74400000D01*
X68847440Y-73700000D01*
X68800463Y-73457877D01*
X68660673Y-73245073D01*
X68449640Y-73102623D01*
X68200000Y-73052560D01*
X67200000Y-73052560D01*
X66957877Y-73099537D01*
X66745073Y-73239327D01*
X66727743Y-73265000D01*
X66275158Y-73265000D01*
X66185079Y-73174921D01*
X65930407Y-73004755D01*
X65630000Y-72945000D01*
X65269649Y-72945000D01*
X65249647Y-72896589D01*
X64835591Y-72481810D01*
X64294323Y-72257056D01*
X63708248Y-72256545D01*
X63166589Y-72480353D01*
X62751810Y-72894409D01*
X62527056Y-73435677D01*
X62526545Y-74021752D01*
X62606393Y-74215000D01*
X61457201Y-74215000D01*
X61455010Y-74209697D01*
X61062370Y-73816371D01*
X60854487Y-73730050D01*
X61060303Y-73645010D01*
X61453629Y-73252370D01*
X61666757Y-72739100D01*
X61667242Y-72183339D01*
X61564630Y-71935000D01*
X71038446Y-71935000D01*
X70835378Y-72137714D01*
X70670687Y-72534332D01*
X70670313Y-72963784D01*
X70712134Y-73065000D01*
X70673691Y-73065000D01*
X70585750Y-73065000D01*
X70427000Y-73223750D01*
X70427000Y-73923000D01*
X70447000Y-73923000D01*
X70447000Y-74002560D01*
X70173000Y-74002560D01*
X70173000Y-73923000D01*
X70173000Y-73223750D01*
X70014250Y-73065000D01*
X69926309Y-73065000D01*
X69673690Y-73065000D01*
X69440301Y-73161673D01*
X69261673Y-73340302D01*
X69165000Y-73573691D01*
X69165000Y-73764250D01*
X69323750Y-73923000D01*
X70173000Y-73923000D01*
X70173000Y-74002560D01*
X69800000Y-74002560D01*
X69557877Y-74049537D01*
X69363838Y-74177000D01*
X69323750Y-74177000D01*
X69165000Y-74335750D01*
X69165000Y-74526309D01*
X69173331Y-74546422D01*
X69152560Y-74650000D01*
X69152560Y-75350000D01*
X69177213Y-75477065D01*
X69152560Y-75600000D01*
X69152560Y-76300000D01*
X69199537Y-76542123D01*
X69339327Y-76754927D01*
X69550360Y-76897377D01*
X69800000Y-76947440D01*
X70800000Y-76947440D01*
X71042123Y-76900463D01*
X71254927Y-76760673D01*
X71272256Y-76735000D01*
X71780000Y-76735000D01*
X72080406Y-76675245D01*
X72080407Y-76675245D01*
X72335079Y-76505079D01*
X72526761Y-76313396D01*
X72526545Y-76561752D01*
X72750353Y-77103411D01*
X72763333Y-77116414D01*
G36*
X93338212Y-72409440D02*
X93166589Y-72480353D01*
X92751810Y-72894409D01*
X92664764Y-73104038D01*
X92560286Y-72999378D01*
X92163668Y-72834687D01*
X91734216Y-72834313D01*
X91530608Y-72918442D01*
X91530608Y-71980213D01*
X90730000Y-71179605D01*
X89929392Y-71980213D01*
X89998857Y-72222397D01*
X90522302Y-72409144D01*
X91077368Y-72381362D01*
X91461143Y-72222397D01*
X91530608Y-71980213D01*
X91530608Y-72918442D01*
X91337311Y-72998311D01*
X91166675Y-73168649D01*
X91159699Y-73161673D01*
X90926310Y-73065000D01*
X90673691Y-73065000D01*
X90585750Y-73065000D01*
X90427000Y-73223750D01*
X90427000Y-73923000D01*
X90447000Y-73923000D01*
X90447000Y-74002560D01*
X90173000Y-74002560D01*
X90173000Y-73923000D01*
X90173000Y-73223750D01*
X90014250Y-73065000D01*
X89926309Y-73065000D01*
X89673690Y-73065000D01*
X89440301Y-73161673D01*
X89261673Y-73340302D01*
X89165000Y-73573691D01*
X89165000Y-73764250D01*
X89323750Y-73923000D01*
X90173000Y-73923000D01*
X90173000Y-74002560D01*
X89800000Y-74002560D01*
X89557877Y-74049537D01*
X89363838Y-74177000D01*
X89323750Y-74177000D01*
X89165000Y-74335750D01*
X89165000Y-74526309D01*
X89173331Y-74546422D01*
X89152560Y-74650000D01*
X89152560Y-75350000D01*
X89177213Y-75477065D01*
X89152560Y-75600000D01*
X89152560Y-76300000D01*
X89199537Y-76542123D01*
X89339327Y-76754927D01*
X89550360Y-76897377D01*
X89800000Y-76947440D01*
X90800000Y-76947440D01*
X91042123Y-76900463D01*
X91254927Y-76760673D01*
X91272256Y-76735000D01*
X91780000Y-76735000D01*
X92080406Y-76675245D01*
X92080407Y-76675245D01*
X92335079Y-76505079D01*
X92526761Y-76313396D01*
X92526545Y-76561752D01*
X92693162Y-76965000D01*
X88835000Y-76965000D01*
X88835000Y-76426309D01*
X88835000Y-76235750D01*
X88676250Y-76077000D01*
X87827000Y-76077000D01*
X87827000Y-76776250D01*
X87985750Y-76935000D01*
X88073691Y-76935000D01*
X88326310Y-76935000D01*
X88559699Y-76838327D01*
X88738327Y-76659698D01*
X88835000Y-76426309D01*
X88835000Y-76965000D01*
X88250005Y-76965000D01*
X88250000Y-76964999D01*
X87949594Y-77024755D01*
X87694921Y-77194921D01*
X87694918Y-77194924D01*
X87573000Y-77316842D01*
X87573000Y-76776250D01*
X87573000Y-76077000D01*
X86723750Y-76077000D01*
X86565000Y-76235750D01*
X86565000Y-76426309D01*
X86661673Y-76659698D01*
X86840301Y-76838327D01*
X87073690Y-76935000D01*
X87326309Y-76935000D01*
X87414250Y-76935000D01*
X87573000Y-76776250D01*
X87573000Y-77316842D01*
X85674842Y-79215000D01*
X85250180Y-79215000D01*
X85250180Y-77750700D01*
X85203203Y-77508577D01*
X85063413Y-77295773D01*
X85059990Y-77293462D01*
X85248190Y-77105591D01*
X85472944Y-76564323D01*
X85473455Y-75978248D01*
X85459478Y-75944421D01*
X85784332Y-76079313D01*
X86213784Y-76079687D01*
X86610689Y-75915689D01*
X86713653Y-75812903D01*
X86723750Y-75823000D01*
X86766101Y-75823000D01*
X86950360Y-75947377D01*
X87200000Y-75997440D01*
X88200000Y-75997440D01*
X88442123Y-75950463D01*
X88636161Y-75823000D01*
X88676250Y-75823000D01*
X88835000Y-75664250D01*
X88835000Y-75473691D01*
X88826668Y-75453577D01*
X88847440Y-75350000D01*
X88847440Y-74650000D01*
X88822786Y-74522934D01*
X88847440Y-74400000D01*
X88847440Y-73700000D01*
X88800463Y-73457877D01*
X88660673Y-73245073D01*
X88449640Y-73102623D01*
X88200000Y-73052560D01*
X87200000Y-73052560D01*
X86957877Y-73099537D01*
X86808089Y-73197931D01*
X86785079Y-73174921D01*
X86530407Y-73004755D01*
X86230000Y-72945000D01*
X85269649Y-72945000D01*
X85249647Y-72896589D01*
X84835591Y-72481810D01*
X84294323Y-72257056D01*
X83708248Y-72256545D01*
X83166589Y-72480353D01*
X82751810Y-72894409D01*
X82527056Y-73435677D01*
X82526545Y-74021752D01*
X82750353Y-74563411D01*
X83164409Y-74978190D01*
X83216391Y-74999775D01*
X83166589Y-75020353D01*
X82751810Y-75434409D01*
X82527056Y-75975677D01*
X82526545Y-76561752D01*
X82750353Y-77103411D01*
X82763333Y-77116414D01*
X82697740Y-77103260D01*
X81397260Y-77103260D01*
X81155137Y-77150237D01*
X80942333Y-77290027D01*
X80799883Y-77501060D01*
X80749820Y-77750700D01*
X80749820Y-79215000D01*
X75250180Y-79215000D01*
X75250180Y-77750700D01*
X75203203Y-77508577D01*
X75063413Y-77295773D01*
X75059990Y-77293462D01*
X75248190Y-77105591D01*
X75472944Y-76564323D01*
X75473455Y-75978248D01*
X75249647Y-75436589D01*
X74835591Y-75021810D01*
X74783608Y-75000224D01*
X74833411Y-74979647D01*
X75248190Y-74565591D01*
X75472944Y-74024323D01*
X75473455Y-73438248D01*
X75249647Y-72896589D01*
X74835591Y-72481810D01*
X74294323Y-72257056D01*
X73708248Y-72256545D01*
X73166589Y-72480353D01*
X72829442Y-72816911D01*
X72829687Y-72536216D01*
X72665689Y-72139311D01*
X72461734Y-71935000D01*
X87120468Y-71935000D01*
X87120313Y-72113784D01*
X87284311Y-72510689D01*
X87587714Y-72814622D01*
X87984332Y-72979313D01*
X88413784Y-72979687D01*
X88810689Y-72815689D01*
X89114622Y-72512286D01*
X89279313Y-72115668D01*
X89279687Y-71686216D01*
X89115689Y-71289311D01*
X88812286Y-70985378D01*
X88415668Y-70820687D01*
X88230683Y-70820525D01*
X88005079Y-70594921D01*
X87750407Y-70424755D01*
X87450000Y-70365000D01*
X59040000Y-70365000D01*
X58739594Y-70424755D01*
X58484921Y-70594921D01*
X58029282Y-71050560D01*
X56968000Y-71050560D01*
X56725877Y-71097537D01*
X56513073Y-71237327D01*
X56370623Y-71448360D01*
X56320560Y-71698000D01*
X56320560Y-73222000D01*
X56367537Y-73464123D01*
X56507327Y-73676927D01*
X56585541Y-73729722D01*
X56513073Y-73777327D01*
X56370623Y-73988360D01*
X56320560Y-74238000D01*
X56320560Y-75762000D01*
X56367537Y-76004123D01*
X56507327Y-76216927D01*
X56585541Y-76269722D01*
X56513073Y-76317327D01*
X56370623Y-76528360D01*
X56320560Y-76778000D01*
X56320560Y-78302000D01*
X56367537Y-78544123D01*
X56507327Y-78756927D01*
X56718360Y-78899377D01*
X56968000Y-78949440D01*
X58492000Y-78949440D01*
X58734123Y-78902463D01*
X58946927Y-78762673D01*
X59089377Y-78551640D01*
X59125604Y-78370988D01*
X59477630Y-78723629D01*
X59990900Y-78936757D01*
X60546661Y-78937242D01*
X61060303Y-78725010D01*
X61453629Y-78332370D01*
X61666757Y-77819100D01*
X61667242Y-77263339D01*
X61455010Y-76749697D01*
X61062370Y-76356371D01*
X60854487Y-76270050D01*
X61060303Y-76185010D01*
X61453629Y-75792370D01*
X61456689Y-75785000D01*
X62606231Y-75785000D01*
X62527056Y-75975677D01*
X62526545Y-76561752D01*
X62750353Y-77103411D01*
X62940037Y-77293427D01*
X62799883Y-77501060D01*
X62749820Y-77750700D01*
X62749820Y-79215000D01*
X55250180Y-79215000D01*
X55250180Y-77750700D01*
X55203203Y-77508577D01*
X55063413Y-77295773D01*
X55059990Y-77293462D01*
X55248190Y-77105591D01*
X55472944Y-76564323D01*
X55473455Y-75978248D01*
X55249647Y-75436589D01*
X54835591Y-75021810D01*
X54783608Y-75000224D01*
X54833411Y-74979647D01*
X55248190Y-74565591D01*
X55472944Y-74024323D01*
X55473455Y-73438248D01*
X55249647Y-72896589D01*
X54835591Y-72481810D01*
X54294323Y-72257056D01*
X53708248Y-72256545D01*
X53166589Y-72480353D01*
X52751810Y-72894409D01*
X52527056Y-73435677D01*
X52526825Y-73700117D01*
X52412286Y-73585378D01*
X52015668Y-73420687D01*
X51586216Y-73420313D01*
X51402851Y-73496077D01*
X51338327Y-73340302D01*
X51159699Y-73161673D01*
X50926310Y-73065000D01*
X50673691Y-73065000D01*
X50585750Y-73065000D01*
X50427000Y-73223750D01*
X50427000Y-73923000D01*
X50447000Y-73923000D01*
X50447000Y-74002560D01*
X50173000Y-74002560D01*
X50173000Y-73923000D01*
X50173000Y-73223750D01*
X50014250Y-73065000D01*
X49926309Y-73065000D01*
X49673690Y-73065000D01*
X49440301Y-73161673D01*
X49261673Y-73340302D01*
X49165000Y-73573691D01*
X49165000Y-73764250D01*
X49323750Y-73923000D01*
X50173000Y-73923000D01*
X50173000Y-74002560D01*
X49800000Y-74002560D01*
X49557877Y-74049537D01*
X49363838Y-74177000D01*
X49323750Y-74177000D01*
X49165000Y-74335750D01*
X49165000Y-74526309D01*
X49173331Y-74546422D01*
X49152560Y-74650000D01*
X49152560Y-75350000D01*
X49177213Y-75477065D01*
X49152560Y-75600000D01*
X49152560Y-76300000D01*
X49199537Y-76542123D01*
X49339327Y-76754927D01*
X49550360Y-76897377D01*
X49800000Y-76947440D01*
X50800000Y-76947440D01*
X51042123Y-76900463D01*
X51254927Y-76760673D01*
X51272256Y-76735000D01*
X51780000Y-76735000D01*
X52080406Y-76675245D01*
X52080407Y-76675245D01*
X52335079Y-76505079D01*
X52526761Y-76313396D01*
X52526545Y-76561752D01*
X52750353Y-77103411D01*
X52763333Y-77116414D01*
X52697740Y-77103260D01*
X51397260Y-77103260D01*
X51155137Y-77150237D01*
X50942333Y-77290027D01*
X50799883Y-77501060D01*
X50749820Y-77750700D01*
X50749820Y-79215000D01*
X48835000Y-79215000D01*
X48835000Y-76426309D01*
X48835000Y-76235750D01*
X48676250Y-76077000D01*
X47827000Y-76077000D01*
X47827000Y-76776250D01*
X47985750Y-76935000D01*
X48073691Y-76935000D01*
X48326310Y-76935000D01*
X48559699Y-76838327D01*
X48738327Y-76659698D01*
X48835000Y-76426309D01*
X48835000Y-79215000D01*
X47573000Y-79215000D01*
X47250180Y-79215000D01*
X47250180Y-77750700D01*
X47203203Y-77508577D01*
X47063413Y-77295773D01*
X46852380Y-77153323D01*
X46602740Y-77103260D01*
X45302260Y-77103260D01*
X45238044Y-77115719D01*
X45248190Y-77105591D01*
X45472944Y-76564323D01*
X45473455Y-75978248D01*
X45347906Y-75674395D01*
X45587714Y-75914622D01*
X45984332Y-76079313D01*
X46413784Y-76079687D01*
X46565000Y-76017205D01*
X46565000Y-76077002D01*
X46723748Y-76077002D01*
X46565000Y-76235750D01*
X46565000Y-76426309D01*
X46661673Y-76659698D01*
X46840301Y-76838327D01*
X47073690Y-76935000D01*
X47326309Y-76935000D01*
X47414250Y-76935000D01*
X47573000Y-76776250D01*
X47573000Y-76077000D01*
X47553000Y-76077000D01*
X47553000Y-75997440D01*
X48200000Y-75997440D01*
X48442123Y-75950463D01*
X48636161Y-75823000D01*
X48676250Y-75823000D01*
X48835000Y-75664250D01*
X48835000Y-75473691D01*
X48826668Y-75453577D01*
X48847440Y-75350000D01*
X48847440Y-74650000D01*
X48822786Y-74522934D01*
X48847440Y-74400000D01*
X48847440Y-73700000D01*
X48800463Y-73457877D01*
X48660673Y-73245073D01*
X48449640Y-73102623D01*
X48200000Y-73052560D01*
X47200000Y-73052560D01*
X46957877Y-73099537D01*
X46745073Y-73239327D01*
X46727743Y-73265000D01*
X46475158Y-73265000D01*
X46385079Y-73174921D01*
X46130407Y-73004755D01*
X45830000Y-72945000D01*
X45269649Y-72945000D01*
X45249647Y-72896589D01*
X44835591Y-72481810D01*
X44294323Y-72257056D01*
X43708248Y-72256545D01*
X43166589Y-72480353D01*
X42751810Y-72894409D01*
X42527056Y-73435677D01*
X42526545Y-74021752D01*
X42750353Y-74563411D01*
X43164409Y-74978190D01*
X43216391Y-74999775D01*
X43166589Y-75020353D01*
X42751810Y-75434409D01*
X42527056Y-75975677D01*
X42526545Y-76561752D01*
X42750353Y-77103411D01*
X42940037Y-77293427D01*
X42799883Y-77501060D01*
X42749820Y-77750700D01*
X42749820Y-79249300D01*
X42796797Y-79491423D01*
X42936587Y-79704227D01*
X43063655Y-79790000D01*
X42082681Y-79790000D01*
X42082176Y-79787461D01*
X42082176Y-79787460D01*
X42051125Y-79712497D01*
X41976163Y-79531520D01*
X41651003Y-79044885D01*
X41455115Y-78848997D01*
X40968480Y-78523838D01*
X40712540Y-78417824D01*
X40138515Y-78303643D01*
X40138514Y-78303643D01*
X39861486Y-78303643D01*
X39287460Y-78417824D01*
X39212497Y-78448874D01*
X39031520Y-78523837D01*
X38544885Y-78848997D01*
X38348997Y-79044885D01*
X38023838Y-79531520D01*
X38002497Y-79583040D01*
X37951222Y-79548779D01*
X37782985Y-79296995D01*
X37710000Y-78930072D01*
X37710000Y-71069927D01*
X37782985Y-70703004D01*
X37951222Y-70451220D01*
X38002497Y-70416959D01*
X38023838Y-70468480D01*
X38348997Y-70955115D01*
X38544885Y-71151003D01*
X39031520Y-71476163D01*
X39212497Y-71551125D01*
X39287460Y-71582176D01*
X39287461Y-71582176D01*
X39861486Y-71696357D01*
X40138514Y-71696357D01*
X40138515Y-71696357D01*
X40712539Y-71582176D01*
X40712540Y-71582176D01*
X40968480Y-71476162D01*
X41455115Y-71151003D01*
X41651003Y-70955115D01*
X41976162Y-70468480D01*
X41976163Y-70468480D01*
X42051125Y-70287502D01*
X42082176Y-70212540D01*
X42082176Y-70212539D01*
X42082681Y-70210000D01*
X73500000Y-70210000D01*
X74500000Y-70210000D01*
X89712803Y-70210000D01*
X89507603Y-70268857D01*
X89320856Y-70792302D01*
X89348638Y-71347368D01*
X89507603Y-71731143D01*
X89749787Y-71800608D01*
X90550395Y-71000000D01*
X90536252Y-70985857D01*
X90715857Y-70806252D01*
X90730000Y-70820395D01*
X90744142Y-70806252D01*
X90923747Y-70985857D01*
X90909605Y-71000000D01*
X91710213Y-71800608D01*
X91860560Y-71757484D01*
X91860560Y-71762000D01*
X91907537Y-72004123D01*
X92047327Y-72216927D01*
X92258360Y-72359377D01*
X92508000Y-72409440D01*
X93338212Y-72409440D01*
X93338212Y-72409440D01*
G37*
X93338212Y-72409440D02*
X93166589Y-72480353D01*
X92751810Y-72894409D01*
X92664764Y-73104038D01*
X92560286Y-72999378D01*
X92163668Y-72834687D01*
X91734216Y-72834313D01*
X91530608Y-72918442D01*
X91530608Y-71980213D01*
X90730000Y-71179605D01*
X89929392Y-71980213D01*
X89998857Y-72222397D01*
X90522302Y-72409144D01*
X91077368Y-72381362D01*
X91461143Y-72222397D01*
X91530608Y-71980213D01*
X91530608Y-72918442D01*
X91337311Y-72998311D01*
X91166675Y-73168649D01*
X91159699Y-73161673D01*
X90926310Y-73065000D01*
X90673691Y-73065000D01*
X90585750Y-73065000D01*
X90427000Y-73223750D01*
X90427000Y-73923000D01*
X90447000Y-73923000D01*
X90447000Y-74002560D01*
X90173000Y-74002560D01*
X90173000Y-73923000D01*
X90173000Y-73223750D01*
X90014250Y-73065000D01*
X89926309Y-73065000D01*
X89673690Y-73065000D01*
X89440301Y-73161673D01*
X89261673Y-73340302D01*
X89165000Y-73573691D01*
X89165000Y-73764250D01*
X89323750Y-73923000D01*
X90173000Y-73923000D01*
X90173000Y-74002560D01*
X89800000Y-74002560D01*
X89557877Y-74049537D01*
X89363838Y-74177000D01*
X89323750Y-74177000D01*
X89165000Y-74335750D01*
X89165000Y-74526309D01*
X89173331Y-74546422D01*
X89152560Y-74650000D01*
X89152560Y-75350000D01*
X89177213Y-75477065D01*
X89152560Y-75600000D01*
X89152560Y-76300000D01*
X89199537Y-76542123D01*
X89339327Y-76754927D01*
X89550360Y-76897377D01*
X89800000Y-76947440D01*
X90800000Y-76947440D01*
X91042123Y-76900463D01*
X91254927Y-76760673D01*
X91272256Y-76735000D01*
X91780000Y-76735000D01*
X92080406Y-76675245D01*
X92080407Y-76675245D01*
X92335079Y-76505079D01*
X92526761Y-76313396D01*
X92526545Y-76561752D01*
X92693162Y-76965000D01*
X88835000Y-76965000D01*
X88835000Y-76426309D01*
X88835000Y-76235750D01*
X88676250Y-76077000D01*
X87827000Y-76077000D01*
X87827000Y-76776250D01*
X87985750Y-76935000D01*
X88073691Y-76935000D01*
X88326310Y-76935000D01*
X88559699Y-76838327D01*
X88738327Y-76659698D01*
X88835000Y-76426309D01*
X88835000Y-76965000D01*
X88250005Y-76965000D01*
X88250000Y-76964999D01*
X87949594Y-77024755D01*
X87694921Y-77194921D01*
X87694918Y-77194924D01*
X87573000Y-77316842D01*
X87573000Y-76776250D01*
X87573000Y-76077000D01*
X86723750Y-76077000D01*
X86565000Y-76235750D01*
X86565000Y-76426309D01*
X86661673Y-76659698D01*
X86840301Y-76838327D01*
X87073690Y-76935000D01*
X87326309Y-76935000D01*
X87414250Y-76935000D01*
X87573000Y-76776250D01*
X87573000Y-77316842D01*
X85674842Y-79215000D01*
X85250180Y-79215000D01*
X85250180Y-77750700D01*
X85203203Y-77508577D01*
X85063413Y-77295773D01*
X85059990Y-77293462D01*
X85248190Y-77105591D01*
X85472944Y-76564323D01*
X85473455Y-75978248D01*
X85459478Y-75944421D01*
X85784332Y-76079313D01*
X86213784Y-76079687D01*
X86610689Y-75915689D01*
X86713653Y-75812903D01*
X86723750Y-75823000D01*
X86766101Y-75823000D01*
X86950360Y-75947377D01*
X87200000Y-75997440D01*
X88200000Y-75997440D01*
X88442123Y-75950463D01*
X88636161Y-75823000D01*
X88676250Y-75823000D01*
X88835000Y-75664250D01*
X88835000Y-75473691D01*
X88826668Y-75453577D01*
X88847440Y-75350000D01*
X88847440Y-74650000D01*
X88822786Y-74522934D01*
X88847440Y-74400000D01*
X88847440Y-73700000D01*
X88800463Y-73457877D01*
X88660673Y-73245073D01*
X88449640Y-73102623D01*
X88200000Y-73052560D01*
X87200000Y-73052560D01*
X86957877Y-73099537D01*
X86808089Y-73197931D01*
X86785079Y-73174921D01*
X86530407Y-73004755D01*
X86230000Y-72945000D01*
X85269649Y-72945000D01*
X85249647Y-72896589D01*
X84835591Y-72481810D01*
X84294323Y-72257056D01*
X83708248Y-72256545D01*
X83166589Y-72480353D01*
X82751810Y-72894409D01*
X82527056Y-73435677D01*
X82526545Y-74021752D01*
X82750353Y-74563411D01*
X83164409Y-74978190D01*
X83216391Y-74999775D01*
X83166589Y-75020353D01*
X82751810Y-75434409D01*
X82527056Y-75975677D01*
X82526545Y-76561752D01*
X82750353Y-77103411D01*
X82763333Y-77116414D01*
X82697740Y-77103260D01*
X81397260Y-77103260D01*
X81155137Y-77150237D01*
X80942333Y-77290027D01*
X80799883Y-77501060D01*
X80749820Y-77750700D01*
X80749820Y-79215000D01*
X75250180Y-79215000D01*
X75250180Y-77750700D01*
X75203203Y-77508577D01*
X75063413Y-77295773D01*
X75059990Y-77293462D01*
X75248190Y-77105591D01*
X75472944Y-76564323D01*
X75473455Y-75978248D01*
X75249647Y-75436589D01*
X74835591Y-75021810D01*
X74783608Y-75000224D01*
X74833411Y-74979647D01*
X75248190Y-74565591D01*
X75472944Y-74024323D01*
X75473455Y-73438248D01*
X75249647Y-72896589D01*
X74835591Y-72481810D01*
X74294323Y-72257056D01*
X73708248Y-72256545D01*
X73166589Y-72480353D01*
X72829442Y-72816911D01*
X72829687Y-72536216D01*
X72665689Y-72139311D01*
X72461734Y-71935000D01*
X87120468Y-71935000D01*
X87120313Y-72113784D01*
X87284311Y-72510689D01*
X87587714Y-72814622D01*
X87984332Y-72979313D01*
X88413784Y-72979687D01*
X88810689Y-72815689D01*
X89114622Y-72512286D01*
X89279313Y-72115668D01*
X89279687Y-71686216D01*
X89115689Y-71289311D01*
X88812286Y-70985378D01*
X88415668Y-70820687D01*
X88230683Y-70820525D01*
X88005079Y-70594921D01*
X87750407Y-70424755D01*
X87450000Y-70365000D01*
X59040000Y-70365000D01*
X58739594Y-70424755D01*
X58484921Y-70594921D01*
X58029282Y-71050560D01*
X56968000Y-71050560D01*
X56725877Y-71097537D01*
X56513073Y-71237327D01*
X56370623Y-71448360D01*
X56320560Y-71698000D01*
X56320560Y-73222000D01*
X56367537Y-73464123D01*
X56507327Y-73676927D01*
X56585541Y-73729722D01*
X56513073Y-73777327D01*
X56370623Y-73988360D01*
X56320560Y-74238000D01*
X56320560Y-75762000D01*
X56367537Y-76004123D01*
X56507327Y-76216927D01*
X56585541Y-76269722D01*
X56513073Y-76317327D01*
X56370623Y-76528360D01*
X56320560Y-76778000D01*
X56320560Y-78302000D01*
X56367537Y-78544123D01*
X56507327Y-78756927D01*
X56718360Y-78899377D01*
X56968000Y-78949440D01*
X58492000Y-78949440D01*
X58734123Y-78902463D01*
X58946927Y-78762673D01*
X59089377Y-78551640D01*
X59125604Y-78370988D01*
X59477630Y-78723629D01*
X59990900Y-78936757D01*
X60546661Y-78937242D01*
X61060303Y-78725010D01*
X61453629Y-78332370D01*
X61666757Y-77819100D01*
X61667242Y-77263339D01*
X61455010Y-76749697D01*
X61062370Y-76356371D01*
X60854487Y-76270050D01*
X61060303Y-76185010D01*
X61453629Y-75792370D01*
X61456689Y-75785000D01*
X62606231Y-75785000D01*
X62527056Y-75975677D01*
X62526545Y-76561752D01*
X62750353Y-77103411D01*
X62940037Y-77293427D01*
X62799883Y-77501060D01*
X62749820Y-77750700D01*
X62749820Y-79215000D01*
X55250180Y-79215000D01*
X55250180Y-77750700D01*
X55203203Y-77508577D01*
X55063413Y-77295773D01*
X55059990Y-77293462D01*
X55248190Y-77105591D01*
X55472944Y-76564323D01*
X55473455Y-75978248D01*
X55249647Y-75436589D01*
X54835591Y-75021810D01*
X54783608Y-75000224D01*
X54833411Y-74979647D01*
X55248190Y-74565591D01*
X55472944Y-74024323D01*
X55473455Y-73438248D01*
X55249647Y-72896589D01*
X54835591Y-72481810D01*
X54294323Y-72257056D01*
X53708248Y-72256545D01*
X53166589Y-72480353D01*
X52751810Y-72894409D01*
X52527056Y-73435677D01*
X52526825Y-73700117D01*
X52412286Y-73585378D01*
X52015668Y-73420687D01*
X51586216Y-73420313D01*
X51402851Y-73496077D01*
X51338327Y-73340302D01*
X51159699Y-73161673D01*
X50926310Y-73065000D01*
X50673691Y-73065000D01*
X50585750Y-73065000D01*
X50427000Y-73223750D01*
X50427000Y-73923000D01*
X50447000Y-73923000D01*
X50447000Y-74002560D01*
X50173000Y-74002560D01*
X50173000Y-73923000D01*
X50173000Y-73223750D01*
X50014250Y-73065000D01*
X49926309Y-73065000D01*
X49673690Y-73065000D01*
X49440301Y-73161673D01*
X49261673Y-73340302D01*
X49165000Y-73573691D01*
X49165000Y-73764250D01*
X49323750Y-73923000D01*
X50173000Y-73923000D01*
X50173000Y-74002560D01*
X49800000Y-74002560D01*
X49557877Y-74049537D01*
X49363838Y-74177000D01*
X49323750Y-74177000D01*
X49165000Y-74335750D01*
X49165000Y-74526309D01*
X49173331Y-74546422D01*
X49152560Y-74650000D01*
X49152560Y-75350000D01*
X49177213Y-75477065D01*
X49152560Y-75600000D01*
X49152560Y-76300000D01*
X49199537Y-76542123D01*
X49339327Y-76754927D01*
X49550360Y-76897377D01*
X49800000Y-76947440D01*
X50800000Y-76947440D01*
X51042123Y-76900463D01*
X51254927Y-76760673D01*
X51272256Y-76735000D01*
X51780000Y-76735000D01*
X52080406Y-76675245D01*
X52080407Y-76675245D01*
X52335079Y-76505079D01*
X52526761Y-76313396D01*
X52526545Y-76561752D01*
X52750353Y-77103411D01*
X52763333Y-77116414D01*
X52697740Y-77103260D01*
X51397260Y-77103260D01*
X51155137Y-77150237D01*
X50942333Y-77290027D01*
X50799883Y-77501060D01*
X50749820Y-77750700D01*
X50749820Y-79215000D01*
X48835000Y-79215000D01*
X48835000Y-76426309D01*
X48835000Y-76235750D01*
X48676250Y-76077000D01*
X47827000Y-76077000D01*
X47827000Y-76776250D01*
X47985750Y-76935000D01*
X48073691Y-76935000D01*
X48326310Y-76935000D01*
X48559699Y-76838327D01*
X48738327Y-76659698D01*
X48835000Y-76426309D01*
X48835000Y-79215000D01*
X47573000Y-79215000D01*
X47250180Y-79215000D01*
X47250180Y-77750700D01*
X47203203Y-77508577D01*
X47063413Y-77295773D01*
X46852380Y-77153323D01*
X46602740Y-77103260D01*
X45302260Y-77103260D01*
X45238044Y-77115719D01*
X45248190Y-77105591D01*
X45472944Y-76564323D01*
X45473455Y-75978248D01*
X45347906Y-75674395D01*
X45587714Y-75914622D01*
X45984332Y-76079313D01*
X46413784Y-76079687D01*
X46565000Y-76017205D01*
X46565000Y-76077002D01*
X46723748Y-76077002D01*
X46565000Y-76235750D01*
X46565000Y-76426309D01*
X46661673Y-76659698D01*
X46840301Y-76838327D01*
X47073690Y-76935000D01*
X47326309Y-76935000D01*
X47414250Y-76935000D01*
X47573000Y-76776250D01*
X47573000Y-76077000D01*
X47553000Y-76077000D01*
X47553000Y-75997440D01*
X48200000Y-75997440D01*
X48442123Y-75950463D01*
X48636161Y-75823000D01*
X48676250Y-75823000D01*
X48835000Y-75664250D01*
X48835000Y-75473691D01*
X48826668Y-75453577D01*
X48847440Y-75350000D01*
X48847440Y-74650000D01*
X48822786Y-74522934D01*
X48847440Y-74400000D01*
X48847440Y-73700000D01*
X48800463Y-73457877D01*
X48660673Y-73245073D01*
X48449640Y-73102623D01*
X48200000Y-73052560D01*
X47200000Y-73052560D01*
X46957877Y-73099537D01*
X46745073Y-73239327D01*
X46727743Y-73265000D01*
X46475158Y-73265000D01*
X46385079Y-73174921D01*
X46130407Y-73004755D01*
X45830000Y-72945000D01*
X45269649Y-72945000D01*
X45249647Y-72896589D01*
X44835591Y-72481810D01*
X44294323Y-72257056D01*
X43708248Y-72256545D01*
X43166589Y-72480353D01*
X42751810Y-72894409D01*
X42527056Y-73435677D01*
X42526545Y-74021752D01*
X42750353Y-74563411D01*
X43164409Y-74978190D01*
X43216391Y-74999775D01*
X43166589Y-75020353D01*
X42751810Y-75434409D01*
X42527056Y-75975677D01*
X42526545Y-76561752D01*
X42750353Y-77103411D01*
X42940037Y-77293427D01*
X42799883Y-77501060D01*
X42749820Y-77750700D01*
X42749820Y-79249300D01*
X42796797Y-79491423D01*
X42936587Y-79704227D01*
X43063655Y-79790000D01*
X42082681Y-79790000D01*
X42082176Y-79787461D01*
X42082176Y-79787460D01*
X42051125Y-79712497D01*
X41976163Y-79531520D01*
X41651003Y-79044885D01*
X41455115Y-78848997D01*
X40968480Y-78523838D01*
X40712540Y-78417824D01*
X40138515Y-78303643D01*
X40138514Y-78303643D01*
X39861486Y-78303643D01*
X39287460Y-78417824D01*
X39212497Y-78448874D01*
X39031520Y-78523837D01*
X38544885Y-78848997D01*
X38348997Y-79044885D01*
X38023838Y-79531520D01*
X38002497Y-79583040D01*
X37951222Y-79548779D01*
X37782985Y-79296995D01*
X37710000Y-78930072D01*
X37710000Y-71069927D01*
X37782985Y-70703004D01*
X37951222Y-70451220D01*
X38002497Y-70416959D01*
X38023838Y-70468480D01*
X38348997Y-70955115D01*
X38544885Y-71151003D01*
X39031520Y-71476163D01*
X39212497Y-71551125D01*
X39287460Y-71582176D01*
X39287461Y-71582176D01*
X39861486Y-71696357D01*
X40138514Y-71696357D01*
X40138515Y-71696357D01*
X40712539Y-71582176D01*
X40712540Y-71582176D01*
X40968480Y-71476162D01*
X41455115Y-71151003D01*
X41651003Y-70955115D01*
X41976162Y-70468480D01*
X41976163Y-70468480D01*
X42051125Y-70287502D01*
X42082176Y-70212540D01*
X42082176Y-70212539D01*
X42082681Y-70210000D01*
X73500000Y-70210000D01*
X74500000Y-70210000D01*
X89712803Y-70210000D01*
X89507603Y-70268857D01*
X89320856Y-70792302D01*
X89348638Y-71347368D01*
X89507603Y-71731143D01*
X89749787Y-71800608D01*
X90550395Y-71000000D01*
X90536252Y-70985857D01*
X90715857Y-70806252D01*
X90730000Y-70820395D01*
X90744142Y-70806252D01*
X90923747Y-70985857D01*
X90909605Y-71000000D01*
X91710213Y-71800608D01*
X91860560Y-71757484D01*
X91860560Y-71762000D01*
X91907537Y-72004123D01*
X92047327Y-72216927D01*
X92258360Y-72359377D01*
X92508000Y-72409440D01*
X93338212Y-72409440D01*
M02*
