G04 #@! TF.GenerationSoftware,KiCad,Pcbnew,5.0.0-84427f4~65~ubuntu16.04.1*
G04 #@! TF.CreationDate,2018-07-15T21:07:02+05:30*
G04 #@! TF.ProjectId,bebl_v2,6265626C5F76322E6B696361645F7063,rev?*
G04 #@! TF.SameCoordinates,Original*
G04 #@! TF.FileFunction,Soldermask,Bot*
G04 #@! TF.FilePolarity,Negative*
%FSLAX46Y46*%
G04 Gerber Fmt 4.6, Leading zero omitted, Abs format (unit mm)*
G04 Created by KiCad (PCBNEW 5.0.0-84427f4~65~ubuntu16.04.1) date Sun Jul 15 21:07:02 2018*
%MOMM*%
%LPD*%
G01*
G04 APERTURE LIST*
%ADD10C,0.150000*%
%ADD11R,1.924000X1.924000*%
%ADD12C,1.924000*%
%ADD13R,1.700480X1.898600*%
%ADD14R,1.466800X1.822400*%
%ADD15C,2.076400*%
%ADD16R,1.898600X1.700480*%
%ADD17C,3.448000*%
%ADD18R,0.849580X2.398980*%
%ADD19R,2.398980X0.849580*%
%ADD20R,1.545000X0.950000*%
%ADD21R,0.950000X1.545000*%
%ADD22R,2.400000X1.600000*%
%ADD23C,1.400000*%
%ADD24R,1.100000X0.800000*%
%ADD25C,3.200000*%
%ADD26O,2.550000X1.450000*%
%ADD27C,1.300000*%
G04 APERTURE END LIST*
D10*
X73500000Y-69500000D02*
X74500000Y-69500000D01*
X73500000Y-62000000D02*
X74500000Y-62000000D01*
X74500000Y-69500000D02*
X106500000Y-69500000D01*
X73500000Y-69500000D02*
X41500000Y-69500000D01*
X111000000Y-79000000D02*
X111000000Y-71000000D01*
X41500000Y-80500000D02*
X106500000Y-80500000D01*
X37000000Y-71000000D02*
X37000000Y-79000000D01*
X109500000Y-80500000D02*
G75*
G03X111000000Y-79000000I0J1500000D01*
G01*
X111000000Y-71000000D02*
G75*
G03X109500000Y-69500000I-1500000J0D01*
G01*
X37000000Y-79000000D02*
G75*
G03X38500000Y-80500000I1500000J0D01*
G01*
X38500000Y-69500000D02*
G75*
G03X37000000Y-71000000I0J-1500000D01*
G01*
X109500000Y-80500000D02*
G75*
G03X108000000Y-79000000I-1500000J0D01*
G01*
X108000000Y-79000000D02*
G75*
G03X106500000Y-80500000I0J-1500000D01*
G01*
X108000000Y-71000000D02*
G75*
G03X109500000Y-69500000I0J1500000D01*
G01*
X106500000Y-69500000D02*
G75*
G03X108000000Y-71000000I1500000J0D01*
G01*
X41500000Y-80500000D02*
G75*
G03X40000000Y-79000000I-1500000J0D01*
G01*
X40000000Y-79000000D02*
G75*
G03X38500000Y-80500000I0J-1500000D01*
G01*
X38500000Y-69500000D02*
G75*
G03X40000000Y-71000000I1500000J0D01*
G01*
X40000000Y-71000000D02*
G75*
G03X41500000Y-69500000I0J1500000D01*
G01*
X111500000Y-38000000D02*
X36500000Y-38000000D01*
X114000000Y-59500000D02*
X114000000Y-40500000D01*
X74500000Y-62000000D02*
X111500000Y-62000000D01*
X36500000Y-62000000D02*
X73500000Y-62000000D01*
X34000000Y-40500000D02*
X34000000Y-59500000D01*
X36500000Y-38000000D02*
G75*
G03X34000000Y-40500000I0J-2500000D01*
G01*
X34000000Y-59500000D02*
G75*
G03X36500000Y-62000000I2500000J0D01*
G01*
X111500000Y-62000000D02*
G75*
G03X114000000Y-59500000I0J2500000D01*
G01*
X114000000Y-40500000D02*
G75*
G03X111500000Y-38000000I-2500000J0D01*
G01*
D11*
G04 #@! TO.C,P10*
X93270000Y-79000000D03*
D12*
X90730000Y-79000000D03*
G04 #@! TD*
D11*
G04 #@! TO.C,P8*
X93270000Y-54000000D03*
D12*
X90730000Y-54000000D03*
G04 #@! TD*
D11*
G04 #@! TO.C,P12*
X57730000Y-75000000D03*
D12*
X60270000Y-75000000D03*
G04 #@! TD*
D11*
G04 #@! TO.C,P14*
X93270000Y-71000000D03*
D12*
X90730000Y-71000000D03*
G04 #@! TD*
D11*
G04 #@! TO.C,P4*
X57730000Y-50000000D03*
D12*
X60270000Y-50000000D03*
G04 #@! TD*
D11*
G04 #@! TO.C,P3*
X57730000Y-52540000D03*
D12*
X60270000Y-52540000D03*
G04 #@! TD*
G04 #@! TO.C,SC8*
X108000000Y-57000000D03*
G04 #@! TD*
G04 #@! TO.C,SC7*
X108000000Y-43000000D03*
G04 #@! TD*
G04 #@! TO.C,SC6*
X40000000Y-43000000D03*
G04 #@! TD*
G04 #@! TO.C,SC5*
X40000000Y-57000000D03*
G04 #@! TD*
D13*
G04 #@! TO.C,R8*
X53952500Y-78500000D03*
X52047500Y-78500000D03*
G04 #@! TD*
D14*
G04 #@! TO.C,C1*
X64316000Y-59900000D03*
X62284000Y-59900000D03*
G04 #@! TD*
G04 #@! TO.C,C2*
X57784000Y-59900000D03*
X59816000Y-59900000D03*
G04 #@! TD*
G04 #@! TO.C,C3*
X70684000Y-57500000D03*
X72716000Y-57500000D03*
G04 #@! TD*
G04 #@! TO.C,C4*
X78984000Y-57500000D03*
X81016000Y-57500000D03*
G04 #@! TD*
G04 #@! TO.C,C9*
X85984000Y-51500000D03*
X88016000Y-51500000D03*
G04 #@! TD*
G04 #@! TO.C,C11*
X85984000Y-54000000D03*
X88016000Y-54000000D03*
G04 #@! TD*
G04 #@! TO.C,C10*
X85984000Y-48000000D03*
X88016000Y-48000000D03*
G04 #@! TD*
D15*
G04 #@! TO.C,D7*
X94000000Y-76270000D03*
X94000000Y-73730000D03*
G04 #@! TD*
G04 #@! TO.C,D6*
X84000000Y-76270000D03*
X84000000Y-73730000D03*
G04 #@! TD*
G04 #@! TO.C,D5*
X74000000Y-76270000D03*
X74000000Y-73730000D03*
G04 #@! TD*
G04 #@! TO.C,D4*
X64000000Y-76270000D03*
X64000000Y-73730000D03*
G04 #@! TD*
G04 #@! TO.C,D3*
X54000000Y-76270000D03*
X54000000Y-73730000D03*
G04 #@! TD*
G04 #@! TO.C,D2*
X44000000Y-76270000D03*
X44000000Y-73730000D03*
G04 #@! TD*
D11*
G04 #@! TO.C,P2*
X80350000Y-60000000D03*
D12*
X77810000Y-60000000D03*
X75270000Y-60000000D03*
X72730000Y-60000000D03*
X70190000Y-60000000D03*
X67650000Y-60000000D03*
G04 #@! TD*
D16*
G04 #@! TO.C,R2*
X79500000Y-40047500D03*
X79500000Y-41952500D03*
G04 #@! TD*
G04 #@! TO.C,R3*
X82000000Y-40047500D03*
X82000000Y-41952500D03*
G04 #@! TD*
D17*
G04 #@! TO.C,SC1*
X36500000Y-59500000D03*
G04 #@! TD*
G04 #@! TO.C,SC2*
X111500000Y-40500000D03*
G04 #@! TD*
G04 #@! TO.C,SC3*
X111500000Y-59500000D03*
G04 #@! TD*
G04 #@! TO.C,SC4*
X36500000Y-40500000D03*
G04 #@! TD*
D18*
G04 #@! TO.C,U1*
X68200920Y-54150360D03*
X69001020Y-54150360D03*
X69801120Y-54150360D03*
X70601220Y-54150360D03*
X71398780Y-54150360D03*
X72198880Y-54150360D03*
X72998980Y-54150360D03*
X73799080Y-54150360D03*
X73799080Y-45849640D03*
X68200920Y-45849640D03*
X69001020Y-45849640D03*
X69801120Y-45849640D03*
X70601220Y-45849640D03*
X71398780Y-45849640D03*
X72198880Y-45849640D03*
X72998980Y-45849640D03*
D19*
X75150360Y-52799080D03*
X75150360Y-51998980D03*
X75150360Y-51198880D03*
X75150360Y-50398780D03*
X75150360Y-49601220D03*
X75150360Y-48801120D03*
X75150360Y-48001020D03*
X75150360Y-47200920D03*
X66849640Y-52799080D03*
X66849640Y-51998980D03*
X66849640Y-51198880D03*
X66849640Y-50398780D03*
X66849640Y-49601220D03*
X66849640Y-48801120D03*
X66849640Y-48001020D03*
X66849640Y-47200920D03*
G04 #@! TD*
D20*
G04 #@! TO.C,U4*
X83300000Y-52000000D03*
X83300000Y-51200000D03*
X83300000Y-48000000D03*
X83300000Y-48800000D03*
X83300000Y-49600000D03*
X83300000Y-50400000D03*
X81100000Y-50400000D03*
X81100000Y-49600000D03*
X81100000Y-48800000D03*
X81100000Y-48000000D03*
X81100000Y-51200000D03*
X81100000Y-52000000D03*
D21*
X82200000Y-52100000D03*
X82200000Y-47900000D03*
G04 #@! TD*
D22*
G04 #@! TO.C,X1*
X62900000Y-57800000D03*
X59200000Y-55600000D03*
X62900000Y-55600000D03*
X59200000Y-57800000D03*
G04 #@! TD*
D23*
G04 #@! TO.C,B1*
X75100000Y-43100000D03*
G04 #@! TD*
G04 #@! TO.C,B2*
X76600000Y-43100000D03*
G04 #@! TD*
G04 #@! TO.C,B3*
X77900000Y-45300000D03*
G04 #@! TD*
G04 #@! TO.C,B4*
X77900000Y-46800000D03*
G04 #@! TD*
G04 #@! TO.C,B5*
X69800000Y-43500000D03*
G04 #@! TD*
G04 #@! TO.C,B6*
X73600000Y-43100000D03*
G04 #@! TD*
D11*
G04 #@! TO.C,P1*
X71040000Y-39230000D03*
D12*
X71040000Y-41770000D03*
X68500000Y-39230000D03*
X68500000Y-41770000D03*
X65960000Y-39230000D03*
X65960000Y-41770000D03*
G04 #@! TD*
D23*
G04 #@! TO.C,B7*
X64500000Y-50400000D03*
G04 #@! TD*
D11*
G04 #@! TO.C,P5*
X57730000Y-47460000D03*
D12*
X60270000Y-47460000D03*
G04 #@! TD*
D11*
G04 #@! TO.C,P6*
X93270000Y-46000000D03*
D12*
X90730000Y-46000000D03*
G04 #@! TD*
D11*
G04 #@! TO.C,P9*
X93270000Y-40000000D03*
D12*
X90730000Y-40000000D03*
G04 #@! TD*
D11*
G04 #@! TO.C,P13*
X57730000Y-72460000D03*
D12*
X60270000Y-72460000D03*
G04 #@! TD*
D11*
G04 #@! TO.C,P11*
X57730000Y-77540000D03*
D12*
X60270000Y-77540000D03*
G04 #@! TD*
D13*
G04 #@! TO.C,R7*
X44047500Y-78500000D03*
X45952500Y-78500000D03*
G04 #@! TD*
G04 #@! TO.C,R9*
X64047500Y-78500000D03*
X65952500Y-78500000D03*
G04 #@! TD*
G04 #@! TO.C,R10*
X73952500Y-78500000D03*
X72047500Y-78500000D03*
G04 #@! TD*
G04 #@! TO.C,R11*
X83952500Y-78500000D03*
X82047500Y-78500000D03*
G04 #@! TD*
G04 #@! TO.C,R12*
X98547500Y-78500000D03*
X100452500Y-78500000D03*
G04 #@! TD*
D24*
G04 #@! TO.C,Q1*
X49950000Y-74350000D03*
X49950000Y-75650000D03*
X49950000Y-75000000D03*
X48050000Y-75650000D03*
X48050000Y-75000000D03*
X48050000Y-74350000D03*
G04 #@! TD*
G04 #@! TO.C,Q2*
X69950000Y-74350000D03*
X69950000Y-75650000D03*
X69950000Y-75000000D03*
X68050000Y-75650000D03*
X68050000Y-75000000D03*
X68050000Y-74350000D03*
G04 #@! TD*
G04 #@! TO.C,Q3*
X89950000Y-74350000D03*
X89950000Y-75650000D03*
X89950000Y-75000000D03*
X88050000Y-75650000D03*
X88050000Y-75000000D03*
X88050000Y-74350000D03*
G04 #@! TD*
D25*
G04 #@! TO.C,B9*
X50000000Y-52540000D03*
X50000000Y-47460000D03*
X42380000Y-50000000D03*
G04 #@! TD*
G04 #@! TO.C,B8*
X98000000Y-47460000D03*
X98000000Y-52540000D03*
X105620000Y-50000000D03*
G04 #@! TD*
D26*
G04 #@! TO.C,P7*
X112575000Y-53225000D03*
X112575000Y-46775000D03*
G04 #@! TD*
D27*
X83000000Y-55000000D03*
X72500000Y-49500000D03*
X89000000Y-57800000D03*
X84700000Y-50400000D03*
X79200000Y-49800000D03*
X66500000Y-57300000D03*
X69800000Y-48200000D03*
X84600000Y-54000000D03*
X79000000Y-54100000D03*
X82300000Y-59900000D03*
X73000000Y-48000000D03*
X64900000Y-46700000D03*
X63500000Y-47600000D03*
X77800000Y-54100000D03*
X76600000Y-54100000D03*
X82200000Y-45100000D03*
X77900000Y-48900000D03*
X74200000Y-56500000D03*
X69088000Y-77216000D03*
X89500000Y-49500000D03*
X51800000Y-74500000D03*
X46200000Y-75000000D03*
X71750000Y-73250000D03*
X91948000Y-73914000D03*
X88200000Y-71900000D03*
X86000000Y-75000000D03*
M02*
