G04 #@! TF.FileFunction,Soldermask,Bot*
%FSLAX46Y46*%
G04 Gerber Fmt 4.6, Leading zero omitted, Abs format (unit mm)*
G04 Created by KiCad (PCBNEW (2014-12-11 BZR 5320)-product) date Tue Feb  3 18:17:38 2015*
%MOMM*%
G01*
G04 APERTURE LIST*
%ADD10C,0.100000*%
%ADD11C,3.200000*%
%ADD12R,1.924000X1.924000*%
%ADD13C,1.924000*%
%ADD14R,1.700480X1.898600*%
%ADD15R,1.466800X1.822400*%
%ADD16C,2.076400*%
%ADD17R,1.898600X1.700480*%
%ADD18C,3.448000*%
%ADD19R,0.849580X2.398980*%
%ADD20R,2.398980X0.849580*%
%ADD21R,1.545000X0.950000*%
%ADD22R,0.950000X1.545000*%
%ADD23R,2.400000X1.600000*%
%ADD24C,1.400000*%
%ADD25C,2.305000*%
%ADD26R,1.400000X1.100000*%
G04 APERTURE END LIST*
D10*
D11*
X98000000Y-47460000D03*
X98000000Y-52540000D03*
X105620000Y-50000000D03*
X50000000Y-52540000D03*
X50000000Y-47460000D03*
X42380000Y-50000000D03*
D12*
X93270000Y-79000000D03*
D13*
X90730000Y-79000000D03*
D12*
X93270000Y-54000000D03*
D13*
X90730000Y-54000000D03*
D12*
X57730000Y-75000000D03*
D13*
X60270000Y-75000000D03*
D12*
X93270000Y-71000000D03*
D13*
X90730000Y-71000000D03*
D12*
X57730000Y-50000000D03*
D13*
X60270000Y-50000000D03*
D12*
X57730000Y-52540000D03*
D13*
X60270000Y-52540000D03*
X108000000Y-57000000D03*
X108000000Y-43000000D03*
X40000000Y-43000000D03*
X40000000Y-57000000D03*
D14*
X53952500Y-78500000D03*
X52047500Y-78500000D03*
D15*
X64316000Y-59900000D03*
X62284000Y-59900000D03*
X59816000Y-59900000D03*
X57784000Y-59900000D03*
X70684000Y-57500000D03*
X72716000Y-57500000D03*
X78984000Y-57500000D03*
X81016000Y-57500000D03*
X85984000Y-51500000D03*
X88016000Y-51500000D03*
X85984000Y-54000000D03*
X88016000Y-54000000D03*
X85984000Y-48000000D03*
X88016000Y-48000000D03*
D16*
X94000000Y-76270000D03*
X94000000Y-73730000D03*
X84000000Y-76270000D03*
X84000000Y-73730000D03*
X74000000Y-76270000D03*
X74000000Y-73730000D03*
X64000000Y-76270000D03*
X64000000Y-73730000D03*
X54000000Y-76270000D03*
X54000000Y-73730000D03*
X44000000Y-76270000D03*
X44000000Y-73730000D03*
D12*
X80350000Y-60000000D03*
D13*
X77810000Y-60000000D03*
X75270000Y-60000000D03*
X72730000Y-60000000D03*
X70190000Y-60000000D03*
X67650000Y-60000000D03*
D17*
X79500000Y-40047500D03*
X79500000Y-41952500D03*
X82000000Y-40047500D03*
X82000000Y-41952500D03*
D18*
X36500000Y-59500000D03*
X111500000Y-40500000D03*
X111500000Y-59500000D03*
X36500000Y-40500000D03*
D19*
X68200920Y-54150360D03*
X69001020Y-54150360D03*
X69801120Y-54150360D03*
X70601220Y-54150360D03*
X71398780Y-54150360D03*
X72198880Y-54150360D03*
X72998980Y-54150360D03*
X73799080Y-54150360D03*
X73799080Y-45849640D03*
X68200920Y-45849640D03*
X69001020Y-45849640D03*
X69801120Y-45849640D03*
X70601220Y-45849640D03*
X71398780Y-45849640D03*
X72198880Y-45849640D03*
X72998980Y-45849640D03*
D20*
X75150360Y-52799080D03*
X75150360Y-51998980D03*
X75150360Y-51198880D03*
X75150360Y-50398780D03*
X75150360Y-49601220D03*
X75150360Y-48801120D03*
X75150360Y-48001020D03*
X75150360Y-47200920D03*
X66849640Y-52799080D03*
X66849640Y-51998980D03*
X66849640Y-51198880D03*
X66849640Y-50398780D03*
X66849640Y-49601220D03*
X66849640Y-48801120D03*
X66849640Y-48001020D03*
X66849640Y-47200920D03*
D21*
X83300000Y-52000000D03*
X83300000Y-51200000D03*
X83300000Y-48000000D03*
X83300000Y-48800000D03*
X83300000Y-49600000D03*
X83300000Y-50400000D03*
X81100000Y-50400000D03*
X81100000Y-49600000D03*
X81100000Y-48800000D03*
X81100000Y-48000000D03*
X81100000Y-51200000D03*
X81100000Y-52000000D03*
D22*
X82200000Y-52100000D03*
X82200000Y-47900000D03*
D23*
X62900000Y-57800000D03*
X59200000Y-55600000D03*
X62900000Y-55600000D03*
X59200000Y-57800000D03*
D24*
X75100000Y-43100000D03*
X76600000Y-43100000D03*
X77900000Y-45300000D03*
X77900000Y-46800000D03*
X69800000Y-43500000D03*
X73600000Y-43100000D03*
D12*
X71040000Y-39230000D03*
D13*
X71040000Y-41770000D03*
X68500000Y-39230000D03*
X68500000Y-41770000D03*
X65960000Y-39230000D03*
X65960000Y-41770000D03*
D25*
X112570000Y-53300000D03*
X112570000Y-46700000D03*
D24*
X64500000Y-50400000D03*
D12*
X57730000Y-47460000D03*
D13*
X60270000Y-47460000D03*
D12*
X93270000Y-46000000D03*
D13*
X90730000Y-46000000D03*
D12*
X93270000Y-40000000D03*
D13*
X90730000Y-40000000D03*
D12*
X57730000Y-72460000D03*
D13*
X60270000Y-72460000D03*
D12*
X57730000Y-77540000D03*
D13*
X60270000Y-77540000D03*
D26*
X50300000Y-74050000D03*
X50300000Y-75950000D03*
X50300000Y-75000000D03*
X47700000Y-75950000D03*
X47700000Y-75000000D03*
X47700000Y-74050000D03*
X70300000Y-74050000D03*
X70300000Y-75950000D03*
X70300000Y-75000000D03*
X67700000Y-75950000D03*
X67700000Y-75000000D03*
X67700000Y-74050000D03*
X90300000Y-74050000D03*
X90300000Y-75950000D03*
X90300000Y-75000000D03*
X87700000Y-75950000D03*
X87700000Y-75000000D03*
X87700000Y-74050000D03*
D14*
X44047500Y-78500000D03*
X45952500Y-78500000D03*
X64047500Y-78500000D03*
X65952500Y-78500000D03*
X73952500Y-78500000D03*
X72047500Y-78500000D03*
X83952500Y-78500000D03*
X82047500Y-78500000D03*
X98547500Y-78500000D03*
X100452500Y-78500000D03*
M02*
