G04 #@! TF.FileFunction,Soldermask,Top*
%FSLAX46Y46*%
G04 Gerber Fmt 4.6, Leading zero omitted, Abs format (unit mm)*
G04 Created by KiCad (PCBNEW 0.201503050816+5478~22~ubuntu14.10.1-product) date Thursday 12 March 2015 09:39:27 PM IST*
%MOMM*%
G01*
G04 APERTURE LIST*
%ADD10C,0.100000*%
%ADD11C,0.150000*%
%ADD12R,1.924000X1.924000*%
%ADD13C,1.924000*%
%ADD14R,1.466800X1.822400*%
%ADD15R,1.822400X1.466800*%
%ADD16C,2.076400*%
%ADD17R,1.600000X1.600000*%
%ADD18R,3.400000X2.200000*%
%ADD19R,1.898600X1.700480*%
%ADD20R,1.700480X1.898600*%
%ADD21C,3.448000*%
%ADD22R,1.900000X1.400000*%
%ADD23R,1.300000X0.800000*%
%ADD24R,1.550000X1.000000*%
%ADD25C,3.200000*%
%ADD26R,1.750000X0.800000*%
%ADD27R,1.800000X2.000000*%
%ADD28O,2.550000X1.450000*%
%ADD29C,1.300000*%
G04 APERTURE END LIST*
D10*
D11*
X73500000Y-69500000D02*
X74500000Y-69500000D01*
X73500000Y-62000000D02*
X74500000Y-62000000D01*
X74500000Y-69500000D02*
X106500000Y-69500000D01*
X73500000Y-69500000D02*
X41500000Y-69500000D01*
X111000000Y-79000000D02*
X111000000Y-71000000D01*
X41500000Y-80500000D02*
X106500000Y-80500000D01*
X37000000Y-71000000D02*
X37000000Y-79000000D01*
X109500000Y-80500000D02*
G75*
G03X111000000Y-79000000I0J1500000D01*
G01*
X111000000Y-71000000D02*
G75*
G03X109500000Y-69500000I-1500000J0D01*
G01*
X37000000Y-79000000D02*
G75*
G03X38500000Y-80500000I1500000J0D01*
G01*
X38500000Y-69500000D02*
G75*
G03X37000000Y-71000000I0J-1500000D01*
G01*
X109500000Y-80500000D02*
G75*
G03X108000000Y-79000000I-1500000J0D01*
G01*
X108000000Y-79000000D02*
G75*
G03X106500000Y-80500000I0J-1500000D01*
G01*
X108000000Y-71000000D02*
G75*
G03X109500000Y-69500000I0J1500000D01*
G01*
X106500000Y-69500000D02*
G75*
G03X108000000Y-71000000I1500000J0D01*
G01*
X41500000Y-80500000D02*
G75*
G03X40000000Y-79000000I-1500000J0D01*
G01*
X40000000Y-79000000D02*
G75*
G03X38500000Y-80500000I0J-1500000D01*
G01*
X38500000Y-69500000D02*
G75*
G03X40000000Y-71000000I1500000J0D01*
G01*
X40000000Y-71000000D02*
G75*
G03X41500000Y-69500000I0J1500000D01*
G01*
X111500000Y-38000000D02*
X36500000Y-38000000D01*
X114000000Y-59500000D02*
X114000000Y-40500000D01*
X74500000Y-62000000D02*
X111500000Y-62000000D01*
X36500000Y-62000000D02*
X73500000Y-62000000D01*
X34000000Y-40500000D02*
X34000000Y-59500000D01*
X36500000Y-38000000D02*
G75*
G03X34000000Y-40500000I0J-2500000D01*
G01*
X34000000Y-59500000D02*
G75*
G03X36500000Y-62000000I2500000J0D01*
G01*
X111500000Y-62000000D02*
G75*
G03X114000000Y-59500000I0J2500000D01*
G01*
X114000000Y-40500000D02*
G75*
G03X111500000Y-38000000I-2500000J0D01*
G01*
D12*
X93270000Y-79000000D03*
D13*
X90730000Y-79000000D03*
D12*
X93270000Y-54000000D03*
D13*
X90730000Y-54000000D03*
D12*
X57730000Y-75000000D03*
D13*
X60270000Y-75000000D03*
D12*
X93270000Y-71000000D03*
D13*
X90730000Y-71000000D03*
D12*
X57730000Y-50000000D03*
D13*
X60270000Y-50000000D03*
D12*
X57730000Y-52540000D03*
D13*
X60270000Y-52540000D03*
X108000000Y-57000000D03*
X108000000Y-43000000D03*
X40000000Y-43000000D03*
X40000000Y-57000000D03*
D14*
X69484000Y-54500000D03*
X71516000Y-54500000D03*
D15*
X87900000Y-53016000D03*
X87900000Y-50984000D03*
D14*
X69484000Y-49500000D03*
X71516000Y-49500000D03*
D15*
X74500000Y-53016000D03*
X74500000Y-50984000D03*
D16*
X94000000Y-76270000D03*
X94000000Y-73730000D03*
X84000000Y-76270000D03*
X84000000Y-73730000D03*
X74000000Y-76270000D03*
X74000000Y-73730000D03*
X64000000Y-76270000D03*
X64000000Y-73730000D03*
X54000000Y-76270000D03*
X54000000Y-73730000D03*
X44000000Y-76270000D03*
X44000000Y-73730000D03*
D17*
X102950000Y-75000000D03*
X105050000Y-75000000D03*
D18*
X66000000Y-53500000D03*
X66000000Y-50500000D03*
D12*
X80350000Y-60000000D03*
D13*
X77810000Y-60000000D03*
X75270000Y-60000000D03*
X72730000Y-60000000D03*
X70190000Y-60000000D03*
X67650000Y-60000000D03*
D19*
X64100000Y-58047500D03*
X64100000Y-59952500D03*
D20*
X85652500Y-46200000D03*
X83747500Y-46200000D03*
X85652500Y-48500000D03*
X83747500Y-48500000D03*
D21*
X36500000Y-59500000D03*
X111500000Y-40500000D03*
X111500000Y-59500000D03*
X36500000Y-40500000D03*
D22*
X91500000Y-57800000D03*
X91500000Y-60200000D03*
X86500000Y-57800000D03*
X86500000Y-60200000D03*
D23*
X71600000Y-52650000D03*
X71600000Y-51350000D03*
X71600000Y-52000000D03*
X69400000Y-51350000D03*
X69400000Y-52000000D03*
X69400000Y-52650000D03*
D12*
X71040000Y-39230000D03*
D13*
X71040000Y-41770000D03*
X68500000Y-39230000D03*
X68500000Y-41770000D03*
X65960000Y-39230000D03*
X65960000Y-41770000D03*
D12*
X57730000Y-47460000D03*
D13*
X60270000Y-47460000D03*
D12*
X93270000Y-46000000D03*
D13*
X90730000Y-46000000D03*
D12*
X93270000Y-40000000D03*
D13*
X90730000Y-40000000D03*
D12*
X57730000Y-72460000D03*
D13*
X60270000Y-72460000D03*
D12*
X57730000Y-77540000D03*
D13*
X60270000Y-77540000D03*
D19*
X83900000Y-58047500D03*
X83900000Y-59952500D03*
D22*
X61500000Y-57800000D03*
X61500000Y-60200000D03*
X56500000Y-57800000D03*
X56500000Y-60200000D03*
D24*
X80300000Y-51050000D03*
X80300000Y-52950000D03*
X80300000Y-52000000D03*
X83100000Y-52950000D03*
X83100000Y-51050000D03*
D25*
X50000000Y-52540000D03*
X50000000Y-47460000D03*
X42380000Y-50000000D03*
X98000000Y-47460000D03*
X98000000Y-52540000D03*
X105620000Y-50000000D03*
D26*
X109900000Y-50000000D03*
X109900000Y-49350000D03*
X109900000Y-48700000D03*
X109900000Y-50650000D03*
X109900000Y-51300000D03*
D27*
X110325000Y-53200000D03*
X110325000Y-46800000D03*
D28*
X112575000Y-53225000D03*
X112575000Y-46775000D03*
D29*
X83000000Y-55000000D03*
X72500000Y-49500000D03*
X89000000Y-57800000D03*
X84700000Y-50400000D03*
X79200000Y-49800000D03*
X66500000Y-57300000D03*
X69800000Y-48200000D03*
X84600000Y-54000000D03*
X79000000Y-54100000D03*
X82300000Y-59900000D03*
X73000000Y-48000000D03*
X64900000Y-46700000D03*
X63500000Y-47600000D03*
X77800000Y-54100000D03*
X76600000Y-54100000D03*
X82200000Y-45100000D03*
X77900000Y-48900000D03*
X74200000Y-56500000D03*
X69088000Y-77216000D03*
X89500000Y-49500000D03*
X51800000Y-74500000D03*
X46200000Y-75000000D03*
X71750000Y-73250000D03*
X91948000Y-73914000D03*
X88200000Y-71900000D03*
X86000000Y-75000000D03*
M02*
