G04 #@! TF.FileFunction,Legend,Bot*
%FSLAX46Y46*%
G04 Gerber Fmt 4.6, Leading zero omitted, Abs format (unit mm)*
G04 Created by KiCad (PCBNEW (2014-12-11 BZR 5320)-product) date Thu Feb  5 17:59:39 2015*
%MOMM*%
G01*
G04 APERTURE LIST*
%ADD10C,0.100000*%
%ADD11C,0.150000*%
%ADD12C,0.200000*%
%ADD13C,0.500000*%
%ADD14C,0.152400*%
%ADD15R,1.924000X1.924000*%
%ADD16C,1.924000*%
%ADD17R,1.700480X1.898600*%
%ADD18R,1.466800X1.822400*%
%ADD19C,2.076400*%
%ADD20R,1.898600X1.700480*%
%ADD21C,3.448000*%
%ADD22R,0.849580X2.398980*%
%ADD23R,2.398980X0.849580*%
%ADD24R,1.545000X0.950000*%
%ADD25R,0.950000X1.545000*%
%ADD26R,2.400000X1.600000*%
%ADD27C,1.400000*%
%ADD28C,2.305000*%
%ADD29R,1.100000X0.800000*%
%ADD30C,3.200000*%
G04 APERTURE END LIST*
D10*
D11*
X88750000Y-61500000D02*
G75*
G03X89500000Y-60750000I0J750000D01*
G01*
X84500000Y-60750000D02*
G75*
G03X85250000Y-61500000I750000J0D01*
G01*
X89500000Y-56250000D02*
G75*
G03X88750000Y-55500000I-750000J0D01*
G01*
X85250000Y-55500000D02*
G75*
G03X84500000Y-56250000I0J-750000D01*
G01*
X84500000Y-60750000D02*
X84500000Y-56250000D01*
X88750000Y-61500000D02*
X85250000Y-61500000D01*
X89500000Y-56250000D02*
X89500000Y-60750000D01*
X85250000Y-55500000D02*
X88750000Y-55500000D01*
X86057143Y-58871429D02*
X86057143Y-59480953D01*
X86361905Y-59176191D02*
X85752381Y-59176191D01*
X85828571Y-59785715D02*
X85828571Y-60204762D01*
X86361905Y-59785715D01*
X86361905Y-60204762D01*
X88557143Y-59140476D02*
X88557143Y-59750000D01*
X88861905Y-59445238D02*
X88252381Y-59445238D01*
X88328571Y-60054762D02*
X88861905Y-60245238D01*
X88328571Y-60435714D02*
X88861905Y-60245238D01*
X89052381Y-60169047D01*
X89090476Y-60130952D01*
X89128571Y-60054762D01*
X85807143Y-56371429D02*
X85807143Y-56980953D01*
X86111905Y-56676191D02*
X85502381Y-56676191D01*
X86111905Y-57285715D02*
X85578571Y-57704762D01*
X85578571Y-57285715D02*
X86111905Y-57704762D01*
X87500000Y-61000000D02*
X88250000Y-60750000D01*
X87500000Y-60500000D02*
X87500000Y-61000000D01*
X88250000Y-60750000D02*
X87500000Y-60500000D01*
X85250000Y-60750000D02*
X88250000Y-60750000D01*
X85500000Y-58500000D02*
X85250000Y-57750000D01*
X85000000Y-58500000D02*
X85500000Y-58500000D01*
X85250000Y-57750000D02*
X85000000Y-58500000D01*
X85250000Y-60750000D02*
X85250000Y-57750000D01*
X85500000Y-60750000D02*
G75*
G03X85500000Y-60750000I-250000J0D01*
G01*
X77166667Y-56480953D02*
X77128571Y-56442857D01*
X77014286Y-56366667D01*
X76938095Y-56328572D01*
X76823810Y-56290476D01*
X76633333Y-56252381D01*
X76480952Y-56252381D01*
X76290476Y-56290476D01*
X76176190Y-56328572D01*
X76100000Y-56366667D01*
X75985714Y-56442857D01*
X75947619Y-56480953D01*
X76061905Y-56709524D02*
X76061905Y-57204762D01*
X76366667Y-56938095D01*
X76366667Y-57052381D01*
X76404762Y-57128571D01*
X76442857Y-57166667D01*
X76519048Y-57204762D01*
X76709524Y-57204762D01*
X76785714Y-57166667D01*
X76823810Y-57128571D01*
X76861905Y-57052381D01*
X76861905Y-56823809D01*
X76823810Y-56747619D01*
X76785714Y-56709524D01*
X76061905Y-57433333D02*
X76861905Y-57700000D01*
X76061905Y-57966667D01*
X76061905Y-58157143D02*
X76061905Y-58652381D01*
X76366667Y-58385714D01*
X76366667Y-58500000D01*
X76404762Y-58576190D01*
X76442857Y-58614286D01*
X76519048Y-58652381D01*
X76709524Y-58652381D01*
X76785714Y-58614286D01*
X76823810Y-58576190D01*
X76861905Y-58500000D01*
X76861905Y-58271428D01*
X76823810Y-58195238D01*
X76785714Y-58157143D01*
X77166667Y-58919048D02*
X77128571Y-58957143D01*
X77014286Y-59033333D01*
X76938095Y-59071429D01*
X76823810Y-59109524D01*
X76633333Y-59147619D01*
X76480952Y-59147619D01*
X76290476Y-59109524D01*
X76176190Y-59071429D01*
X76100000Y-59033333D01*
X75985714Y-58957143D01*
X75947619Y-58919048D01*
D12*
X90238096Y-41614286D02*
X90000000Y-41614286D01*
X90000000Y-43042857D01*
X90238096Y-43042857D01*
X90619048Y-42328571D02*
X91380953Y-42328571D01*
X92619048Y-42328571D02*
X93380953Y-42328571D01*
X93000001Y-41947619D02*
X93000001Y-42709524D01*
X93761905Y-41614286D02*
X94000000Y-41614286D01*
X94000000Y-43042857D01*
X93761905Y-43042857D01*
D13*
X55923809Y-61571429D02*
X56399999Y-61571429D01*
X56399999Y-58714286D01*
X55923809Y-58714286D01*
X55161905Y-60142857D02*
X53638095Y-60142857D01*
X52876191Y-61571429D02*
X52400000Y-61571429D01*
X52400000Y-58714286D01*
X52876191Y-58714286D01*
X95023809Y-61571429D02*
X95499999Y-61571429D01*
X95499999Y-58714286D01*
X95023809Y-58714286D01*
X94261905Y-60142857D02*
X92738095Y-60142857D01*
X93500000Y-60904762D02*
X93500000Y-59380952D01*
X91976191Y-61571429D02*
X91500000Y-61571429D01*
X91500000Y-58714286D01*
X91976191Y-58714286D01*
D14*
X94159000Y-77793500D02*
X94159000Y-77920500D01*
X94286000Y-77793500D02*
X94286000Y-78047500D01*
X94413000Y-77793500D02*
X94413000Y-78174500D01*
X92381000Y-77793500D02*
X92381000Y-77920500D01*
X92254000Y-77793500D02*
X92254000Y-78047500D01*
X92127000Y-77793500D02*
X92127000Y-78174500D01*
X92381000Y-80206500D02*
X92381000Y-80079500D01*
X92254000Y-80206500D02*
X92254000Y-79952500D01*
X92127000Y-80206500D02*
X92127000Y-79825500D01*
X94159000Y-80206500D02*
X94159000Y-80079500D01*
X94286000Y-80206500D02*
X94286000Y-79952500D01*
X94413000Y-80206500D02*
X94413000Y-79825500D01*
X93905000Y-80270000D02*
X94540000Y-80270000D01*
X94540000Y-80270000D02*
X94540000Y-79635000D01*
X92000000Y-79635000D02*
X92000000Y-80270000D01*
X92000000Y-80270000D02*
X92635000Y-80270000D01*
X92635000Y-77730000D02*
X92000000Y-77730000D01*
X92000000Y-77730000D02*
X92000000Y-78301500D01*
X94540000Y-78365000D02*
X94540000Y-77730000D01*
X94540000Y-77730000D02*
X93905000Y-77730000D01*
X92000000Y-78365000D02*
X92000000Y-79635000D01*
X94540000Y-79000000D02*
X94540000Y-79635000D01*
X94540000Y-79635000D02*
X93905000Y-80270000D01*
X93905000Y-80270000D02*
X92635000Y-80270000D01*
X92635000Y-80270000D02*
X92000000Y-79635000D01*
X92000000Y-79635000D02*
X91365000Y-80270000D01*
X91365000Y-80270000D02*
X90095000Y-80270000D01*
X90095000Y-80270000D02*
X89460000Y-79635000D01*
X89460000Y-79635000D02*
X89460000Y-78365000D01*
X89460000Y-78365000D02*
X90095000Y-77730000D01*
X90095000Y-77730000D02*
X91365000Y-77730000D01*
X91365000Y-77730000D02*
X92000000Y-78365000D01*
X92000000Y-78365000D02*
X92635000Y-77730000D01*
X92635000Y-77730000D02*
X93905000Y-77730000D01*
X93905000Y-77730000D02*
X94540000Y-78365000D01*
X94540000Y-78365000D02*
X94540000Y-79000000D01*
X56841000Y-76206500D02*
X56841000Y-76079500D01*
X56714000Y-76206500D02*
X56714000Y-75952500D01*
X56587000Y-76206500D02*
X56587000Y-75825500D01*
X58619000Y-76206500D02*
X58619000Y-76079500D01*
X58746000Y-76206500D02*
X58746000Y-75952500D01*
X58873000Y-76206500D02*
X58873000Y-75825500D01*
X58619000Y-73793500D02*
X58619000Y-73920500D01*
X58746000Y-73793500D02*
X58746000Y-74047500D01*
X58873000Y-73793500D02*
X58873000Y-74174500D01*
X56841000Y-73793500D02*
X56841000Y-73920500D01*
X56714000Y-73793500D02*
X56714000Y-74047500D01*
X56587000Y-73793500D02*
X56587000Y-74174500D01*
X57095000Y-73730000D02*
X56460000Y-73730000D01*
X56460000Y-73730000D02*
X56460000Y-74365000D01*
X59000000Y-74365000D02*
X59000000Y-73730000D01*
X59000000Y-73730000D02*
X58365000Y-73730000D01*
X58365000Y-76270000D02*
X59000000Y-76270000D01*
X59000000Y-76270000D02*
X59000000Y-75698500D01*
X56460000Y-75635000D02*
X56460000Y-76270000D01*
X56460000Y-76270000D02*
X57095000Y-76270000D01*
X59000000Y-75635000D02*
X59000000Y-74365000D01*
X56460000Y-75000000D02*
X56460000Y-74365000D01*
X56460000Y-74365000D02*
X57095000Y-73730000D01*
X57095000Y-73730000D02*
X58365000Y-73730000D01*
X58365000Y-73730000D02*
X59000000Y-74365000D01*
X59000000Y-74365000D02*
X59635000Y-73730000D01*
X59635000Y-73730000D02*
X60905000Y-73730000D01*
X60905000Y-73730000D02*
X61540000Y-74365000D01*
X61540000Y-74365000D02*
X61540000Y-75635000D01*
X61540000Y-75635000D02*
X60905000Y-76270000D01*
X60905000Y-76270000D02*
X59635000Y-76270000D01*
X59635000Y-76270000D02*
X59000000Y-75635000D01*
X59000000Y-75635000D02*
X58365000Y-76270000D01*
X58365000Y-76270000D02*
X57095000Y-76270000D01*
X57095000Y-76270000D02*
X56460000Y-75635000D01*
X56460000Y-75635000D02*
X56460000Y-75000000D01*
X94159000Y-69793500D02*
X94159000Y-69920500D01*
X94286000Y-69793500D02*
X94286000Y-70047500D01*
X94413000Y-69793500D02*
X94413000Y-70174500D01*
X92381000Y-69793500D02*
X92381000Y-69920500D01*
X92254000Y-69793500D02*
X92254000Y-70047500D01*
X92127000Y-69793500D02*
X92127000Y-70174500D01*
X92381000Y-72206500D02*
X92381000Y-72079500D01*
X92254000Y-72206500D02*
X92254000Y-71952500D01*
X92127000Y-72206500D02*
X92127000Y-71825500D01*
X94159000Y-72206500D02*
X94159000Y-72079500D01*
X94286000Y-72206500D02*
X94286000Y-71952500D01*
X94413000Y-72206500D02*
X94413000Y-71825500D01*
X93905000Y-72270000D02*
X94540000Y-72270000D01*
X94540000Y-72270000D02*
X94540000Y-71635000D01*
X92000000Y-71635000D02*
X92000000Y-72270000D01*
X92000000Y-72270000D02*
X92635000Y-72270000D01*
X92635000Y-69730000D02*
X92000000Y-69730000D01*
X92000000Y-69730000D02*
X92000000Y-70301500D01*
X94540000Y-70365000D02*
X94540000Y-69730000D01*
X94540000Y-69730000D02*
X93905000Y-69730000D01*
X92000000Y-70365000D02*
X92000000Y-71635000D01*
X94540000Y-71000000D02*
X94540000Y-71635000D01*
X94540000Y-71635000D02*
X93905000Y-72270000D01*
X93905000Y-72270000D02*
X92635000Y-72270000D01*
X92635000Y-72270000D02*
X92000000Y-71635000D01*
X92000000Y-71635000D02*
X91365000Y-72270000D01*
X91365000Y-72270000D02*
X90095000Y-72270000D01*
X90095000Y-72270000D02*
X89460000Y-71635000D01*
X89460000Y-71635000D02*
X89460000Y-70365000D01*
X89460000Y-70365000D02*
X90095000Y-69730000D01*
X90095000Y-69730000D02*
X91365000Y-69730000D01*
X91365000Y-69730000D02*
X92000000Y-70365000D01*
X92000000Y-70365000D02*
X92635000Y-69730000D01*
X92635000Y-69730000D02*
X93905000Y-69730000D01*
X93905000Y-69730000D02*
X94540000Y-70365000D01*
X94540000Y-70365000D02*
X94540000Y-71000000D01*
X53381000Y-77420500D02*
X54968500Y-77420500D01*
X54968500Y-77420500D02*
X54968500Y-79579500D01*
X54968500Y-79579500D02*
X53381000Y-79579500D01*
X52619000Y-79579500D02*
X51095000Y-79579500D01*
X51095000Y-79579500D02*
X51031500Y-79579500D01*
X51031500Y-79579500D02*
X51031500Y-77420500D01*
X51031500Y-77420500D02*
X52619000Y-77420500D01*
X65205000Y-58820500D02*
X63427000Y-58820500D01*
X65205000Y-60979500D02*
X63427000Y-60979500D01*
X62284000Y-58820500D02*
X61395000Y-58820500D01*
X61395000Y-60979500D02*
X62284000Y-60979500D01*
X63427000Y-60979500D02*
X63427000Y-58820500D01*
X65205000Y-60979500D02*
X65205000Y-58820500D01*
X61395000Y-60979500D02*
X61395000Y-58820500D01*
X60705000Y-58820500D02*
X58927000Y-58820500D01*
X60705000Y-60979500D02*
X58927000Y-60979500D01*
X57784000Y-58820500D02*
X56895000Y-58820500D01*
X56895000Y-60979500D02*
X57784000Y-60979500D01*
X58927000Y-60979500D02*
X58927000Y-58820500D01*
X60705000Y-60979500D02*
X60705000Y-58820500D01*
X56895000Y-60979500D02*
X56895000Y-58820500D01*
X69795000Y-58579500D02*
X71573000Y-58579500D01*
X69795000Y-56420500D02*
X71573000Y-56420500D01*
X72716000Y-58579500D02*
X73605000Y-58579500D01*
X73605000Y-56420500D02*
X72716000Y-56420500D01*
X71573000Y-56420500D02*
X71573000Y-58579500D01*
X69795000Y-56420500D02*
X69795000Y-58579500D01*
X73605000Y-56420500D02*
X73605000Y-58579500D01*
X78095000Y-58579500D02*
X79873000Y-58579500D01*
X78095000Y-56420500D02*
X79873000Y-56420500D01*
X81016000Y-58579500D02*
X81905000Y-58579500D01*
X81905000Y-56420500D02*
X81016000Y-56420500D01*
X79873000Y-56420500D02*
X79873000Y-58579500D01*
X78095000Y-56420500D02*
X78095000Y-58579500D01*
X81905000Y-56420500D02*
X81905000Y-58579500D01*
X85095000Y-52579500D02*
X86873000Y-52579500D01*
X85095000Y-50420500D02*
X86873000Y-50420500D01*
X88016000Y-52579500D02*
X88905000Y-52579500D01*
X88905000Y-50420500D02*
X88016000Y-50420500D01*
X86873000Y-50420500D02*
X86873000Y-52579500D01*
X85095000Y-50420500D02*
X85095000Y-52579500D01*
X88905000Y-50420500D02*
X88905000Y-52579500D01*
X85095000Y-55079500D02*
X86873000Y-55079500D01*
X85095000Y-52920500D02*
X86873000Y-52920500D01*
X88016000Y-55079500D02*
X88905000Y-55079500D01*
X88905000Y-52920500D02*
X88016000Y-52920500D01*
X86873000Y-52920500D02*
X86873000Y-55079500D01*
X85095000Y-52920500D02*
X85095000Y-55079500D01*
X88905000Y-52920500D02*
X88905000Y-55079500D01*
X85095000Y-49079500D02*
X86873000Y-49079500D01*
X85095000Y-46920500D02*
X86873000Y-46920500D01*
X88016000Y-49079500D02*
X88905000Y-49079500D01*
X88905000Y-46920500D02*
X88016000Y-46920500D01*
X86873000Y-46920500D02*
X86873000Y-49079500D01*
X85095000Y-46920500D02*
X85095000Y-49079500D01*
X88905000Y-46920500D02*
X88905000Y-49079500D01*
X78420500Y-40619000D02*
X78420500Y-39031500D01*
X78420500Y-39031500D02*
X80579500Y-39031500D01*
X80579500Y-39031500D02*
X80579500Y-40619000D01*
X80579500Y-41381000D02*
X80579500Y-42905000D01*
X80579500Y-42905000D02*
X80579500Y-42968500D01*
X80579500Y-42968500D02*
X78420500Y-42968500D01*
X78420500Y-42968500D02*
X78420500Y-41381000D01*
X80920500Y-40619000D02*
X80920500Y-39031500D01*
X80920500Y-39031500D02*
X83079500Y-39031500D01*
X83079500Y-39031500D02*
X83079500Y-40619000D01*
X83079500Y-41381000D02*
X83079500Y-42905000D01*
X83079500Y-42905000D02*
X83079500Y-42968500D01*
X83079500Y-42968500D02*
X80920500Y-42968500D01*
X80920500Y-42968500D02*
X80920500Y-41381000D01*
X75191000Y-54191000D02*
X75191000Y-54381500D01*
X75191000Y-54191000D02*
X75381500Y-54191000D01*
X75064000Y-54064000D02*
X75064000Y-54508500D01*
X75064000Y-54064000D02*
X75508500Y-54064000D01*
X74937000Y-53937000D02*
X74937000Y-54635500D01*
X74937000Y-53937000D02*
X75635500Y-53937000D01*
X74810000Y-53810000D02*
X74810000Y-54762500D01*
X74810000Y-53810000D02*
X75762500Y-53810000D01*
X74683000Y-53683000D02*
X74683000Y-54889500D01*
X74683000Y-53683000D02*
X75889500Y-53683000D01*
X74556000Y-55143500D02*
X74556000Y-53556000D01*
X74556000Y-53556000D02*
X76080000Y-53556000D01*
X76397500Y-53238500D02*
X76397500Y-44602500D01*
X76397500Y-44602500D02*
X65602500Y-44602500D01*
X65602500Y-44602500D02*
X65602500Y-55397500D01*
X65602500Y-55397500D02*
X74302000Y-55397500D01*
X74302000Y-55397500D02*
X76397500Y-53238500D01*
D11*
X83975000Y-47625000D02*
X83975000Y-47375000D01*
X83975000Y-47625000D02*
X83725000Y-47375000D01*
X83725000Y-47375000D02*
X83975000Y-47375000D01*
X83975000Y-47375000D02*
X84225000Y-47375000D01*
X84225000Y-47375000D02*
X83975000Y-47625000D01*
X83550000Y-47500000D02*
X82550000Y-47500000D01*
X83550000Y-47500000D02*
X83700000Y-47650000D01*
X83700000Y-52500000D02*
X83700000Y-52350000D01*
X80700000Y-52500000D02*
X80700000Y-52350000D01*
X80700000Y-52500000D02*
X81850000Y-52500000D01*
X83700000Y-52500000D02*
X82550000Y-52500000D01*
X80700000Y-47500000D02*
X80700000Y-47650000D01*
X80700000Y-47500000D02*
X81850000Y-47500000D01*
X63550000Y-56300000D02*
X63550000Y-57100000D01*
X58550000Y-57100000D02*
X58550000Y-56300000D01*
X61850000Y-58300000D02*
X60250000Y-58300000D01*
X60250000Y-55100000D02*
X61850000Y-55100000D01*
D14*
X94159000Y-38793500D02*
X94159000Y-38920500D01*
X94286000Y-38793500D02*
X94286000Y-39047500D01*
X94413000Y-38793500D02*
X94413000Y-39174500D01*
X92381000Y-38793500D02*
X92381000Y-38920500D01*
X92254000Y-38793500D02*
X92254000Y-39047500D01*
X92127000Y-38793500D02*
X92127000Y-39174500D01*
X92381000Y-41206500D02*
X92381000Y-41079500D01*
X92254000Y-41206500D02*
X92254000Y-40952500D01*
X92127000Y-41206500D02*
X92127000Y-40825500D01*
X94159000Y-41206500D02*
X94159000Y-41079500D01*
X94286000Y-41206500D02*
X94286000Y-40952500D01*
X94413000Y-41206500D02*
X94413000Y-40825500D01*
X93905000Y-41270000D02*
X94540000Y-41270000D01*
X94540000Y-41270000D02*
X94540000Y-40635000D01*
X92000000Y-40635000D02*
X92000000Y-41270000D01*
X92000000Y-41270000D02*
X92635000Y-41270000D01*
X92635000Y-38730000D02*
X92000000Y-38730000D01*
X92000000Y-38730000D02*
X92000000Y-39301500D01*
X94540000Y-39365000D02*
X94540000Y-38730000D01*
X94540000Y-38730000D02*
X93905000Y-38730000D01*
X92000000Y-39365000D02*
X92000000Y-40635000D01*
X94540000Y-40000000D02*
X94540000Y-40635000D01*
X94540000Y-40635000D02*
X93905000Y-41270000D01*
X93905000Y-41270000D02*
X92635000Y-41270000D01*
X92635000Y-41270000D02*
X92000000Y-40635000D01*
X92000000Y-40635000D02*
X91365000Y-41270000D01*
X91365000Y-41270000D02*
X90095000Y-41270000D01*
X90095000Y-41270000D02*
X89460000Y-40635000D01*
X89460000Y-40635000D02*
X89460000Y-39365000D01*
X89460000Y-39365000D02*
X90095000Y-38730000D01*
X90095000Y-38730000D02*
X91365000Y-38730000D01*
X91365000Y-38730000D02*
X92000000Y-39365000D01*
X92000000Y-39365000D02*
X92635000Y-38730000D01*
X92635000Y-38730000D02*
X93905000Y-38730000D01*
X93905000Y-38730000D02*
X94540000Y-39365000D01*
X94540000Y-39365000D02*
X94540000Y-40000000D01*
X56841000Y-73666500D02*
X56841000Y-73539500D01*
X56714000Y-73666500D02*
X56714000Y-73412500D01*
X56587000Y-73666500D02*
X56587000Y-73285500D01*
X58619000Y-73666500D02*
X58619000Y-73539500D01*
X58746000Y-73666500D02*
X58746000Y-73412500D01*
X58873000Y-73666500D02*
X58873000Y-73285500D01*
X58619000Y-71253500D02*
X58619000Y-71380500D01*
X58746000Y-71253500D02*
X58746000Y-71507500D01*
X58873000Y-71253500D02*
X58873000Y-71634500D01*
X56841000Y-71253500D02*
X56841000Y-71380500D01*
X56714000Y-71253500D02*
X56714000Y-71507500D01*
X56587000Y-71253500D02*
X56587000Y-71634500D01*
X57095000Y-71190000D02*
X56460000Y-71190000D01*
X56460000Y-71190000D02*
X56460000Y-71825000D01*
X59000000Y-71825000D02*
X59000000Y-71190000D01*
X59000000Y-71190000D02*
X58365000Y-71190000D01*
X58365000Y-73730000D02*
X59000000Y-73730000D01*
X59000000Y-73730000D02*
X59000000Y-73158500D01*
X56460000Y-73095000D02*
X56460000Y-73730000D01*
X56460000Y-73730000D02*
X57095000Y-73730000D01*
X59000000Y-73095000D02*
X59000000Y-71825000D01*
X56460000Y-72460000D02*
X56460000Y-71825000D01*
X56460000Y-71825000D02*
X57095000Y-71190000D01*
X57095000Y-71190000D02*
X58365000Y-71190000D01*
X58365000Y-71190000D02*
X59000000Y-71825000D01*
X59000000Y-71825000D02*
X59635000Y-71190000D01*
X59635000Y-71190000D02*
X60905000Y-71190000D01*
X60905000Y-71190000D02*
X61540000Y-71825000D01*
X61540000Y-71825000D02*
X61540000Y-73095000D01*
X61540000Y-73095000D02*
X60905000Y-73730000D01*
X60905000Y-73730000D02*
X59635000Y-73730000D01*
X59635000Y-73730000D02*
X59000000Y-73095000D01*
X59000000Y-73095000D02*
X58365000Y-73730000D01*
X58365000Y-73730000D02*
X57095000Y-73730000D01*
X57095000Y-73730000D02*
X56460000Y-73095000D01*
X56460000Y-73095000D02*
X56460000Y-72460000D01*
X56841000Y-78746500D02*
X56841000Y-78619500D01*
X56714000Y-78746500D02*
X56714000Y-78492500D01*
X56587000Y-78746500D02*
X56587000Y-78365500D01*
X58619000Y-78746500D02*
X58619000Y-78619500D01*
X58746000Y-78746500D02*
X58746000Y-78492500D01*
X58873000Y-78746500D02*
X58873000Y-78365500D01*
X58619000Y-76333500D02*
X58619000Y-76460500D01*
X58746000Y-76333500D02*
X58746000Y-76587500D01*
X58873000Y-76333500D02*
X58873000Y-76714500D01*
X56841000Y-76333500D02*
X56841000Y-76460500D01*
X56714000Y-76333500D02*
X56714000Y-76587500D01*
X56587000Y-76333500D02*
X56587000Y-76714500D01*
X57095000Y-76270000D02*
X56460000Y-76270000D01*
X56460000Y-76270000D02*
X56460000Y-76905000D01*
X59000000Y-76905000D02*
X59000000Y-76270000D01*
X59000000Y-76270000D02*
X58365000Y-76270000D01*
X58365000Y-78810000D02*
X59000000Y-78810000D01*
X59000000Y-78810000D02*
X59000000Y-78238500D01*
X56460000Y-78175000D02*
X56460000Y-78810000D01*
X56460000Y-78810000D02*
X57095000Y-78810000D01*
X59000000Y-78175000D02*
X59000000Y-76905000D01*
X56460000Y-77540000D02*
X56460000Y-76905000D01*
X56460000Y-76905000D02*
X57095000Y-76270000D01*
X57095000Y-76270000D02*
X58365000Y-76270000D01*
X58365000Y-76270000D02*
X59000000Y-76905000D01*
X59000000Y-76905000D02*
X59635000Y-76270000D01*
X59635000Y-76270000D02*
X60905000Y-76270000D01*
X60905000Y-76270000D02*
X61540000Y-76905000D01*
X61540000Y-76905000D02*
X61540000Y-78175000D01*
X61540000Y-78175000D02*
X60905000Y-78810000D01*
X60905000Y-78810000D02*
X59635000Y-78810000D01*
X59635000Y-78810000D02*
X59000000Y-78175000D01*
X59000000Y-78175000D02*
X58365000Y-78810000D01*
X58365000Y-78810000D02*
X57095000Y-78810000D01*
X57095000Y-78810000D02*
X56460000Y-78175000D01*
X56460000Y-78175000D02*
X56460000Y-77540000D01*
X44619000Y-79579500D02*
X43031500Y-79579500D01*
X43031500Y-79579500D02*
X43031500Y-77420500D01*
X43031500Y-77420500D02*
X44619000Y-77420500D01*
X45381000Y-77420500D02*
X46905000Y-77420500D01*
X46905000Y-77420500D02*
X46968500Y-77420500D01*
X46968500Y-77420500D02*
X46968500Y-79579500D01*
X46968500Y-79579500D02*
X45381000Y-79579500D01*
X64619000Y-79579500D02*
X63031500Y-79579500D01*
X63031500Y-79579500D02*
X63031500Y-77420500D01*
X63031500Y-77420500D02*
X64619000Y-77420500D01*
X65381000Y-77420500D02*
X66905000Y-77420500D01*
X66905000Y-77420500D02*
X66968500Y-77420500D01*
X66968500Y-77420500D02*
X66968500Y-79579500D01*
X66968500Y-79579500D02*
X65381000Y-79579500D01*
X73381000Y-77420500D02*
X74968500Y-77420500D01*
X74968500Y-77420500D02*
X74968500Y-79579500D01*
X74968500Y-79579500D02*
X73381000Y-79579500D01*
X72619000Y-79579500D02*
X71095000Y-79579500D01*
X71095000Y-79579500D02*
X71031500Y-79579500D01*
X71031500Y-79579500D02*
X71031500Y-77420500D01*
X71031500Y-77420500D02*
X72619000Y-77420500D01*
X83381000Y-77420500D02*
X84968500Y-77420500D01*
X84968500Y-77420500D02*
X84968500Y-79579500D01*
X84968500Y-79579500D02*
X83381000Y-79579500D01*
X82619000Y-79579500D02*
X81095000Y-79579500D01*
X81095000Y-79579500D02*
X81031500Y-79579500D01*
X81031500Y-79579500D02*
X81031500Y-77420500D01*
X81031500Y-77420500D02*
X82619000Y-77420500D01*
X99119000Y-79579500D02*
X97531500Y-79579500D01*
X97531500Y-79579500D02*
X97531500Y-77420500D01*
X97531500Y-77420500D02*
X99119000Y-77420500D01*
X99881000Y-77420500D02*
X101405000Y-77420500D01*
X101405000Y-77420500D02*
X101468500Y-77420500D01*
X101468500Y-77420500D02*
X101468500Y-79579500D01*
X101468500Y-79579500D02*
X99881000Y-79579500D01*
D11*
X49700000Y-73750000D02*
X49700000Y-73500000D01*
X49700000Y-73750000D02*
X49450000Y-73500000D01*
X49450000Y-73500000D02*
X49950000Y-73500000D01*
X49950000Y-73500000D02*
X49700000Y-73750000D01*
X49400000Y-74000000D02*
X49400000Y-76000000D01*
X48600000Y-76000000D02*
X48600000Y-74000000D01*
X49700000Y-76000000D02*
X48300000Y-76000000D01*
X48300000Y-74000000D02*
X49700000Y-74000000D01*
X69700000Y-73750000D02*
X69700000Y-73500000D01*
X69700000Y-73750000D02*
X69450000Y-73500000D01*
X69450000Y-73500000D02*
X69950000Y-73500000D01*
X69950000Y-73500000D02*
X69700000Y-73750000D01*
X69400000Y-74000000D02*
X69400000Y-76000000D01*
X68600000Y-76000000D02*
X68600000Y-74000000D01*
X69700000Y-76000000D02*
X68300000Y-76000000D01*
X68300000Y-74000000D02*
X69700000Y-74000000D01*
X89700000Y-73750000D02*
X89700000Y-73500000D01*
X89700000Y-73750000D02*
X89450000Y-73500000D01*
X89450000Y-73500000D02*
X89950000Y-73500000D01*
X89950000Y-73500000D02*
X89700000Y-73750000D01*
X89400000Y-74000000D02*
X89400000Y-76000000D01*
X88600000Y-76000000D02*
X88600000Y-74000000D01*
X89700000Y-76000000D02*
X88300000Y-76000000D01*
X88300000Y-74000000D02*
X89700000Y-74000000D01*
X45428000Y-48984000D02*
X42634000Y-48984000D01*
X45428000Y-51016000D02*
X42634000Y-51016000D01*
X46952000Y-48476000D02*
X50000000Y-48476000D01*
X46952000Y-46444000D02*
X50000000Y-46444000D01*
X45936000Y-47460000D02*
G75*
G02X46952000Y-46444000I1016000J0D01*
G01*
X46952000Y-48476000D02*
G75*
G02X45936000Y-47460000I0J1016000D01*
G01*
X46952000Y-51524000D02*
X50000000Y-51524000D01*
X46952000Y-53556000D02*
X50000000Y-53556000D01*
X45936000Y-52540000D02*
G75*
G02X46952000Y-51524000I1016000J0D01*
G01*
X46952000Y-53556000D02*
G75*
G02X45936000Y-52540000I0J1016000D01*
G01*
X45428000Y-48984000D02*
G75*
G02X46444000Y-50000000I0J-1016000D01*
G01*
X46444000Y-50000000D02*
G75*
G02X45428000Y-51016000I-1016000J0D01*
G01*
X40000000Y-54500000D02*
X39000000Y-53500000D01*
X40000000Y-45500000D02*
X39000000Y-46500000D01*
X52000000Y-41000000D02*
X51000000Y-40000000D01*
X42500000Y-41000000D02*
X43500000Y-40000000D01*
X42500000Y-59000000D02*
X43500000Y-60000000D01*
X52000000Y-59000000D02*
X51000000Y-60000000D01*
X40000000Y-45500000D02*
X40000000Y-54500000D01*
X42500000Y-41000000D02*
X52000000Y-41000000D01*
X52000000Y-59000000D02*
X42500000Y-59000000D01*
X42500000Y-54500000D02*
X39000000Y-54500000D01*
X39000000Y-54500000D02*
X39000000Y-50000000D01*
X39000000Y-50000000D02*
X39000000Y-45500000D01*
X39000000Y-45500000D02*
X42500000Y-45500000D01*
X42500000Y-51000000D02*
X42500000Y-60000000D01*
X42500000Y-60000000D02*
X52000000Y-60000000D01*
X42500000Y-40000000D02*
X42500000Y-49000000D01*
X52000000Y-40000000D02*
X42500000Y-40000000D01*
X52000000Y-40000000D02*
X52000000Y-50000000D01*
X52000000Y-50000000D02*
X52000000Y-60000000D01*
X102572000Y-51016000D02*
X105366000Y-51016000D01*
X102572000Y-48984000D02*
X105366000Y-48984000D01*
X101048000Y-51524000D02*
X98000000Y-51524000D01*
X101048000Y-53556000D02*
X98000000Y-53556000D01*
X102064000Y-52540000D02*
G75*
G02X101048000Y-53556000I-1016000J0D01*
G01*
X101048000Y-51524000D02*
G75*
G02X102064000Y-52540000I0J-1016000D01*
G01*
X101048000Y-48476000D02*
X98000000Y-48476000D01*
X101048000Y-46444000D02*
X98000000Y-46444000D01*
X102064000Y-47460000D02*
G75*
G02X101048000Y-48476000I-1016000J0D01*
G01*
X101048000Y-46444000D02*
G75*
G02X102064000Y-47460000I0J-1016000D01*
G01*
X102572000Y-51016000D02*
G75*
G02X101556000Y-50000000I0J1016000D01*
G01*
X101556000Y-50000000D02*
G75*
G02X102572000Y-48984000I1016000J0D01*
G01*
X108000000Y-45500000D02*
X109000000Y-46500000D01*
X108000000Y-54500000D02*
X109000000Y-53500000D01*
X96000000Y-59000000D02*
X97000000Y-60000000D01*
X105500000Y-59000000D02*
X104500000Y-60000000D01*
X105500000Y-41000000D02*
X104500000Y-40000000D01*
X96000000Y-41000000D02*
X97000000Y-40000000D01*
X108000000Y-54500000D02*
X108000000Y-45500000D01*
X105500000Y-59000000D02*
X96000000Y-59000000D01*
X96000000Y-41000000D02*
X105500000Y-41000000D01*
X105500000Y-45500000D02*
X109000000Y-45500000D01*
X109000000Y-45500000D02*
X109000000Y-50000000D01*
X109000000Y-50000000D02*
X109000000Y-54500000D01*
X109000000Y-54500000D02*
X105500000Y-54500000D01*
X105500000Y-49000000D02*
X105500000Y-40000000D01*
X105500000Y-40000000D02*
X96000000Y-40000000D01*
X105500000Y-60000000D02*
X105500000Y-51000000D01*
X96000000Y-60000000D02*
X105500000Y-60000000D01*
X96000000Y-60000000D02*
X96000000Y-50000000D01*
X96000000Y-50000000D02*
X96000000Y-40000000D01*
X95661905Y-78028571D02*
X94861905Y-78028571D01*
X94861905Y-78333333D01*
X94900000Y-78409524D01*
X94938095Y-78447619D01*
X95014286Y-78485714D01*
X95128571Y-78485714D01*
X95204762Y-78447619D01*
X95242857Y-78409524D01*
X95280952Y-78333333D01*
X95280952Y-78028571D01*
X95661905Y-79247619D02*
X95661905Y-78790476D01*
X95661905Y-79019047D02*
X94861905Y-79019047D01*
X94976190Y-78942857D01*
X95052381Y-78866666D01*
X95090476Y-78790476D01*
X94861905Y-79742857D02*
X94861905Y-79819048D01*
X94900000Y-79895238D01*
X94938095Y-79933333D01*
X95014286Y-79971429D01*
X95166667Y-80009524D01*
X95357143Y-80009524D01*
X95509524Y-79971429D01*
X95585714Y-79933333D01*
X95623810Y-79895238D01*
X95661905Y-79819048D01*
X95661905Y-79742857D01*
X95623810Y-79666667D01*
X95585714Y-79628571D01*
X95509524Y-79590476D01*
X95357143Y-79552381D01*
X95166667Y-79552381D01*
X95014286Y-79590476D01*
X94938095Y-79628571D01*
X94900000Y-79666667D01*
X94861905Y-79742857D01*
X56161905Y-74028571D02*
X55361905Y-74028571D01*
X55361905Y-74333333D01*
X55400000Y-74409524D01*
X55438095Y-74447619D01*
X55514286Y-74485714D01*
X55628571Y-74485714D01*
X55704762Y-74447619D01*
X55742857Y-74409524D01*
X55780952Y-74333333D01*
X55780952Y-74028571D01*
X56161905Y-75247619D02*
X56161905Y-74790476D01*
X56161905Y-75019047D02*
X55361905Y-75019047D01*
X55476190Y-74942857D01*
X55552381Y-74866666D01*
X55590476Y-74790476D01*
X55438095Y-75552381D02*
X55400000Y-75590476D01*
X55361905Y-75666667D01*
X55361905Y-75857143D01*
X55400000Y-75933333D01*
X55438095Y-75971429D01*
X55514286Y-76009524D01*
X55590476Y-76009524D01*
X55704762Y-75971429D01*
X56161905Y-75514286D01*
X56161905Y-76009524D01*
X95761905Y-70028571D02*
X94961905Y-70028571D01*
X94961905Y-70333333D01*
X95000000Y-70409524D01*
X95038095Y-70447619D01*
X95114286Y-70485714D01*
X95228571Y-70485714D01*
X95304762Y-70447619D01*
X95342857Y-70409524D01*
X95380952Y-70333333D01*
X95380952Y-70028571D01*
X95761905Y-71247619D02*
X95761905Y-70790476D01*
X95761905Y-71019047D02*
X94961905Y-71019047D01*
X95076190Y-70942857D01*
X95152381Y-70866666D01*
X95190476Y-70790476D01*
X95228571Y-71933333D02*
X95761905Y-71933333D01*
X94923810Y-71742857D02*
X95495238Y-71552381D01*
X95495238Y-72047619D01*
X50661905Y-78466667D02*
X50280952Y-78200000D01*
X50661905Y-78009524D02*
X49861905Y-78009524D01*
X49861905Y-78314286D01*
X49900000Y-78390477D01*
X49938095Y-78428572D01*
X50014286Y-78466667D01*
X50128571Y-78466667D01*
X50204762Y-78428572D01*
X50242857Y-78390477D01*
X50280952Y-78314286D01*
X50280952Y-78009524D01*
X50204762Y-78923810D02*
X50166667Y-78847619D01*
X50128571Y-78809524D01*
X50052381Y-78771429D01*
X50014286Y-78771429D01*
X49938095Y-78809524D01*
X49900000Y-78847619D01*
X49861905Y-78923810D01*
X49861905Y-79076191D01*
X49900000Y-79152381D01*
X49938095Y-79190477D01*
X50014286Y-79228572D01*
X50052381Y-79228572D01*
X50128571Y-79190477D01*
X50166667Y-79152381D01*
X50204762Y-79076191D01*
X50204762Y-78923810D01*
X50242857Y-78847619D01*
X50280952Y-78809524D01*
X50357143Y-78771429D01*
X50509524Y-78771429D01*
X50585714Y-78809524D01*
X50623810Y-78847619D01*
X50661905Y-78923810D01*
X50661905Y-79076191D01*
X50623810Y-79152381D01*
X50585714Y-79190477D01*
X50509524Y-79228572D01*
X50357143Y-79228572D01*
X50280952Y-79190477D01*
X50242857Y-79152381D01*
X50204762Y-79076191D01*
X65085714Y-57766667D02*
X65123810Y-57728572D01*
X65161905Y-57614286D01*
X65161905Y-57538096D01*
X65123810Y-57423810D01*
X65047619Y-57347619D01*
X64971429Y-57309524D01*
X64819048Y-57271429D01*
X64704762Y-57271429D01*
X64552381Y-57309524D01*
X64476190Y-57347619D01*
X64400000Y-57423810D01*
X64361905Y-57538096D01*
X64361905Y-57614286D01*
X64400000Y-57728572D01*
X64438095Y-57766667D01*
X65161905Y-58528572D02*
X65161905Y-58071429D01*
X65161905Y-58300000D02*
X64361905Y-58300000D01*
X64476190Y-58223810D01*
X64552381Y-58147619D01*
X64590476Y-58071429D01*
X57585714Y-57866667D02*
X57623810Y-57828572D01*
X57661905Y-57714286D01*
X57661905Y-57638096D01*
X57623810Y-57523810D01*
X57547619Y-57447619D01*
X57471429Y-57409524D01*
X57319048Y-57371429D01*
X57204762Y-57371429D01*
X57052381Y-57409524D01*
X56976190Y-57447619D01*
X56900000Y-57523810D01*
X56861905Y-57638096D01*
X56861905Y-57714286D01*
X56900000Y-57828572D01*
X56938095Y-57866667D01*
X56938095Y-58171429D02*
X56900000Y-58209524D01*
X56861905Y-58285715D01*
X56861905Y-58476191D01*
X56900000Y-58552381D01*
X56938095Y-58590477D01*
X57014286Y-58628572D01*
X57090476Y-58628572D01*
X57204762Y-58590477D01*
X57661905Y-58133334D01*
X57661905Y-58628572D01*
X74785714Y-57366667D02*
X74823810Y-57328572D01*
X74861905Y-57214286D01*
X74861905Y-57138096D01*
X74823810Y-57023810D01*
X74747619Y-56947619D01*
X74671429Y-56909524D01*
X74519048Y-56871429D01*
X74404762Y-56871429D01*
X74252381Y-56909524D01*
X74176190Y-56947619D01*
X74100000Y-57023810D01*
X74061905Y-57138096D01*
X74061905Y-57214286D01*
X74100000Y-57328572D01*
X74138095Y-57366667D01*
X74061905Y-57633334D02*
X74061905Y-58128572D01*
X74366667Y-57861905D01*
X74366667Y-57976191D01*
X74404762Y-58052381D01*
X74442857Y-58090477D01*
X74519048Y-58128572D01*
X74709524Y-58128572D01*
X74785714Y-58090477D01*
X74823810Y-58052381D01*
X74861905Y-57976191D01*
X74861905Y-57747619D01*
X74823810Y-57671429D01*
X74785714Y-57633334D01*
X83035714Y-57366667D02*
X83073810Y-57328572D01*
X83111905Y-57214286D01*
X83111905Y-57138096D01*
X83073810Y-57023810D01*
X82997619Y-56947619D01*
X82921429Y-56909524D01*
X82769048Y-56871429D01*
X82654762Y-56871429D01*
X82502381Y-56909524D01*
X82426190Y-56947619D01*
X82350000Y-57023810D01*
X82311905Y-57138096D01*
X82311905Y-57214286D01*
X82350000Y-57328572D01*
X82388095Y-57366667D01*
X82578571Y-58052381D02*
X83111905Y-58052381D01*
X82273810Y-57861905D02*
X82845238Y-57671429D01*
X82845238Y-58166667D01*
X84785714Y-51366667D02*
X84823810Y-51328572D01*
X84861905Y-51214286D01*
X84861905Y-51138096D01*
X84823810Y-51023810D01*
X84747619Y-50947619D01*
X84671429Y-50909524D01*
X84519048Y-50871429D01*
X84404762Y-50871429D01*
X84252381Y-50909524D01*
X84176190Y-50947619D01*
X84100000Y-51023810D01*
X84061905Y-51138096D01*
X84061905Y-51214286D01*
X84100000Y-51328572D01*
X84138095Y-51366667D01*
X84861905Y-51747619D02*
X84861905Y-51900000D01*
X84823810Y-51976191D01*
X84785714Y-52014286D01*
X84671429Y-52090477D01*
X84519048Y-52128572D01*
X84214286Y-52128572D01*
X84138095Y-52090477D01*
X84100000Y-52052381D01*
X84061905Y-51976191D01*
X84061905Y-51823810D01*
X84100000Y-51747619D01*
X84138095Y-51709524D01*
X84214286Y-51671429D01*
X84404762Y-51671429D01*
X84480952Y-51709524D01*
X84519048Y-51747619D01*
X84557143Y-51823810D01*
X84557143Y-51976191D01*
X84519048Y-52052381D01*
X84480952Y-52090477D01*
X84404762Y-52128572D01*
X84685714Y-53485714D02*
X84723810Y-53447619D01*
X84761905Y-53333333D01*
X84761905Y-53257143D01*
X84723810Y-53142857D01*
X84647619Y-53066666D01*
X84571429Y-53028571D01*
X84419048Y-52990476D01*
X84304762Y-52990476D01*
X84152381Y-53028571D01*
X84076190Y-53066666D01*
X84000000Y-53142857D01*
X83961905Y-53257143D01*
X83961905Y-53333333D01*
X84000000Y-53447619D01*
X84038095Y-53485714D01*
X84761905Y-54247619D02*
X84761905Y-53790476D01*
X84761905Y-54019047D02*
X83961905Y-54019047D01*
X84076190Y-53942857D01*
X84152381Y-53866666D01*
X84190476Y-53790476D01*
X84761905Y-55009524D02*
X84761905Y-54552381D01*
X84761905Y-54780952D02*
X83961905Y-54780952D01*
X84076190Y-54704762D01*
X84152381Y-54628571D01*
X84190476Y-54552381D01*
X90035714Y-47485714D02*
X90073810Y-47447619D01*
X90111905Y-47333333D01*
X90111905Y-47257143D01*
X90073810Y-47142857D01*
X89997619Y-47066666D01*
X89921429Y-47028571D01*
X89769048Y-46990476D01*
X89654762Y-46990476D01*
X89502381Y-47028571D01*
X89426190Y-47066666D01*
X89350000Y-47142857D01*
X89311905Y-47257143D01*
X89311905Y-47333333D01*
X89350000Y-47447619D01*
X89388095Y-47485714D01*
X90111905Y-48247619D02*
X90111905Y-47790476D01*
X90111905Y-48019047D02*
X89311905Y-48019047D01*
X89426190Y-47942857D01*
X89502381Y-47866666D01*
X89540476Y-47790476D01*
X89311905Y-48742857D02*
X89311905Y-48819048D01*
X89350000Y-48895238D01*
X89388095Y-48933333D01*
X89464286Y-48971429D01*
X89616667Y-49009524D01*
X89807143Y-49009524D01*
X89959524Y-48971429D01*
X90035714Y-48933333D01*
X90073810Y-48895238D01*
X90111905Y-48819048D01*
X90111905Y-48742857D01*
X90073810Y-48666667D01*
X90035714Y-48628571D01*
X89959524Y-48590476D01*
X89807143Y-48552381D01*
X89616667Y-48552381D01*
X89464286Y-48590476D01*
X89388095Y-48628571D01*
X89350000Y-48666667D01*
X89311905Y-48742857D01*
X79861905Y-43866667D02*
X79480952Y-43600000D01*
X79861905Y-43409524D02*
X79061905Y-43409524D01*
X79061905Y-43714286D01*
X79100000Y-43790477D01*
X79138095Y-43828572D01*
X79214286Y-43866667D01*
X79328571Y-43866667D01*
X79404762Y-43828572D01*
X79442857Y-43790477D01*
X79480952Y-43714286D01*
X79480952Y-43409524D01*
X79138095Y-44171429D02*
X79100000Y-44209524D01*
X79061905Y-44285715D01*
X79061905Y-44476191D01*
X79100000Y-44552381D01*
X79138095Y-44590477D01*
X79214286Y-44628572D01*
X79290476Y-44628572D01*
X79404762Y-44590477D01*
X79861905Y-44133334D01*
X79861905Y-44628572D01*
X82361905Y-43866667D02*
X81980952Y-43600000D01*
X82361905Y-43409524D02*
X81561905Y-43409524D01*
X81561905Y-43714286D01*
X81600000Y-43790477D01*
X81638095Y-43828572D01*
X81714286Y-43866667D01*
X81828571Y-43866667D01*
X81904762Y-43828572D01*
X81942857Y-43790477D01*
X81980952Y-43714286D01*
X81980952Y-43409524D01*
X81561905Y-44133334D02*
X81561905Y-44628572D01*
X81866667Y-44361905D01*
X81866667Y-44476191D01*
X81904762Y-44552381D01*
X81942857Y-44590477D01*
X82019048Y-44628572D01*
X82209524Y-44628572D01*
X82285714Y-44590477D01*
X82323810Y-44552381D01*
X82361905Y-44476191D01*
X82361905Y-44247619D01*
X82323810Y-44171429D01*
X82285714Y-44133334D01*
X75811905Y-54390476D02*
X76459524Y-54390476D01*
X76535714Y-54428571D01*
X76573810Y-54466667D01*
X76611905Y-54542857D01*
X76611905Y-54695238D01*
X76573810Y-54771429D01*
X76535714Y-54809524D01*
X76459524Y-54847619D01*
X75811905Y-54847619D01*
X76611905Y-55647619D02*
X76611905Y-55190476D01*
X76611905Y-55419047D02*
X75811905Y-55419047D01*
X75926190Y-55342857D01*
X76002381Y-55266666D01*
X76040476Y-55190476D01*
X83561905Y-45690476D02*
X84209524Y-45690476D01*
X84285714Y-45728571D01*
X84323810Y-45766667D01*
X84361905Y-45842857D01*
X84361905Y-45995238D01*
X84323810Y-46071429D01*
X84285714Y-46109524D01*
X84209524Y-46147619D01*
X83561905Y-46147619D01*
X83828571Y-46871428D02*
X84361905Y-46871428D01*
X83523810Y-46680952D02*
X84095238Y-46490476D01*
X84095238Y-46985714D01*
X79833333Y-47561905D02*
X79833333Y-47942857D01*
X80061905Y-47485714D02*
X79261905Y-47752381D01*
X80061905Y-48019048D01*
X80061905Y-48285714D02*
X79261905Y-48285714D01*
X79261905Y-48476190D01*
X79300000Y-48590476D01*
X79376190Y-48666667D01*
X79452381Y-48704762D01*
X79604762Y-48742857D01*
X79719048Y-48742857D01*
X79871429Y-48704762D01*
X79947619Y-48666667D01*
X80023810Y-48590476D01*
X80061905Y-48476190D01*
X80061905Y-48285714D01*
X79261905Y-49009524D02*
X80061905Y-49542857D01*
X79261905Y-49542857D02*
X80061905Y-49009524D01*
X80061905Y-50228572D02*
X80061905Y-49847619D01*
X79261905Y-49847619D01*
X79261905Y-50419048D02*
X79261905Y-50914286D01*
X79566667Y-50647619D01*
X79566667Y-50761905D01*
X79604762Y-50838095D01*
X79642857Y-50876191D01*
X79719048Y-50914286D01*
X79909524Y-50914286D01*
X79985714Y-50876191D01*
X80023810Y-50838095D01*
X80061905Y-50761905D01*
X80061905Y-50533333D01*
X80023810Y-50457143D01*
X79985714Y-50419048D01*
X79528571Y-51600000D02*
X80061905Y-51600000D01*
X79223810Y-51409524D02*
X79795238Y-51219048D01*
X79795238Y-51714286D01*
X79261905Y-52400001D02*
X79261905Y-52019048D01*
X79642857Y-51980953D01*
X79604762Y-52019048D01*
X79566667Y-52095239D01*
X79566667Y-52285715D01*
X79604762Y-52361905D01*
X79642857Y-52400001D01*
X79719048Y-52438096D01*
X79909524Y-52438096D01*
X79985714Y-52400001D01*
X80023810Y-52361905D01*
X80061905Y-52285715D01*
X80061905Y-52095239D01*
X80023810Y-52019048D01*
X79985714Y-51980953D01*
X56861905Y-54852381D02*
X57661905Y-55385714D01*
X56861905Y-55385714D02*
X57661905Y-54852381D01*
X57661905Y-56109524D02*
X57661905Y-55652381D01*
X57661905Y-55880952D02*
X56861905Y-55880952D01*
X56976190Y-55804762D01*
X57052381Y-55728571D01*
X57090476Y-55652381D01*
X56104762Y-55023810D02*
X56066667Y-54947619D01*
X56028571Y-54909524D01*
X55952381Y-54871429D01*
X55914286Y-54871429D01*
X55838095Y-54909524D01*
X55800000Y-54947619D01*
X55761905Y-55023810D01*
X55761905Y-55176191D01*
X55800000Y-55252381D01*
X55838095Y-55290477D01*
X55914286Y-55328572D01*
X55952381Y-55328572D01*
X56028571Y-55290477D01*
X56066667Y-55252381D01*
X56104762Y-55176191D01*
X56104762Y-55023810D01*
X56142857Y-54947619D01*
X56180952Y-54909524D01*
X56257143Y-54871429D01*
X56409524Y-54871429D01*
X56485714Y-54909524D01*
X56523810Y-54947619D01*
X56561905Y-55023810D01*
X56561905Y-55176191D01*
X56523810Y-55252381D01*
X56485714Y-55290477D01*
X56409524Y-55328572D01*
X56257143Y-55328572D01*
X56180952Y-55290477D01*
X56142857Y-55252381D01*
X56104762Y-55176191D01*
X56561905Y-55671429D02*
X55761905Y-55671429D01*
X56333333Y-55938096D01*
X55761905Y-56204763D01*
X56561905Y-56204763D01*
X56561905Y-56585715D02*
X55761905Y-56585715D01*
X56142857Y-56585715D02*
X56142857Y-57042858D01*
X56561905Y-57042858D02*
X55761905Y-57042858D01*
X56028571Y-57347620D02*
X56028571Y-57766667D01*
X56561905Y-57347620D01*
X56561905Y-57766667D01*
X88840476Y-40361905D02*
X88840476Y-39561905D01*
X88535714Y-39561905D01*
X88459523Y-39600000D01*
X88421428Y-39638095D01*
X88383333Y-39714286D01*
X88383333Y-39828571D01*
X88421428Y-39904762D01*
X88459523Y-39942857D01*
X88535714Y-39980952D01*
X88840476Y-39980952D01*
X88002381Y-40361905D02*
X87850000Y-40361905D01*
X87773809Y-40323810D01*
X87735714Y-40285714D01*
X87659523Y-40171429D01*
X87621428Y-40019048D01*
X87621428Y-39714286D01*
X87659523Y-39638095D01*
X87697619Y-39600000D01*
X87773809Y-39561905D01*
X87926190Y-39561905D01*
X88002381Y-39600000D01*
X88040476Y-39638095D01*
X88078571Y-39714286D01*
X88078571Y-39904762D01*
X88040476Y-39980952D01*
X88002381Y-40019048D01*
X87926190Y-40057143D01*
X87773809Y-40057143D01*
X87697619Y-40019048D01*
X87659523Y-39980952D01*
X87621428Y-39904762D01*
X94304762Y-43692857D02*
X94038095Y-43692857D01*
X93923809Y-44111905D02*
X94304762Y-44111905D01*
X94304762Y-43311905D01*
X93923809Y-43311905D01*
X93657142Y-44111905D02*
X93238095Y-43578571D01*
X93657142Y-43578571D02*
X93238095Y-44111905D01*
X93047619Y-43578571D02*
X92742857Y-43578571D01*
X92933333Y-43311905D02*
X92933333Y-43997619D01*
X92895238Y-44073810D01*
X92819047Y-44111905D01*
X92742857Y-44111905D01*
X92666666Y-44188095D02*
X92057142Y-44188095D01*
X91485713Y-44111905D02*
X91866666Y-44111905D01*
X91866666Y-43311905D01*
X91219047Y-44111905D02*
X91219047Y-43578571D01*
X91219047Y-43311905D02*
X91257142Y-43350000D01*
X91219047Y-43388095D01*
X91180952Y-43350000D01*
X91219047Y-43311905D01*
X91219047Y-43388095D01*
X90838095Y-44111905D02*
X90838095Y-43311905D01*
X90533333Y-43311905D01*
X90457142Y-43350000D01*
X90419047Y-43388095D01*
X90380952Y-43464286D01*
X90380952Y-43578571D01*
X90419047Y-43654762D01*
X90457142Y-43692857D01*
X90533333Y-43730952D01*
X90838095Y-43730952D01*
X89923809Y-44111905D02*
X90000000Y-44073810D01*
X90038095Y-44035714D01*
X90076190Y-43959524D01*
X90076190Y-43730952D01*
X90038095Y-43654762D01*
X90000000Y-43616667D01*
X89923809Y-43578571D01*
X89809523Y-43578571D01*
X89733333Y-43616667D01*
X89695238Y-43654762D01*
X89657142Y-43730952D01*
X89657142Y-43959524D01*
X89695238Y-44035714D01*
X89733333Y-44073810D01*
X89809523Y-44111905D01*
X89923809Y-44111905D01*
X56161905Y-71428571D02*
X55361905Y-71428571D01*
X55361905Y-71733333D01*
X55400000Y-71809524D01*
X55438095Y-71847619D01*
X55514286Y-71885714D01*
X55628571Y-71885714D01*
X55704762Y-71847619D01*
X55742857Y-71809524D01*
X55780952Y-71733333D01*
X55780952Y-71428571D01*
X56161905Y-72647619D02*
X56161905Y-72190476D01*
X56161905Y-72419047D02*
X55361905Y-72419047D01*
X55476190Y-72342857D01*
X55552381Y-72266666D01*
X55590476Y-72190476D01*
X55361905Y-72914286D02*
X55361905Y-73409524D01*
X55666667Y-73142857D01*
X55666667Y-73257143D01*
X55704762Y-73333333D01*
X55742857Y-73371429D01*
X55819048Y-73409524D01*
X56009524Y-73409524D01*
X56085714Y-73371429D01*
X56123810Y-73333333D01*
X56161905Y-73257143D01*
X56161905Y-73028571D01*
X56123810Y-72952381D01*
X56085714Y-72914286D01*
X56161905Y-76628571D02*
X55361905Y-76628571D01*
X55361905Y-76933333D01*
X55400000Y-77009524D01*
X55438095Y-77047619D01*
X55514286Y-77085714D01*
X55628571Y-77085714D01*
X55704762Y-77047619D01*
X55742857Y-77009524D01*
X55780952Y-76933333D01*
X55780952Y-76628571D01*
X56161905Y-77847619D02*
X56161905Y-77390476D01*
X56161905Y-77619047D02*
X55361905Y-77619047D01*
X55476190Y-77542857D01*
X55552381Y-77466666D01*
X55590476Y-77390476D01*
X56161905Y-78609524D02*
X56161905Y-78152381D01*
X56161905Y-78380952D02*
X55361905Y-78380952D01*
X55476190Y-78304762D01*
X55552381Y-78228571D01*
X55590476Y-78152381D01*
X48261905Y-78466667D02*
X47880952Y-78200000D01*
X48261905Y-78009524D02*
X47461905Y-78009524D01*
X47461905Y-78314286D01*
X47500000Y-78390477D01*
X47538095Y-78428572D01*
X47614286Y-78466667D01*
X47728571Y-78466667D01*
X47804762Y-78428572D01*
X47842857Y-78390477D01*
X47880952Y-78314286D01*
X47880952Y-78009524D01*
X47461905Y-78733334D02*
X47461905Y-79266667D01*
X48261905Y-78923810D01*
X68161905Y-78366667D02*
X67780952Y-78100000D01*
X68161905Y-77909524D02*
X67361905Y-77909524D01*
X67361905Y-78214286D01*
X67400000Y-78290477D01*
X67438095Y-78328572D01*
X67514286Y-78366667D01*
X67628571Y-78366667D01*
X67704762Y-78328572D01*
X67742857Y-78290477D01*
X67780952Y-78214286D01*
X67780952Y-77909524D01*
X68161905Y-78747619D02*
X68161905Y-78900000D01*
X68123810Y-78976191D01*
X68085714Y-79014286D01*
X67971429Y-79090477D01*
X67819048Y-79128572D01*
X67514286Y-79128572D01*
X67438095Y-79090477D01*
X67400000Y-79052381D01*
X67361905Y-78976191D01*
X67361905Y-78823810D01*
X67400000Y-78747619D01*
X67438095Y-78709524D01*
X67514286Y-78671429D01*
X67704762Y-78671429D01*
X67780952Y-78709524D01*
X67819048Y-78747619D01*
X67857143Y-78823810D01*
X67857143Y-78976191D01*
X67819048Y-79052381D01*
X67780952Y-79090477D01*
X67704762Y-79128572D01*
X70761905Y-77985714D02*
X70380952Y-77719047D01*
X70761905Y-77528571D02*
X69961905Y-77528571D01*
X69961905Y-77833333D01*
X70000000Y-77909524D01*
X70038095Y-77947619D01*
X70114286Y-77985714D01*
X70228571Y-77985714D01*
X70304762Y-77947619D01*
X70342857Y-77909524D01*
X70380952Y-77833333D01*
X70380952Y-77528571D01*
X70761905Y-78747619D02*
X70761905Y-78290476D01*
X70761905Y-78519047D02*
X69961905Y-78519047D01*
X70076190Y-78442857D01*
X70152381Y-78366666D01*
X70190476Y-78290476D01*
X69961905Y-79242857D02*
X69961905Y-79319048D01*
X70000000Y-79395238D01*
X70038095Y-79433333D01*
X70114286Y-79471429D01*
X70266667Y-79509524D01*
X70457143Y-79509524D01*
X70609524Y-79471429D01*
X70685714Y-79433333D01*
X70723810Y-79395238D01*
X70761905Y-79319048D01*
X70761905Y-79242857D01*
X70723810Y-79166667D01*
X70685714Y-79128571D01*
X70609524Y-79090476D01*
X70457143Y-79052381D01*
X70266667Y-79052381D01*
X70114286Y-79090476D01*
X70038095Y-79128571D01*
X70000000Y-79166667D01*
X69961905Y-79242857D01*
X86061905Y-77985714D02*
X85680952Y-77719047D01*
X86061905Y-77528571D02*
X85261905Y-77528571D01*
X85261905Y-77833333D01*
X85300000Y-77909524D01*
X85338095Y-77947619D01*
X85414286Y-77985714D01*
X85528571Y-77985714D01*
X85604762Y-77947619D01*
X85642857Y-77909524D01*
X85680952Y-77833333D01*
X85680952Y-77528571D01*
X86061905Y-78747619D02*
X86061905Y-78290476D01*
X86061905Y-78519047D02*
X85261905Y-78519047D01*
X85376190Y-78442857D01*
X85452381Y-78366666D01*
X85490476Y-78290476D01*
X86061905Y-79509524D02*
X86061905Y-79052381D01*
X86061905Y-79280952D02*
X85261905Y-79280952D01*
X85376190Y-79204762D01*
X85452381Y-79128571D01*
X85490476Y-79052381D01*
X97061905Y-77985714D02*
X96680952Y-77719047D01*
X97061905Y-77528571D02*
X96261905Y-77528571D01*
X96261905Y-77833333D01*
X96300000Y-77909524D01*
X96338095Y-77947619D01*
X96414286Y-77985714D01*
X96528571Y-77985714D01*
X96604762Y-77947619D01*
X96642857Y-77909524D01*
X96680952Y-77833333D01*
X96680952Y-77528571D01*
X97061905Y-78747619D02*
X97061905Y-78290476D01*
X97061905Y-78519047D02*
X96261905Y-78519047D01*
X96376190Y-78442857D01*
X96452381Y-78366666D01*
X96490476Y-78290476D01*
X96338095Y-79052381D02*
X96300000Y-79090476D01*
X96261905Y-79166667D01*
X96261905Y-79357143D01*
X96300000Y-79433333D01*
X96338095Y-79471429D01*
X96414286Y-79509524D01*
X96490476Y-79509524D01*
X96604762Y-79471429D01*
X97061905Y-79014286D01*
X97061905Y-79509524D01*
X49438095Y-72423810D02*
X49400000Y-72347619D01*
X49323810Y-72271429D01*
X49209524Y-72157143D01*
X49171429Y-72080952D01*
X49171429Y-72004762D01*
X49361905Y-72042857D02*
X49323810Y-71966667D01*
X49247619Y-71890476D01*
X49095238Y-71852381D01*
X48828571Y-71852381D01*
X48676190Y-71890476D01*
X48600000Y-71966667D01*
X48561905Y-72042857D01*
X48561905Y-72195238D01*
X48600000Y-72271429D01*
X48676190Y-72347619D01*
X48828571Y-72385714D01*
X49095238Y-72385714D01*
X49247619Y-72347619D01*
X49323810Y-72271429D01*
X49361905Y-72195238D01*
X49361905Y-72042857D01*
X49361905Y-73147619D02*
X49361905Y-72690476D01*
X49361905Y-72919047D02*
X48561905Y-72919047D01*
X48676190Y-72842857D01*
X48752381Y-72766666D01*
X48790476Y-72690476D01*
X69438095Y-72423810D02*
X69400000Y-72347619D01*
X69323810Y-72271429D01*
X69209524Y-72157143D01*
X69171429Y-72080952D01*
X69171429Y-72004762D01*
X69361905Y-72042857D02*
X69323810Y-71966667D01*
X69247619Y-71890476D01*
X69095238Y-71852381D01*
X68828571Y-71852381D01*
X68676190Y-71890476D01*
X68600000Y-71966667D01*
X68561905Y-72042857D01*
X68561905Y-72195238D01*
X68600000Y-72271429D01*
X68676190Y-72347619D01*
X68828571Y-72385714D01*
X69095238Y-72385714D01*
X69247619Y-72347619D01*
X69323810Y-72271429D01*
X69361905Y-72195238D01*
X69361905Y-72042857D01*
X68638095Y-72690476D02*
X68600000Y-72728571D01*
X68561905Y-72804762D01*
X68561905Y-72995238D01*
X68600000Y-73071428D01*
X68638095Y-73109524D01*
X68714286Y-73147619D01*
X68790476Y-73147619D01*
X68904762Y-73109524D01*
X69361905Y-72652381D01*
X69361905Y-73147619D01*
X89438095Y-72423810D02*
X89400000Y-72347619D01*
X89323810Y-72271429D01*
X89209524Y-72157143D01*
X89171429Y-72080952D01*
X89171429Y-72004762D01*
X89361905Y-72042857D02*
X89323810Y-71966667D01*
X89247619Y-71890476D01*
X89095238Y-71852381D01*
X88828571Y-71852381D01*
X88676190Y-71890476D01*
X88600000Y-71966667D01*
X88561905Y-72042857D01*
X88561905Y-72195238D01*
X88600000Y-72271429D01*
X88676190Y-72347619D01*
X88828571Y-72385714D01*
X89095238Y-72385714D01*
X89247619Y-72347619D01*
X89323810Y-72271429D01*
X89361905Y-72195238D01*
X89361905Y-72042857D01*
X88561905Y-72652381D02*
X88561905Y-73147619D01*
X88866667Y-72880952D01*
X88866667Y-72995238D01*
X88904762Y-73071428D01*
X88942857Y-73109524D01*
X89019048Y-73147619D01*
X89209524Y-73147619D01*
X89285714Y-73109524D01*
X89323810Y-73071428D01*
X89361905Y-72995238D01*
X89361905Y-72766666D01*
X89323810Y-72690476D01*
X89285714Y-72652381D01*
X53498857Y-49676191D02*
X53536952Y-49790477D01*
X53575048Y-49828572D01*
X53651238Y-49866667D01*
X53765524Y-49866667D01*
X53841714Y-49828572D01*
X53879810Y-49790477D01*
X53917905Y-49714286D01*
X53917905Y-49409524D01*
X53117905Y-49409524D01*
X53117905Y-49676191D01*
X53156000Y-49752381D01*
X53194095Y-49790477D01*
X53270286Y-49828572D01*
X53346476Y-49828572D01*
X53422667Y-49790477D01*
X53460762Y-49752381D01*
X53498857Y-49676191D01*
X53498857Y-49409524D01*
X53917905Y-50247619D02*
X53917905Y-50400000D01*
X53879810Y-50476191D01*
X53841714Y-50514286D01*
X53727429Y-50590477D01*
X53575048Y-50628572D01*
X53270286Y-50628572D01*
X53194095Y-50590477D01*
X53156000Y-50552381D01*
X53117905Y-50476191D01*
X53117905Y-50323810D01*
X53156000Y-50247619D01*
X53194095Y-50209524D01*
X53270286Y-50171429D01*
X53460762Y-50171429D01*
X53536952Y-50209524D01*
X53575048Y-50247619D01*
X53613143Y-50323810D01*
X53613143Y-50476191D01*
X53575048Y-50552381D01*
X53536952Y-50590477D01*
X53460762Y-50628572D01*
X51199999Y-39361905D02*
X51580952Y-39361905D01*
X51580952Y-38561905D01*
X50933333Y-39361905D02*
X50933333Y-38828571D01*
X50933333Y-38561905D02*
X50971428Y-38600000D01*
X50933333Y-38638095D01*
X50895238Y-38600000D01*
X50933333Y-38561905D01*
X50933333Y-38638095D01*
X50552381Y-39361905D02*
X50552381Y-38561905D01*
X50247619Y-38561905D01*
X50171428Y-38600000D01*
X50133333Y-38638095D01*
X50095238Y-38714286D01*
X50095238Y-38828571D01*
X50133333Y-38904762D01*
X50171428Y-38942857D01*
X50247619Y-38980952D01*
X50552381Y-38980952D01*
X49638095Y-39361905D02*
X49714286Y-39323810D01*
X49752381Y-39285714D01*
X49790476Y-39209524D01*
X49790476Y-38980952D01*
X49752381Y-38904762D01*
X49714286Y-38866667D01*
X49638095Y-38828571D01*
X49523809Y-38828571D01*
X49447619Y-38866667D01*
X49409524Y-38904762D01*
X49371428Y-38980952D01*
X49371428Y-39209524D01*
X49409524Y-39285714D01*
X49447619Y-39323810D01*
X49523809Y-39361905D01*
X49638095Y-39361905D01*
X49028571Y-39057143D02*
X48419047Y-39057143D01*
X94386857Y-49676191D02*
X94424952Y-49790477D01*
X94463048Y-49828572D01*
X94539238Y-49866667D01*
X94653524Y-49866667D01*
X94729714Y-49828572D01*
X94767810Y-49790477D01*
X94805905Y-49714286D01*
X94805905Y-49409524D01*
X94005905Y-49409524D01*
X94005905Y-49676191D01*
X94044000Y-49752381D01*
X94082095Y-49790477D01*
X94158286Y-49828572D01*
X94234476Y-49828572D01*
X94310667Y-49790477D01*
X94348762Y-49752381D01*
X94386857Y-49676191D01*
X94386857Y-49409524D01*
X94348762Y-50323810D02*
X94310667Y-50247619D01*
X94272571Y-50209524D01*
X94196381Y-50171429D01*
X94158286Y-50171429D01*
X94082095Y-50209524D01*
X94044000Y-50247619D01*
X94005905Y-50323810D01*
X94005905Y-50476191D01*
X94044000Y-50552381D01*
X94082095Y-50590477D01*
X94158286Y-50628572D01*
X94196381Y-50628572D01*
X94272571Y-50590477D01*
X94310667Y-50552381D01*
X94348762Y-50476191D01*
X94348762Y-50323810D01*
X94386857Y-50247619D01*
X94424952Y-50209524D01*
X94501143Y-50171429D01*
X94653524Y-50171429D01*
X94729714Y-50209524D01*
X94767810Y-50247619D01*
X94805905Y-50323810D01*
X94805905Y-50476191D01*
X94767810Y-50552381D01*
X94729714Y-50590477D01*
X94653524Y-50628572D01*
X94501143Y-50628572D01*
X94424952Y-50590477D01*
X94386857Y-50552381D01*
X94348762Y-50476191D01*
X99199999Y-61361905D02*
X99580952Y-61361905D01*
X99580952Y-60561905D01*
X98933333Y-61361905D02*
X98933333Y-60828571D01*
X98933333Y-60561905D02*
X98971428Y-60600000D01*
X98933333Y-60638095D01*
X98895238Y-60600000D01*
X98933333Y-60561905D01*
X98933333Y-60638095D01*
X98552381Y-61361905D02*
X98552381Y-60561905D01*
X98247619Y-60561905D01*
X98171428Y-60600000D01*
X98133333Y-60638095D01*
X98095238Y-60714286D01*
X98095238Y-60828571D01*
X98133333Y-60904762D01*
X98171428Y-60942857D01*
X98247619Y-60980952D01*
X98552381Y-60980952D01*
X97638095Y-61361905D02*
X97714286Y-61323810D01*
X97752381Y-61285714D01*
X97790476Y-61209524D01*
X97790476Y-60980952D01*
X97752381Y-60904762D01*
X97714286Y-60866667D01*
X97638095Y-60828571D01*
X97523809Y-60828571D01*
X97447619Y-60866667D01*
X97409524Y-60904762D01*
X97371428Y-60980952D01*
X97371428Y-61209524D01*
X97409524Y-61285714D01*
X97447619Y-61323810D01*
X97523809Y-61361905D01*
X97638095Y-61361905D01*
X97028571Y-61057143D02*
X96419047Y-61057143D01*
X96723809Y-61361905D02*
X96723809Y-60752381D01*
%LPC*%
D15*
X93270000Y-79000000D03*
D16*
X90730000Y-79000000D03*
D15*
X93270000Y-54000000D03*
D16*
X90730000Y-54000000D03*
D15*
X57730000Y-75000000D03*
D16*
X60270000Y-75000000D03*
D15*
X93270000Y-71000000D03*
D16*
X90730000Y-71000000D03*
D15*
X57730000Y-50000000D03*
D16*
X60270000Y-50000000D03*
D15*
X57730000Y-52540000D03*
D16*
X60270000Y-52540000D03*
X108000000Y-57000000D03*
X108000000Y-43000000D03*
X40000000Y-43000000D03*
X40000000Y-57000000D03*
D17*
X53952500Y-78500000D03*
X52047500Y-78500000D03*
D18*
X64316000Y-59900000D03*
X62284000Y-59900000D03*
X59816000Y-59900000D03*
X57784000Y-59900000D03*
X70684000Y-57500000D03*
X72716000Y-57500000D03*
X78984000Y-57500000D03*
X81016000Y-57500000D03*
X85984000Y-51500000D03*
X88016000Y-51500000D03*
X85984000Y-54000000D03*
X88016000Y-54000000D03*
X85984000Y-48000000D03*
X88016000Y-48000000D03*
D19*
X94000000Y-76270000D03*
X94000000Y-73730000D03*
X84000000Y-76270000D03*
X84000000Y-73730000D03*
X74000000Y-76270000D03*
X74000000Y-73730000D03*
X64000000Y-76270000D03*
X64000000Y-73730000D03*
X54000000Y-76270000D03*
X54000000Y-73730000D03*
X44000000Y-76270000D03*
X44000000Y-73730000D03*
D15*
X80350000Y-60000000D03*
D16*
X77810000Y-60000000D03*
X75270000Y-60000000D03*
X72730000Y-60000000D03*
X70190000Y-60000000D03*
X67650000Y-60000000D03*
D20*
X79500000Y-40047500D03*
X79500000Y-41952500D03*
X82000000Y-40047500D03*
X82000000Y-41952500D03*
D21*
X36500000Y-59500000D03*
X111500000Y-40500000D03*
X111500000Y-59500000D03*
X36500000Y-40500000D03*
D22*
X68200920Y-54150360D03*
X69001020Y-54150360D03*
X69801120Y-54150360D03*
X70601220Y-54150360D03*
X71398780Y-54150360D03*
X72198880Y-54150360D03*
X72998980Y-54150360D03*
X73799080Y-54150360D03*
X73799080Y-45849640D03*
X68200920Y-45849640D03*
X69001020Y-45849640D03*
X69801120Y-45849640D03*
X70601220Y-45849640D03*
X71398780Y-45849640D03*
X72198880Y-45849640D03*
X72998980Y-45849640D03*
D23*
X75150360Y-52799080D03*
X75150360Y-51998980D03*
X75150360Y-51198880D03*
X75150360Y-50398780D03*
X75150360Y-49601220D03*
X75150360Y-48801120D03*
X75150360Y-48001020D03*
X75150360Y-47200920D03*
X66849640Y-52799080D03*
X66849640Y-51998980D03*
X66849640Y-51198880D03*
X66849640Y-50398780D03*
X66849640Y-49601220D03*
X66849640Y-48801120D03*
X66849640Y-48001020D03*
X66849640Y-47200920D03*
D24*
X83300000Y-52000000D03*
X83300000Y-51200000D03*
X83300000Y-48000000D03*
X83300000Y-48800000D03*
X83300000Y-49600000D03*
X83300000Y-50400000D03*
X81100000Y-50400000D03*
X81100000Y-49600000D03*
X81100000Y-48800000D03*
X81100000Y-48000000D03*
X81100000Y-51200000D03*
X81100000Y-52000000D03*
D25*
X82200000Y-52100000D03*
X82200000Y-47900000D03*
D26*
X62900000Y-57800000D03*
X59200000Y-55600000D03*
X62900000Y-55600000D03*
X59200000Y-57800000D03*
D27*
X75100000Y-43100000D03*
X76600000Y-43100000D03*
X77900000Y-45300000D03*
X77900000Y-46800000D03*
X69800000Y-43500000D03*
X73600000Y-43100000D03*
D15*
X71040000Y-39230000D03*
D16*
X71040000Y-41770000D03*
X68500000Y-39230000D03*
X68500000Y-41770000D03*
X65960000Y-39230000D03*
X65960000Y-41770000D03*
D28*
X112570000Y-53300000D03*
X112570000Y-46700000D03*
D27*
X64500000Y-50400000D03*
D15*
X57730000Y-47460000D03*
D16*
X60270000Y-47460000D03*
D15*
X93270000Y-46000000D03*
D16*
X90730000Y-46000000D03*
D15*
X93270000Y-40000000D03*
D16*
X90730000Y-40000000D03*
D15*
X57730000Y-72460000D03*
D16*
X60270000Y-72460000D03*
D15*
X57730000Y-77540000D03*
D16*
X60270000Y-77540000D03*
D17*
X44047500Y-78500000D03*
X45952500Y-78500000D03*
X64047500Y-78500000D03*
X65952500Y-78500000D03*
X73952500Y-78500000D03*
X72047500Y-78500000D03*
X83952500Y-78500000D03*
X82047500Y-78500000D03*
X98547500Y-78500000D03*
X100452500Y-78500000D03*
D29*
X49950000Y-74350000D03*
X49950000Y-75650000D03*
X49950000Y-75000000D03*
X48050000Y-75650000D03*
X48050000Y-75000000D03*
X48050000Y-74350000D03*
X69950000Y-74350000D03*
X69950000Y-75650000D03*
X69950000Y-75000000D03*
X68050000Y-75650000D03*
X68050000Y-75000000D03*
X68050000Y-74350000D03*
X89950000Y-74350000D03*
X89950000Y-75650000D03*
X89950000Y-75000000D03*
X88050000Y-75650000D03*
X88050000Y-75000000D03*
X88050000Y-74350000D03*
D30*
X50000000Y-52540000D03*
X50000000Y-47460000D03*
X42380000Y-50000000D03*
X98000000Y-47460000D03*
X98000000Y-52540000D03*
X105620000Y-50000000D03*
M02*
