G04 #@! TF.GenerationSoftware,KiCad,Pcbnew,5.0.0-84427f4~65~ubuntu16.04.1*
G04 #@! TF.CreationDate,2018-07-15T21:07:02+05:30*
G04 #@! TF.ProjectId,bebl_v2,6265626C5F76322E6B696361645F7063,rev?*
G04 #@! TF.SameCoordinates,Original*
G04 #@! TF.FileFunction,Paste,Bot*
G04 #@! TF.FilePolarity,Positive*
%FSLAX46Y46*%
G04 Gerber Fmt 4.6, Leading zero omitted, Abs format (unit mm)*
G04 Created by KiCad (PCBNEW 5.0.0-84427f4~65~ubuntu16.04.1) date Sun Jul 15 21:07:02 2018*
%MOMM*%
%LPD*%
G01*
G04 APERTURE LIST*
%ADD10C,0.150000*%
%ADD11R,1.300480X1.498600*%
%ADD12R,1.066800X1.422400*%
%ADD13R,1.498600X1.300480*%
%ADD14R,0.449580X1.998980*%
%ADD15R,1.998980X0.449580*%
%ADD16R,1.145000X0.550000*%
%ADD17R,0.550000X1.145000*%
%ADD18R,2.000000X1.200000*%
%ADD19C,1.000000*%
%ADD20R,0.700000X0.400000*%
%ADD21O,2.150000X1.050000*%
G04 APERTURE END LIST*
D10*
X73500000Y-69500000D02*
X74500000Y-69500000D01*
X73500000Y-62000000D02*
X74500000Y-62000000D01*
X74500000Y-69500000D02*
X106500000Y-69500000D01*
X73500000Y-69500000D02*
X41500000Y-69500000D01*
X111000000Y-79000000D02*
X111000000Y-71000000D01*
X41500000Y-80500000D02*
X106500000Y-80500000D01*
X37000000Y-71000000D02*
X37000000Y-79000000D01*
X109500000Y-80500000D02*
G75*
G03X111000000Y-79000000I0J1500000D01*
G01*
X111000000Y-71000000D02*
G75*
G03X109500000Y-69500000I-1500000J0D01*
G01*
X37000000Y-79000000D02*
G75*
G03X38500000Y-80500000I1500000J0D01*
G01*
X38500000Y-69500000D02*
G75*
G03X37000000Y-71000000I0J-1500000D01*
G01*
X109500000Y-80500000D02*
G75*
G03X108000000Y-79000000I-1500000J0D01*
G01*
X108000000Y-79000000D02*
G75*
G03X106500000Y-80500000I0J-1500000D01*
G01*
X108000000Y-71000000D02*
G75*
G03X109500000Y-69500000I0J1500000D01*
G01*
X106500000Y-69500000D02*
G75*
G03X108000000Y-71000000I1500000J0D01*
G01*
X41500000Y-80500000D02*
G75*
G03X40000000Y-79000000I-1500000J0D01*
G01*
X40000000Y-79000000D02*
G75*
G03X38500000Y-80500000I0J-1500000D01*
G01*
X38500000Y-69500000D02*
G75*
G03X40000000Y-71000000I1500000J0D01*
G01*
X40000000Y-71000000D02*
G75*
G03X41500000Y-69500000I0J1500000D01*
G01*
X111500000Y-38000000D02*
X36500000Y-38000000D01*
X114000000Y-59500000D02*
X114000000Y-40500000D01*
X74500000Y-62000000D02*
X111500000Y-62000000D01*
X36500000Y-62000000D02*
X73500000Y-62000000D01*
X34000000Y-40500000D02*
X34000000Y-59500000D01*
X36500000Y-38000000D02*
G75*
G03X34000000Y-40500000I0J-2500000D01*
G01*
X34000000Y-59500000D02*
G75*
G03X36500000Y-62000000I2500000J0D01*
G01*
X111500000Y-62000000D02*
G75*
G03X114000000Y-59500000I0J2500000D01*
G01*
X114000000Y-40500000D02*
G75*
G03X111500000Y-38000000I-2500000J0D01*
G01*
D11*
G04 #@! TO.C,R8*
X53952500Y-78500000D03*
X52047500Y-78500000D03*
G04 #@! TD*
D12*
G04 #@! TO.C,C1*
X64316000Y-59900000D03*
X62284000Y-59900000D03*
G04 #@! TD*
G04 #@! TO.C,C2*
X57784000Y-59900000D03*
X59816000Y-59900000D03*
G04 #@! TD*
G04 #@! TO.C,C3*
X70684000Y-57500000D03*
X72716000Y-57500000D03*
G04 #@! TD*
G04 #@! TO.C,C4*
X78984000Y-57500000D03*
X81016000Y-57500000D03*
G04 #@! TD*
G04 #@! TO.C,C9*
X85984000Y-51500000D03*
X88016000Y-51500000D03*
G04 #@! TD*
G04 #@! TO.C,C11*
X85984000Y-54000000D03*
X88016000Y-54000000D03*
G04 #@! TD*
G04 #@! TO.C,C10*
X85984000Y-48000000D03*
X88016000Y-48000000D03*
G04 #@! TD*
D13*
G04 #@! TO.C,R2*
X79500000Y-40047500D03*
X79500000Y-41952500D03*
G04 #@! TD*
G04 #@! TO.C,R3*
X82000000Y-40047500D03*
X82000000Y-41952500D03*
G04 #@! TD*
D14*
G04 #@! TO.C,U1*
X68200920Y-54150360D03*
X69001020Y-54150360D03*
X69801120Y-54150360D03*
X70601220Y-54150360D03*
X71398780Y-54150360D03*
X72198880Y-54150360D03*
X72998980Y-54150360D03*
X73799080Y-54150360D03*
X73799080Y-45849640D03*
X68200920Y-45849640D03*
X69001020Y-45849640D03*
X69801120Y-45849640D03*
X70601220Y-45849640D03*
X71398780Y-45849640D03*
X72198880Y-45849640D03*
X72998980Y-45849640D03*
D15*
X75150360Y-52799080D03*
X75150360Y-51998980D03*
X75150360Y-51198880D03*
X75150360Y-50398780D03*
X75150360Y-49601220D03*
X75150360Y-48801120D03*
X75150360Y-48001020D03*
X75150360Y-47200920D03*
X66849640Y-52799080D03*
X66849640Y-51998980D03*
X66849640Y-51198880D03*
X66849640Y-50398780D03*
X66849640Y-49601220D03*
X66849640Y-48801120D03*
X66849640Y-48001020D03*
X66849640Y-47200920D03*
G04 #@! TD*
D16*
G04 #@! TO.C,U4*
X83300000Y-52000000D03*
X83300000Y-51200000D03*
X83300000Y-48000000D03*
X83300000Y-48800000D03*
X83300000Y-49600000D03*
X83300000Y-50400000D03*
X81100000Y-50400000D03*
X81100000Y-49600000D03*
X81100000Y-48800000D03*
X81100000Y-48000000D03*
X81100000Y-51200000D03*
X81100000Y-52000000D03*
D17*
X82200000Y-52100000D03*
X82200000Y-47900000D03*
G04 #@! TD*
D18*
G04 #@! TO.C,X1*
X62900000Y-57800000D03*
X59200000Y-55600000D03*
X62900000Y-55600000D03*
X59200000Y-57800000D03*
G04 #@! TD*
D19*
G04 #@! TO.C,B1*
X75100000Y-43100000D03*
G04 #@! TD*
G04 #@! TO.C,B2*
X76600000Y-43100000D03*
G04 #@! TD*
G04 #@! TO.C,B3*
X77900000Y-45300000D03*
G04 #@! TD*
G04 #@! TO.C,B4*
X77900000Y-46800000D03*
G04 #@! TD*
G04 #@! TO.C,B5*
X69800000Y-43500000D03*
G04 #@! TD*
G04 #@! TO.C,B6*
X73600000Y-43100000D03*
G04 #@! TD*
G04 #@! TO.C,B7*
X64500000Y-50400000D03*
G04 #@! TD*
D11*
G04 #@! TO.C,R7*
X44047500Y-78500000D03*
X45952500Y-78500000D03*
G04 #@! TD*
G04 #@! TO.C,R9*
X64047500Y-78500000D03*
X65952500Y-78500000D03*
G04 #@! TD*
G04 #@! TO.C,R10*
X73952500Y-78500000D03*
X72047500Y-78500000D03*
G04 #@! TD*
G04 #@! TO.C,R11*
X83952500Y-78500000D03*
X82047500Y-78500000D03*
G04 #@! TD*
G04 #@! TO.C,R12*
X98547500Y-78500000D03*
X100452500Y-78500000D03*
G04 #@! TD*
D20*
G04 #@! TO.C,Q1*
X49950000Y-74350000D03*
X49950000Y-75650000D03*
X49950000Y-75000000D03*
X48050000Y-75650000D03*
X48050000Y-75000000D03*
X48050000Y-74350000D03*
G04 #@! TD*
G04 #@! TO.C,Q2*
X69950000Y-74350000D03*
X69950000Y-75650000D03*
X69950000Y-75000000D03*
X68050000Y-75650000D03*
X68050000Y-75000000D03*
X68050000Y-74350000D03*
G04 #@! TD*
G04 #@! TO.C,Q3*
X89950000Y-74350000D03*
X89950000Y-75650000D03*
X89950000Y-75000000D03*
X88050000Y-75650000D03*
X88050000Y-75000000D03*
X88050000Y-74350000D03*
G04 #@! TD*
D21*
G04 #@! TO.C,P7*
X112575000Y-53225000D03*
X112575000Y-46775000D03*
G04 #@! TD*
M02*
