G04 #@! TF.GenerationSoftware,KiCad,Pcbnew,5.0.0-84427f4~65~ubuntu16.04.1*
G04 #@! TF.CreationDate,2018-07-15T21:07:02+05:30*
G04 #@! TF.ProjectId,bebl_v2,6265626C5F76322E6B696361645F7063,rev?*
G04 #@! TF.SameCoordinates,Original*
G04 #@! TF.FileFunction,Legend,Bot*
G04 #@! TF.FilePolarity,Positive*
%FSLAX46Y46*%
G04 Gerber Fmt 4.6, Leading zero omitted, Abs format (unit mm)*
G04 Created by KiCad (PCBNEW 5.0.0-84427f4~65~ubuntu16.04.1) date Sun Jul 15 21:07:02 2018*
%MOMM*%
%LPD*%
G01*
G04 APERTURE LIST*
%ADD10C,0.150000*%
%ADD11C,0.200000*%
%ADD12C,0.500000*%
%ADD13C,0.152400*%
%ADD14R,1.924000X1.924000*%
%ADD15C,1.924000*%
%ADD16R,1.700480X1.898600*%
%ADD17R,1.466800X1.822400*%
%ADD18C,2.076400*%
%ADD19R,1.898600X1.700480*%
%ADD20C,3.448000*%
%ADD21R,0.849580X2.398980*%
%ADD22R,2.398980X0.849580*%
%ADD23R,1.545000X0.950000*%
%ADD24R,0.950000X1.545000*%
%ADD25R,2.400000X1.600000*%
%ADD26C,1.400000*%
%ADD27R,1.100000X0.800000*%
%ADD28C,3.200000*%
%ADD29O,2.550000X1.450000*%
%ADD30C,1.300000*%
G04 APERTURE END LIST*
D10*
X88750000Y-61500000D02*
G75*
G03X89500000Y-60750000I0J750000D01*
G01*
X84500000Y-60750000D02*
G75*
G03X85250000Y-61500000I750000J0D01*
G01*
X89500000Y-56250000D02*
G75*
G03X88750000Y-55500000I-750000J0D01*
G01*
X85250000Y-55500000D02*
G75*
G03X84500000Y-56250000I0J-750000D01*
G01*
X84500000Y-60750000D02*
X84500000Y-56250000D01*
X88750000Y-61500000D02*
X85250000Y-61500000D01*
X89500000Y-56250000D02*
X89500000Y-60750000D01*
X85250000Y-55500000D02*
X88750000Y-55500000D01*
X86057142Y-58871428D02*
X86057142Y-59480952D01*
X86361904Y-59176190D02*
X85752380Y-59176190D01*
X85828571Y-59785714D02*
X85828571Y-60204761D01*
X86361904Y-59785714D01*
X86361904Y-60204761D01*
X88557142Y-59140476D02*
X88557142Y-59750000D01*
X88861904Y-59445238D02*
X88252380Y-59445238D01*
X88328571Y-60054761D02*
X88861904Y-60245238D01*
X88328571Y-60435714D02*
X88861904Y-60245238D01*
X89052380Y-60169047D01*
X89090476Y-60130952D01*
X89128571Y-60054761D01*
X85807142Y-56371428D02*
X85807142Y-56980952D01*
X86111904Y-56676190D02*
X85502380Y-56676190D01*
X86111904Y-57285714D02*
X85578571Y-57704761D01*
X85578571Y-57285714D02*
X86111904Y-57704761D01*
X87500000Y-61000000D02*
X88250000Y-60750000D01*
X87500000Y-60500000D02*
X87500000Y-61000000D01*
X88250000Y-60750000D02*
X87500000Y-60500000D01*
X85250000Y-60750000D02*
X88250000Y-60750000D01*
X85500000Y-58500000D02*
X85250000Y-57750000D01*
X85000000Y-58500000D02*
X85500000Y-58500000D01*
X85250000Y-57750000D02*
X85000000Y-58500000D01*
X85250000Y-60750000D02*
X85250000Y-57750000D01*
X85500000Y-60750000D02*
G75*
G03X85500000Y-60750000I-250000J0D01*
G01*
X73500000Y-69500000D02*
X74500000Y-69500000D01*
X73500000Y-62000000D02*
X74500000Y-62000000D01*
X74500000Y-69500000D02*
X106500000Y-69500000D01*
X73500000Y-69500000D02*
X41500000Y-69500000D01*
X111000000Y-79000000D02*
X111000000Y-71000000D01*
X41500000Y-80500000D02*
X106500000Y-80500000D01*
X37000000Y-71000000D02*
X37000000Y-79000000D01*
X109500000Y-80500000D02*
G75*
G03X111000000Y-79000000I0J1500000D01*
G01*
X111000000Y-71000000D02*
G75*
G03X109500000Y-69500000I-1500000J0D01*
G01*
X37000000Y-79000000D02*
G75*
G03X38500000Y-80500000I1500000J0D01*
G01*
X38500000Y-69500000D02*
G75*
G03X37000000Y-71000000I0J-1500000D01*
G01*
X109500000Y-80500000D02*
G75*
G03X108000000Y-79000000I-1500000J0D01*
G01*
X108000000Y-79000000D02*
G75*
G03X106500000Y-80500000I0J-1500000D01*
G01*
X108000000Y-71000000D02*
G75*
G03X109500000Y-69500000I0J1500000D01*
G01*
X106500000Y-69500000D02*
G75*
G03X108000000Y-71000000I1500000J0D01*
G01*
X41500000Y-80500000D02*
G75*
G03X40000000Y-79000000I-1500000J0D01*
G01*
X40000000Y-79000000D02*
G75*
G03X38500000Y-80500000I0J-1500000D01*
G01*
X38500000Y-69500000D02*
G75*
G03X40000000Y-71000000I1500000J0D01*
G01*
X40000000Y-71000000D02*
G75*
G03X41500000Y-69500000I0J1500000D01*
G01*
X77166666Y-56480952D02*
X77128571Y-56442857D01*
X77014285Y-56366666D01*
X76938095Y-56328571D01*
X76823809Y-56290476D01*
X76633333Y-56252380D01*
X76480952Y-56252380D01*
X76290476Y-56290476D01*
X76176190Y-56328571D01*
X76100000Y-56366666D01*
X75985714Y-56442857D01*
X75947619Y-56480952D01*
X76061904Y-56709523D02*
X76061904Y-57204761D01*
X76366666Y-56938095D01*
X76366666Y-57052380D01*
X76404761Y-57128571D01*
X76442857Y-57166666D01*
X76519047Y-57204761D01*
X76709523Y-57204761D01*
X76785714Y-57166666D01*
X76823809Y-57128571D01*
X76861904Y-57052380D01*
X76861904Y-56823809D01*
X76823809Y-56747619D01*
X76785714Y-56709523D01*
X76061904Y-57433333D02*
X76861904Y-57700000D01*
X76061904Y-57966666D01*
X76061904Y-58157142D02*
X76061904Y-58652380D01*
X76366666Y-58385714D01*
X76366666Y-58500000D01*
X76404761Y-58576190D01*
X76442857Y-58614285D01*
X76519047Y-58652380D01*
X76709523Y-58652380D01*
X76785714Y-58614285D01*
X76823809Y-58576190D01*
X76861904Y-58500000D01*
X76861904Y-58271428D01*
X76823809Y-58195238D01*
X76785714Y-58157142D01*
X77166666Y-58919047D02*
X77128571Y-58957142D01*
X77014285Y-59033333D01*
X76938095Y-59071428D01*
X76823809Y-59109523D01*
X76633333Y-59147619D01*
X76480952Y-59147619D01*
X76290476Y-59109523D01*
X76176190Y-59071428D01*
X76100000Y-59033333D01*
X75985714Y-58957142D01*
X75947619Y-58919047D01*
D11*
X90238095Y-41614285D02*
X90000000Y-41614285D01*
X90000000Y-43042857D01*
X90238095Y-43042857D01*
X90619047Y-42328571D02*
X91380952Y-42328571D01*
X92619047Y-42328571D02*
X93380952Y-42328571D01*
X93000000Y-41947619D02*
X93000000Y-42709523D01*
X93761904Y-41614285D02*
X94000000Y-41614285D01*
X94000000Y-43042857D01*
X93761904Y-43042857D01*
D12*
X55923809Y-61571428D02*
X56400000Y-61571428D01*
X56400000Y-58714285D01*
X55923809Y-58714285D01*
X55161904Y-60142857D02*
X53638095Y-60142857D01*
X52876190Y-61571428D02*
X52400000Y-61571428D01*
X52400000Y-58714285D01*
X52876190Y-58714285D01*
X95023809Y-61571428D02*
X95500000Y-61571428D01*
X95500000Y-58714285D01*
X95023809Y-58714285D01*
X94261904Y-60142857D02*
X92738095Y-60142857D01*
X93500000Y-60904761D02*
X93500000Y-59380952D01*
X91976190Y-61571428D02*
X91500000Y-61571428D01*
X91500000Y-58714285D01*
X91976190Y-58714285D01*
D10*
X111500000Y-38000000D02*
X36500000Y-38000000D01*
X114000000Y-59500000D02*
X114000000Y-40500000D01*
X74500000Y-62000000D02*
X111500000Y-62000000D01*
X36500000Y-62000000D02*
X73500000Y-62000000D01*
X34000000Y-40500000D02*
X34000000Y-59500000D01*
X36500000Y-38000000D02*
G75*
G03X34000000Y-40500000I0J-2500000D01*
G01*
X34000000Y-59500000D02*
G75*
G03X36500000Y-62000000I2500000J0D01*
G01*
X111500000Y-62000000D02*
G75*
G03X114000000Y-59500000I0J2500000D01*
G01*
X114000000Y-40500000D02*
G75*
G03X111500000Y-38000000I-2500000J0D01*
G01*
D13*
G04 #@! TO.C,P10*
X94159000Y-77793500D02*
X94159000Y-77920500D01*
X94286000Y-77793500D02*
X94286000Y-78047500D01*
X94413000Y-77793500D02*
X94413000Y-78174500D01*
X92381000Y-77793500D02*
X92381000Y-77920500D01*
X92254000Y-77793500D02*
X92254000Y-78047500D01*
X92127000Y-77793500D02*
X92127000Y-78174500D01*
X92381000Y-80206500D02*
X92381000Y-80079500D01*
X92254000Y-80206500D02*
X92254000Y-79952500D01*
X92127000Y-80206500D02*
X92127000Y-79825500D01*
X94159000Y-80206500D02*
X94159000Y-80079500D01*
X94286000Y-80206500D02*
X94286000Y-79952500D01*
X94413000Y-80206500D02*
X94413000Y-79825500D01*
X93905000Y-80270000D02*
X94540000Y-80270000D01*
X94540000Y-80270000D02*
X94540000Y-79635000D01*
X92000000Y-79635000D02*
X92000000Y-80270000D01*
X92000000Y-80270000D02*
X92635000Y-80270000D01*
X92635000Y-77730000D02*
X92000000Y-77730000D01*
X92000000Y-77730000D02*
X92000000Y-78301500D01*
X94540000Y-78365000D02*
X94540000Y-77730000D01*
X94540000Y-77730000D02*
X93905000Y-77730000D01*
X92000000Y-78365000D02*
X92000000Y-79635000D01*
X94540000Y-79000000D02*
X94540000Y-79635000D01*
X94540000Y-79635000D02*
X93905000Y-80270000D01*
X93905000Y-80270000D02*
X92635000Y-80270000D01*
X92635000Y-80270000D02*
X92000000Y-79635000D01*
X92000000Y-79635000D02*
X91365000Y-80270000D01*
X91365000Y-80270000D02*
X90095000Y-80270000D01*
X90095000Y-80270000D02*
X89460000Y-79635000D01*
X89460000Y-79635000D02*
X89460000Y-78365000D01*
X89460000Y-78365000D02*
X90095000Y-77730000D01*
X90095000Y-77730000D02*
X91365000Y-77730000D01*
X91365000Y-77730000D02*
X92000000Y-78365000D01*
X92000000Y-78365000D02*
X92635000Y-77730000D01*
X92635000Y-77730000D02*
X93905000Y-77730000D01*
X93905000Y-77730000D02*
X94540000Y-78365000D01*
X94540000Y-78365000D02*
X94540000Y-79000000D01*
G04 #@! TO.C,P12*
X56841000Y-76206500D02*
X56841000Y-76079500D01*
X56714000Y-76206500D02*
X56714000Y-75952500D01*
X56587000Y-76206500D02*
X56587000Y-75825500D01*
X58619000Y-76206500D02*
X58619000Y-76079500D01*
X58746000Y-76206500D02*
X58746000Y-75952500D01*
X58873000Y-76206500D02*
X58873000Y-75825500D01*
X58619000Y-73793500D02*
X58619000Y-73920500D01*
X58746000Y-73793500D02*
X58746000Y-74047500D01*
X58873000Y-73793500D02*
X58873000Y-74174500D01*
X56841000Y-73793500D02*
X56841000Y-73920500D01*
X56714000Y-73793500D02*
X56714000Y-74047500D01*
X56587000Y-73793500D02*
X56587000Y-74174500D01*
X57095000Y-73730000D02*
X56460000Y-73730000D01*
X56460000Y-73730000D02*
X56460000Y-74365000D01*
X59000000Y-74365000D02*
X59000000Y-73730000D01*
X59000000Y-73730000D02*
X58365000Y-73730000D01*
X58365000Y-76270000D02*
X59000000Y-76270000D01*
X59000000Y-76270000D02*
X59000000Y-75698500D01*
X56460000Y-75635000D02*
X56460000Y-76270000D01*
X56460000Y-76270000D02*
X57095000Y-76270000D01*
X59000000Y-75635000D02*
X59000000Y-74365000D01*
X56460000Y-75000000D02*
X56460000Y-74365000D01*
X56460000Y-74365000D02*
X57095000Y-73730000D01*
X57095000Y-73730000D02*
X58365000Y-73730000D01*
X58365000Y-73730000D02*
X59000000Y-74365000D01*
X59000000Y-74365000D02*
X59635000Y-73730000D01*
X59635000Y-73730000D02*
X60905000Y-73730000D01*
X60905000Y-73730000D02*
X61540000Y-74365000D01*
X61540000Y-74365000D02*
X61540000Y-75635000D01*
X61540000Y-75635000D02*
X60905000Y-76270000D01*
X60905000Y-76270000D02*
X59635000Y-76270000D01*
X59635000Y-76270000D02*
X59000000Y-75635000D01*
X59000000Y-75635000D02*
X58365000Y-76270000D01*
X58365000Y-76270000D02*
X57095000Y-76270000D01*
X57095000Y-76270000D02*
X56460000Y-75635000D01*
X56460000Y-75635000D02*
X56460000Y-75000000D01*
G04 #@! TO.C,P14*
X94159000Y-69793500D02*
X94159000Y-69920500D01*
X94286000Y-69793500D02*
X94286000Y-70047500D01*
X94413000Y-69793500D02*
X94413000Y-70174500D01*
X92381000Y-69793500D02*
X92381000Y-69920500D01*
X92254000Y-69793500D02*
X92254000Y-70047500D01*
X92127000Y-69793500D02*
X92127000Y-70174500D01*
X92381000Y-72206500D02*
X92381000Y-72079500D01*
X92254000Y-72206500D02*
X92254000Y-71952500D01*
X92127000Y-72206500D02*
X92127000Y-71825500D01*
X94159000Y-72206500D02*
X94159000Y-72079500D01*
X94286000Y-72206500D02*
X94286000Y-71952500D01*
X94413000Y-72206500D02*
X94413000Y-71825500D01*
X93905000Y-72270000D02*
X94540000Y-72270000D01*
X94540000Y-72270000D02*
X94540000Y-71635000D01*
X92000000Y-71635000D02*
X92000000Y-72270000D01*
X92000000Y-72270000D02*
X92635000Y-72270000D01*
X92635000Y-69730000D02*
X92000000Y-69730000D01*
X92000000Y-69730000D02*
X92000000Y-70301500D01*
X94540000Y-70365000D02*
X94540000Y-69730000D01*
X94540000Y-69730000D02*
X93905000Y-69730000D01*
X92000000Y-70365000D02*
X92000000Y-71635000D01*
X94540000Y-71000000D02*
X94540000Y-71635000D01*
X94540000Y-71635000D02*
X93905000Y-72270000D01*
X93905000Y-72270000D02*
X92635000Y-72270000D01*
X92635000Y-72270000D02*
X92000000Y-71635000D01*
X92000000Y-71635000D02*
X91365000Y-72270000D01*
X91365000Y-72270000D02*
X90095000Y-72270000D01*
X90095000Y-72270000D02*
X89460000Y-71635000D01*
X89460000Y-71635000D02*
X89460000Y-70365000D01*
X89460000Y-70365000D02*
X90095000Y-69730000D01*
X90095000Y-69730000D02*
X91365000Y-69730000D01*
X91365000Y-69730000D02*
X92000000Y-70365000D01*
X92000000Y-70365000D02*
X92635000Y-69730000D01*
X92635000Y-69730000D02*
X93905000Y-69730000D01*
X93905000Y-69730000D02*
X94540000Y-70365000D01*
X94540000Y-70365000D02*
X94540000Y-71000000D01*
G04 #@! TO.C,R8*
X53381000Y-77420500D02*
X54968500Y-77420500D01*
X54968500Y-77420500D02*
X54968500Y-79579500D01*
X54968500Y-79579500D02*
X53381000Y-79579500D01*
X52619000Y-79579500D02*
X51095000Y-79579500D01*
X51095000Y-79579500D02*
X51031500Y-79579500D01*
X51031500Y-79579500D02*
X51031500Y-77420500D01*
X51031500Y-77420500D02*
X52619000Y-77420500D01*
G04 #@! TO.C,C1*
X65205000Y-58820500D02*
X63427000Y-58820500D01*
X65205000Y-60979500D02*
X63427000Y-60979500D01*
X62284000Y-58820500D02*
X61395000Y-58820500D01*
X61395000Y-60979500D02*
X62284000Y-60979500D01*
X63427000Y-60979500D02*
X63427000Y-58820500D01*
X65205000Y-60979500D02*
X65205000Y-58820500D01*
X61395000Y-60979500D02*
X61395000Y-58820500D01*
G04 #@! TO.C,C2*
X56895000Y-60979500D02*
X58673000Y-60979500D01*
X56895000Y-58820500D02*
X58673000Y-58820500D01*
X59816000Y-60979500D02*
X60705000Y-60979500D01*
X60705000Y-58820500D02*
X59816000Y-58820500D01*
X58673000Y-58820500D02*
X58673000Y-60979500D01*
X56895000Y-58820500D02*
X56895000Y-60979500D01*
X60705000Y-58820500D02*
X60705000Y-60979500D01*
G04 #@! TO.C,C3*
X69795000Y-58579500D02*
X71573000Y-58579500D01*
X69795000Y-56420500D02*
X71573000Y-56420500D01*
X72716000Y-58579500D02*
X73605000Y-58579500D01*
X73605000Y-56420500D02*
X72716000Y-56420500D01*
X71573000Y-56420500D02*
X71573000Y-58579500D01*
X69795000Y-56420500D02*
X69795000Y-58579500D01*
X73605000Y-56420500D02*
X73605000Y-58579500D01*
G04 #@! TO.C,C4*
X78095000Y-58579500D02*
X79873000Y-58579500D01*
X78095000Y-56420500D02*
X79873000Y-56420500D01*
X81016000Y-58579500D02*
X81905000Y-58579500D01*
X81905000Y-56420500D02*
X81016000Y-56420500D01*
X79873000Y-56420500D02*
X79873000Y-58579500D01*
X78095000Y-56420500D02*
X78095000Y-58579500D01*
X81905000Y-56420500D02*
X81905000Y-58579500D01*
G04 #@! TO.C,C9*
X85095000Y-52579500D02*
X86873000Y-52579500D01*
X85095000Y-50420500D02*
X86873000Y-50420500D01*
X88016000Y-52579500D02*
X88905000Y-52579500D01*
X88905000Y-50420500D02*
X88016000Y-50420500D01*
X86873000Y-50420500D02*
X86873000Y-52579500D01*
X85095000Y-50420500D02*
X85095000Y-52579500D01*
X88905000Y-50420500D02*
X88905000Y-52579500D01*
G04 #@! TO.C,C11*
X85095000Y-55079500D02*
X86873000Y-55079500D01*
X85095000Y-52920500D02*
X86873000Y-52920500D01*
X88016000Y-55079500D02*
X88905000Y-55079500D01*
X88905000Y-52920500D02*
X88016000Y-52920500D01*
X86873000Y-52920500D02*
X86873000Y-55079500D01*
X85095000Y-52920500D02*
X85095000Y-55079500D01*
X88905000Y-52920500D02*
X88905000Y-55079500D01*
G04 #@! TO.C,C10*
X85095000Y-49079500D02*
X86873000Y-49079500D01*
X85095000Y-46920500D02*
X86873000Y-46920500D01*
X88016000Y-49079500D02*
X88905000Y-49079500D01*
X88905000Y-46920500D02*
X88016000Y-46920500D01*
X86873000Y-46920500D02*
X86873000Y-49079500D01*
X85095000Y-46920500D02*
X85095000Y-49079500D01*
X88905000Y-46920500D02*
X88905000Y-49079500D01*
G04 #@! TO.C,R2*
X78420500Y-40619000D02*
X78420500Y-39031500D01*
X78420500Y-39031500D02*
X80579500Y-39031500D01*
X80579500Y-39031500D02*
X80579500Y-40619000D01*
X80579500Y-41381000D02*
X80579500Y-42905000D01*
X80579500Y-42905000D02*
X80579500Y-42968500D01*
X80579500Y-42968500D02*
X78420500Y-42968500D01*
X78420500Y-42968500D02*
X78420500Y-41381000D01*
G04 #@! TO.C,R3*
X80920500Y-40619000D02*
X80920500Y-39031500D01*
X80920500Y-39031500D02*
X83079500Y-39031500D01*
X83079500Y-39031500D02*
X83079500Y-40619000D01*
X83079500Y-41381000D02*
X83079500Y-42905000D01*
X83079500Y-42905000D02*
X83079500Y-42968500D01*
X83079500Y-42968500D02*
X80920500Y-42968500D01*
X80920500Y-42968500D02*
X80920500Y-41381000D01*
G04 #@! TO.C,U1*
X75191000Y-54191000D02*
X75191000Y-54381500D01*
X75191000Y-54191000D02*
X75381500Y-54191000D01*
X75064000Y-54064000D02*
X75064000Y-54508500D01*
X75064000Y-54064000D02*
X75508500Y-54064000D01*
X74937000Y-53937000D02*
X74937000Y-54635500D01*
X74937000Y-53937000D02*
X75635500Y-53937000D01*
X74810000Y-53810000D02*
X74810000Y-54762500D01*
X74810000Y-53810000D02*
X75762500Y-53810000D01*
X74683000Y-53683000D02*
X74683000Y-54889500D01*
X74683000Y-53683000D02*
X75889500Y-53683000D01*
X74556000Y-55143500D02*
X74556000Y-53556000D01*
X74556000Y-53556000D02*
X76080000Y-53556000D01*
X76397500Y-53238500D02*
X76397500Y-44602500D01*
X76397500Y-44602500D02*
X65602500Y-44602500D01*
X65602500Y-44602500D02*
X65602500Y-55397500D01*
X65602500Y-55397500D02*
X74302000Y-55397500D01*
X74302000Y-55397500D02*
X76397500Y-53238500D01*
D10*
G04 #@! TO.C,U4*
X83975000Y-47625000D02*
X83975000Y-47375000D01*
X83975000Y-47625000D02*
X83725000Y-47375000D01*
X83725000Y-47375000D02*
X83975000Y-47375000D01*
X83975000Y-47375000D02*
X84225000Y-47375000D01*
X84225000Y-47375000D02*
X83975000Y-47625000D01*
X83550000Y-47500000D02*
X82550000Y-47500000D01*
X83550000Y-47500000D02*
X83700000Y-47650000D01*
X83700000Y-52500000D02*
X83700000Y-52350000D01*
X80700000Y-52500000D02*
X80700000Y-52350000D01*
X80700000Y-52500000D02*
X81850000Y-52500000D01*
X83700000Y-52500000D02*
X82550000Y-52500000D01*
X80700000Y-47500000D02*
X80700000Y-47650000D01*
X80700000Y-47500000D02*
X81850000Y-47500000D01*
G04 #@! TO.C,X1*
X63550000Y-56300000D02*
X63550000Y-57100000D01*
X58550000Y-57100000D02*
X58550000Y-56300000D01*
X61850000Y-58300000D02*
X60250000Y-58300000D01*
X60250000Y-55100000D02*
X61850000Y-55100000D01*
D13*
G04 #@! TO.C,P9*
X94159000Y-38793500D02*
X94159000Y-38920500D01*
X94286000Y-38793500D02*
X94286000Y-39047500D01*
X94413000Y-38793500D02*
X94413000Y-39174500D01*
X92381000Y-38793500D02*
X92381000Y-38920500D01*
X92254000Y-38793500D02*
X92254000Y-39047500D01*
X92127000Y-38793500D02*
X92127000Y-39174500D01*
X92381000Y-41206500D02*
X92381000Y-41079500D01*
X92254000Y-41206500D02*
X92254000Y-40952500D01*
X92127000Y-41206500D02*
X92127000Y-40825500D01*
X94159000Y-41206500D02*
X94159000Y-41079500D01*
X94286000Y-41206500D02*
X94286000Y-40952500D01*
X94413000Y-41206500D02*
X94413000Y-40825500D01*
X93905000Y-41270000D02*
X94540000Y-41270000D01*
X94540000Y-41270000D02*
X94540000Y-40635000D01*
X92000000Y-40635000D02*
X92000000Y-41270000D01*
X92000000Y-41270000D02*
X92635000Y-41270000D01*
X92635000Y-38730000D02*
X92000000Y-38730000D01*
X92000000Y-38730000D02*
X92000000Y-39301500D01*
X94540000Y-39365000D02*
X94540000Y-38730000D01*
X94540000Y-38730000D02*
X93905000Y-38730000D01*
X92000000Y-39365000D02*
X92000000Y-40635000D01*
X94540000Y-40000000D02*
X94540000Y-40635000D01*
X94540000Y-40635000D02*
X93905000Y-41270000D01*
X93905000Y-41270000D02*
X92635000Y-41270000D01*
X92635000Y-41270000D02*
X92000000Y-40635000D01*
X92000000Y-40635000D02*
X91365000Y-41270000D01*
X91365000Y-41270000D02*
X90095000Y-41270000D01*
X90095000Y-41270000D02*
X89460000Y-40635000D01*
X89460000Y-40635000D02*
X89460000Y-39365000D01*
X89460000Y-39365000D02*
X90095000Y-38730000D01*
X90095000Y-38730000D02*
X91365000Y-38730000D01*
X91365000Y-38730000D02*
X92000000Y-39365000D01*
X92000000Y-39365000D02*
X92635000Y-38730000D01*
X92635000Y-38730000D02*
X93905000Y-38730000D01*
X93905000Y-38730000D02*
X94540000Y-39365000D01*
X94540000Y-39365000D02*
X94540000Y-40000000D01*
G04 #@! TO.C,P13*
X56841000Y-73666500D02*
X56841000Y-73539500D01*
X56714000Y-73666500D02*
X56714000Y-73412500D01*
X56587000Y-73666500D02*
X56587000Y-73285500D01*
X58619000Y-73666500D02*
X58619000Y-73539500D01*
X58746000Y-73666500D02*
X58746000Y-73412500D01*
X58873000Y-73666500D02*
X58873000Y-73285500D01*
X58619000Y-71253500D02*
X58619000Y-71380500D01*
X58746000Y-71253500D02*
X58746000Y-71507500D01*
X58873000Y-71253500D02*
X58873000Y-71634500D01*
X56841000Y-71253500D02*
X56841000Y-71380500D01*
X56714000Y-71253500D02*
X56714000Y-71507500D01*
X56587000Y-71253500D02*
X56587000Y-71634500D01*
X57095000Y-71190000D02*
X56460000Y-71190000D01*
X56460000Y-71190000D02*
X56460000Y-71825000D01*
X59000000Y-71825000D02*
X59000000Y-71190000D01*
X59000000Y-71190000D02*
X58365000Y-71190000D01*
X58365000Y-73730000D02*
X59000000Y-73730000D01*
X59000000Y-73730000D02*
X59000000Y-73158500D01*
X56460000Y-73095000D02*
X56460000Y-73730000D01*
X56460000Y-73730000D02*
X57095000Y-73730000D01*
X59000000Y-73095000D02*
X59000000Y-71825000D01*
X56460000Y-72460000D02*
X56460000Y-71825000D01*
X56460000Y-71825000D02*
X57095000Y-71190000D01*
X57095000Y-71190000D02*
X58365000Y-71190000D01*
X58365000Y-71190000D02*
X59000000Y-71825000D01*
X59000000Y-71825000D02*
X59635000Y-71190000D01*
X59635000Y-71190000D02*
X60905000Y-71190000D01*
X60905000Y-71190000D02*
X61540000Y-71825000D01*
X61540000Y-71825000D02*
X61540000Y-73095000D01*
X61540000Y-73095000D02*
X60905000Y-73730000D01*
X60905000Y-73730000D02*
X59635000Y-73730000D01*
X59635000Y-73730000D02*
X59000000Y-73095000D01*
X59000000Y-73095000D02*
X58365000Y-73730000D01*
X58365000Y-73730000D02*
X57095000Y-73730000D01*
X57095000Y-73730000D02*
X56460000Y-73095000D01*
X56460000Y-73095000D02*
X56460000Y-72460000D01*
G04 #@! TO.C,P11*
X56841000Y-78746500D02*
X56841000Y-78619500D01*
X56714000Y-78746500D02*
X56714000Y-78492500D01*
X56587000Y-78746500D02*
X56587000Y-78365500D01*
X58619000Y-78746500D02*
X58619000Y-78619500D01*
X58746000Y-78746500D02*
X58746000Y-78492500D01*
X58873000Y-78746500D02*
X58873000Y-78365500D01*
X58619000Y-76333500D02*
X58619000Y-76460500D01*
X58746000Y-76333500D02*
X58746000Y-76587500D01*
X58873000Y-76333500D02*
X58873000Y-76714500D01*
X56841000Y-76333500D02*
X56841000Y-76460500D01*
X56714000Y-76333500D02*
X56714000Y-76587500D01*
X56587000Y-76333500D02*
X56587000Y-76714500D01*
X57095000Y-76270000D02*
X56460000Y-76270000D01*
X56460000Y-76270000D02*
X56460000Y-76905000D01*
X59000000Y-76905000D02*
X59000000Y-76270000D01*
X59000000Y-76270000D02*
X58365000Y-76270000D01*
X58365000Y-78810000D02*
X59000000Y-78810000D01*
X59000000Y-78810000D02*
X59000000Y-78238500D01*
X56460000Y-78175000D02*
X56460000Y-78810000D01*
X56460000Y-78810000D02*
X57095000Y-78810000D01*
X59000000Y-78175000D02*
X59000000Y-76905000D01*
X56460000Y-77540000D02*
X56460000Y-76905000D01*
X56460000Y-76905000D02*
X57095000Y-76270000D01*
X57095000Y-76270000D02*
X58365000Y-76270000D01*
X58365000Y-76270000D02*
X59000000Y-76905000D01*
X59000000Y-76905000D02*
X59635000Y-76270000D01*
X59635000Y-76270000D02*
X60905000Y-76270000D01*
X60905000Y-76270000D02*
X61540000Y-76905000D01*
X61540000Y-76905000D02*
X61540000Y-78175000D01*
X61540000Y-78175000D02*
X60905000Y-78810000D01*
X60905000Y-78810000D02*
X59635000Y-78810000D01*
X59635000Y-78810000D02*
X59000000Y-78175000D01*
X59000000Y-78175000D02*
X58365000Y-78810000D01*
X58365000Y-78810000D02*
X57095000Y-78810000D01*
X57095000Y-78810000D02*
X56460000Y-78175000D01*
X56460000Y-78175000D02*
X56460000Y-77540000D01*
G04 #@! TO.C,R7*
X44619000Y-79579500D02*
X43031500Y-79579500D01*
X43031500Y-79579500D02*
X43031500Y-77420500D01*
X43031500Y-77420500D02*
X44619000Y-77420500D01*
X45381000Y-77420500D02*
X46905000Y-77420500D01*
X46905000Y-77420500D02*
X46968500Y-77420500D01*
X46968500Y-77420500D02*
X46968500Y-79579500D01*
X46968500Y-79579500D02*
X45381000Y-79579500D01*
G04 #@! TO.C,R9*
X64619000Y-79579500D02*
X63031500Y-79579500D01*
X63031500Y-79579500D02*
X63031500Y-77420500D01*
X63031500Y-77420500D02*
X64619000Y-77420500D01*
X65381000Y-77420500D02*
X66905000Y-77420500D01*
X66905000Y-77420500D02*
X66968500Y-77420500D01*
X66968500Y-77420500D02*
X66968500Y-79579500D01*
X66968500Y-79579500D02*
X65381000Y-79579500D01*
G04 #@! TO.C,R10*
X73381000Y-77420500D02*
X74968500Y-77420500D01*
X74968500Y-77420500D02*
X74968500Y-79579500D01*
X74968500Y-79579500D02*
X73381000Y-79579500D01*
X72619000Y-79579500D02*
X71095000Y-79579500D01*
X71095000Y-79579500D02*
X71031500Y-79579500D01*
X71031500Y-79579500D02*
X71031500Y-77420500D01*
X71031500Y-77420500D02*
X72619000Y-77420500D01*
G04 #@! TO.C,R11*
X83381000Y-77420500D02*
X84968500Y-77420500D01*
X84968500Y-77420500D02*
X84968500Y-79579500D01*
X84968500Y-79579500D02*
X83381000Y-79579500D01*
X82619000Y-79579500D02*
X81095000Y-79579500D01*
X81095000Y-79579500D02*
X81031500Y-79579500D01*
X81031500Y-79579500D02*
X81031500Y-77420500D01*
X81031500Y-77420500D02*
X82619000Y-77420500D01*
G04 #@! TO.C,R12*
X99119000Y-79579500D02*
X97531500Y-79579500D01*
X97531500Y-79579500D02*
X97531500Y-77420500D01*
X97531500Y-77420500D02*
X99119000Y-77420500D01*
X99881000Y-77420500D02*
X101405000Y-77420500D01*
X101405000Y-77420500D02*
X101468500Y-77420500D01*
X101468500Y-77420500D02*
X101468500Y-79579500D01*
X101468500Y-79579500D02*
X99881000Y-79579500D01*
D10*
G04 #@! TO.C,Q1*
X49700000Y-73750000D02*
X49700000Y-73500000D01*
X49700000Y-73750000D02*
X49450000Y-73500000D01*
X49450000Y-73500000D02*
X49950000Y-73500000D01*
X49950000Y-73500000D02*
X49700000Y-73750000D01*
X49400000Y-74000000D02*
X49400000Y-76000000D01*
X48600000Y-76000000D02*
X48600000Y-74000000D01*
X49700000Y-76000000D02*
X48300000Y-76000000D01*
X48300000Y-74000000D02*
X49700000Y-74000000D01*
G04 #@! TO.C,Q2*
X69700000Y-73750000D02*
X69700000Y-73500000D01*
X69700000Y-73750000D02*
X69450000Y-73500000D01*
X69450000Y-73500000D02*
X69950000Y-73500000D01*
X69950000Y-73500000D02*
X69700000Y-73750000D01*
X69400000Y-74000000D02*
X69400000Y-76000000D01*
X68600000Y-76000000D02*
X68600000Y-74000000D01*
X69700000Y-76000000D02*
X68300000Y-76000000D01*
X68300000Y-74000000D02*
X69700000Y-74000000D01*
G04 #@! TO.C,Q3*
X89700000Y-73750000D02*
X89700000Y-73500000D01*
X89700000Y-73750000D02*
X89450000Y-73500000D01*
X89450000Y-73500000D02*
X89950000Y-73500000D01*
X89950000Y-73500000D02*
X89700000Y-73750000D01*
X89400000Y-74000000D02*
X89400000Y-76000000D01*
X88600000Y-76000000D02*
X88600000Y-74000000D01*
X89700000Y-76000000D02*
X88300000Y-76000000D01*
X88300000Y-74000000D02*
X89700000Y-74000000D01*
G04 #@! TO.C,B9*
X45428000Y-48984000D02*
X42634000Y-48984000D01*
X45428000Y-51016000D02*
X42634000Y-51016000D01*
X46952000Y-48476000D02*
X50000000Y-48476000D01*
X46952000Y-46444000D02*
X50000000Y-46444000D01*
X45936000Y-47460000D02*
G75*
G02X46952000Y-46444000I1016000J0D01*
G01*
X46952000Y-48476000D02*
G75*
G02X45936000Y-47460000I0J1016000D01*
G01*
X46952000Y-51524000D02*
X50000000Y-51524000D01*
X46952000Y-53556000D02*
X50000000Y-53556000D01*
X45936000Y-52540000D02*
G75*
G02X46952000Y-51524000I1016000J0D01*
G01*
X46952000Y-53556000D02*
G75*
G02X45936000Y-52540000I0J1016000D01*
G01*
X45428000Y-48984000D02*
G75*
G02X46444000Y-50000000I0J-1016000D01*
G01*
X46444000Y-50000000D02*
G75*
G02X45428000Y-51016000I-1016000J0D01*
G01*
X40000000Y-54500000D02*
X39000000Y-53500000D01*
X40000000Y-45500000D02*
X39000000Y-46500000D01*
X52000000Y-41000000D02*
X51000000Y-40000000D01*
X42500000Y-41000000D02*
X43500000Y-40000000D01*
X42500000Y-59000000D02*
X43500000Y-60000000D01*
X52000000Y-59000000D02*
X51000000Y-60000000D01*
X40000000Y-45500000D02*
X40000000Y-54500000D01*
X42500000Y-41000000D02*
X52000000Y-41000000D01*
X52000000Y-59000000D02*
X42500000Y-59000000D01*
X42500000Y-54500000D02*
X39000000Y-54500000D01*
X39000000Y-54500000D02*
X39000000Y-50000000D01*
X39000000Y-50000000D02*
X39000000Y-45500000D01*
X39000000Y-45500000D02*
X42500000Y-45500000D01*
X42500000Y-51000000D02*
X42500000Y-60000000D01*
X42500000Y-60000000D02*
X52000000Y-60000000D01*
X42500000Y-40000000D02*
X42500000Y-49000000D01*
X52000000Y-40000000D02*
X42500000Y-40000000D01*
X52000000Y-40000000D02*
X52000000Y-50000000D01*
X52000000Y-50000000D02*
X52000000Y-60000000D01*
G04 #@! TO.C,B8*
X102572000Y-51016000D02*
X105366000Y-51016000D01*
X102572000Y-48984000D02*
X105366000Y-48984000D01*
X101048000Y-51524000D02*
X98000000Y-51524000D01*
X101048000Y-53556000D02*
X98000000Y-53556000D01*
X102064000Y-52540000D02*
G75*
G02X101048000Y-53556000I-1016000J0D01*
G01*
X101048000Y-51524000D02*
G75*
G02X102064000Y-52540000I0J-1016000D01*
G01*
X101048000Y-48476000D02*
X98000000Y-48476000D01*
X101048000Y-46444000D02*
X98000000Y-46444000D01*
X102064000Y-47460000D02*
G75*
G02X101048000Y-48476000I-1016000J0D01*
G01*
X101048000Y-46444000D02*
G75*
G02X102064000Y-47460000I0J-1016000D01*
G01*
X102572000Y-51016000D02*
G75*
G02X101556000Y-50000000I0J1016000D01*
G01*
X101556000Y-50000000D02*
G75*
G02X102572000Y-48984000I1016000J0D01*
G01*
X108000000Y-45500000D02*
X109000000Y-46500000D01*
X108000000Y-54500000D02*
X109000000Y-53500000D01*
X96000000Y-59000000D02*
X97000000Y-60000000D01*
X105500000Y-59000000D02*
X104500000Y-60000000D01*
X105500000Y-41000000D02*
X104500000Y-40000000D01*
X96000000Y-41000000D02*
X97000000Y-40000000D01*
X108000000Y-54500000D02*
X108000000Y-45500000D01*
X105500000Y-59000000D02*
X96000000Y-59000000D01*
X96000000Y-41000000D02*
X105500000Y-41000000D01*
X105500000Y-45500000D02*
X109000000Y-45500000D01*
X109000000Y-45500000D02*
X109000000Y-50000000D01*
X109000000Y-50000000D02*
X109000000Y-54500000D01*
X109000000Y-54500000D02*
X105500000Y-54500000D01*
X105500000Y-49000000D02*
X105500000Y-40000000D01*
X105500000Y-40000000D02*
X96000000Y-40000000D01*
X105500000Y-60000000D02*
X105500000Y-51000000D01*
X96000000Y-60000000D02*
X105500000Y-60000000D01*
X96000000Y-60000000D02*
X96000000Y-50000000D01*
X96000000Y-50000000D02*
X96000000Y-40000000D01*
G04 #@! TD*
G04 #@! TO.C,P10*
X95661904Y-78028571D02*
X94861904Y-78028571D01*
X94861904Y-78333333D01*
X94900000Y-78409523D01*
X94938095Y-78447619D01*
X95014285Y-78485714D01*
X95128571Y-78485714D01*
X95204761Y-78447619D01*
X95242857Y-78409523D01*
X95280952Y-78333333D01*
X95280952Y-78028571D01*
X95661904Y-79247619D02*
X95661904Y-78790476D01*
X95661904Y-79019047D02*
X94861904Y-79019047D01*
X94976190Y-78942857D01*
X95052380Y-78866666D01*
X95090476Y-78790476D01*
X94861904Y-79742857D02*
X94861904Y-79819047D01*
X94900000Y-79895238D01*
X94938095Y-79933333D01*
X95014285Y-79971428D01*
X95166666Y-80009523D01*
X95357142Y-80009523D01*
X95509523Y-79971428D01*
X95585714Y-79933333D01*
X95623809Y-79895238D01*
X95661904Y-79819047D01*
X95661904Y-79742857D01*
X95623809Y-79666666D01*
X95585714Y-79628571D01*
X95509523Y-79590476D01*
X95357142Y-79552380D01*
X95166666Y-79552380D01*
X95014285Y-79590476D01*
X94938095Y-79628571D01*
X94900000Y-79666666D01*
X94861904Y-79742857D01*
G04 #@! TO.C,P12*
X56161904Y-74028571D02*
X55361904Y-74028571D01*
X55361904Y-74333333D01*
X55400000Y-74409523D01*
X55438095Y-74447619D01*
X55514285Y-74485714D01*
X55628571Y-74485714D01*
X55704761Y-74447619D01*
X55742857Y-74409523D01*
X55780952Y-74333333D01*
X55780952Y-74028571D01*
X56161904Y-75247619D02*
X56161904Y-74790476D01*
X56161904Y-75019047D02*
X55361904Y-75019047D01*
X55476190Y-74942857D01*
X55552380Y-74866666D01*
X55590476Y-74790476D01*
X55438095Y-75552380D02*
X55400000Y-75590476D01*
X55361904Y-75666666D01*
X55361904Y-75857142D01*
X55400000Y-75933333D01*
X55438095Y-75971428D01*
X55514285Y-76009523D01*
X55590476Y-76009523D01*
X55704761Y-75971428D01*
X56161904Y-75514285D01*
X56161904Y-76009523D01*
G04 #@! TO.C,P14*
X95761904Y-70028571D02*
X94961904Y-70028571D01*
X94961904Y-70333333D01*
X95000000Y-70409523D01*
X95038095Y-70447619D01*
X95114285Y-70485714D01*
X95228571Y-70485714D01*
X95304761Y-70447619D01*
X95342857Y-70409523D01*
X95380952Y-70333333D01*
X95380952Y-70028571D01*
X95761904Y-71247619D02*
X95761904Y-70790476D01*
X95761904Y-71019047D02*
X94961904Y-71019047D01*
X95076190Y-70942857D01*
X95152380Y-70866666D01*
X95190476Y-70790476D01*
X95228571Y-71933333D02*
X95761904Y-71933333D01*
X94923809Y-71742857D02*
X95495238Y-71552380D01*
X95495238Y-72047619D01*
G04 #@! TO.C,R8*
X50661904Y-78466666D02*
X50280952Y-78200000D01*
X50661904Y-78009523D02*
X49861904Y-78009523D01*
X49861904Y-78314285D01*
X49900000Y-78390476D01*
X49938095Y-78428571D01*
X50014285Y-78466666D01*
X50128571Y-78466666D01*
X50204761Y-78428571D01*
X50242857Y-78390476D01*
X50280952Y-78314285D01*
X50280952Y-78009523D01*
X50204761Y-78923809D02*
X50166666Y-78847619D01*
X50128571Y-78809523D01*
X50052380Y-78771428D01*
X50014285Y-78771428D01*
X49938095Y-78809523D01*
X49900000Y-78847619D01*
X49861904Y-78923809D01*
X49861904Y-79076190D01*
X49900000Y-79152380D01*
X49938095Y-79190476D01*
X50014285Y-79228571D01*
X50052380Y-79228571D01*
X50128571Y-79190476D01*
X50166666Y-79152380D01*
X50204761Y-79076190D01*
X50204761Y-78923809D01*
X50242857Y-78847619D01*
X50280952Y-78809523D01*
X50357142Y-78771428D01*
X50509523Y-78771428D01*
X50585714Y-78809523D01*
X50623809Y-78847619D01*
X50661904Y-78923809D01*
X50661904Y-79076190D01*
X50623809Y-79152380D01*
X50585714Y-79190476D01*
X50509523Y-79228571D01*
X50357142Y-79228571D01*
X50280952Y-79190476D01*
X50242857Y-79152380D01*
X50204761Y-79076190D01*
G04 #@! TO.C,C1*
X65085714Y-57766666D02*
X65123809Y-57728571D01*
X65161904Y-57614285D01*
X65161904Y-57538095D01*
X65123809Y-57423809D01*
X65047619Y-57347619D01*
X64971428Y-57309523D01*
X64819047Y-57271428D01*
X64704761Y-57271428D01*
X64552380Y-57309523D01*
X64476190Y-57347619D01*
X64400000Y-57423809D01*
X64361904Y-57538095D01*
X64361904Y-57614285D01*
X64400000Y-57728571D01*
X64438095Y-57766666D01*
X65161904Y-58528571D02*
X65161904Y-58071428D01*
X65161904Y-58300000D02*
X64361904Y-58300000D01*
X64476190Y-58223809D01*
X64552380Y-58147619D01*
X64590476Y-58071428D01*
G04 #@! TO.C,C2*
X57785714Y-57866666D02*
X57823809Y-57828571D01*
X57861904Y-57714285D01*
X57861904Y-57638095D01*
X57823809Y-57523809D01*
X57747619Y-57447619D01*
X57671428Y-57409523D01*
X57519047Y-57371428D01*
X57404761Y-57371428D01*
X57252380Y-57409523D01*
X57176190Y-57447619D01*
X57100000Y-57523809D01*
X57061904Y-57638095D01*
X57061904Y-57714285D01*
X57100000Y-57828571D01*
X57138095Y-57866666D01*
X57138095Y-58171428D02*
X57100000Y-58209523D01*
X57061904Y-58285714D01*
X57061904Y-58476190D01*
X57100000Y-58552380D01*
X57138095Y-58590476D01*
X57214285Y-58628571D01*
X57290476Y-58628571D01*
X57404761Y-58590476D01*
X57861904Y-58133333D01*
X57861904Y-58628571D01*
G04 #@! TO.C,C3*
X74785714Y-57366666D02*
X74823809Y-57328571D01*
X74861904Y-57214285D01*
X74861904Y-57138095D01*
X74823809Y-57023809D01*
X74747619Y-56947619D01*
X74671428Y-56909523D01*
X74519047Y-56871428D01*
X74404761Y-56871428D01*
X74252380Y-56909523D01*
X74176190Y-56947619D01*
X74100000Y-57023809D01*
X74061904Y-57138095D01*
X74061904Y-57214285D01*
X74100000Y-57328571D01*
X74138095Y-57366666D01*
X74061904Y-57633333D02*
X74061904Y-58128571D01*
X74366666Y-57861904D01*
X74366666Y-57976190D01*
X74404761Y-58052380D01*
X74442857Y-58090476D01*
X74519047Y-58128571D01*
X74709523Y-58128571D01*
X74785714Y-58090476D01*
X74823809Y-58052380D01*
X74861904Y-57976190D01*
X74861904Y-57747619D01*
X74823809Y-57671428D01*
X74785714Y-57633333D01*
G04 #@! TO.C,C4*
X83035714Y-57366666D02*
X83073809Y-57328571D01*
X83111904Y-57214285D01*
X83111904Y-57138095D01*
X83073809Y-57023809D01*
X82997619Y-56947619D01*
X82921428Y-56909523D01*
X82769047Y-56871428D01*
X82654761Y-56871428D01*
X82502380Y-56909523D01*
X82426190Y-56947619D01*
X82350000Y-57023809D01*
X82311904Y-57138095D01*
X82311904Y-57214285D01*
X82350000Y-57328571D01*
X82388095Y-57366666D01*
X82578571Y-58052380D02*
X83111904Y-58052380D01*
X82273809Y-57861904D02*
X82845238Y-57671428D01*
X82845238Y-58166666D01*
G04 #@! TO.C,C9*
X84785714Y-51366666D02*
X84823809Y-51328571D01*
X84861904Y-51214285D01*
X84861904Y-51138095D01*
X84823809Y-51023809D01*
X84747619Y-50947619D01*
X84671428Y-50909523D01*
X84519047Y-50871428D01*
X84404761Y-50871428D01*
X84252380Y-50909523D01*
X84176190Y-50947619D01*
X84100000Y-51023809D01*
X84061904Y-51138095D01*
X84061904Y-51214285D01*
X84100000Y-51328571D01*
X84138095Y-51366666D01*
X84861904Y-51747619D02*
X84861904Y-51900000D01*
X84823809Y-51976190D01*
X84785714Y-52014285D01*
X84671428Y-52090476D01*
X84519047Y-52128571D01*
X84214285Y-52128571D01*
X84138095Y-52090476D01*
X84100000Y-52052380D01*
X84061904Y-51976190D01*
X84061904Y-51823809D01*
X84100000Y-51747619D01*
X84138095Y-51709523D01*
X84214285Y-51671428D01*
X84404761Y-51671428D01*
X84480952Y-51709523D01*
X84519047Y-51747619D01*
X84557142Y-51823809D01*
X84557142Y-51976190D01*
X84519047Y-52052380D01*
X84480952Y-52090476D01*
X84404761Y-52128571D01*
G04 #@! TO.C,C11*
X84685714Y-53485714D02*
X84723809Y-53447619D01*
X84761904Y-53333333D01*
X84761904Y-53257142D01*
X84723809Y-53142857D01*
X84647619Y-53066666D01*
X84571428Y-53028571D01*
X84419047Y-52990476D01*
X84304761Y-52990476D01*
X84152380Y-53028571D01*
X84076190Y-53066666D01*
X84000000Y-53142857D01*
X83961904Y-53257142D01*
X83961904Y-53333333D01*
X84000000Y-53447619D01*
X84038095Y-53485714D01*
X84761904Y-54247619D02*
X84761904Y-53790476D01*
X84761904Y-54019047D02*
X83961904Y-54019047D01*
X84076190Y-53942857D01*
X84152380Y-53866666D01*
X84190476Y-53790476D01*
X84761904Y-55009523D02*
X84761904Y-54552380D01*
X84761904Y-54780952D02*
X83961904Y-54780952D01*
X84076190Y-54704761D01*
X84152380Y-54628571D01*
X84190476Y-54552380D01*
G04 #@! TO.C,C10*
X90035714Y-47485714D02*
X90073809Y-47447619D01*
X90111904Y-47333333D01*
X90111904Y-47257142D01*
X90073809Y-47142857D01*
X89997619Y-47066666D01*
X89921428Y-47028571D01*
X89769047Y-46990476D01*
X89654761Y-46990476D01*
X89502380Y-47028571D01*
X89426190Y-47066666D01*
X89350000Y-47142857D01*
X89311904Y-47257142D01*
X89311904Y-47333333D01*
X89350000Y-47447619D01*
X89388095Y-47485714D01*
X90111904Y-48247619D02*
X90111904Y-47790476D01*
X90111904Y-48019047D02*
X89311904Y-48019047D01*
X89426190Y-47942857D01*
X89502380Y-47866666D01*
X89540476Y-47790476D01*
X89311904Y-48742857D02*
X89311904Y-48819047D01*
X89350000Y-48895238D01*
X89388095Y-48933333D01*
X89464285Y-48971428D01*
X89616666Y-49009523D01*
X89807142Y-49009523D01*
X89959523Y-48971428D01*
X90035714Y-48933333D01*
X90073809Y-48895238D01*
X90111904Y-48819047D01*
X90111904Y-48742857D01*
X90073809Y-48666666D01*
X90035714Y-48628571D01*
X89959523Y-48590476D01*
X89807142Y-48552380D01*
X89616666Y-48552380D01*
X89464285Y-48590476D01*
X89388095Y-48628571D01*
X89350000Y-48666666D01*
X89311904Y-48742857D01*
G04 #@! TO.C,R2*
X79861904Y-43866666D02*
X79480952Y-43600000D01*
X79861904Y-43409523D02*
X79061904Y-43409523D01*
X79061904Y-43714285D01*
X79100000Y-43790476D01*
X79138095Y-43828571D01*
X79214285Y-43866666D01*
X79328571Y-43866666D01*
X79404761Y-43828571D01*
X79442857Y-43790476D01*
X79480952Y-43714285D01*
X79480952Y-43409523D01*
X79138095Y-44171428D02*
X79100000Y-44209523D01*
X79061904Y-44285714D01*
X79061904Y-44476190D01*
X79100000Y-44552380D01*
X79138095Y-44590476D01*
X79214285Y-44628571D01*
X79290476Y-44628571D01*
X79404761Y-44590476D01*
X79861904Y-44133333D01*
X79861904Y-44628571D01*
G04 #@! TO.C,R3*
X82361904Y-43866666D02*
X81980952Y-43600000D01*
X82361904Y-43409523D02*
X81561904Y-43409523D01*
X81561904Y-43714285D01*
X81600000Y-43790476D01*
X81638095Y-43828571D01*
X81714285Y-43866666D01*
X81828571Y-43866666D01*
X81904761Y-43828571D01*
X81942857Y-43790476D01*
X81980952Y-43714285D01*
X81980952Y-43409523D01*
X81561904Y-44133333D02*
X81561904Y-44628571D01*
X81866666Y-44361904D01*
X81866666Y-44476190D01*
X81904761Y-44552380D01*
X81942857Y-44590476D01*
X82019047Y-44628571D01*
X82209523Y-44628571D01*
X82285714Y-44590476D01*
X82323809Y-44552380D01*
X82361904Y-44476190D01*
X82361904Y-44247619D01*
X82323809Y-44171428D01*
X82285714Y-44133333D01*
G04 #@! TO.C,U1*
X75811904Y-54390476D02*
X76459523Y-54390476D01*
X76535714Y-54428571D01*
X76573809Y-54466666D01*
X76611904Y-54542857D01*
X76611904Y-54695238D01*
X76573809Y-54771428D01*
X76535714Y-54809523D01*
X76459523Y-54847619D01*
X75811904Y-54847619D01*
X76611904Y-55647619D02*
X76611904Y-55190476D01*
X76611904Y-55419047D02*
X75811904Y-55419047D01*
X75926190Y-55342857D01*
X76002380Y-55266666D01*
X76040476Y-55190476D01*
G04 #@! TO.C,U4*
X83561904Y-45690476D02*
X84209523Y-45690476D01*
X84285714Y-45728571D01*
X84323809Y-45766666D01*
X84361904Y-45842857D01*
X84361904Y-45995238D01*
X84323809Y-46071428D01*
X84285714Y-46109523D01*
X84209523Y-46147619D01*
X83561904Y-46147619D01*
X83828571Y-46871428D02*
X84361904Y-46871428D01*
X83523809Y-46680952D02*
X84095238Y-46490476D01*
X84095238Y-46985714D01*
X79833333Y-47561904D02*
X79833333Y-47942857D01*
X80061904Y-47485714D02*
X79261904Y-47752380D01*
X80061904Y-48019047D01*
X80061904Y-48285714D02*
X79261904Y-48285714D01*
X79261904Y-48476190D01*
X79300000Y-48590476D01*
X79376190Y-48666666D01*
X79452380Y-48704761D01*
X79604761Y-48742857D01*
X79719047Y-48742857D01*
X79871428Y-48704761D01*
X79947619Y-48666666D01*
X80023809Y-48590476D01*
X80061904Y-48476190D01*
X80061904Y-48285714D01*
X79261904Y-49009523D02*
X80061904Y-49542857D01*
X79261904Y-49542857D02*
X80061904Y-49009523D01*
X80061904Y-50228571D02*
X80061904Y-49847619D01*
X79261904Y-49847619D01*
X79261904Y-50419047D02*
X79261904Y-50914285D01*
X79566666Y-50647619D01*
X79566666Y-50761904D01*
X79604761Y-50838095D01*
X79642857Y-50876190D01*
X79719047Y-50914285D01*
X79909523Y-50914285D01*
X79985714Y-50876190D01*
X80023809Y-50838095D01*
X80061904Y-50761904D01*
X80061904Y-50533333D01*
X80023809Y-50457142D01*
X79985714Y-50419047D01*
X79528571Y-51600000D02*
X80061904Y-51600000D01*
X79223809Y-51409523D02*
X79795238Y-51219047D01*
X79795238Y-51714285D01*
X79261904Y-52400000D02*
X79261904Y-52019047D01*
X79642857Y-51980952D01*
X79604761Y-52019047D01*
X79566666Y-52095238D01*
X79566666Y-52285714D01*
X79604761Y-52361904D01*
X79642857Y-52400000D01*
X79719047Y-52438095D01*
X79909523Y-52438095D01*
X79985714Y-52400000D01*
X80023809Y-52361904D01*
X80061904Y-52285714D01*
X80061904Y-52095238D01*
X80023809Y-52019047D01*
X79985714Y-51980952D01*
G04 #@! TO.C,X1*
X56861904Y-54852380D02*
X57661904Y-55385714D01*
X56861904Y-55385714D02*
X57661904Y-54852380D01*
X57661904Y-56109523D02*
X57661904Y-55652380D01*
X57661904Y-55880952D02*
X56861904Y-55880952D01*
X56976190Y-55804761D01*
X57052380Y-55728571D01*
X57090476Y-55652380D01*
X56104761Y-55023809D02*
X56066666Y-54947619D01*
X56028571Y-54909523D01*
X55952380Y-54871428D01*
X55914285Y-54871428D01*
X55838095Y-54909523D01*
X55800000Y-54947619D01*
X55761904Y-55023809D01*
X55761904Y-55176190D01*
X55800000Y-55252380D01*
X55838095Y-55290476D01*
X55914285Y-55328571D01*
X55952380Y-55328571D01*
X56028571Y-55290476D01*
X56066666Y-55252380D01*
X56104761Y-55176190D01*
X56104761Y-55023809D01*
X56142857Y-54947619D01*
X56180952Y-54909523D01*
X56257142Y-54871428D01*
X56409523Y-54871428D01*
X56485714Y-54909523D01*
X56523809Y-54947619D01*
X56561904Y-55023809D01*
X56561904Y-55176190D01*
X56523809Y-55252380D01*
X56485714Y-55290476D01*
X56409523Y-55328571D01*
X56257142Y-55328571D01*
X56180952Y-55290476D01*
X56142857Y-55252380D01*
X56104761Y-55176190D01*
X56561904Y-55671428D02*
X55761904Y-55671428D01*
X56333333Y-55938095D01*
X55761904Y-56204761D01*
X56561904Y-56204761D01*
X56561904Y-56585714D02*
X55761904Y-56585714D01*
X56142857Y-56585714D02*
X56142857Y-57042857D01*
X56561904Y-57042857D02*
X55761904Y-57042857D01*
X56028571Y-57347619D02*
X56028571Y-57766666D01*
X56561904Y-57347619D01*
X56561904Y-57766666D01*
G04 #@! TO.C,P9*
X88840476Y-40361904D02*
X88840476Y-39561904D01*
X88535714Y-39561904D01*
X88459523Y-39600000D01*
X88421428Y-39638095D01*
X88383333Y-39714285D01*
X88383333Y-39828571D01*
X88421428Y-39904761D01*
X88459523Y-39942857D01*
X88535714Y-39980952D01*
X88840476Y-39980952D01*
X88002380Y-40361904D02*
X87850000Y-40361904D01*
X87773809Y-40323809D01*
X87735714Y-40285714D01*
X87659523Y-40171428D01*
X87621428Y-40019047D01*
X87621428Y-39714285D01*
X87659523Y-39638095D01*
X87697619Y-39600000D01*
X87773809Y-39561904D01*
X87926190Y-39561904D01*
X88002380Y-39600000D01*
X88040476Y-39638095D01*
X88078571Y-39714285D01*
X88078571Y-39904761D01*
X88040476Y-39980952D01*
X88002380Y-40019047D01*
X87926190Y-40057142D01*
X87773809Y-40057142D01*
X87697619Y-40019047D01*
X87659523Y-39980952D01*
X87621428Y-39904761D01*
X94304761Y-43692857D02*
X94038095Y-43692857D01*
X93923809Y-44111904D02*
X94304761Y-44111904D01*
X94304761Y-43311904D01*
X93923809Y-43311904D01*
X93657142Y-44111904D02*
X93238095Y-43578571D01*
X93657142Y-43578571D02*
X93238095Y-44111904D01*
X93047619Y-43578571D02*
X92742857Y-43578571D01*
X92933333Y-43311904D02*
X92933333Y-43997619D01*
X92895238Y-44073809D01*
X92819047Y-44111904D01*
X92742857Y-44111904D01*
X92666666Y-44188095D02*
X92057142Y-44188095D01*
X91485714Y-44111904D02*
X91866666Y-44111904D01*
X91866666Y-43311904D01*
X91219047Y-44111904D02*
X91219047Y-43578571D01*
X91219047Y-43311904D02*
X91257142Y-43350000D01*
X91219047Y-43388095D01*
X91180952Y-43350000D01*
X91219047Y-43311904D01*
X91219047Y-43388095D01*
X90838095Y-44111904D02*
X90838095Y-43311904D01*
X90533333Y-43311904D01*
X90457142Y-43350000D01*
X90419047Y-43388095D01*
X90380952Y-43464285D01*
X90380952Y-43578571D01*
X90419047Y-43654761D01*
X90457142Y-43692857D01*
X90533333Y-43730952D01*
X90838095Y-43730952D01*
X89923809Y-44111904D02*
X90000000Y-44073809D01*
X90038095Y-44035714D01*
X90076190Y-43959523D01*
X90076190Y-43730952D01*
X90038095Y-43654761D01*
X90000000Y-43616666D01*
X89923809Y-43578571D01*
X89809523Y-43578571D01*
X89733333Y-43616666D01*
X89695238Y-43654761D01*
X89657142Y-43730952D01*
X89657142Y-43959523D01*
X89695238Y-44035714D01*
X89733333Y-44073809D01*
X89809523Y-44111904D01*
X89923809Y-44111904D01*
G04 #@! TO.C,P13*
X56161904Y-71428571D02*
X55361904Y-71428571D01*
X55361904Y-71733333D01*
X55400000Y-71809523D01*
X55438095Y-71847619D01*
X55514285Y-71885714D01*
X55628571Y-71885714D01*
X55704761Y-71847619D01*
X55742857Y-71809523D01*
X55780952Y-71733333D01*
X55780952Y-71428571D01*
X56161904Y-72647619D02*
X56161904Y-72190476D01*
X56161904Y-72419047D02*
X55361904Y-72419047D01*
X55476190Y-72342857D01*
X55552380Y-72266666D01*
X55590476Y-72190476D01*
X55361904Y-72914285D02*
X55361904Y-73409523D01*
X55666666Y-73142857D01*
X55666666Y-73257142D01*
X55704761Y-73333333D01*
X55742857Y-73371428D01*
X55819047Y-73409523D01*
X56009523Y-73409523D01*
X56085714Y-73371428D01*
X56123809Y-73333333D01*
X56161904Y-73257142D01*
X56161904Y-73028571D01*
X56123809Y-72952380D01*
X56085714Y-72914285D01*
G04 #@! TO.C,P11*
X56161904Y-76628571D02*
X55361904Y-76628571D01*
X55361904Y-76933333D01*
X55400000Y-77009523D01*
X55438095Y-77047619D01*
X55514285Y-77085714D01*
X55628571Y-77085714D01*
X55704761Y-77047619D01*
X55742857Y-77009523D01*
X55780952Y-76933333D01*
X55780952Y-76628571D01*
X56161904Y-77847619D02*
X56161904Y-77390476D01*
X56161904Y-77619047D02*
X55361904Y-77619047D01*
X55476190Y-77542857D01*
X55552380Y-77466666D01*
X55590476Y-77390476D01*
X56161904Y-78609523D02*
X56161904Y-78152380D01*
X56161904Y-78380952D02*
X55361904Y-78380952D01*
X55476190Y-78304761D01*
X55552380Y-78228571D01*
X55590476Y-78152380D01*
G04 #@! TO.C,R7*
X48261904Y-78466666D02*
X47880952Y-78200000D01*
X48261904Y-78009523D02*
X47461904Y-78009523D01*
X47461904Y-78314285D01*
X47500000Y-78390476D01*
X47538095Y-78428571D01*
X47614285Y-78466666D01*
X47728571Y-78466666D01*
X47804761Y-78428571D01*
X47842857Y-78390476D01*
X47880952Y-78314285D01*
X47880952Y-78009523D01*
X47461904Y-78733333D02*
X47461904Y-79266666D01*
X48261904Y-78923809D01*
G04 #@! TO.C,R9*
X68161904Y-78366666D02*
X67780952Y-78100000D01*
X68161904Y-77909523D02*
X67361904Y-77909523D01*
X67361904Y-78214285D01*
X67400000Y-78290476D01*
X67438095Y-78328571D01*
X67514285Y-78366666D01*
X67628571Y-78366666D01*
X67704761Y-78328571D01*
X67742857Y-78290476D01*
X67780952Y-78214285D01*
X67780952Y-77909523D01*
X68161904Y-78747619D02*
X68161904Y-78900000D01*
X68123809Y-78976190D01*
X68085714Y-79014285D01*
X67971428Y-79090476D01*
X67819047Y-79128571D01*
X67514285Y-79128571D01*
X67438095Y-79090476D01*
X67400000Y-79052380D01*
X67361904Y-78976190D01*
X67361904Y-78823809D01*
X67400000Y-78747619D01*
X67438095Y-78709523D01*
X67514285Y-78671428D01*
X67704761Y-78671428D01*
X67780952Y-78709523D01*
X67819047Y-78747619D01*
X67857142Y-78823809D01*
X67857142Y-78976190D01*
X67819047Y-79052380D01*
X67780952Y-79090476D01*
X67704761Y-79128571D01*
G04 #@! TO.C,R10*
X70761904Y-77985714D02*
X70380952Y-77719047D01*
X70761904Y-77528571D02*
X69961904Y-77528571D01*
X69961904Y-77833333D01*
X70000000Y-77909523D01*
X70038095Y-77947619D01*
X70114285Y-77985714D01*
X70228571Y-77985714D01*
X70304761Y-77947619D01*
X70342857Y-77909523D01*
X70380952Y-77833333D01*
X70380952Y-77528571D01*
X70761904Y-78747619D02*
X70761904Y-78290476D01*
X70761904Y-78519047D02*
X69961904Y-78519047D01*
X70076190Y-78442857D01*
X70152380Y-78366666D01*
X70190476Y-78290476D01*
X69961904Y-79242857D02*
X69961904Y-79319047D01*
X70000000Y-79395238D01*
X70038095Y-79433333D01*
X70114285Y-79471428D01*
X70266666Y-79509523D01*
X70457142Y-79509523D01*
X70609523Y-79471428D01*
X70685714Y-79433333D01*
X70723809Y-79395238D01*
X70761904Y-79319047D01*
X70761904Y-79242857D01*
X70723809Y-79166666D01*
X70685714Y-79128571D01*
X70609523Y-79090476D01*
X70457142Y-79052380D01*
X70266666Y-79052380D01*
X70114285Y-79090476D01*
X70038095Y-79128571D01*
X70000000Y-79166666D01*
X69961904Y-79242857D01*
G04 #@! TO.C,R11*
X86061904Y-77985714D02*
X85680952Y-77719047D01*
X86061904Y-77528571D02*
X85261904Y-77528571D01*
X85261904Y-77833333D01*
X85300000Y-77909523D01*
X85338095Y-77947619D01*
X85414285Y-77985714D01*
X85528571Y-77985714D01*
X85604761Y-77947619D01*
X85642857Y-77909523D01*
X85680952Y-77833333D01*
X85680952Y-77528571D01*
X86061904Y-78747619D02*
X86061904Y-78290476D01*
X86061904Y-78519047D02*
X85261904Y-78519047D01*
X85376190Y-78442857D01*
X85452380Y-78366666D01*
X85490476Y-78290476D01*
X86061904Y-79509523D02*
X86061904Y-79052380D01*
X86061904Y-79280952D02*
X85261904Y-79280952D01*
X85376190Y-79204761D01*
X85452380Y-79128571D01*
X85490476Y-79052380D01*
G04 #@! TO.C,R12*
X97061904Y-77985714D02*
X96680952Y-77719047D01*
X97061904Y-77528571D02*
X96261904Y-77528571D01*
X96261904Y-77833333D01*
X96300000Y-77909523D01*
X96338095Y-77947619D01*
X96414285Y-77985714D01*
X96528571Y-77985714D01*
X96604761Y-77947619D01*
X96642857Y-77909523D01*
X96680952Y-77833333D01*
X96680952Y-77528571D01*
X97061904Y-78747619D02*
X97061904Y-78290476D01*
X97061904Y-78519047D02*
X96261904Y-78519047D01*
X96376190Y-78442857D01*
X96452380Y-78366666D01*
X96490476Y-78290476D01*
X96338095Y-79052380D02*
X96300000Y-79090476D01*
X96261904Y-79166666D01*
X96261904Y-79357142D01*
X96300000Y-79433333D01*
X96338095Y-79471428D01*
X96414285Y-79509523D01*
X96490476Y-79509523D01*
X96604761Y-79471428D01*
X97061904Y-79014285D01*
X97061904Y-79509523D01*
G04 #@! TO.C,Q1*
X49438095Y-72423809D02*
X49400000Y-72347619D01*
X49323809Y-72271428D01*
X49209523Y-72157142D01*
X49171428Y-72080952D01*
X49171428Y-72004761D01*
X49361904Y-72042857D02*
X49323809Y-71966666D01*
X49247619Y-71890476D01*
X49095238Y-71852380D01*
X48828571Y-71852380D01*
X48676190Y-71890476D01*
X48600000Y-71966666D01*
X48561904Y-72042857D01*
X48561904Y-72195238D01*
X48600000Y-72271428D01*
X48676190Y-72347619D01*
X48828571Y-72385714D01*
X49095238Y-72385714D01*
X49247619Y-72347619D01*
X49323809Y-72271428D01*
X49361904Y-72195238D01*
X49361904Y-72042857D01*
X49361904Y-73147619D02*
X49361904Y-72690476D01*
X49361904Y-72919047D02*
X48561904Y-72919047D01*
X48676190Y-72842857D01*
X48752380Y-72766666D01*
X48790476Y-72690476D01*
G04 #@! TO.C,Q2*
X69438095Y-72423809D02*
X69400000Y-72347619D01*
X69323809Y-72271428D01*
X69209523Y-72157142D01*
X69171428Y-72080952D01*
X69171428Y-72004761D01*
X69361904Y-72042857D02*
X69323809Y-71966666D01*
X69247619Y-71890476D01*
X69095238Y-71852380D01*
X68828571Y-71852380D01*
X68676190Y-71890476D01*
X68600000Y-71966666D01*
X68561904Y-72042857D01*
X68561904Y-72195238D01*
X68600000Y-72271428D01*
X68676190Y-72347619D01*
X68828571Y-72385714D01*
X69095238Y-72385714D01*
X69247619Y-72347619D01*
X69323809Y-72271428D01*
X69361904Y-72195238D01*
X69361904Y-72042857D01*
X68638095Y-72690476D02*
X68600000Y-72728571D01*
X68561904Y-72804761D01*
X68561904Y-72995238D01*
X68600000Y-73071428D01*
X68638095Y-73109523D01*
X68714285Y-73147619D01*
X68790476Y-73147619D01*
X68904761Y-73109523D01*
X69361904Y-72652380D01*
X69361904Y-73147619D01*
G04 #@! TO.C,Q3*
X89438095Y-72423809D02*
X89400000Y-72347619D01*
X89323809Y-72271428D01*
X89209523Y-72157142D01*
X89171428Y-72080952D01*
X89171428Y-72004761D01*
X89361904Y-72042857D02*
X89323809Y-71966666D01*
X89247619Y-71890476D01*
X89095238Y-71852380D01*
X88828571Y-71852380D01*
X88676190Y-71890476D01*
X88600000Y-71966666D01*
X88561904Y-72042857D01*
X88561904Y-72195238D01*
X88600000Y-72271428D01*
X88676190Y-72347619D01*
X88828571Y-72385714D01*
X89095238Y-72385714D01*
X89247619Y-72347619D01*
X89323809Y-72271428D01*
X89361904Y-72195238D01*
X89361904Y-72042857D01*
X88561904Y-72652380D02*
X88561904Y-73147619D01*
X88866666Y-72880952D01*
X88866666Y-72995238D01*
X88904761Y-73071428D01*
X88942857Y-73109523D01*
X89019047Y-73147619D01*
X89209523Y-73147619D01*
X89285714Y-73109523D01*
X89323809Y-73071428D01*
X89361904Y-72995238D01*
X89361904Y-72766666D01*
X89323809Y-72690476D01*
X89285714Y-72652380D01*
G04 #@! TO.C,B9*
X53498857Y-49676190D02*
X53536952Y-49790476D01*
X53575047Y-49828571D01*
X53651238Y-49866666D01*
X53765523Y-49866666D01*
X53841714Y-49828571D01*
X53879809Y-49790476D01*
X53917904Y-49714285D01*
X53917904Y-49409523D01*
X53117904Y-49409523D01*
X53117904Y-49676190D01*
X53156000Y-49752380D01*
X53194095Y-49790476D01*
X53270285Y-49828571D01*
X53346476Y-49828571D01*
X53422666Y-49790476D01*
X53460761Y-49752380D01*
X53498857Y-49676190D01*
X53498857Y-49409523D01*
X53917904Y-50247619D02*
X53917904Y-50400000D01*
X53879809Y-50476190D01*
X53841714Y-50514285D01*
X53727428Y-50590476D01*
X53575047Y-50628571D01*
X53270285Y-50628571D01*
X53194095Y-50590476D01*
X53156000Y-50552380D01*
X53117904Y-50476190D01*
X53117904Y-50323809D01*
X53156000Y-50247619D01*
X53194095Y-50209523D01*
X53270285Y-50171428D01*
X53460761Y-50171428D01*
X53536952Y-50209523D01*
X53575047Y-50247619D01*
X53613142Y-50323809D01*
X53613142Y-50476190D01*
X53575047Y-50552380D01*
X53536952Y-50590476D01*
X53460761Y-50628571D01*
X51200000Y-39361904D02*
X51580952Y-39361904D01*
X51580952Y-38561904D01*
X50933333Y-39361904D02*
X50933333Y-38828571D01*
X50933333Y-38561904D02*
X50971428Y-38600000D01*
X50933333Y-38638095D01*
X50895238Y-38600000D01*
X50933333Y-38561904D01*
X50933333Y-38638095D01*
X50552380Y-39361904D02*
X50552380Y-38561904D01*
X50247619Y-38561904D01*
X50171428Y-38600000D01*
X50133333Y-38638095D01*
X50095238Y-38714285D01*
X50095238Y-38828571D01*
X50133333Y-38904761D01*
X50171428Y-38942857D01*
X50247619Y-38980952D01*
X50552380Y-38980952D01*
X49638095Y-39361904D02*
X49714285Y-39323809D01*
X49752380Y-39285714D01*
X49790476Y-39209523D01*
X49790476Y-38980952D01*
X49752380Y-38904761D01*
X49714285Y-38866666D01*
X49638095Y-38828571D01*
X49523809Y-38828571D01*
X49447619Y-38866666D01*
X49409523Y-38904761D01*
X49371428Y-38980952D01*
X49371428Y-39209523D01*
X49409523Y-39285714D01*
X49447619Y-39323809D01*
X49523809Y-39361904D01*
X49638095Y-39361904D01*
X49028571Y-39057142D02*
X48419047Y-39057142D01*
G04 #@! TO.C,B8*
X94386857Y-49676190D02*
X94424952Y-49790476D01*
X94463047Y-49828571D01*
X94539238Y-49866666D01*
X94653523Y-49866666D01*
X94729714Y-49828571D01*
X94767809Y-49790476D01*
X94805904Y-49714285D01*
X94805904Y-49409523D01*
X94005904Y-49409523D01*
X94005904Y-49676190D01*
X94044000Y-49752380D01*
X94082095Y-49790476D01*
X94158285Y-49828571D01*
X94234476Y-49828571D01*
X94310666Y-49790476D01*
X94348761Y-49752380D01*
X94386857Y-49676190D01*
X94386857Y-49409523D01*
X94348761Y-50323809D02*
X94310666Y-50247619D01*
X94272571Y-50209523D01*
X94196380Y-50171428D01*
X94158285Y-50171428D01*
X94082095Y-50209523D01*
X94044000Y-50247619D01*
X94005904Y-50323809D01*
X94005904Y-50476190D01*
X94044000Y-50552380D01*
X94082095Y-50590476D01*
X94158285Y-50628571D01*
X94196380Y-50628571D01*
X94272571Y-50590476D01*
X94310666Y-50552380D01*
X94348761Y-50476190D01*
X94348761Y-50323809D01*
X94386857Y-50247619D01*
X94424952Y-50209523D01*
X94501142Y-50171428D01*
X94653523Y-50171428D01*
X94729714Y-50209523D01*
X94767809Y-50247619D01*
X94805904Y-50323809D01*
X94805904Y-50476190D01*
X94767809Y-50552380D01*
X94729714Y-50590476D01*
X94653523Y-50628571D01*
X94501142Y-50628571D01*
X94424952Y-50590476D01*
X94386857Y-50552380D01*
X94348761Y-50476190D01*
X99200000Y-61361904D02*
X99580952Y-61361904D01*
X99580952Y-60561904D01*
X98933333Y-61361904D02*
X98933333Y-60828571D01*
X98933333Y-60561904D02*
X98971428Y-60600000D01*
X98933333Y-60638095D01*
X98895238Y-60600000D01*
X98933333Y-60561904D01*
X98933333Y-60638095D01*
X98552380Y-61361904D02*
X98552380Y-60561904D01*
X98247619Y-60561904D01*
X98171428Y-60600000D01*
X98133333Y-60638095D01*
X98095238Y-60714285D01*
X98095238Y-60828571D01*
X98133333Y-60904761D01*
X98171428Y-60942857D01*
X98247619Y-60980952D01*
X98552380Y-60980952D01*
X97638095Y-61361904D02*
X97714285Y-61323809D01*
X97752380Y-61285714D01*
X97790476Y-61209523D01*
X97790476Y-60980952D01*
X97752380Y-60904761D01*
X97714285Y-60866666D01*
X97638095Y-60828571D01*
X97523809Y-60828571D01*
X97447619Y-60866666D01*
X97409523Y-60904761D01*
X97371428Y-60980952D01*
X97371428Y-61209523D01*
X97409523Y-61285714D01*
X97447619Y-61323809D01*
X97523809Y-61361904D01*
X97638095Y-61361904D01*
X97028571Y-61057142D02*
X96419047Y-61057142D01*
X96723809Y-61361904D02*
X96723809Y-60752380D01*
G04 #@! TD*
%LPC*%
D14*
G04 #@! TO.C,P10*
X93270000Y-79000000D03*
D15*
X90730000Y-79000000D03*
G04 #@! TD*
D14*
G04 #@! TO.C,P8*
X93270000Y-54000000D03*
D15*
X90730000Y-54000000D03*
G04 #@! TD*
D14*
G04 #@! TO.C,P12*
X57730000Y-75000000D03*
D15*
X60270000Y-75000000D03*
G04 #@! TD*
D14*
G04 #@! TO.C,P14*
X93270000Y-71000000D03*
D15*
X90730000Y-71000000D03*
G04 #@! TD*
D14*
G04 #@! TO.C,P4*
X57730000Y-50000000D03*
D15*
X60270000Y-50000000D03*
G04 #@! TD*
D14*
G04 #@! TO.C,P3*
X57730000Y-52540000D03*
D15*
X60270000Y-52540000D03*
G04 #@! TD*
G04 #@! TO.C,SC8*
X108000000Y-57000000D03*
G04 #@! TD*
G04 #@! TO.C,SC7*
X108000000Y-43000000D03*
G04 #@! TD*
G04 #@! TO.C,SC6*
X40000000Y-43000000D03*
G04 #@! TD*
G04 #@! TO.C,SC5*
X40000000Y-57000000D03*
G04 #@! TD*
D16*
G04 #@! TO.C,R8*
X53952500Y-78500000D03*
X52047500Y-78500000D03*
G04 #@! TD*
D17*
G04 #@! TO.C,C1*
X64316000Y-59900000D03*
X62284000Y-59900000D03*
G04 #@! TD*
G04 #@! TO.C,C2*
X57784000Y-59900000D03*
X59816000Y-59900000D03*
G04 #@! TD*
G04 #@! TO.C,C3*
X70684000Y-57500000D03*
X72716000Y-57500000D03*
G04 #@! TD*
G04 #@! TO.C,C4*
X78984000Y-57500000D03*
X81016000Y-57500000D03*
G04 #@! TD*
G04 #@! TO.C,C9*
X85984000Y-51500000D03*
X88016000Y-51500000D03*
G04 #@! TD*
G04 #@! TO.C,C11*
X85984000Y-54000000D03*
X88016000Y-54000000D03*
G04 #@! TD*
G04 #@! TO.C,C10*
X85984000Y-48000000D03*
X88016000Y-48000000D03*
G04 #@! TD*
D18*
G04 #@! TO.C,D7*
X94000000Y-76270000D03*
X94000000Y-73730000D03*
G04 #@! TD*
G04 #@! TO.C,D6*
X84000000Y-76270000D03*
X84000000Y-73730000D03*
G04 #@! TD*
G04 #@! TO.C,D5*
X74000000Y-76270000D03*
X74000000Y-73730000D03*
G04 #@! TD*
G04 #@! TO.C,D4*
X64000000Y-76270000D03*
X64000000Y-73730000D03*
G04 #@! TD*
G04 #@! TO.C,D3*
X54000000Y-76270000D03*
X54000000Y-73730000D03*
G04 #@! TD*
G04 #@! TO.C,D2*
X44000000Y-76270000D03*
X44000000Y-73730000D03*
G04 #@! TD*
D14*
G04 #@! TO.C,P2*
X80350000Y-60000000D03*
D15*
X77810000Y-60000000D03*
X75270000Y-60000000D03*
X72730000Y-60000000D03*
X70190000Y-60000000D03*
X67650000Y-60000000D03*
G04 #@! TD*
D19*
G04 #@! TO.C,R2*
X79500000Y-40047500D03*
X79500000Y-41952500D03*
G04 #@! TD*
G04 #@! TO.C,R3*
X82000000Y-40047500D03*
X82000000Y-41952500D03*
G04 #@! TD*
D20*
G04 #@! TO.C,SC1*
X36500000Y-59500000D03*
G04 #@! TD*
G04 #@! TO.C,SC2*
X111500000Y-40500000D03*
G04 #@! TD*
G04 #@! TO.C,SC3*
X111500000Y-59500000D03*
G04 #@! TD*
G04 #@! TO.C,SC4*
X36500000Y-40500000D03*
G04 #@! TD*
D21*
G04 #@! TO.C,U1*
X68200920Y-54150360D03*
X69001020Y-54150360D03*
X69801120Y-54150360D03*
X70601220Y-54150360D03*
X71398780Y-54150360D03*
X72198880Y-54150360D03*
X72998980Y-54150360D03*
X73799080Y-54150360D03*
X73799080Y-45849640D03*
X68200920Y-45849640D03*
X69001020Y-45849640D03*
X69801120Y-45849640D03*
X70601220Y-45849640D03*
X71398780Y-45849640D03*
X72198880Y-45849640D03*
X72998980Y-45849640D03*
D22*
X75150360Y-52799080D03*
X75150360Y-51998980D03*
X75150360Y-51198880D03*
X75150360Y-50398780D03*
X75150360Y-49601220D03*
X75150360Y-48801120D03*
X75150360Y-48001020D03*
X75150360Y-47200920D03*
X66849640Y-52799080D03*
X66849640Y-51998980D03*
X66849640Y-51198880D03*
X66849640Y-50398780D03*
X66849640Y-49601220D03*
X66849640Y-48801120D03*
X66849640Y-48001020D03*
X66849640Y-47200920D03*
G04 #@! TD*
D23*
G04 #@! TO.C,U4*
X83300000Y-52000000D03*
X83300000Y-51200000D03*
X83300000Y-48000000D03*
X83300000Y-48800000D03*
X83300000Y-49600000D03*
X83300000Y-50400000D03*
X81100000Y-50400000D03*
X81100000Y-49600000D03*
X81100000Y-48800000D03*
X81100000Y-48000000D03*
X81100000Y-51200000D03*
X81100000Y-52000000D03*
D24*
X82200000Y-52100000D03*
X82200000Y-47900000D03*
G04 #@! TD*
D25*
G04 #@! TO.C,X1*
X62900000Y-57800000D03*
X59200000Y-55600000D03*
X62900000Y-55600000D03*
X59200000Y-57800000D03*
G04 #@! TD*
D26*
G04 #@! TO.C,B1*
X75100000Y-43100000D03*
G04 #@! TD*
G04 #@! TO.C,B2*
X76600000Y-43100000D03*
G04 #@! TD*
G04 #@! TO.C,B3*
X77900000Y-45300000D03*
G04 #@! TD*
G04 #@! TO.C,B4*
X77900000Y-46800000D03*
G04 #@! TD*
G04 #@! TO.C,B5*
X69800000Y-43500000D03*
G04 #@! TD*
G04 #@! TO.C,B6*
X73600000Y-43100000D03*
G04 #@! TD*
D14*
G04 #@! TO.C,P1*
X71040000Y-39230000D03*
D15*
X71040000Y-41770000D03*
X68500000Y-39230000D03*
X68500000Y-41770000D03*
X65960000Y-39230000D03*
X65960000Y-41770000D03*
G04 #@! TD*
D26*
G04 #@! TO.C,B7*
X64500000Y-50400000D03*
G04 #@! TD*
D14*
G04 #@! TO.C,P5*
X57730000Y-47460000D03*
D15*
X60270000Y-47460000D03*
G04 #@! TD*
D14*
G04 #@! TO.C,P6*
X93270000Y-46000000D03*
D15*
X90730000Y-46000000D03*
G04 #@! TD*
D14*
G04 #@! TO.C,P9*
X93270000Y-40000000D03*
D15*
X90730000Y-40000000D03*
G04 #@! TD*
D14*
G04 #@! TO.C,P13*
X57730000Y-72460000D03*
D15*
X60270000Y-72460000D03*
G04 #@! TD*
D14*
G04 #@! TO.C,P11*
X57730000Y-77540000D03*
D15*
X60270000Y-77540000D03*
G04 #@! TD*
D16*
G04 #@! TO.C,R7*
X44047500Y-78500000D03*
X45952500Y-78500000D03*
G04 #@! TD*
G04 #@! TO.C,R9*
X64047500Y-78500000D03*
X65952500Y-78500000D03*
G04 #@! TD*
G04 #@! TO.C,R10*
X73952500Y-78500000D03*
X72047500Y-78500000D03*
G04 #@! TD*
G04 #@! TO.C,R11*
X83952500Y-78500000D03*
X82047500Y-78500000D03*
G04 #@! TD*
G04 #@! TO.C,R12*
X98547500Y-78500000D03*
X100452500Y-78500000D03*
G04 #@! TD*
D27*
G04 #@! TO.C,Q1*
X49950000Y-74350000D03*
X49950000Y-75650000D03*
X49950000Y-75000000D03*
X48050000Y-75650000D03*
X48050000Y-75000000D03*
X48050000Y-74350000D03*
G04 #@! TD*
G04 #@! TO.C,Q2*
X69950000Y-74350000D03*
X69950000Y-75650000D03*
X69950000Y-75000000D03*
X68050000Y-75650000D03*
X68050000Y-75000000D03*
X68050000Y-74350000D03*
G04 #@! TD*
G04 #@! TO.C,Q3*
X89950000Y-74350000D03*
X89950000Y-75650000D03*
X89950000Y-75000000D03*
X88050000Y-75650000D03*
X88050000Y-75000000D03*
X88050000Y-74350000D03*
G04 #@! TD*
D28*
G04 #@! TO.C,B9*
X50000000Y-52540000D03*
X50000000Y-47460000D03*
X42380000Y-50000000D03*
G04 #@! TD*
G04 #@! TO.C,B8*
X98000000Y-47460000D03*
X98000000Y-52540000D03*
X105620000Y-50000000D03*
G04 #@! TD*
D29*
G04 #@! TO.C,P7*
X112575000Y-53225000D03*
X112575000Y-46775000D03*
G04 #@! TD*
D30*
X83000000Y-55000000D03*
X72500000Y-49500000D03*
X89000000Y-57800000D03*
X84700000Y-50400000D03*
X79200000Y-49800000D03*
X66500000Y-57300000D03*
X69800000Y-48200000D03*
X84600000Y-54000000D03*
X79000000Y-54100000D03*
X82300000Y-59900000D03*
X73000000Y-48000000D03*
X64900000Y-46700000D03*
X63500000Y-47600000D03*
X77800000Y-54100000D03*
X76600000Y-54100000D03*
X82200000Y-45100000D03*
X77900000Y-48900000D03*
X74200000Y-56500000D03*
X69088000Y-77216000D03*
X89500000Y-49500000D03*
X51800000Y-74500000D03*
X46200000Y-75000000D03*
X71750000Y-73250000D03*
X91948000Y-73914000D03*
X88200000Y-71900000D03*
X86000000Y-75000000D03*
M02*
