%FSLAX45Y45*%
G04 Gerber Fmt 4.5, Leading zero omitted, Abs format (unit mm)*
G04 Created by KiCad (PCBNEW (2014-12-11 BZR 5320)-product) date Tue Feb  3 18:01:35 2015*
%MOMM*%
G01*
G04 APERTURE LIST*
%ADD10C,0.127000*%
%ADD11C,0.150000*%
%ADD12C,0.200000*%
%ADD13C,0.300000*%
G04 APERTURE END LIST*
D10*
D11*
X7350000Y-6950000D02*
X7450000Y-6950000D01*
X7350000Y-6200000D02*
X7450000Y-6200000D01*
X7450000Y-6950000D02*
X10650000Y-6950000D01*
X7350000Y-6950000D02*
X4150000Y-6950000D01*
X11100000Y-7900000D02*
X11100000Y-7100000D01*
X4150000Y-8050000D02*
X10650000Y-8050000D01*
X3700000Y-7100000D02*
X3700000Y-7900000D01*
X10950000Y-8050000D02*
G75*
G03X11100000Y-7900000I0J150000D01*
G01*
X11100000Y-7100000D02*
G75*
G03X10950000Y-6950000I-150000J0D01*
G01*
X3700000Y-7900000D02*
G75*
G03X3850000Y-8050000I150000J0D01*
G01*
X3850000Y-6950000D02*
G75*
G03X3700000Y-7100000I0J-150000D01*
G01*
X10950000Y-8050000D02*
G75*
G03X10800000Y-7900000I-150000J0D01*
G01*
X10800000Y-7900000D02*
G75*
G03X10650000Y-8050000I0J-150000D01*
G01*
X10800000Y-7100000D02*
G75*
G03X10950000Y-6950000I0J150000D01*
G01*
X10650000Y-6950000D02*
G75*
G03X10800000Y-7100000I150000J0D01*
G01*
X4150000Y-8050000D02*
G75*
G03X4000000Y-7900000I-150000J0D01*
G01*
X4000000Y-7900000D02*
G75*
G03X3850000Y-8050000I0J-150000D01*
G01*
X3850000Y-6950000D02*
G75*
G03X4000000Y-7100000I150000J0D01*
G01*
X4000000Y-7100000D02*
G75*
G03X4150000Y-6950000I0J150000D01*
G01*
X11150000Y-3800000D02*
X3650000Y-3800000D01*
X11400000Y-5950000D02*
X11400000Y-4050000D01*
X7450000Y-6200000D02*
X11150000Y-6200000D01*
X3650000Y-6200000D02*
X7350000Y-6200000D01*
X3400000Y-4050000D02*
X3400000Y-5950000D01*
X3650000Y-3800000D02*
G75*
G03X3400000Y-4050000I0J-250000D01*
G01*
X3400000Y-5950000D02*
G75*
G03X3650000Y-6200000I250000J0D01*
G01*
X11150000Y-6200000D02*
G75*
G03X11400000Y-5950000I0J250000D01*
G01*
X11400000Y-4050000D02*
G75*
G03X11150000Y-3800000I-250000J0D01*
G01*
D12*
X4588250Y-7468250D02*
X4651750Y-7531750D01*
X4651750Y-7468250D02*
X4588250Y-7531750D01*
X5148250Y-7418250D02*
X5211750Y-7481750D01*
X5211750Y-7418250D02*
X5148250Y-7481750D01*
X6318250Y-4728250D02*
X6381750Y-4791750D01*
X6381750Y-4728250D02*
X6318250Y-4791750D01*
X6458250Y-4638250D02*
X6521750Y-4701750D01*
X6521750Y-4638250D02*
X6458250Y-4701750D01*
X6618250Y-5698250D02*
X6681750Y-5761750D01*
X6681750Y-5698250D02*
X6618250Y-5761750D01*
X6877050Y-7689850D02*
X6940550Y-7753350D01*
X6940550Y-7689850D02*
X6877050Y-7753350D01*
X6948250Y-4788250D02*
X7011750Y-4851750D01*
X7011750Y-4788250D02*
X6948250Y-4851750D01*
X7143250Y-7243250D02*
X7206750Y-7306750D01*
X7206750Y-7243250D02*
X7143250Y-7306750D01*
X7218250Y-4918250D02*
X7281750Y-4981750D01*
X7281750Y-4918250D02*
X7218250Y-4981750D01*
X7268250Y-4768250D02*
X7331750Y-4831750D01*
X7331750Y-4768250D02*
X7268250Y-4831750D01*
X7388250Y-5618250D02*
X7451750Y-5681750D01*
X7451750Y-5618250D02*
X7388250Y-5681750D01*
X7628250Y-5378250D02*
X7691750Y-5441750D01*
X7691750Y-5378250D02*
X7628250Y-5441750D01*
X7748250Y-5378250D02*
X7811750Y-5441750D01*
X7811750Y-5378250D02*
X7748250Y-5441750D01*
X7758250Y-4858250D02*
X7821750Y-4921750D01*
X7821750Y-4858250D02*
X7758250Y-4921750D01*
X7868250Y-5378250D02*
X7931750Y-5441750D01*
X7931750Y-5378250D02*
X7868250Y-5441750D01*
X7888250Y-4948250D02*
X7951750Y-5011750D01*
X7951750Y-4948250D02*
X7888250Y-5011750D01*
X8188250Y-4478250D02*
X8251750Y-4541750D01*
X8251750Y-4478250D02*
X8188250Y-4541750D01*
X8198250Y-5958250D02*
X8261750Y-6021750D01*
X8261750Y-5958250D02*
X8198250Y-6021750D01*
X8268250Y-5468250D02*
X8331750Y-5531750D01*
X8331750Y-5468250D02*
X8268250Y-5531750D01*
X8428250Y-5368250D02*
X8491750Y-5431750D01*
X8491750Y-5368250D02*
X8428250Y-5431750D01*
X8438250Y-5008250D02*
X8501750Y-5071750D01*
X8501750Y-5008250D02*
X8438250Y-5071750D01*
X8568250Y-7468250D02*
X8631750Y-7531750D01*
X8631750Y-7468250D02*
X8568250Y-7531750D01*
X8788250Y-7158250D02*
X8851750Y-7221750D01*
X8851750Y-7158250D02*
X8788250Y-7221750D01*
X8868250Y-5748250D02*
X8931750Y-5811750D01*
X8931750Y-5748250D02*
X8868250Y-5811750D01*
X8918250Y-4918250D02*
X8981750Y-4981750D01*
X8981750Y-4918250D02*
X8918250Y-4981750D01*
X9163050Y-7359650D02*
X9226550Y-7423150D01*
X9226550Y-7359650D02*
X9163050Y-7423150D01*
X4440640Y-7373000D02*
G75*
G03X4440640Y-7373000I-40640J0D01*
G01*
X4440640Y-7627000D02*
G75*
G03X4440640Y-7627000I-40640J0D01*
G01*
X5440640Y-7373000D02*
G75*
G03X5440640Y-7373000I-40640J0D01*
G01*
X5440640Y-7627000D02*
G75*
G03X5440640Y-7627000I-40640J0D01*
G01*
X6440640Y-7373000D02*
G75*
G03X6440640Y-7373000I-40640J0D01*
G01*
X6440640Y-7627000D02*
G75*
G03X6440640Y-7627000I-40640J0D01*
G01*
X7440640Y-7373000D02*
G75*
G03X7440640Y-7373000I-40640J0D01*
G01*
X7440640Y-7627000D02*
G75*
G03X7440640Y-7627000I-40640J0D01*
G01*
X8440640Y-7373000D02*
G75*
G03X8440640Y-7373000I-40640J0D01*
G01*
X8440640Y-7627000D02*
G75*
G03X8440640Y-7627000I-40640J0D01*
G01*
X9440640Y-7373000D02*
G75*
G03X9440640Y-7373000I-40640J0D01*
G01*
X9440640Y-7627000D02*
G75*
G03X9440640Y-7627000I-40640J0D01*
G01*
X4000000Y-4249200D02*
X4000000Y-4350800D01*
X3949200Y-4300000D02*
X4050800Y-4300000D01*
X4000000Y-5649200D02*
X4000000Y-5750800D01*
X3949200Y-5700000D02*
X4050800Y-5700000D01*
X5773000Y-4695200D02*
X5773000Y-4796800D01*
X5722200Y-4746000D02*
X5823800Y-4746000D01*
X5773000Y-4949200D02*
X5773000Y-5050800D01*
X5722200Y-5000000D02*
X5823800Y-5000000D01*
X5773000Y-5203200D02*
X5773000Y-5304800D01*
X5722200Y-5254000D02*
X5823800Y-5254000D01*
X5773000Y-7195200D02*
X5773000Y-7296800D01*
X5722200Y-7246000D02*
X5823800Y-7246000D01*
X5773000Y-7449200D02*
X5773000Y-7550800D01*
X5722200Y-7500000D02*
X5823800Y-7500000D01*
X5773000Y-7703200D02*
X5773000Y-7804800D01*
X5722200Y-7754000D02*
X5823800Y-7754000D01*
X6027000Y-4695200D02*
X6027000Y-4796800D01*
X5976200Y-4746000D02*
X6077800Y-4746000D01*
X6027000Y-4949200D02*
X6027000Y-5050800D01*
X5976200Y-5000000D02*
X6077800Y-5000000D01*
X6027000Y-5203200D02*
X6027000Y-5304800D01*
X5976200Y-5254000D02*
X6077800Y-5254000D01*
X6027000Y-7195200D02*
X6027000Y-7296800D01*
X5976200Y-7246000D02*
X6077800Y-7246000D01*
X6027000Y-7449200D02*
X6027000Y-7550800D01*
X5976200Y-7500000D02*
X6077800Y-7500000D01*
X6027000Y-7703200D02*
X6027000Y-7804800D01*
X5976200Y-7754000D02*
X6077800Y-7754000D01*
X6596000Y-3872200D02*
X6596000Y-3973800D01*
X6545200Y-3923000D02*
X6646800Y-3923000D01*
X6596000Y-4126200D02*
X6596000Y-4227800D01*
X6545200Y-4177000D02*
X6646800Y-4177000D01*
X6765000Y-5949200D02*
X6765000Y-6050800D01*
X6714200Y-6000000D02*
X6815800Y-6000000D01*
X6850000Y-3872200D02*
X6850000Y-3973800D01*
X6799200Y-3923000D02*
X6900800Y-3923000D01*
X6850000Y-4126200D02*
X6850000Y-4227800D01*
X6799200Y-4177000D02*
X6900800Y-4177000D01*
X7019000Y-5949200D02*
X7019000Y-6050800D01*
X6968200Y-6000000D02*
X7069800Y-6000000D01*
X7104000Y-3872200D02*
X7104000Y-3973800D01*
X7053200Y-3923000D02*
X7154800Y-3923000D01*
X7104000Y-4126200D02*
X7104000Y-4227800D01*
X7053200Y-4177000D02*
X7154800Y-4177000D01*
X7273000Y-5949200D02*
X7273000Y-6050800D01*
X7222200Y-6000000D02*
X7323800Y-6000000D01*
X7527000Y-5949200D02*
X7527000Y-6050800D01*
X7476200Y-6000000D02*
X7577800Y-6000000D01*
X7781000Y-5949200D02*
X7781000Y-6050800D01*
X7730200Y-6000000D02*
X7831800Y-6000000D01*
X8035000Y-5949200D02*
X8035000Y-6050800D01*
X7984200Y-6000000D02*
X8085800Y-6000000D01*
X9073000Y-3949200D02*
X9073000Y-4050800D01*
X9022200Y-4000000D02*
X9123800Y-4000000D01*
X9073000Y-4549200D02*
X9073000Y-4650800D01*
X9022200Y-4600000D02*
X9123800Y-4600000D01*
X9073000Y-5349200D02*
X9073000Y-5450800D01*
X9022200Y-5400000D02*
X9123800Y-5400000D01*
X9073000Y-7049200D02*
X9073000Y-7150800D01*
X9022200Y-7100000D02*
X9123800Y-7100000D01*
X9073000Y-7849200D02*
X9073000Y-7950800D01*
X9022200Y-7900000D02*
X9123800Y-7900000D01*
X9327000Y-3949200D02*
X9327000Y-4050800D01*
X9276200Y-4000000D02*
X9377800Y-4000000D01*
X9327000Y-4549200D02*
X9327000Y-4650800D01*
X9276200Y-4600000D02*
X9377800Y-4600000D01*
X9327000Y-5349200D02*
X9327000Y-5450800D01*
X9276200Y-5400000D02*
X9377800Y-5400000D01*
X9327000Y-7049200D02*
X9327000Y-7150800D01*
X9276200Y-7100000D02*
X9377800Y-7100000D01*
X9327000Y-7849200D02*
X9327000Y-7950800D01*
X9276200Y-7900000D02*
X9377800Y-7900000D01*
X10800000Y-4249200D02*
X10800000Y-4350800D01*
X10749200Y-4300000D02*
X10850800Y-4300000D01*
X10800000Y-5649200D02*
X10800000Y-5750800D01*
X10749200Y-5700000D02*
X10850800Y-5700000D01*
X11301902Y-4714902D02*
X11301902Y-4625098D01*
X11212098Y-4625098D01*
X11212098Y-4714902D01*
X11301902Y-4714902D01*
X11301902Y-5374902D02*
X11301902Y-5285098D01*
X11212098Y-5285098D01*
X11212098Y-5374902D01*
X11301902Y-5374902D01*
X4238000Y-5090000D02*
X4328000Y-5000000D01*
X4238000Y-4910000D01*
X4148000Y-5000000D01*
X4238000Y-5090000D01*
X5000000Y-4836000D02*
X5090000Y-4746000D01*
X5000000Y-4656000D01*
X4910000Y-4746000D01*
X5000000Y-4836000D01*
X5000000Y-5344000D02*
X5090000Y-5254000D01*
X5000000Y-5164000D01*
X4910000Y-5254000D01*
X5000000Y-5344000D01*
X9800000Y-4836000D02*
X9890000Y-4746000D01*
X9800000Y-4656000D01*
X9710000Y-4746000D01*
X9800000Y-4836000D01*
X9800000Y-5344000D02*
X9890000Y-5254000D01*
X9800000Y-5164000D01*
X9710000Y-5254000D01*
X9800000Y-5344000D01*
X10562000Y-5090000D02*
X10652000Y-5000000D01*
X10562000Y-4910000D01*
X10472000Y-5000000D01*
X10562000Y-5090000D01*
X3523000Y-3923000D02*
X3777000Y-4177000D01*
X3777000Y-3923000D02*
X3523000Y-4177000D01*
X3777000Y-4050000D02*
G75*
G03X3777000Y-4050000I-127000J0D01*
G01*
X3523000Y-5823000D02*
X3777000Y-6077000D01*
X3777000Y-5823000D02*
X3523000Y-6077000D01*
X3777000Y-5950000D02*
G75*
G03X3777000Y-5950000I-127000J0D01*
G01*
X11023000Y-3923000D02*
X11277000Y-4177000D01*
X11277000Y-3923000D02*
X11023000Y-4177000D01*
X11277000Y-4050000D02*
G75*
G03X11277000Y-4050000I-127000J0D01*
G01*
X11023000Y-5823000D02*
X11277000Y-6077000D01*
X11277000Y-5823000D02*
X11023000Y-6077000D01*
X11277000Y-5950000D02*
G75*
G03X11277000Y-5950000I-127000J0D01*
G01*
D13*
X3663928Y-8523214D02*
X3663928Y-8223214D01*
X3735357Y-8223214D01*
X3778214Y-8237500D01*
X3806786Y-8266071D01*
X3821071Y-8294643D01*
X3835357Y-8351786D01*
X3835357Y-8394643D01*
X3821071Y-8451786D01*
X3806786Y-8480357D01*
X3778214Y-8508929D01*
X3735357Y-8523214D01*
X3663928Y-8523214D01*
X3963928Y-8523214D02*
X3963928Y-8323214D01*
X3963928Y-8380357D02*
X3978214Y-8351786D01*
X3992500Y-8337500D01*
X4021071Y-8323214D01*
X4049643Y-8323214D01*
X4149643Y-8523214D02*
X4149643Y-8323214D01*
X4149643Y-8223214D02*
X4135357Y-8237500D01*
X4149643Y-8251786D01*
X4163928Y-8237500D01*
X4149643Y-8223214D01*
X4149643Y-8251786D01*
X4335357Y-8523214D02*
X4306786Y-8508929D01*
X4292500Y-8480357D01*
X4292500Y-8223214D01*
X4492500Y-8523214D02*
X4463929Y-8508929D01*
X4449643Y-8480357D01*
X4449643Y-8223214D01*
X4835357Y-8523214D02*
X4835357Y-8223214D01*
X4935357Y-8437500D01*
X5035357Y-8223214D01*
X5035357Y-8523214D01*
X5306786Y-8523214D02*
X5306786Y-8366071D01*
X5292500Y-8337500D01*
X5263929Y-8323214D01*
X5206786Y-8323214D01*
X5178214Y-8337500D01*
X5306786Y-8508929D02*
X5278214Y-8523214D01*
X5206786Y-8523214D01*
X5178214Y-8508929D01*
X5163929Y-8480357D01*
X5163929Y-8451786D01*
X5178214Y-8423214D01*
X5206786Y-8408929D01*
X5278214Y-8408929D01*
X5306786Y-8394643D01*
X5449643Y-8323214D02*
X5449643Y-8623214D01*
X5449643Y-8337500D02*
X5478214Y-8323214D01*
X5535357Y-8323214D01*
X5563929Y-8337500D01*
X5578214Y-8351786D01*
X5592500Y-8380357D01*
X5592500Y-8466072D01*
X5578214Y-8494643D01*
X5563929Y-8508929D01*
X5535357Y-8523214D01*
X5478214Y-8523214D01*
X5449643Y-8508929D01*
X5721071Y-8494643D02*
X5735357Y-8508929D01*
X5721071Y-8523214D01*
X5706786Y-8508929D01*
X5721071Y-8494643D01*
X5721071Y-8523214D01*
X5721071Y-8337500D02*
X5735357Y-8351786D01*
X5721071Y-8366071D01*
X5706786Y-8351786D01*
X5721071Y-8337500D01*
X5721071Y-8366071D01*
X3329000Y-8985750D02*
X3392500Y-9049250D01*
X3392500Y-8985750D02*
X3329000Y-9049250D01*
X3721071Y-8853214D02*
X3749643Y-8853214D01*
X3778214Y-8867500D01*
X3792500Y-8881786D01*
X3806786Y-8910357D01*
X3821071Y-8967500D01*
X3821071Y-9038929D01*
X3806786Y-9096072D01*
X3792500Y-9124643D01*
X3778214Y-9138929D01*
X3749643Y-9153214D01*
X3721071Y-9153214D01*
X3692500Y-9138929D01*
X3678214Y-9124643D01*
X3663928Y-9096072D01*
X3649643Y-9038929D01*
X3649643Y-8967500D01*
X3663928Y-8910357D01*
X3678214Y-8881786D01*
X3692500Y-8867500D01*
X3721071Y-8853214D01*
X3949643Y-9124643D02*
X3963928Y-9138929D01*
X3949643Y-9153214D01*
X3935357Y-9138929D01*
X3949643Y-9124643D01*
X3949643Y-9153214D01*
X4221071Y-8853214D02*
X4163928Y-8853214D01*
X4135357Y-8867500D01*
X4121071Y-8881786D01*
X4092500Y-8924643D01*
X4078214Y-8981786D01*
X4078214Y-9096072D01*
X4092500Y-9124643D01*
X4106786Y-9138929D01*
X4135357Y-9153214D01*
X4192500Y-9153214D01*
X4221071Y-9138929D01*
X4235357Y-9124643D01*
X4249643Y-9096072D01*
X4249643Y-9024643D01*
X4235357Y-8996072D01*
X4221071Y-8981786D01*
X4192500Y-8967500D01*
X4135357Y-8967500D01*
X4106786Y-8981786D01*
X4092500Y-8996072D01*
X4078214Y-9024643D01*
X4506786Y-8953214D02*
X4506786Y-9153214D01*
X4435357Y-8838929D02*
X4363929Y-9053214D01*
X4549643Y-9053214D01*
X4663929Y-9153214D02*
X4663929Y-8953214D01*
X4663929Y-8981786D02*
X4678214Y-8967500D01*
X4706786Y-8953214D01*
X4749643Y-8953214D01*
X4778214Y-8967500D01*
X4792500Y-8996072D01*
X4792500Y-9153214D01*
X4792500Y-8996072D02*
X4806786Y-8967500D01*
X4835357Y-8953214D01*
X4878214Y-8953214D01*
X4906786Y-8967500D01*
X4921071Y-8996072D01*
X4921071Y-9153214D01*
X5063929Y-9153214D02*
X5063929Y-8953214D01*
X5063929Y-8981786D02*
X5078214Y-8967500D01*
X5106786Y-8953214D01*
X5149643Y-8953214D01*
X5178214Y-8967500D01*
X5192500Y-8996072D01*
X5192500Y-9153214D01*
X5192500Y-8996072D02*
X5206786Y-8967500D01*
X5235357Y-8953214D01*
X5278214Y-8953214D01*
X5306786Y-8967500D01*
X5321071Y-8996072D01*
X5321071Y-9153214D01*
X5906786Y-8838929D02*
X5649643Y-9224643D01*
X6292500Y-8853214D02*
X6321071Y-8853214D01*
X6349643Y-8867500D01*
X6363928Y-8881786D01*
X6378214Y-8910357D01*
X6392500Y-8967500D01*
X6392500Y-9038929D01*
X6378214Y-9096072D01*
X6363928Y-9124643D01*
X6349643Y-9138929D01*
X6321071Y-9153214D01*
X6292500Y-9153214D01*
X6263928Y-9138929D01*
X6249643Y-9124643D01*
X6235357Y-9096072D01*
X6221071Y-9038929D01*
X6221071Y-8967500D01*
X6235357Y-8910357D01*
X6249643Y-8881786D01*
X6263928Y-8867500D01*
X6292500Y-8853214D01*
X6521071Y-9124643D02*
X6535357Y-9138929D01*
X6521071Y-9153214D01*
X6506786Y-9138929D01*
X6521071Y-9124643D01*
X6521071Y-9153214D01*
X6721071Y-8853214D02*
X6749643Y-8853214D01*
X6778214Y-8867500D01*
X6792500Y-8881786D01*
X6806785Y-8910357D01*
X6821071Y-8967500D01*
X6821071Y-9038929D01*
X6806785Y-9096072D01*
X6792500Y-9124643D01*
X6778214Y-9138929D01*
X6749643Y-9153214D01*
X6721071Y-9153214D01*
X6692500Y-9138929D01*
X6678214Y-9124643D01*
X6663928Y-9096072D01*
X6649643Y-9038929D01*
X6649643Y-8967500D01*
X6663928Y-8910357D01*
X6678214Y-8881786D01*
X6692500Y-8867500D01*
X6721071Y-8853214D01*
X6935357Y-8881786D02*
X6949643Y-8867500D01*
X6978214Y-8853214D01*
X7049643Y-8853214D01*
X7078214Y-8867500D01*
X7092500Y-8881786D01*
X7106785Y-8910357D01*
X7106785Y-8938929D01*
X7092500Y-8981786D01*
X6921071Y-9153214D01*
X7106785Y-9153214D01*
X7378214Y-8853214D02*
X7235357Y-8853214D01*
X7221071Y-8996072D01*
X7235357Y-8981786D01*
X7263928Y-8967500D01*
X7335357Y-8967500D01*
X7363928Y-8981786D01*
X7378214Y-8996072D01*
X7392500Y-9024643D01*
X7392500Y-9096072D01*
X7378214Y-9124643D01*
X7363928Y-9138929D01*
X7335357Y-9153214D01*
X7263928Y-9153214D01*
X7235357Y-9138929D01*
X7221071Y-9124643D01*
X7506786Y-8853214D02*
X7506786Y-8910357D01*
X7621071Y-8853214D02*
X7621071Y-8910357D01*
X8063928Y-9267500D02*
X8049643Y-9253214D01*
X8021071Y-9210357D01*
X8006785Y-9181786D01*
X7992500Y-9138929D01*
X7978214Y-9067500D01*
X7978214Y-9010357D01*
X7992500Y-8938929D01*
X8006785Y-8896072D01*
X8021071Y-8867500D01*
X8049643Y-8824643D01*
X8063928Y-8810357D01*
X8163928Y-8881786D02*
X8178214Y-8867500D01*
X8206785Y-8853214D01*
X8278214Y-8853214D01*
X8306785Y-8867500D01*
X8321071Y-8881786D01*
X8335357Y-8910357D01*
X8335357Y-8938929D01*
X8321071Y-8981786D01*
X8149643Y-9153214D01*
X8335357Y-9153214D01*
X8592500Y-8853214D02*
X8535357Y-8853214D01*
X8506786Y-8867500D01*
X8492500Y-8881786D01*
X8463928Y-8924643D01*
X8449643Y-8981786D01*
X8449643Y-9096072D01*
X8463928Y-9124643D01*
X8478214Y-9138929D01*
X8506786Y-9153214D01*
X8563928Y-9153214D01*
X8592500Y-9138929D01*
X8606786Y-9124643D01*
X8621071Y-9096072D01*
X8621071Y-9024643D01*
X8606786Y-8996072D01*
X8592500Y-8981786D01*
X8563928Y-8967500D01*
X8506786Y-8967500D01*
X8478214Y-8981786D01*
X8463928Y-8996072D01*
X8449643Y-9024643D01*
X8978214Y-9153214D02*
X8978214Y-8853214D01*
X9106786Y-9153214D02*
X9106786Y-8996072D01*
X9092500Y-8967500D01*
X9063928Y-8953214D01*
X9021071Y-8953214D01*
X8992500Y-8967500D01*
X8978214Y-8981786D01*
X9292500Y-9153214D02*
X9263928Y-9138929D01*
X9249643Y-9124643D01*
X9235357Y-9096072D01*
X9235357Y-9010357D01*
X9249643Y-8981786D01*
X9263928Y-8967500D01*
X9292500Y-8953214D01*
X9335357Y-8953214D01*
X9363928Y-8967500D01*
X9378214Y-8981786D01*
X9392500Y-9010357D01*
X9392500Y-9096072D01*
X9378214Y-9124643D01*
X9363928Y-9138929D01*
X9335357Y-9153214D01*
X9292500Y-9153214D01*
X9563928Y-9153214D02*
X9535357Y-9138929D01*
X9521071Y-9110357D01*
X9521071Y-8853214D01*
X9792500Y-9138929D02*
X9763929Y-9153214D01*
X9706786Y-9153214D01*
X9678214Y-9138929D01*
X9663929Y-9110357D01*
X9663929Y-8996072D01*
X9678214Y-8967500D01*
X9706786Y-8953214D01*
X9763929Y-8953214D01*
X9792500Y-8967500D01*
X9806786Y-8996072D01*
X9806786Y-9024643D01*
X9663929Y-9053214D01*
X9921071Y-9138929D02*
X9949643Y-9153214D01*
X10006786Y-9153214D01*
X10035357Y-9138929D01*
X10049643Y-9110357D01*
X10049643Y-9096072D01*
X10035357Y-9067500D01*
X10006786Y-9053214D01*
X9963929Y-9053214D01*
X9935357Y-9038929D01*
X9921071Y-9010357D01*
X9921071Y-8996072D01*
X9935357Y-8967500D01*
X9963929Y-8953214D01*
X10006786Y-8953214D01*
X10035357Y-8967500D01*
X10149643Y-9267500D02*
X10163929Y-9253214D01*
X10192500Y-9210357D01*
X10206786Y-9181786D01*
X10221071Y-9138929D01*
X10235357Y-9067500D01*
X10235357Y-9010357D01*
X10221071Y-8938929D01*
X10206786Y-8896072D01*
X10192500Y-8867500D01*
X10163929Y-8824643D01*
X10149643Y-8810357D01*
X3392500Y-9413500D02*
G75*
G03X3392500Y-9413500I-40640J0D01*
G01*
X3721071Y-9249214D02*
X3749643Y-9249214D01*
X3778214Y-9263500D01*
X3792500Y-9277786D01*
X3806786Y-9306357D01*
X3821071Y-9363500D01*
X3821071Y-9434929D01*
X3806786Y-9492072D01*
X3792500Y-9520643D01*
X3778214Y-9534929D01*
X3749643Y-9549214D01*
X3721071Y-9549214D01*
X3692500Y-9534929D01*
X3678214Y-9520643D01*
X3663928Y-9492072D01*
X3649643Y-9434929D01*
X3649643Y-9363500D01*
X3663928Y-9306357D01*
X3678214Y-9277786D01*
X3692500Y-9263500D01*
X3721071Y-9249214D01*
X3949643Y-9520643D02*
X3963928Y-9534929D01*
X3949643Y-9549214D01*
X3935357Y-9534929D01*
X3949643Y-9520643D01*
X3949643Y-9549214D01*
X4135357Y-9377786D02*
X4106786Y-9363500D01*
X4092500Y-9349214D01*
X4078214Y-9320643D01*
X4078214Y-9306357D01*
X4092500Y-9277786D01*
X4106786Y-9263500D01*
X4135357Y-9249214D01*
X4192500Y-9249214D01*
X4221071Y-9263500D01*
X4235357Y-9277786D01*
X4249643Y-9306357D01*
X4249643Y-9320643D01*
X4235357Y-9349214D01*
X4221071Y-9363500D01*
X4192500Y-9377786D01*
X4135357Y-9377786D01*
X4106786Y-9392072D01*
X4092500Y-9406357D01*
X4078214Y-9434929D01*
X4078214Y-9492072D01*
X4092500Y-9520643D01*
X4106786Y-9534929D01*
X4135357Y-9549214D01*
X4192500Y-9549214D01*
X4221071Y-9534929D01*
X4235357Y-9520643D01*
X4249643Y-9492072D01*
X4249643Y-9434929D01*
X4235357Y-9406357D01*
X4221071Y-9392072D01*
X4192500Y-9377786D01*
X4535357Y-9549214D02*
X4363929Y-9549214D01*
X4449643Y-9549214D02*
X4449643Y-9249214D01*
X4421071Y-9292072D01*
X4392500Y-9320643D01*
X4363929Y-9334929D01*
X4663929Y-9549214D02*
X4663929Y-9349214D01*
X4663929Y-9377786D02*
X4678214Y-9363500D01*
X4706786Y-9349214D01*
X4749643Y-9349214D01*
X4778214Y-9363500D01*
X4792500Y-9392072D01*
X4792500Y-9549214D01*
X4792500Y-9392072D02*
X4806786Y-9363500D01*
X4835357Y-9349214D01*
X4878214Y-9349214D01*
X4906786Y-9363500D01*
X4921071Y-9392072D01*
X4921071Y-9549214D01*
X5063929Y-9549214D02*
X5063929Y-9349214D01*
X5063929Y-9377786D02*
X5078214Y-9363500D01*
X5106786Y-9349214D01*
X5149643Y-9349214D01*
X5178214Y-9363500D01*
X5192500Y-9392072D01*
X5192500Y-9549214D01*
X5192500Y-9392072D02*
X5206786Y-9363500D01*
X5235357Y-9349214D01*
X5278214Y-9349214D01*
X5306786Y-9363500D01*
X5321071Y-9392072D01*
X5321071Y-9549214D01*
X5906786Y-9234929D02*
X5649643Y-9620643D01*
X6292500Y-9249214D02*
X6321071Y-9249214D01*
X6349643Y-9263500D01*
X6363928Y-9277786D01*
X6378214Y-9306357D01*
X6392500Y-9363500D01*
X6392500Y-9434929D01*
X6378214Y-9492072D01*
X6363928Y-9520643D01*
X6349643Y-9534929D01*
X6321071Y-9549214D01*
X6292500Y-9549214D01*
X6263928Y-9534929D01*
X6249643Y-9520643D01*
X6235357Y-9492072D01*
X6221071Y-9434929D01*
X6221071Y-9363500D01*
X6235357Y-9306357D01*
X6249643Y-9277786D01*
X6263928Y-9263500D01*
X6292500Y-9249214D01*
X6521071Y-9520643D02*
X6535357Y-9534929D01*
X6521071Y-9549214D01*
X6506786Y-9534929D01*
X6521071Y-9520643D01*
X6521071Y-9549214D01*
X6721071Y-9249214D02*
X6749643Y-9249214D01*
X6778214Y-9263500D01*
X6792500Y-9277786D01*
X6806785Y-9306357D01*
X6821071Y-9363500D01*
X6821071Y-9434929D01*
X6806785Y-9492072D01*
X6792500Y-9520643D01*
X6778214Y-9534929D01*
X6749643Y-9549214D01*
X6721071Y-9549214D01*
X6692500Y-9534929D01*
X6678214Y-9520643D01*
X6663928Y-9492072D01*
X6649643Y-9434929D01*
X6649643Y-9363500D01*
X6663928Y-9306357D01*
X6678214Y-9277786D01*
X6692500Y-9263500D01*
X6721071Y-9249214D01*
X6921071Y-9249214D02*
X7106785Y-9249214D01*
X7006785Y-9363500D01*
X7049643Y-9363500D01*
X7078214Y-9377786D01*
X7092500Y-9392072D01*
X7106785Y-9420643D01*
X7106785Y-9492072D01*
X7092500Y-9520643D01*
X7078214Y-9534929D01*
X7049643Y-9549214D01*
X6963928Y-9549214D01*
X6935357Y-9534929D01*
X6921071Y-9520643D01*
X7221071Y-9277786D02*
X7235357Y-9263500D01*
X7263928Y-9249214D01*
X7335357Y-9249214D01*
X7363928Y-9263500D01*
X7378214Y-9277786D01*
X7392500Y-9306357D01*
X7392500Y-9334929D01*
X7378214Y-9377786D01*
X7206785Y-9549214D01*
X7392500Y-9549214D01*
X7506786Y-9249214D02*
X7506786Y-9306357D01*
X7621071Y-9249214D02*
X7621071Y-9306357D01*
X8063928Y-9663500D02*
X8049643Y-9649214D01*
X8021071Y-9606357D01*
X8006785Y-9577786D01*
X7992500Y-9534929D01*
X7978214Y-9463500D01*
X7978214Y-9406357D01*
X7992500Y-9334929D01*
X8006785Y-9292072D01*
X8021071Y-9263500D01*
X8049643Y-9220643D01*
X8063928Y-9206357D01*
X8335357Y-9549214D02*
X8163928Y-9549214D01*
X8249643Y-9549214D02*
X8249643Y-9249214D01*
X8221071Y-9292072D01*
X8192500Y-9320643D01*
X8163928Y-9334929D01*
X8449643Y-9277786D02*
X8463928Y-9263500D01*
X8492500Y-9249214D01*
X8563928Y-9249214D01*
X8592500Y-9263500D01*
X8606786Y-9277786D01*
X8621071Y-9306357D01*
X8621071Y-9334929D01*
X8606786Y-9377786D01*
X8435357Y-9549214D01*
X8621071Y-9549214D01*
X8978214Y-9549214D02*
X8978214Y-9249214D01*
X9106786Y-9549214D02*
X9106786Y-9392072D01*
X9092500Y-9363500D01*
X9063928Y-9349214D01*
X9021071Y-9349214D01*
X8992500Y-9363500D01*
X8978214Y-9377786D01*
X9292500Y-9549214D02*
X9263928Y-9534929D01*
X9249643Y-9520643D01*
X9235357Y-9492072D01*
X9235357Y-9406357D01*
X9249643Y-9377786D01*
X9263928Y-9363500D01*
X9292500Y-9349214D01*
X9335357Y-9349214D01*
X9363928Y-9363500D01*
X9378214Y-9377786D01*
X9392500Y-9406357D01*
X9392500Y-9492072D01*
X9378214Y-9520643D01*
X9363928Y-9534929D01*
X9335357Y-9549214D01*
X9292500Y-9549214D01*
X9563928Y-9549214D02*
X9535357Y-9534929D01*
X9521071Y-9506357D01*
X9521071Y-9249214D01*
X9792500Y-9534929D02*
X9763929Y-9549214D01*
X9706786Y-9549214D01*
X9678214Y-9534929D01*
X9663929Y-9506357D01*
X9663929Y-9392072D01*
X9678214Y-9363500D01*
X9706786Y-9349214D01*
X9763929Y-9349214D01*
X9792500Y-9363500D01*
X9806786Y-9392072D01*
X9806786Y-9420643D01*
X9663929Y-9449214D01*
X9921071Y-9534929D02*
X9949643Y-9549214D01*
X10006786Y-9549214D01*
X10035357Y-9534929D01*
X10049643Y-9506357D01*
X10049643Y-9492072D01*
X10035357Y-9463500D01*
X10006786Y-9449214D01*
X9963929Y-9449214D01*
X9935357Y-9434929D01*
X9921071Y-9406357D01*
X9921071Y-9392072D01*
X9935357Y-9363500D01*
X9963929Y-9349214D01*
X10006786Y-9349214D01*
X10035357Y-9363500D01*
X10149643Y-9663500D02*
X10163929Y-9649214D01*
X10192500Y-9606357D01*
X10206786Y-9577786D01*
X10221071Y-9534929D01*
X10235357Y-9463500D01*
X10235357Y-9406357D01*
X10221071Y-9334929D01*
X10206786Y-9292072D01*
X10192500Y-9263500D01*
X10163929Y-9220643D01*
X10149643Y-9206357D01*
X3341700Y-9758700D02*
X3341700Y-9860300D01*
X3290900Y-9809500D02*
X3392500Y-9809500D01*
X3821071Y-9945214D02*
X3649643Y-9945214D01*
X3735357Y-9945214D02*
X3735357Y-9645214D01*
X3706786Y-9688072D01*
X3678214Y-9716643D01*
X3649643Y-9730929D01*
X3949643Y-9916643D02*
X3963928Y-9930929D01*
X3949643Y-9945214D01*
X3935357Y-9930929D01*
X3949643Y-9916643D01*
X3949643Y-9945214D01*
X4149643Y-9645214D02*
X4178214Y-9645214D01*
X4206786Y-9659500D01*
X4221071Y-9673786D01*
X4235357Y-9702357D01*
X4249643Y-9759500D01*
X4249643Y-9830929D01*
X4235357Y-9888072D01*
X4221071Y-9916643D01*
X4206786Y-9930929D01*
X4178214Y-9945214D01*
X4149643Y-9945214D01*
X4121071Y-9930929D01*
X4106786Y-9916643D01*
X4092500Y-9888072D01*
X4078214Y-9830929D01*
X4078214Y-9759500D01*
X4092500Y-9702357D01*
X4106786Y-9673786D01*
X4121071Y-9659500D01*
X4149643Y-9645214D01*
X4363929Y-9673786D02*
X4378214Y-9659500D01*
X4406786Y-9645214D01*
X4478214Y-9645214D01*
X4506786Y-9659500D01*
X4521071Y-9673786D01*
X4535357Y-9702357D01*
X4535357Y-9730929D01*
X4521071Y-9773786D01*
X4349643Y-9945214D01*
X4535357Y-9945214D01*
X4663929Y-9945214D02*
X4663929Y-9745214D01*
X4663929Y-9773786D02*
X4678214Y-9759500D01*
X4706786Y-9745214D01*
X4749643Y-9745214D01*
X4778214Y-9759500D01*
X4792500Y-9788072D01*
X4792500Y-9945214D01*
X4792500Y-9788072D02*
X4806786Y-9759500D01*
X4835357Y-9745214D01*
X4878214Y-9745214D01*
X4906786Y-9759500D01*
X4921071Y-9788072D01*
X4921071Y-9945214D01*
X5063929Y-9945214D02*
X5063929Y-9745214D01*
X5063929Y-9773786D02*
X5078214Y-9759500D01*
X5106786Y-9745214D01*
X5149643Y-9745214D01*
X5178214Y-9759500D01*
X5192500Y-9788072D01*
X5192500Y-9945214D01*
X5192500Y-9788072D02*
X5206786Y-9759500D01*
X5235357Y-9745214D01*
X5278214Y-9745214D01*
X5306786Y-9759500D01*
X5321071Y-9788072D01*
X5321071Y-9945214D01*
X5906786Y-9630929D02*
X5649643Y-10016643D01*
X6292500Y-9645214D02*
X6321071Y-9645214D01*
X6349643Y-9659500D01*
X6363928Y-9673786D01*
X6378214Y-9702357D01*
X6392500Y-9759500D01*
X6392500Y-9830929D01*
X6378214Y-9888072D01*
X6363928Y-9916643D01*
X6349643Y-9930929D01*
X6321071Y-9945214D01*
X6292500Y-9945214D01*
X6263928Y-9930929D01*
X6249643Y-9916643D01*
X6235357Y-9888072D01*
X6221071Y-9830929D01*
X6221071Y-9759500D01*
X6235357Y-9702357D01*
X6249643Y-9673786D01*
X6263928Y-9659500D01*
X6292500Y-9645214D01*
X6521071Y-9916643D02*
X6535357Y-9930929D01*
X6521071Y-9945214D01*
X6506786Y-9930929D01*
X6521071Y-9916643D01*
X6521071Y-9945214D01*
X6721071Y-9645214D02*
X6749643Y-9645214D01*
X6778214Y-9659500D01*
X6792500Y-9673786D01*
X6806785Y-9702357D01*
X6821071Y-9759500D01*
X6821071Y-9830929D01*
X6806785Y-9888072D01*
X6792500Y-9916643D01*
X6778214Y-9930929D01*
X6749643Y-9945214D01*
X6721071Y-9945214D01*
X6692500Y-9930929D01*
X6678214Y-9916643D01*
X6663928Y-9888072D01*
X6649643Y-9830929D01*
X6649643Y-9759500D01*
X6663928Y-9702357D01*
X6678214Y-9673786D01*
X6692500Y-9659500D01*
X6721071Y-9645214D01*
X7078214Y-9745214D02*
X7078214Y-9945214D01*
X7006785Y-9630929D02*
X6935357Y-9845214D01*
X7121071Y-9845214D01*
X7292500Y-9645214D02*
X7321071Y-9645214D01*
X7349643Y-9659500D01*
X7363928Y-9673786D01*
X7378214Y-9702357D01*
X7392500Y-9759500D01*
X7392500Y-9830929D01*
X7378214Y-9888072D01*
X7363928Y-9916643D01*
X7349643Y-9930929D01*
X7321071Y-9945214D01*
X7292500Y-9945214D01*
X7263928Y-9930929D01*
X7249643Y-9916643D01*
X7235357Y-9888072D01*
X7221071Y-9830929D01*
X7221071Y-9759500D01*
X7235357Y-9702357D01*
X7249643Y-9673786D01*
X7263928Y-9659500D01*
X7292500Y-9645214D01*
X7506786Y-9645214D02*
X7506786Y-9702357D01*
X7621071Y-9645214D02*
X7621071Y-9702357D01*
X8063928Y-10059500D02*
X8049643Y-10045214D01*
X8021071Y-10002357D01*
X8006785Y-9973786D01*
X7992500Y-9930929D01*
X7978214Y-9859500D01*
X7978214Y-9802357D01*
X7992500Y-9730929D01*
X8006785Y-9688072D01*
X8021071Y-9659500D01*
X8049643Y-9616643D01*
X8063928Y-9602357D01*
X8149643Y-9645214D02*
X8335357Y-9645214D01*
X8235357Y-9759500D01*
X8278214Y-9759500D01*
X8306785Y-9773786D01*
X8321071Y-9788072D01*
X8335357Y-9816643D01*
X8335357Y-9888072D01*
X8321071Y-9916643D01*
X8306785Y-9930929D01*
X8278214Y-9945214D01*
X8192500Y-9945214D01*
X8163928Y-9930929D01*
X8149643Y-9916643D01*
X8506786Y-9773786D02*
X8478214Y-9759500D01*
X8463928Y-9745214D01*
X8449643Y-9716643D01*
X8449643Y-9702357D01*
X8463928Y-9673786D01*
X8478214Y-9659500D01*
X8506786Y-9645214D01*
X8563928Y-9645214D01*
X8592500Y-9659500D01*
X8606786Y-9673786D01*
X8621071Y-9702357D01*
X8621071Y-9716643D01*
X8606786Y-9745214D01*
X8592500Y-9759500D01*
X8563928Y-9773786D01*
X8506786Y-9773786D01*
X8478214Y-9788072D01*
X8463928Y-9802357D01*
X8449643Y-9830929D01*
X8449643Y-9888072D01*
X8463928Y-9916643D01*
X8478214Y-9930929D01*
X8506786Y-9945214D01*
X8563928Y-9945214D01*
X8592500Y-9930929D01*
X8606786Y-9916643D01*
X8621071Y-9888072D01*
X8621071Y-9830929D01*
X8606786Y-9802357D01*
X8592500Y-9788072D01*
X8563928Y-9773786D01*
X8978214Y-9945214D02*
X8978214Y-9645214D01*
X9106786Y-9945214D02*
X9106786Y-9788072D01*
X9092500Y-9759500D01*
X9063928Y-9745214D01*
X9021071Y-9745214D01*
X8992500Y-9759500D01*
X8978214Y-9773786D01*
X9292500Y-9945214D02*
X9263928Y-9930929D01*
X9249643Y-9916643D01*
X9235357Y-9888072D01*
X9235357Y-9802357D01*
X9249643Y-9773786D01*
X9263928Y-9759500D01*
X9292500Y-9745214D01*
X9335357Y-9745214D01*
X9363928Y-9759500D01*
X9378214Y-9773786D01*
X9392500Y-9802357D01*
X9392500Y-9888072D01*
X9378214Y-9916643D01*
X9363928Y-9930929D01*
X9335357Y-9945214D01*
X9292500Y-9945214D01*
X9563928Y-9945214D02*
X9535357Y-9930929D01*
X9521071Y-9902357D01*
X9521071Y-9645214D01*
X9792500Y-9930929D02*
X9763929Y-9945214D01*
X9706786Y-9945214D01*
X9678214Y-9930929D01*
X9663929Y-9902357D01*
X9663929Y-9788072D01*
X9678214Y-9759500D01*
X9706786Y-9745214D01*
X9763929Y-9745214D01*
X9792500Y-9759500D01*
X9806786Y-9788072D01*
X9806786Y-9816643D01*
X9663929Y-9845214D01*
X9921071Y-9930929D02*
X9949643Y-9945214D01*
X10006786Y-9945214D01*
X10035357Y-9930929D01*
X10049643Y-9902357D01*
X10049643Y-9888072D01*
X10035357Y-9859500D01*
X10006786Y-9845214D01*
X9963929Y-9845214D01*
X9935357Y-9830929D01*
X9921071Y-9802357D01*
X9921071Y-9788072D01*
X9935357Y-9759500D01*
X9963929Y-9745214D01*
X10006786Y-9745214D01*
X10035357Y-9759500D01*
X10149643Y-10059500D02*
X10163929Y-10045214D01*
X10192500Y-10002357D01*
X10206786Y-9973786D01*
X10221071Y-9930929D01*
X10235357Y-9859500D01*
X10235357Y-9802357D01*
X10221071Y-9730929D01*
X10206786Y-9688072D01*
X10192500Y-9659500D01*
X10163929Y-9616643D01*
X10149643Y-9602357D01*
X3373902Y-10250402D02*
X3373902Y-10160598D01*
X3284098Y-10160598D01*
X3284098Y-10250402D01*
X3373902Y-10250402D01*
X3821071Y-10341214D02*
X3649643Y-10341214D01*
X3735357Y-10341214D02*
X3735357Y-10041214D01*
X3706786Y-10084072D01*
X3678214Y-10112643D01*
X3649643Y-10126929D01*
X3949643Y-10312643D02*
X3963928Y-10326929D01*
X3949643Y-10341214D01*
X3935357Y-10326929D01*
X3949643Y-10312643D01*
X3949643Y-10341214D01*
X4078214Y-10069786D02*
X4092500Y-10055500D01*
X4121071Y-10041214D01*
X4192500Y-10041214D01*
X4221071Y-10055500D01*
X4235357Y-10069786D01*
X4249643Y-10098357D01*
X4249643Y-10126929D01*
X4235357Y-10169786D01*
X4063928Y-10341214D01*
X4249643Y-10341214D01*
X4349643Y-10041214D02*
X4549643Y-10041214D01*
X4421071Y-10341214D01*
X4663929Y-10341214D02*
X4663929Y-10141214D01*
X4663929Y-10169786D02*
X4678214Y-10155500D01*
X4706786Y-10141214D01*
X4749643Y-10141214D01*
X4778214Y-10155500D01*
X4792500Y-10184072D01*
X4792500Y-10341214D01*
X4792500Y-10184072D02*
X4806786Y-10155500D01*
X4835357Y-10141214D01*
X4878214Y-10141214D01*
X4906786Y-10155500D01*
X4921071Y-10184072D01*
X4921071Y-10341214D01*
X5063929Y-10341214D02*
X5063929Y-10141214D01*
X5063929Y-10169786D02*
X5078214Y-10155500D01*
X5106786Y-10141214D01*
X5149643Y-10141214D01*
X5178214Y-10155500D01*
X5192500Y-10184072D01*
X5192500Y-10341214D01*
X5192500Y-10184072D02*
X5206786Y-10155500D01*
X5235357Y-10141214D01*
X5278214Y-10141214D01*
X5306786Y-10155500D01*
X5321071Y-10184072D01*
X5321071Y-10341214D01*
X5906786Y-10026929D02*
X5649643Y-10412643D01*
X6292500Y-10041214D02*
X6321071Y-10041214D01*
X6349643Y-10055500D01*
X6363928Y-10069786D01*
X6378214Y-10098357D01*
X6392500Y-10155500D01*
X6392500Y-10226929D01*
X6378214Y-10284072D01*
X6363928Y-10312643D01*
X6349643Y-10326929D01*
X6321071Y-10341214D01*
X6292500Y-10341214D01*
X6263928Y-10326929D01*
X6249643Y-10312643D01*
X6235357Y-10284072D01*
X6221071Y-10226929D01*
X6221071Y-10155500D01*
X6235357Y-10098357D01*
X6249643Y-10069786D01*
X6263928Y-10055500D01*
X6292500Y-10041214D01*
X6521071Y-10312643D02*
X6535357Y-10326929D01*
X6521071Y-10341214D01*
X6506786Y-10326929D01*
X6521071Y-10312643D01*
X6521071Y-10341214D01*
X6721071Y-10041214D02*
X6749643Y-10041214D01*
X6778214Y-10055500D01*
X6792500Y-10069786D01*
X6806785Y-10098357D01*
X6821071Y-10155500D01*
X6821071Y-10226929D01*
X6806785Y-10284072D01*
X6792500Y-10312643D01*
X6778214Y-10326929D01*
X6749643Y-10341214D01*
X6721071Y-10341214D01*
X6692500Y-10326929D01*
X6678214Y-10312643D01*
X6663928Y-10284072D01*
X6649643Y-10226929D01*
X6649643Y-10155500D01*
X6663928Y-10098357D01*
X6678214Y-10069786D01*
X6692500Y-10055500D01*
X6721071Y-10041214D01*
X7092500Y-10041214D02*
X6949643Y-10041214D01*
X6935357Y-10184072D01*
X6949643Y-10169786D01*
X6978214Y-10155500D01*
X7049643Y-10155500D01*
X7078214Y-10169786D01*
X7092500Y-10184072D01*
X7106785Y-10212643D01*
X7106785Y-10284072D01*
X7092500Y-10312643D01*
X7078214Y-10326929D01*
X7049643Y-10341214D01*
X6978214Y-10341214D01*
X6949643Y-10326929D01*
X6935357Y-10312643D01*
X7292500Y-10041214D02*
X7321071Y-10041214D01*
X7349643Y-10055500D01*
X7363928Y-10069786D01*
X7378214Y-10098357D01*
X7392500Y-10155500D01*
X7392500Y-10226929D01*
X7378214Y-10284072D01*
X7363928Y-10312643D01*
X7349643Y-10326929D01*
X7321071Y-10341214D01*
X7292500Y-10341214D01*
X7263928Y-10326929D01*
X7249643Y-10312643D01*
X7235357Y-10284072D01*
X7221071Y-10226929D01*
X7221071Y-10155500D01*
X7235357Y-10098357D01*
X7249643Y-10069786D01*
X7263928Y-10055500D01*
X7292500Y-10041214D01*
X7506786Y-10041214D02*
X7506786Y-10098357D01*
X7621071Y-10041214D02*
X7621071Y-10098357D01*
X8063928Y-10455500D02*
X8049643Y-10441214D01*
X8021071Y-10398357D01*
X8006785Y-10369786D01*
X7992500Y-10326929D01*
X7978214Y-10255500D01*
X7978214Y-10198357D01*
X7992500Y-10126929D01*
X8006785Y-10084072D01*
X8021071Y-10055500D01*
X8049643Y-10012643D01*
X8063928Y-9998357D01*
X8163928Y-10069786D02*
X8178214Y-10055500D01*
X8206785Y-10041214D01*
X8278214Y-10041214D01*
X8306785Y-10055500D01*
X8321071Y-10069786D01*
X8335357Y-10098357D01*
X8335357Y-10126929D01*
X8321071Y-10169786D01*
X8149643Y-10341214D01*
X8335357Y-10341214D01*
X8692500Y-10341214D02*
X8692500Y-10041214D01*
X8821071Y-10341214D02*
X8821071Y-10184072D01*
X8806786Y-10155500D01*
X8778214Y-10141214D01*
X8735357Y-10141214D01*
X8706786Y-10155500D01*
X8692500Y-10169786D01*
X9006786Y-10341214D02*
X8978214Y-10326929D01*
X8963928Y-10312643D01*
X8949643Y-10284072D01*
X8949643Y-10198357D01*
X8963928Y-10169786D01*
X8978214Y-10155500D01*
X9006786Y-10141214D01*
X9049643Y-10141214D01*
X9078214Y-10155500D01*
X9092500Y-10169786D01*
X9106786Y-10198357D01*
X9106786Y-10284072D01*
X9092500Y-10312643D01*
X9078214Y-10326929D01*
X9049643Y-10341214D01*
X9006786Y-10341214D01*
X9278214Y-10341214D02*
X9249643Y-10326929D01*
X9235357Y-10298357D01*
X9235357Y-10041214D01*
X9506786Y-10326929D02*
X9478214Y-10341214D01*
X9421071Y-10341214D01*
X9392500Y-10326929D01*
X9378214Y-10298357D01*
X9378214Y-10184072D01*
X9392500Y-10155500D01*
X9421071Y-10141214D01*
X9478214Y-10141214D01*
X9506786Y-10155500D01*
X9521071Y-10184072D01*
X9521071Y-10212643D01*
X9378214Y-10241214D01*
X9635357Y-10326929D02*
X9663929Y-10341214D01*
X9721071Y-10341214D01*
X9749643Y-10326929D01*
X9763929Y-10298357D01*
X9763929Y-10284072D01*
X9749643Y-10255500D01*
X9721071Y-10241214D01*
X9678214Y-10241214D01*
X9649643Y-10226929D01*
X9635357Y-10198357D01*
X9635357Y-10184072D01*
X9649643Y-10155500D01*
X9678214Y-10141214D01*
X9721071Y-10141214D01*
X9749643Y-10155500D01*
X9863928Y-10455500D02*
X9878214Y-10441214D01*
X9906786Y-10398357D01*
X9921071Y-10369786D01*
X9935357Y-10326929D01*
X9949643Y-10255500D01*
X9949643Y-10198357D01*
X9935357Y-10126929D01*
X9921071Y-10084072D01*
X9906786Y-10055500D01*
X9878214Y-10012643D01*
X9863928Y-9998357D01*
X3302500Y-10691500D02*
X3392500Y-10601500D01*
X3302500Y-10511500D01*
X3212500Y-10601500D01*
X3302500Y-10691500D01*
X3821071Y-10737214D02*
X3649643Y-10737214D01*
X3735357Y-10737214D02*
X3735357Y-10437214D01*
X3706786Y-10480072D01*
X3678214Y-10508643D01*
X3649643Y-10522929D01*
X3949643Y-10708643D02*
X3963928Y-10722929D01*
X3949643Y-10737214D01*
X3935357Y-10722929D01*
X3949643Y-10708643D01*
X3949643Y-10737214D01*
X4135357Y-10565786D02*
X4106786Y-10551500D01*
X4092500Y-10537214D01*
X4078214Y-10508643D01*
X4078214Y-10494357D01*
X4092500Y-10465786D01*
X4106786Y-10451500D01*
X4135357Y-10437214D01*
X4192500Y-10437214D01*
X4221071Y-10451500D01*
X4235357Y-10465786D01*
X4249643Y-10494357D01*
X4249643Y-10508643D01*
X4235357Y-10537214D01*
X4221071Y-10551500D01*
X4192500Y-10565786D01*
X4135357Y-10565786D01*
X4106786Y-10580072D01*
X4092500Y-10594357D01*
X4078214Y-10622929D01*
X4078214Y-10680072D01*
X4092500Y-10708643D01*
X4106786Y-10722929D01*
X4135357Y-10737214D01*
X4192500Y-10737214D01*
X4221071Y-10722929D01*
X4235357Y-10708643D01*
X4249643Y-10680072D01*
X4249643Y-10622929D01*
X4235357Y-10594357D01*
X4221071Y-10580072D01*
X4192500Y-10565786D01*
X4435357Y-10437214D02*
X4463929Y-10437214D01*
X4492500Y-10451500D01*
X4506786Y-10465786D01*
X4521071Y-10494357D01*
X4535357Y-10551500D01*
X4535357Y-10622929D01*
X4521071Y-10680072D01*
X4506786Y-10708643D01*
X4492500Y-10722929D01*
X4463929Y-10737214D01*
X4435357Y-10737214D01*
X4406786Y-10722929D01*
X4392500Y-10708643D01*
X4378214Y-10680072D01*
X4363929Y-10622929D01*
X4363929Y-10551500D01*
X4378214Y-10494357D01*
X4392500Y-10465786D01*
X4406786Y-10451500D01*
X4435357Y-10437214D01*
X4663929Y-10737214D02*
X4663929Y-10537214D01*
X4663929Y-10565786D02*
X4678214Y-10551500D01*
X4706786Y-10537214D01*
X4749643Y-10537214D01*
X4778214Y-10551500D01*
X4792500Y-10580072D01*
X4792500Y-10737214D01*
X4792500Y-10580072D02*
X4806786Y-10551500D01*
X4835357Y-10537214D01*
X4878214Y-10537214D01*
X4906786Y-10551500D01*
X4921071Y-10580072D01*
X4921071Y-10737214D01*
X5063929Y-10737214D02*
X5063929Y-10537214D01*
X5063929Y-10565786D02*
X5078214Y-10551500D01*
X5106786Y-10537214D01*
X5149643Y-10537214D01*
X5178214Y-10551500D01*
X5192500Y-10580072D01*
X5192500Y-10737214D01*
X5192500Y-10580072D02*
X5206786Y-10551500D01*
X5235357Y-10537214D01*
X5278214Y-10537214D01*
X5306786Y-10551500D01*
X5321071Y-10580072D01*
X5321071Y-10737214D01*
X5906786Y-10422929D02*
X5649643Y-10808643D01*
X6292500Y-10437214D02*
X6321071Y-10437214D01*
X6349643Y-10451500D01*
X6363928Y-10465786D01*
X6378214Y-10494357D01*
X6392500Y-10551500D01*
X6392500Y-10622929D01*
X6378214Y-10680072D01*
X6363928Y-10708643D01*
X6349643Y-10722929D01*
X6321071Y-10737214D01*
X6292500Y-10737214D01*
X6263928Y-10722929D01*
X6249643Y-10708643D01*
X6235357Y-10680072D01*
X6221071Y-10622929D01*
X6221071Y-10551500D01*
X6235357Y-10494357D01*
X6249643Y-10465786D01*
X6263928Y-10451500D01*
X6292500Y-10437214D01*
X6521071Y-10708643D02*
X6535357Y-10722929D01*
X6521071Y-10737214D01*
X6506786Y-10722929D01*
X6521071Y-10708643D01*
X6521071Y-10737214D01*
X6721071Y-10437214D02*
X6749643Y-10437214D01*
X6778214Y-10451500D01*
X6792500Y-10465786D01*
X6806785Y-10494357D01*
X6821071Y-10551500D01*
X6821071Y-10622929D01*
X6806785Y-10680072D01*
X6792500Y-10708643D01*
X6778214Y-10722929D01*
X6749643Y-10737214D01*
X6721071Y-10737214D01*
X6692500Y-10722929D01*
X6678214Y-10708643D01*
X6663928Y-10680072D01*
X6649643Y-10622929D01*
X6649643Y-10551500D01*
X6663928Y-10494357D01*
X6678214Y-10465786D01*
X6692500Y-10451500D01*
X6721071Y-10437214D01*
X6921071Y-10437214D02*
X7121071Y-10437214D01*
X6992500Y-10737214D01*
X7392500Y-10737214D02*
X7221071Y-10737214D01*
X7306785Y-10737214D02*
X7306785Y-10437214D01*
X7278214Y-10480072D01*
X7249643Y-10508643D01*
X7221071Y-10522929D01*
X7506786Y-10437214D02*
X7506786Y-10494357D01*
X7621071Y-10437214D02*
X7621071Y-10494357D01*
X8063928Y-10851500D02*
X8049643Y-10837214D01*
X8021071Y-10794357D01*
X8006785Y-10765786D01*
X7992500Y-10722929D01*
X7978214Y-10651500D01*
X7978214Y-10594357D01*
X7992500Y-10522929D01*
X8006785Y-10480072D01*
X8021071Y-10451500D01*
X8049643Y-10408643D01*
X8063928Y-10394357D01*
X8306785Y-10437214D02*
X8249643Y-10437214D01*
X8221071Y-10451500D01*
X8206785Y-10465786D01*
X8178214Y-10508643D01*
X8163928Y-10565786D01*
X8163928Y-10680072D01*
X8178214Y-10708643D01*
X8192500Y-10722929D01*
X8221071Y-10737214D01*
X8278214Y-10737214D01*
X8306785Y-10722929D01*
X8321071Y-10708643D01*
X8335357Y-10680072D01*
X8335357Y-10608643D01*
X8321071Y-10580072D01*
X8306785Y-10565786D01*
X8278214Y-10551500D01*
X8221071Y-10551500D01*
X8192500Y-10565786D01*
X8178214Y-10580072D01*
X8163928Y-10608643D01*
X8692500Y-10737214D02*
X8692500Y-10437214D01*
X8821071Y-10737214D02*
X8821071Y-10580072D01*
X8806786Y-10551500D01*
X8778214Y-10537214D01*
X8735357Y-10537214D01*
X8706786Y-10551500D01*
X8692500Y-10565786D01*
X9006786Y-10737214D02*
X8978214Y-10722929D01*
X8963928Y-10708643D01*
X8949643Y-10680072D01*
X8949643Y-10594357D01*
X8963928Y-10565786D01*
X8978214Y-10551500D01*
X9006786Y-10537214D01*
X9049643Y-10537214D01*
X9078214Y-10551500D01*
X9092500Y-10565786D01*
X9106786Y-10594357D01*
X9106786Y-10680072D01*
X9092500Y-10708643D01*
X9078214Y-10722929D01*
X9049643Y-10737214D01*
X9006786Y-10737214D01*
X9278214Y-10737214D02*
X9249643Y-10722929D01*
X9235357Y-10694357D01*
X9235357Y-10437214D01*
X9506786Y-10722929D02*
X9478214Y-10737214D01*
X9421071Y-10737214D01*
X9392500Y-10722929D01*
X9378214Y-10694357D01*
X9378214Y-10580072D01*
X9392500Y-10551500D01*
X9421071Y-10537214D01*
X9478214Y-10537214D01*
X9506786Y-10551500D01*
X9521071Y-10580072D01*
X9521071Y-10608643D01*
X9378214Y-10637214D01*
X9635357Y-10722929D02*
X9663929Y-10737214D01*
X9721071Y-10737214D01*
X9749643Y-10722929D01*
X9763929Y-10694357D01*
X9763929Y-10680072D01*
X9749643Y-10651500D01*
X9721071Y-10637214D01*
X9678214Y-10637214D01*
X9649643Y-10622929D01*
X9635357Y-10594357D01*
X9635357Y-10580072D01*
X9649643Y-10551500D01*
X9678214Y-10537214D01*
X9721071Y-10537214D01*
X9749643Y-10551500D01*
X9863928Y-10851500D02*
X9878214Y-10837214D01*
X9906786Y-10794357D01*
X9921071Y-10765786D01*
X9935357Y-10722929D01*
X9949643Y-10651500D01*
X9949643Y-10594357D01*
X9935357Y-10522929D01*
X9921071Y-10480072D01*
X9906786Y-10451500D01*
X9878214Y-10408643D01*
X9863928Y-10394357D01*
X3138500Y-10870500D02*
X3392500Y-11124500D01*
X3392500Y-10870500D02*
X3138500Y-11124500D01*
X3392500Y-10997500D02*
G75*
G03X3392500Y-10997500I-127000J0D01*
G01*
X3649643Y-10861786D02*
X3663928Y-10847500D01*
X3692500Y-10833214D01*
X3763928Y-10833214D01*
X3792500Y-10847500D01*
X3806786Y-10861786D01*
X3821071Y-10890357D01*
X3821071Y-10918929D01*
X3806786Y-10961786D01*
X3635357Y-11133214D01*
X3821071Y-11133214D01*
X3949643Y-11104643D02*
X3963928Y-11118929D01*
X3949643Y-11133214D01*
X3935357Y-11118929D01*
X3949643Y-11104643D01*
X3949643Y-11133214D01*
X4235357Y-10833214D02*
X4092500Y-10833214D01*
X4078214Y-10976072D01*
X4092500Y-10961786D01*
X4121071Y-10947500D01*
X4192500Y-10947500D01*
X4221071Y-10961786D01*
X4235357Y-10976072D01*
X4249643Y-11004643D01*
X4249643Y-11076072D01*
X4235357Y-11104643D01*
X4221071Y-11118929D01*
X4192500Y-11133214D01*
X4121071Y-11133214D01*
X4092500Y-11118929D01*
X4078214Y-11104643D01*
X4506786Y-10933214D02*
X4506786Y-11133214D01*
X4435357Y-10818929D02*
X4363929Y-11033214D01*
X4549643Y-11033214D01*
X4663929Y-11133214D02*
X4663929Y-10933214D01*
X4663929Y-10961786D02*
X4678214Y-10947500D01*
X4706786Y-10933214D01*
X4749643Y-10933214D01*
X4778214Y-10947500D01*
X4792500Y-10976072D01*
X4792500Y-11133214D01*
X4792500Y-10976072D02*
X4806786Y-10947500D01*
X4835357Y-10933214D01*
X4878214Y-10933214D01*
X4906786Y-10947500D01*
X4921071Y-10976072D01*
X4921071Y-11133214D01*
X5063929Y-11133214D02*
X5063929Y-10933214D01*
X5063929Y-10961786D02*
X5078214Y-10947500D01*
X5106786Y-10933214D01*
X5149643Y-10933214D01*
X5178214Y-10947500D01*
X5192500Y-10976072D01*
X5192500Y-11133214D01*
X5192500Y-10976072D02*
X5206786Y-10947500D01*
X5235357Y-10933214D01*
X5278214Y-10933214D01*
X5306786Y-10947500D01*
X5321071Y-10976072D01*
X5321071Y-11133214D01*
X5906786Y-10818929D02*
X5649643Y-11204643D01*
X6292500Y-10833214D02*
X6321071Y-10833214D01*
X6349643Y-10847500D01*
X6363928Y-10861786D01*
X6378214Y-10890357D01*
X6392500Y-10947500D01*
X6392500Y-11018929D01*
X6378214Y-11076072D01*
X6363928Y-11104643D01*
X6349643Y-11118929D01*
X6321071Y-11133214D01*
X6292500Y-11133214D01*
X6263928Y-11118929D01*
X6249643Y-11104643D01*
X6235357Y-11076072D01*
X6221071Y-11018929D01*
X6221071Y-10947500D01*
X6235357Y-10890357D01*
X6249643Y-10861786D01*
X6263928Y-10847500D01*
X6292500Y-10833214D01*
X6521071Y-11104643D02*
X6535357Y-11118929D01*
X6521071Y-11133214D01*
X6506786Y-11118929D01*
X6521071Y-11104643D01*
X6521071Y-11133214D01*
X6821071Y-11133214D02*
X6649643Y-11133214D01*
X6735357Y-11133214D02*
X6735357Y-10833214D01*
X6706785Y-10876072D01*
X6678214Y-10904643D01*
X6649643Y-10918929D01*
X7006785Y-10833214D02*
X7035357Y-10833214D01*
X7063928Y-10847500D01*
X7078214Y-10861786D01*
X7092500Y-10890357D01*
X7106785Y-10947500D01*
X7106785Y-11018929D01*
X7092500Y-11076072D01*
X7078214Y-11104643D01*
X7063928Y-11118929D01*
X7035357Y-11133214D01*
X7006785Y-11133214D01*
X6978214Y-11118929D01*
X6963928Y-11104643D01*
X6949643Y-11076072D01*
X6935357Y-11018929D01*
X6935357Y-10947500D01*
X6949643Y-10890357D01*
X6963928Y-10861786D01*
X6978214Y-10847500D01*
X7006785Y-10833214D01*
X7292500Y-10833214D02*
X7321071Y-10833214D01*
X7349643Y-10847500D01*
X7363928Y-10861786D01*
X7378214Y-10890357D01*
X7392500Y-10947500D01*
X7392500Y-11018929D01*
X7378214Y-11076072D01*
X7363928Y-11104643D01*
X7349643Y-11118929D01*
X7321071Y-11133214D01*
X7292500Y-11133214D01*
X7263928Y-11118929D01*
X7249643Y-11104643D01*
X7235357Y-11076072D01*
X7221071Y-11018929D01*
X7221071Y-10947500D01*
X7235357Y-10890357D01*
X7249643Y-10861786D01*
X7263928Y-10847500D01*
X7292500Y-10833214D01*
X7506786Y-10833214D02*
X7506786Y-10890357D01*
X7621071Y-10833214D02*
X7621071Y-10890357D01*
X8063928Y-11247500D02*
X8049643Y-11233214D01*
X8021071Y-11190357D01*
X8006785Y-11161786D01*
X7992500Y-11118929D01*
X7978214Y-11047500D01*
X7978214Y-10990357D01*
X7992500Y-10918929D01*
X8006785Y-10876072D01*
X8021071Y-10847500D01*
X8049643Y-10804643D01*
X8063928Y-10790357D01*
X8306785Y-10933214D02*
X8306785Y-11133214D01*
X8235357Y-10818929D02*
X8163928Y-11033214D01*
X8349643Y-11033214D01*
X8692500Y-11133214D02*
X8692500Y-10833214D01*
X8821071Y-11133214D02*
X8821071Y-10976072D01*
X8806786Y-10947500D01*
X8778214Y-10933214D01*
X8735357Y-10933214D01*
X8706786Y-10947500D01*
X8692500Y-10961786D01*
X9006786Y-11133214D02*
X8978214Y-11118929D01*
X8963928Y-11104643D01*
X8949643Y-11076072D01*
X8949643Y-10990357D01*
X8963928Y-10961786D01*
X8978214Y-10947500D01*
X9006786Y-10933214D01*
X9049643Y-10933214D01*
X9078214Y-10947500D01*
X9092500Y-10961786D01*
X9106786Y-10990357D01*
X9106786Y-11076072D01*
X9092500Y-11104643D01*
X9078214Y-11118929D01*
X9049643Y-11133214D01*
X9006786Y-11133214D01*
X9278214Y-11133214D02*
X9249643Y-11118929D01*
X9235357Y-11090357D01*
X9235357Y-10833214D01*
X9506786Y-11118929D02*
X9478214Y-11133214D01*
X9421071Y-11133214D01*
X9392500Y-11118929D01*
X9378214Y-11090357D01*
X9378214Y-10976072D01*
X9392500Y-10947500D01*
X9421071Y-10933214D01*
X9478214Y-10933214D01*
X9506786Y-10947500D01*
X9521071Y-10976072D01*
X9521071Y-11004643D01*
X9378214Y-11033214D01*
X9635357Y-11118929D02*
X9663929Y-11133214D01*
X9721071Y-11133214D01*
X9749643Y-11118929D01*
X9763929Y-11090357D01*
X9763929Y-11076072D01*
X9749643Y-11047500D01*
X9721071Y-11033214D01*
X9678214Y-11033214D01*
X9649643Y-11018929D01*
X9635357Y-10990357D01*
X9635357Y-10976072D01*
X9649643Y-10947500D01*
X9678214Y-10933214D01*
X9721071Y-10933214D01*
X9749643Y-10947500D01*
X9863928Y-11247500D02*
X9878214Y-11233214D01*
X9906786Y-11190357D01*
X9921071Y-11161786D01*
X9935357Y-11118929D01*
X9949643Y-11047500D01*
X9949643Y-10990357D01*
X9935357Y-10918929D01*
X9921071Y-10876072D01*
X9906786Y-10847500D01*
X9878214Y-10804643D01*
X9863928Y-10790357D01*
M02*
