G04 #@! TF.FileFunction,Soldermask,Top*
%FSLAX46Y46*%
G04 Gerber Fmt 4.6, Leading zero omitted, Abs format (unit mm)*
G04 Created by KiCad (PCBNEW 0.201501310101+5397~21~ubuntu14.10.1-product) date Wednesday 04 February 2015 12:00:38 AM IST*
%MOMM*%
G01*
G04 APERTURE LIST*
%ADD10C,0.100000*%
%ADD11C,3.200000*%
%ADD12R,1.924000X1.924000*%
%ADD13C,1.924000*%
%ADD14R,1.466800X1.822400*%
%ADD15R,1.822400X1.466800*%
%ADD16C,2.076400*%
%ADD17R,1.600000X1.600000*%
%ADD18R,3.400000X2.200000*%
%ADD19R,1.898600X1.700480*%
%ADD20R,1.700480X1.898600*%
%ADD21C,3.448000*%
%ADD22R,1.900000X1.400000*%
%ADD23R,1.300000X0.800000*%
%ADD24R,1.771600X0.806400*%
%ADD25R,1.822400X2.000200*%
%ADD26R,2.305000X2.305000*%
%ADD27C,2.305000*%
%ADD28R,1.550000X1.000000*%
G04 APERTURE END LIST*
D10*
D11*
X98000000Y-47460000D03*
X98000000Y-52540000D03*
X105620000Y-50000000D03*
X50000000Y-52540000D03*
X50000000Y-47460000D03*
X42380000Y-50000000D03*
D12*
X93270000Y-79000000D03*
D13*
X90730000Y-79000000D03*
D12*
X93270000Y-54000000D03*
D13*
X90730000Y-54000000D03*
D12*
X57730000Y-75000000D03*
D13*
X60270000Y-75000000D03*
D12*
X93270000Y-71000000D03*
D13*
X90730000Y-71000000D03*
D12*
X57730000Y-50000000D03*
D13*
X60270000Y-50000000D03*
D12*
X57730000Y-52540000D03*
D13*
X60270000Y-52540000D03*
X108000000Y-57000000D03*
X108000000Y-43000000D03*
X40000000Y-43000000D03*
X40000000Y-57000000D03*
D14*
X69484000Y-54500000D03*
X71516000Y-54500000D03*
D15*
X87900000Y-53016000D03*
X87900000Y-50984000D03*
D14*
X69484000Y-49500000D03*
X71516000Y-49500000D03*
D15*
X74500000Y-53016000D03*
X74500000Y-50984000D03*
D16*
X94000000Y-76270000D03*
X94000000Y-73730000D03*
X84000000Y-76270000D03*
X84000000Y-73730000D03*
X74000000Y-76270000D03*
X74000000Y-73730000D03*
X64000000Y-76270000D03*
X64000000Y-73730000D03*
X54000000Y-76270000D03*
X54000000Y-73730000D03*
X44000000Y-76270000D03*
X44000000Y-73730000D03*
D17*
X102950000Y-75000000D03*
X105050000Y-75000000D03*
D18*
X66000000Y-53500000D03*
X66000000Y-50500000D03*
D12*
X80350000Y-60000000D03*
D13*
X77810000Y-60000000D03*
X75270000Y-60000000D03*
X72730000Y-60000000D03*
X70190000Y-60000000D03*
X67650000Y-60000000D03*
D19*
X64100000Y-58047500D03*
X64100000Y-59952500D03*
D20*
X85652500Y-46200000D03*
X83747500Y-46200000D03*
X85652500Y-48500000D03*
X83747500Y-48500000D03*
D21*
X36500000Y-59500000D03*
X111500000Y-40500000D03*
X111500000Y-59500000D03*
X36500000Y-40500000D03*
D22*
X91500000Y-57800000D03*
X91500000Y-60200000D03*
X86500000Y-57800000D03*
X86500000Y-60200000D03*
D23*
X71600000Y-52650000D03*
X71600000Y-51350000D03*
X71600000Y-52000000D03*
X69400000Y-51350000D03*
X69400000Y-52000000D03*
X69400000Y-52650000D03*
D12*
X71040000Y-39230000D03*
D13*
X71040000Y-41770000D03*
X68500000Y-39230000D03*
X68500000Y-41770000D03*
X65960000Y-39230000D03*
X65960000Y-41770000D03*
D24*
X109900000Y-50000000D03*
X109900000Y-49349760D03*
X109900000Y-48699520D03*
X109900000Y-50650240D03*
X109900000Y-51300480D03*
D25*
X110154000Y-53175000D03*
X110154000Y-46825000D03*
D26*
X112567000Y-51206500D03*
X112567000Y-48793500D03*
D27*
X112570000Y-53300000D03*
X112570000Y-46700000D03*
D12*
X57730000Y-47460000D03*
D13*
X60270000Y-47460000D03*
D12*
X93270000Y-46000000D03*
D13*
X90730000Y-46000000D03*
D12*
X93270000Y-40000000D03*
D13*
X90730000Y-40000000D03*
D12*
X57730000Y-72460000D03*
D13*
X60270000Y-72460000D03*
D12*
X57730000Y-77540000D03*
D13*
X60270000Y-77540000D03*
D19*
X83900000Y-58047500D03*
X83900000Y-59952500D03*
D22*
X61500000Y-57800000D03*
X61500000Y-60200000D03*
X56500000Y-57800000D03*
X56500000Y-60200000D03*
D28*
X80300000Y-51050000D03*
X80300000Y-52950000D03*
X80300000Y-52000000D03*
X83100000Y-52950000D03*
X83100000Y-51050000D03*
M02*
