G04 #@! TF.GenerationSoftware,KiCad,Pcbnew,5.0.0-84427f4~65~ubuntu16.04.1*
G04 #@! TF.CreationDate,2018-07-15T21:07:02+05:30*
G04 #@! TF.ProjectId,bebl_v2,6265626C5F76322E6B696361645F7063,rev?*
G04 #@! TF.SameCoordinates,Original*
G04 #@! TF.FileFunction,Paste,Top*
G04 #@! TF.FilePolarity,Positive*
%FSLAX46Y46*%
G04 Gerber Fmt 4.6, Leading zero omitted, Abs format (unit mm)*
G04 Created by KiCad (PCBNEW 5.0.0-84427f4~65~ubuntu16.04.1) date Sun Jul 15 21:07:02 2018*
%MOMM*%
%LPD*%
G01*
G04 APERTURE LIST*
%ADD10C,0.150000*%
%ADD11R,1.066800X1.422400*%
%ADD12R,1.422400X1.066800*%
%ADD13R,1.200000X1.200000*%
%ADD14R,3.000000X1.800000*%
%ADD15R,1.498600X1.300480*%
%ADD16R,1.300480X1.498600*%
%ADD17R,1.500000X1.000000*%
%ADD18R,0.900000X0.400000*%
%ADD19R,1.150000X0.600000*%
%ADD20R,1.350000X0.400000*%
%ADD21R,1.400000X1.600000*%
%ADD22O,2.150000X1.050000*%
G04 APERTURE END LIST*
D10*
X73500000Y-69500000D02*
X74500000Y-69500000D01*
X73500000Y-62000000D02*
X74500000Y-62000000D01*
X74500000Y-69500000D02*
X106500000Y-69500000D01*
X73500000Y-69500000D02*
X41500000Y-69500000D01*
X111000000Y-79000000D02*
X111000000Y-71000000D01*
X41500000Y-80500000D02*
X106500000Y-80500000D01*
X37000000Y-71000000D02*
X37000000Y-79000000D01*
X109500000Y-80500000D02*
G75*
G03X111000000Y-79000000I0J1500000D01*
G01*
X111000000Y-71000000D02*
G75*
G03X109500000Y-69500000I-1500000J0D01*
G01*
X37000000Y-79000000D02*
G75*
G03X38500000Y-80500000I1500000J0D01*
G01*
X38500000Y-69500000D02*
G75*
G03X37000000Y-71000000I0J-1500000D01*
G01*
X109500000Y-80500000D02*
G75*
G03X108000000Y-79000000I-1500000J0D01*
G01*
X108000000Y-79000000D02*
G75*
G03X106500000Y-80500000I0J-1500000D01*
G01*
X108000000Y-71000000D02*
G75*
G03X109500000Y-69500000I0J1500000D01*
G01*
X106500000Y-69500000D02*
G75*
G03X108000000Y-71000000I1500000J0D01*
G01*
X41500000Y-80500000D02*
G75*
G03X40000000Y-79000000I-1500000J0D01*
G01*
X40000000Y-79000000D02*
G75*
G03X38500000Y-80500000I0J-1500000D01*
G01*
X38500000Y-69500000D02*
G75*
G03X40000000Y-71000000I1500000J0D01*
G01*
X40000000Y-71000000D02*
G75*
G03X41500000Y-69500000I0J1500000D01*
G01*
X111500000Y-38000000D02*
X36500000Y-38000000D01*
X114000000Y-59500000D02*
X114000000Y-40500000D01*
X74500000Y-62000000D02*
X111500000Y-62000000D01*
X36500000Y-62000000D02*
X73500000Y-62000000D01*
X34000000Y-40500000D02*
X34000000Y-59500000D01*
X36500000Y-38000000D02*
G75*
G03X34000000Y-40500000I0J-2500000D01*
G01*
X34000000Y-59500000D02*
G75*
G03X36500000Y-62000000I2500000J0D01*
G01*
X111500000Y-62000000D02*
G75*
G03X114000000Y-59500000I0J2500000D01*
G01*
X114000000Y-40500000D02*
G75*
G03X111500000Y-38000000I-2500000J0D01*
G01*
D11*
G04 #@! TO.C,C7*
X69484000Y-54500000D03*
X71516000Y-54500000D03*
G04 #@! TD*
D12*
G04 #@! TO.C,C5*
X87900000Y-53016000D03*
X87900000Y-50984000D03*
G04 #@! TD*
D11*
G04 #@! TO.C,C8*
X69484000Y-49500000D03*
X71516000Y-49500000D03*
G04 #@! TD*
D12*
G04 #@! TO.C,C6*
X74500000Y-53016000D03*
X74500000Y-50984000D03*
G04 #@! TD*
D13*
G04 #@! TO.C,D1*
X102950000Y-75000000D03*
X105050000Y-75000000D03*
G04 #@! TD*
D14*
G04 #@! TO.C,L1*
X66000000Y-53500000D03*
X66000000Y-50500000D03*
G04 #@! TD*
D15*
G04 #@! TO.C,R4*
X64100000Y-58047500D03*
X64100000Y-59952500D03*
G04 #@! TD*
D16*
G04 #@! TO.C,R5*
X85652500Y-46200000D03*
X83747500Y-46200000D03*
G04 #@! TD*
G04 #@! TO.C,R6*
X85652500Y-48500000D03*
X83747500Y-48500000D03*
G04 #@! TD*
D17*
G04 #@! TO.C,SW1*
X91500000Y-57800000D03*
X91500000Y-60200000D03*
X86500000Y-57800000D03*
X86500000Y-60200000D03*
G04 #@! TD*
D18*
G04 #@! TO.C,U3*
X71600000Y-52650000D03*
X71600000Y-51350000D03*
X71600000Y-52000000D03*
X69400000Y-51350000D03*
X69400000Y-52000000D03*
X69400000Y-52650000D03*
G04 #@! TD*
D15*
G04 #@! TO.C,R1*
X83900000Y-58047500D03*
X83900000Y-59952500D03*
G04 #@! TD*
D17*
G04 #@! TO.C,SW2*
X61500000Y-57800000D03*
X61500000Y-60200000D03*
X56500000Y-57800000D03*
X56500000Y-60200000D03*
G04 #@! TD*
D19*
G04 #@! TO.C,U2*
X80300000Y-51050000D03*
X80300000Y-52950000D03*
X80300000Y-52000000D03*
X83100000Y-52950000D03*
X83100000Y-51050000D03*
G04 #@! TD*
D20*
G04 #@! TO.C,P7*
X109900000Y-50000000D03*
X109900000Y-49350000D03*
X109900000Y-48700000D03*
X109900000Y-50650000D03*
X109900000Y-51300000D03*
D21*
X110325000Y-53200000D03*
X110325000Y-46800000D03*
D22*
X112575000Y-53225000D03*
X112575000Y-46775000D03*
G04 #@! TD*
M02*
